<?xml version="1.0" encoding="utf-8" standalone="no"?>
<!DOCTYPE svg PUBLIC "-//W3C//DTD SVG 1.1//EN"
  "http://www.w3.org/Graphics/SVG/1.1/DTD/svg11.dtd">
<svg xmlns:xlink="http://www.w3.org/1999/xlink" width="508.118059pt" height="379.384091pt" viewBox="0 0 508.118059 379.384091" xmlns="http://www.w3.org/2000/svg" version="1.1">
 <metadata>
  <rdf:RDF xmlns:dc="http://purl.org/dc/elements/1.1/" xmlns:cc="http://creativecommons.org/ns#" xmlns:rdf="http://www.w3.org/1999/02/22-rdf-syntax-ns#">
   <cc:Work>
    <dc:type rdf:resource="http://purl.org/dc/dcmitype/StillImage"/>
    <dc:date>2025-06-03T10:35:16.688023</dc:date>
    <dc:format>image/svg+xml</dc:format>
    <dc:creator>
     <cc:Agent>
      <dc:title>Matplotlib v3.7.1, https://matplotlib.org/</dc:title>
     </cc:Agent>
    </dc:creator>
   </cc:Work>
  </rdf:RDF>
 </metadata>
 <defs>
  <style type="text/css">*{stroke-linejoin: round; stroke-linecap: butt}</style>
 </defs>
 <g id="figure_1">
  <g id="patch_1">
   <path d="M 0 379.384091 
L 508.118059 379.384091 
L 508.118059 0 
L 0 0 
z
" style="fill: #ffffff"/>
  </g>
  <g id="axes_1">
   <g id="patch_2">
    <path d="M 48.540475 339.84 
L 494.940475 339.84 
L 494.940475 7.2 
L 48.540475 7.2 
z
" style="fill: #ffffff"/>
   </g>
   <g id="matplotlib.axis_1">
    <g id="xtick_1">
     <g id="line2d_1">
      <defs>
       <path id="mbf2bc50c45" d="M 0 0 
L 0 -3 
" style="stroke: #000000; stroke-width: 0.5"/>
      </defs>
      <g>
       <use xlink:href="#mbf2bc50c45" x="48.540475" y="339.84" style="stroke: #000000; stroke-width: 0.5"/>
      </g>
     </g>
     <g id="line2d_2">
      <defs>
       <path id="md8f9d275b6" d="M 0 0 
L 0 3 
" style="stroke: #000000; stroke-width: 0.5"/>
      </defs>
      <g>
       <use xlink:href="#md8f9d275b6" x="48.540475" y="7.2" style="stroke: #000000; stroke-width: 0.5"/>
      </g>
     </g>
     <g id="text_1">
      <!-- 0 -->
      <g transform="translate(45.551683 351.893876) scale(0.12 -0.12)">
       <defs>
        <path id="URWPalladioL-Roma-30" d="M 1683 4416 
C 691 4416 186 3628 186 2077 
C 186 1326 320 680 544 366 
C 768 51 1126 -128 1523 -128 
C 2490 -128 2976 705 2976 2346 
C 2976 3749 2560 4416 1683 4416 
z
M 1568 4192 
C 2189 4192 2438 3564 2438 2025 
C 2438 661 2195 96 1606 96 
C 986 96 723 744 723 2308 
C 723 3660 960 4192 1568 4192 
z
" transform="scale(0.015625)"/>
       </defs>
       <use xlink:href="#URWPalladioL-Roma-30" transform="scale(0.996264)"/>
      </g>
     </g>
    </g>
    <g id="xtick_2">
     <g id="line2d_3">
      <g>
       <use xlink:href="#mbf2bc50c45" x="137.820475" y="339.84" style="stroke: #000000; stroke-width: 0.5"/>
      </g>
     </g>
     <g id="line2d_4">
      <g>
       <use xlink:href="#md8f9d275b6" x="137.820475" y="7.2" style="stroke: #000000; stroke-width: 0.5"/>
      </g>
     </g>
     <g id="text_2">
      <!-- 10 -->
      <g transform="translate(131.842891 351.893876) scale(0.12 -0.12)">
       <defs>
        <path id="URWPalladioL-Roma-31" d="M 429 3584 
L 493 3584 
L 1318 3956 
C 1325 3962 1331 3962 1338 3962 
C 1376 3962 1389 3905 1389 3751 
L 1389 613 
C 1389 276 1318 205 973 205 
L 614 205 
L 614 0 
C 1600 0 1600 0 1670 0 
C 1754 0 1894 0 2112 0 
C 2189 0 2413 0 2675 0 
L 2675 205 
L 2342 205 
C 1990 205 1926 276 1926 612 
L 1926 4443 
L 1837 4475 
C 1421 4257 966 4065 384 3860 
L 429 3584 
z
" transform="scale(0.015625)"/>
       </defs>
       <use xlink:href="#URWPalladioL-Roma-31" transform="scale(0.996264)"/>
       <use xlink:href="#URWPalladioL-Roma-30" transform="translate(49.8132 0) scale(0.996264)"/>
      </g>
     </g>
    </g>
    <g id="xtick_3">
     <g id="line2d_5">
      <g>
       <use xlink:href="#mbf2bc50c45" x="227.100475" y="339.84" style="stroke: #000000; stroke-width: 0.5"/>
      </g>
     </g>
     <g id="line2d_6">
      <g>
       <use xlink:href="#md8f9d275b6" x="227.100475" y="7.2" style="stroke: #000000; stroke-width: 0.5"/>
      </g>
     </g>
     <g id="text_3">
      <!-- 20 -->
      <g transform="translate(221.122891 351.893876) scale(0.12 -0.12)">
       <defs>
        <path id="URWPalladioL-Roma-32" d="M 102 160 
L 102 0 
C 1299 0 1299 0 1530 0 
C 1760 0 1760 0 2995 0 
C 2982 125 2982 186 2982 269 
C 2982 348 2982 407 2995 539 
C 2259 539 1965 539 781 539 
L 1946 1761 
C 2566 2414 2758 2763 2758 3238 
C 2758 3966 2259 4416 1446 4416 
C 986 4416 672 4288 358 3969 
L 250 3099 
L 435 3099 
L 518 3393 
C 621 3763 851 3923 1280 3923 
C 1830 3923 2182 3577 2182 3035 
C 2182 2555 1914 2083 1190 1316 
L 102 160 
z
" transform="scale(0.015625)"/>
       </defs>
       <use xlink:href="#URWPalladioL-Roma-32" transform="scale(0.996264)"/>
       <use xlink:href="#URWPalladioL-Roma-30" transform="translate(49.8132 0) scale(0.996264)"/>
      </g>
     </g>
    </g>
    <g id="xtick_4">
     <g id="line2d_7">
      <g>
       <use xlink:href="#mbf2bc50c45" x="316.380475" y="339.84" style="stroke: #000000; stroke-width: 0.5"/>
      </g>
     </g>
     <g id="line2d_8">
      <g>
       <use xlink:href="#md8f9d275b6" x="316.380475" y="7.2" style="stroke: #000000; stroke-width: 0.5"/>
      </g>
     </g>
     <g id="text_4">
      <!-- 30 -->
      <g transform="translate(310.402891 351.893876) scale(0.12 -0.12)">
       <defs>
        <path id="URWPalladioL-Roma-33" d="M 275 3197 
L 474 3197 
L 589 3554 
C 659 3770 1062 3987 1395 3987 
C 1811 3987 2150 3649 2150 3248 
C 2150 2770 1773 2368 1318 2368 
C 1267 2368 1197 2368 1114 2381 
L 1018 2381 
L 941 2047 
L 986 2008 
C 1229 2118 1350 2150 1523 2150 
C 2054 2150 2362 1809 2362 1222 
C 2362 566 1971 135 1376 135 
C 1082 135 819 231 627 411 
C 474 553 390 701 269 1049 
L 96 985 
C 230 593 282 361 320 39 
C 659 -77 941 -128 1178 -128 
C 1690 -128 2278 161 2630 593 
C 2848 857 2957 1140 2957 1442 
C 2957 1751 2829 2022 2598 2182 
C 2438 2298 2291 2350 1971 2407 
C 2483 2803 2675 3096 2675 3472 
C 2675 4040 2202 4416 1491 4416 
C 1056 4416 768 4295 461 3989 
L 275 3197 
z
" transform="scale(0.015625)"/>
       </defs>
       <use xlink:href="#URWPalladioL-Roma-33" transform="scale(0.996264)"/>
       <use xlink:href="#URWPalladioL-Roma-30" transform="translate(49.8132 0) scale(0.996264)"/>
      </g>
     </g>
    </g>
    <g id="xtick_5">
     <g id="line2d_9">
      <g>
       <use xlink:href="#mbf2bc50c45" x="405.660475" y="339.84" style="stroke: #000000; stroke-width: 0.5"/>
      </g>
     </g>
     <g id="line2d_10">
      <g>
       <use xlink:href="#md8f9d275b6" x="405.660475" y="7.2" style="stroke: #000000; stroke-width: 0.5"/>
      </g>
     </g>
     <g id="text_5">
      <!-- 40 -->
      <g transform="translate(399.682891 351.893876) scale(0.12 -0.12)">
       <defs>
        <path id="URWPalladioL-Roma-34" d="M 1792 1152 
L 1792 673 
C 1792 289 1722 199 1408 199 
L 1011 199 
L 1011 0 
C 1862 0 1862 0 2016 0 
C 2170 0 2170 0 3021 0 
L 3021 199 
L 2714 199 
C 2400 199 2330 282 2330 669 
L 2330 1152 
C 2707 1152 2842 1152 3021 1133 
L 3021 1588 
C 2720 1563 2598 1563 2502 1563 
L 2483 1563 
L 2330 1563 
L 2330 2457 
C 2330 3600 2342 4152 2374 4416 
L 2298 4448 
L 1824 4275 
L 13 1299 
L 83 1152 
L 1792 1152 
z
M 1792 1563 
L 416 1563 
L 1792 3826 
L 1792 1563 
z
" transform="scale(0.015625)"/>
       </defs>
       <use xlink:href="#URWPalladioL-Roma-34" transform="scale(0.996264)"/>
       <use xlink:href="#URWPalladioL-Roma-30" transform="translate(49.8132 0) scale(0.996264)"/>
      </g>
     </g>
    </g>
    <g id="xtick_6">
     <g id="line2d_11">
      <g>
       <use xlink:href="#mbf2bc50c45" x="494.940475" y="339.84" style="stroke: #000000; stroke-width: 0.5"/>
      </g>
     </g>
     <g id="line2d_12">
      <g>
       <use xlink:href="#md8f9d275b6" x="494.940475" y="7.2" style="stroke: #000000; stroke-width: 0.5"/>
      </g>
     </g>
     <g id="text_6">
      <!-- 50 -->
      <g transform="translate(488.962891 351.893876) scale(0.12 -0.12)">
       <defs>
        <path id="URWPalladioL-Roma-35" d="M 813 3877 
C 1638 3877 1997 3877 2765 3877 
L 2797 3907 
C 2784 4016 2784 4064 2784 4144 
C 2784 4229 2784 4277 2797 4386 
L 2765 4416 
C 2285 4416 1997 4416 1651 4416 
C 1299 4416 1018 4416 538 4416 
L 506 4403 
C 512 4011 518 3729 518 3523 
C 518 2977 499 2360 480 2077 
L 608 2038 
C 909 2341 1082 2432 1395 2432 
C 2010 2432 2394 1993 2394 1296 
C 2394 580 1984 160 1286 160 
C 941 160 621 277 531 444 
L 237 973 
L 83 883 
C 230 516 307 310 397 27 
C 576 -71 832 -128 1107 -128 
C 1536 -128 1990 59 2342 368 
C 2733 716 2938 1154 2938 1630 
C 2938 2359 2419 2874 1690 2874 
C 1382 2874 1152 2791 755 2554 
L 813 3877 
z
" transform="scale(0.015625)"/>
       </defs>
       <use xlink:href="#URWPalladioL-Roma-35" transform="scale(0.996264)"/>
       <use xlink:href="#URWPalladioL-Roma-30" transform="translate(49.8132 0) scale(0.996264)"/>
      </g>
     </g>
    </g>
    <g id="xtick_7">
     <g id="line2d_13">
      <defs>
       <path id="mda65b55ea3" d="M 0 0 
L 0 -1.5 
" style="stroke: #000000; stroke-width: 0.5"/>
      </defs>
      <g>
       <use xlink:href="#mda65b55ea3" x="66.396475" y="339.84" style="stroke: #000000; stroke-width: 0.5"/>
      </g>
     </g>
     <g id="line2d_14">
      <defs>
       <path id="mbb6a9a7d4a" d="M 0 0 
L 0 1.5 
" style="stroke: #000000; stroke-width: 0.5"/>
      </defs>
      <g>
       <use xlink:href="#mbb6a9a7d4a" x="66.396475" y="7.2" style="stroke: #000000; stroke-width: 0.5"/>
      </g>
     </g>
    </g>
    <g id="xtick_8">
     <g id="line2d_15">
      <g>
       <use xlink:href="#mda65b55ea3" x="84.252475" y="339.84" style="stroke: #000000; stroke-width: 0.5"/>
      </g>
     </g>
     <g id="line2d_16">
      <g>
       <use xlink:href="#mbb6a9a7d4a" x="84.252475" y="7.2" style="stroke: #000000; stroke-width: 0.5"/>
      </g>
     </g>
    </g>
    <g id="xtick_9">
     <g id="line2d_17">
      <g>
       <use xlink:href="#mda65b55ea3" x="102.108475" y="339.84" style="stroke: #000000; stroke-width: 0.5"/>
      </g>
     </g>
     <g id="line2d_18">
      <g>
       <use xlink:href="#mbb6a9a7d4a" x="102.108475" y="7.2" style="stroke: #000000; stroke-width: 0.5"/>
      </g>
     </g>
    </g>
    <g id="xtick_10">
     <g id="line2d_19">
      <g>
       <use xlink:href="#mda65b55ea3" x="119.964475" y="339.84" style="stroke: #000000; stroke-width: 0.5"/>
      </g>
     </g>
     <g id="line2d_20">
      <g>
       <use xlink:href="#mbb6a9a7d4a" x="119.964475" y="7.2" style="stroke: #000000; stroke-width: 0.5"/>
      </g>
     </g>
    </g>
    <g id="xtick_11">
     <g id="line2d_21">
      <g>
       <use xlink:href="#mda65b55ea3" x="155.676475" y="339.84" style="stroke: #000000; stroke-width: 0.5"/>
      </g>
     </g>
     <g id="line2d_22">
      <g>
       <use xlink:href="#mbb6a9a7d4a" x="155.676475" y="7.2" style="stroke: #000000; stroke-width: 0.5"/>
      </g>
     </g>
    </g>
    <g id="xtick_12">
     <g id="line2d_23">
      <g>
       <use xlink:href="#mda65b55ea3" x="173.532475" y="339.84" style="stroke: #000000; stroke-width: 0.5"/>
      </g>
     </g>
     <g id="line2d_24">
      <g>
       <use xlink:href="#mbb6a9a7d4a" x="173.532475" y="7.2" style="stroke: #000000; stroke-width: 0.5"/>
      </g>
     </g>
    </g>
    <g id="xtick_13">
     <g id="line2d_25">
      <g>
       <use xlink:href="#mda65b55ea3" x="191.388475" y="339.84" style="stroke: #000000; stroke-width: 0.5"/>
      </g>
     </g>
     <g id="line2d_26">
      <g>
       <use xlink:href="#mbb6a9a7d4a" x="191.388475" y="7.2" style="stroke: #000000; stroke-width: 0.5"/>
      </g>
     </g>
    </g>
    <g id="xtick_14">
     <g id="line2d_27">
      <g>
       <use xlink:href="#mda65b55ea3" x="209.244475" y="339.84" style="stroke: #000000; stroke-width: 0.5"/>
      </g>
     </g>
     <g id="line2d_28">
      <g>
       <use xlink:href="#mbb6a9a7d4a" x="209.244475" y="7.2" style="stroke: #000000; stroke-width: 0.5"/>
      </g>
     </g>
    </g>
    <g id="xtick_15">
     <g id="line2d_29">
      <g>
       <use xlink:href="#mda65b55ea3" x="244.956475" y="339.84" style="stroke: #000000; stroke-width: 0.5"/>
      </g>
     </g>
     <g id="line2d_30">
      <g>
       <use xlink:href="#mbb6a9a7d4a" x="244.956475" y="7.2" style="stroke: #000000; stroke-width: 0.5"/>
      </g>
     </g>
    </g>
    <g id="xtick_16">
     <g id="line2d_31">
      <g>
       <use xlink:href="#mda65b55ea3" x="262.812475" y="339.84" style="stroke: #000000; stroke-width: 0.5"/>
      </g>
     </g>
     <g id="line2d_32">
      <g>
       <use xlink:href="#mbb6a9a7d4a" x="262.812475" y="7.2" style="stroke: #000000; stroke-width: 0.5"/>
      </g>
     </g>
    </g>
    <g id="xtick_17">
     <g id="line2d_33">
      <g>
       <use xlink:href="#mda65b55ea3" x="280.668475" y="339.84" style="stroke: #000000; stroke-width: 0.5"/>
      </g>
     </g>
     <g id="line2d_34">
      <g>
       <use xlink:href="#mbb6a9a7d4a" x="280.668475" y="7.2" style="stroke: #000000; stroke-width: 0.5"/>
      </g>
     </g>
    </g>
    <g id="xtick_18">
     <g id="line2d_35">
      <g>
       <use xlink:href="#mda65b55ea3" x="298.524475" y="339.84" style="stroke: #000000; stroke-width: 0.5"/>
      </g>
     </g>
     <g id="line2d_36">
      <g>
       <use xlink:href="#mbb6a9a7d4a" x="298.524475" y="7.2" style="stroke: #000000; stroke-width: 0.5"/>
      </g>
     </g>
    </g>
    <g id="xtick_19">
     <g id="line2d_37">
      <g>
       <use xlink:href="#mda65b55ea3" x="334.236475" y="339.84" style="stroke: #000000; stroke-width: 0.5"/>
      </g>
     </g>
     <g id="line2d_38">
      <g>
       <use xlink:href="#mbb6a9a7d4a" x="334.236475" y="7.2" style="stroke: #000000; stroke-width: 0.5"/>
      </g>
     </g>
    </g>
    <g id="xtick_20">
     <g id="line2d_39">
      <g>
       <use xlink:href="#mda65b55ea3" x="352.092475" y="339.84" style="stroke: #000000; stroke-width: 0.5"/>
      </g>
     </g>
     <g id="line2d_40">
      <g>
       <use xlink:href="#mbb6a9a7d4a" x="352.092475" y="7.2" style="stroke: #000000; stroke-width: 0.5"/>
      </g>
     </g>
    </g>
    <g id="xtick_21">
     <g id="line2d_41">
      <g>
       <use xlink:href="#mda65b55ea3" x="369.948475" y="339.84" style="stroke: #000000; stroke-width: 0.5"/>
      </g>
     </g>
     <g id="line2d_42">
      <g>
       <use xlink:href="#mbb6a9a7d4a" x="369.948475" y="7.2" style="stroke: #000000; stroke-width: 0.5"/>
      </g>
     </g>
    </g>
    <g id="xtick_22">
     <g id="line2d_43">
      <g>
       <use xlink:href="#mda65b55ea3" x="387.804475" y="339.84" style="stroke: #000000; stroke-width: 0.5"/>
      </g>
     </g>
     <g id="line2d_44">
      <g>
       <use xlink:href="#mbb6a9a7d4a" x="387.804475" y="7.2" style="stroke: #000000; stroke-width: 0.5"/>
      </g>
     </g>
    </g>
    <g id="xtick_23">
     <g id="line2d_45">
      <g>
       <use xlink:href="#mda65b55ea3" x="423.516475" y="339.84" style="stroke: #000000; stroke-width: 0.5"/>
      </g>
     </g>
     <g id="line2d_46">
      <g>
       <use xlink:href="#mbb6a9a7d4a" x="423.516475" y="7.2" style="stroke: #000000; stroke-width: 0.5"/>
      </g>
     </g>
    </g>
    <g id="xtick_24">
     <g id="line2d_47">
      <g>
       <use xlink:href="#mda65b55ea3" x="441.372475" y="339.84" style="stroke: #000000; stroke-width: 0.5"/>
      </g>
     </g>
     <g id="line2d_48">
      <g>
       <use xlink:href="#mbb6a9a7d4a" x="441.372475" y="7.2" style="stroke: #000000; stroke-width: 0.5"/>
      </g>
     </g>
    </g>
    <g id="xtick_25">
     <g id="line2d_49">
      <g>
       <use xlink:href="#mda65b55ea3" x="459.228475" y="339.84" style="stroke: #000000; stroke-width: 0.5"/>
      </g>
     </g>
     <g id="line2d_50">
      <g>
       <use xlink:href="#mbb6a9a7d4a" x="459.228475" y="7.2" style="stroke: #000000; stroke-width: 0.5"/>
      </g>
     </g>
    </g>
    <g id="xtick_26">
     <g id="line2d_51">
      <g>
       <use xlink:href="#mda65b55ea3" x="477.084475" y="339.84" style="stroke: #000000; stroke-width: 0.5"/>
      </g>
     </g>
     <g id="line2d_52">
      <g>
       <use xlink:href="#mbb6a9a7d4a" x="477.084475" y="7.2" style="stroke: #000000; stroke-width: 0.5"/>
      </g>
     </g>
    </g>
    <g id="text_7">
     <!-- $\Lambda$ [meV] -->
     <g transform="translate(247.194423 368.531862) scale(0.13 -0.13)">
      <defs>
       <path id="PazoMath-4c" d="M 2368 4365 
L 678 519 
C 602 333 474 218 333 205 
L 96 186 
L 96 0 
C 678 0 691 0 794 0 
C 877 0 890 0 1568 0 
L 1568 186 
L 1331 205 
C 1107 224 1024 269 1024 371 
C 1024 455 1114 730 1248 1050 
L 2349 3642 
L 3571 738 
C 3686 468 3699 379 3699 320 
C 3699 250 3597 205 3437 192 
L 3136 192 
L 3136 0 
C 3910 0 3923 0 4026 0 
C 4147 0 4160 0 4838 0 
L 4838 186 
L 4621 205 
C 4454 231 4384 339 4160 858 
L 2611 4493 
L 2368 4365 
z
" transform="scale(0.015625)"/>
       <path id="URWPalladioL-Roma-5b" d="M 563 -1152 
C 1018 -1152 1030 -1152 1184 -1152 
C 1338 -1152 1370 -1152 1805 -1152 
L 1843 -1120 
L 1843 -953 
L 1818 -921 
L 1574 -921 
C 1402 -921 1261 -882 1184 -818 
C 1126 -760 1107 -671 1107 -459 
C 1107 -453 1107 -318 1101 -125 
L 1101 112 
L 1101 3409 
L 1101 3646 
C 1107 3826 1107 3967 1107 3973 
C 1107 4185 1126 4281 1184 4339 
C 1261 4403 1402 4441 1574 4441 
L 1818 4441 
L 1843 4473 
L 1843 4640 
L 1805 4672 
C 1357 4672 1338 4672 1184 4672 
C 1037 4672 1005 4672 563 4672 
L 506 4595 
C 544 4435 557 4223 557 3730 
C 557 3633 557 3556 563 3492 
L 563 3409 
L 563 112 
L 563 28 
C 557 -74 557 -81 557 -190 
L 557 -260 
C 557 -696 544 -876 506 -1075 
L 563 -1152 
z
" transform="scale(0.015625)"/>
       <path id="URWPalladioL-Roma-6d" d="M 115 2565 
L 352 2565 
C 608 2565 634 2520 634 2094 
L 634 643 
C 634 237 614 192 397 192 
L 102 192 
L 102 -7 
C 717 -7 736 -7 915 -7 
C 1094 -7 1261 -7 1677 -7 
L 1677 179 
L 1408 205 
C 1190 205 1171 250 1171 654 
L 1171 2014 
C 1171 2302 1594 2616 1978 2616 
C 2323 2616 2560 2287 2560 1798 
L 2560 643 
C 2560 237 2541 192 2323 192 
L 2029 192 
L 2029 -7 
C 2669 -7 2669 -7 2829 -7 
C 2989 -7 2989 -7 3629 -7 
L 3629 192 
L 3334 192 
C 3117 192 3098 237 3098 643 
L 3098 2011 
C 3098 2300 3520 2616 3904 2616 
C 4250 2616 4486 2291 4486 1806 
L 4486 -7 
C 4877 -7 4883 -7 4992 -7 
C 5075 -7 5075 -7 5562 -7 
L 5562 192 
L 5261 192 
C 5043 192 5024 237 5024 643 
L 5024 1970 
C 5024 2608 4653 3008 4064 3008 
C 3840 3008 3654 2950 3539 2847 
L 3053 2412 
C 2848 2834 2586 3008 2144 3008 
C 1907 3008 1728 2950 1613 2847 
L 1171 2437 
L 1171 2982 
L 1114 3008 
C 787 2873 454 2783 115 2745 
L 115 2565 
z
" transform="scale(0.015625)"/>
       <path id="URWPalladioL-Roma-65" d="M 2797 447 
L 2714 511 
C 2304 269 2157 212 1882 212 
C 1466 212 1120 398 941 711 
C 819 921 774 1101 762 1472 
L 1696 1472 
C 2138 1472 2413 1472 2854 1544 
C 2861 1634 2867 1693 2867 1771 
C 2867 2520 2394 3008 1677 3008 
C 1440 3008 1165 2924 902 2770 
C 378 2469 166 2071 166 1404 
C 166 1000 262 654 435 410 
C 691 71 1120 -128 1600 -128 
C 1837 -128 2074 -77 2336 37 
C 2509 108 2643 191 2669 230 
L 2797 447 
z
M 2298 1690 
C 1965 1690 1811 1690 1581 1690 
C 1286 1690 1120 1690 774 1722 
C 774 2027 800 2169 883 2337 
C 1018 2622 1293 2796 1600 2796 
C 1811 2796 1978 2711 2093 2534 
C 2234 2319 2278 2129 2298 1690 
z
" transform="scale(0.015625)"/>
       <path id="URWPalladioL-Roma-56" d="M 1754 4224 
L 1754 4417 
C 1050 4417 1050 4417 902 4417 
C 755 4417 755 4417 51 4417 
L 51 4237 
L 282 4218 
C 416 4205 480 4147 563 3955 
L 1766 994 
C 1965 507 2042 283 2138 -64 
L 2458 -64 
C 2579 334 2656 545 2867 1058 
L 3981 3756 
C 4128 4103 4198 4199 4326 4218 
L 4518 4237 
L 4518 4417 
L 3827 4417 
C 3712 4417 3565 4417 3379 4417 
C 3347 4417 3238 4417 3136 4417 
L 3136 4224 
L 3469 4224 
C 3610 4224 3693 4159 3693 4062 
C 3693 3998 3674 3908 3635 3812 
L 2464 769 
L 1203 4030 
C 1197 4056 1190 4076 1190 4102 
C 1190 4179 1267 4224 1395 4224 
L 1754 4224 
z
" transform="scale(0.015625)"/>
       <path id="URWPalladioL-Roma-5d" d="M 1568 4672 
C 1114 4672 1094 4672 947 4672 
C 794 4672 762 4672 326 4672 
L 288 4640 
L 288 4473 
L 314 4441 
L 557 4441 
C 730 4441 864 4403 941 4339 
C 1005 4281 1024 4191 1024 3973 
C 1024 3954 1024 3826 1030 3646 
L 1030 3409 
L 1030 112 
L 1030 -125 
C 1024 -311 1024 -427 1024 -446 
C 1024 -664 1005 -760 941 -818 
C 864 -882 730 -921 557 -921 
L 314 -921 
L 288 -953 
L 288 -1120 
L 326 -1152 
C 774 -1152 787 -1152 947 -1152 
C 1094 -1152 1126 -1152 1568 -1152 
L 1626 -1075 
C 1587 -921 1581 -722 1574 -228 
C 1574 -138 1574 -55 1568 28 
L 1568 112 
L 1568 3409 
L 1568 3492 
C 1574 3563 1574 3646 1574 3736 
C 1574 4230 1587 4441 1626 4595 
L 1568 4672 
z
" transform="scale(0.015625)"/>
      </defs>
      <use xlink:href="#PazoMath-4c" transform="scale(0.996264)"/>
      <use xlink:href="#URWPalladioL-Roma-5b" transform="translate(103.661334 0) scale(0.996264)"/>
      <use xlink:href="#URWPalladioL-Roma-6d" transform="translate(136.836564 0) scale(0.996264)"/>
      <use xlink:href="#URWPalladioL-Roma-65" transform="translate(224.806238 0) scale(0.996264)"/>
      <use xlink:href="#URWPalladioL-Roma-56" transform="translate(272.526533 0) scale(0.996264)"/>
      <use xlink:href="#URWPalladioL-Roma-5d" transform="translate(344.456518 0) scale(0.996264)"/>
     </g>
    </g>
   </g>
   <g id="matplotlib.axis_2">
    <g id="ytick_1">
     <g id="line2d_53">
      <defs>
       <path id="m70cc904388" d="M 0 0 
L 3 0 
" style="stroke: #000000; stroke-width: 0.5"/>
      </defs>
      <g>
       <use xlink:href="#m70cc904388" x="48.540475" y="326.5344" style="stroke: #000000; stroke-width: 0.5"/>
      </g>
     </g>
     <g id="line2d_54">
      <defs>
       <path id="mb18910a317" d="M 0 0 
L -3 0 
" style="stroke: #000000; stroke-width: 0.5"/>
      </defs>
      <g>
       <use xlink:href="#mb18910a317" x="494.940475" y="326.5344" style="stroke: #000000; stroke-width: 0.5"/>
      </g>
     </g>
     <g id="text_8">
      <!-- 0.0 -->
      <g transform="translate(30.096515 330.811338) scale(0.12 -0.12)">
       <defs>
        <path id="URWPalladioL-Roma-2e" d="M 794 744 
C 602 744 429 564 429 372 
C 429 179 602 0 787 0 
C 992 0 1171 173 1171 372 
C 1171 564 992 744 794 744 
z
" transform="scale(0.015625)"/>
       </defs>
       <use xlink:href="#URWPalladioL-Roma-30" transform="scale(0.996264)"/>
       <use xlink:href="#URWPalladioL-Roma-2e" transform="translate(49.8132 0) scale(0.996264)"/>
       <use xlink:href="#URWPalladioL-Roma-30" transform="translate(74.719801 0) scale(0.996264)"/>
      </g>
     </g>
    </g>
    <g id="ytick_2">
     <g id="line2d_55">
      <g>
       <use xlink:href="#m70cc904388" x="48.540475" y="260.0064" style="stroke: #000000; stroke-width: 0.5"/>
      </g>
     </g>
     <g id="line2d_56">
      <g>
       <use xlink:href="#mb18910a317" x="494.940475" y="260.0064" style="stroke: #000000; stroke-width: 0.5"/>
      </g>
     </g>
     <g id="text_9">
      <!-- 0.25 -->
      <g transform="translate(24.118931 264.283338) scale(0.12 -0.12)">
       <use xlink:href="#URWPalladioL-Roma-30" transform="scale(0.996264)"/>
       <use xlink:href="#URWPalladioL-Roma-2e" transform="translate(49.8132 0) scale(0.996264)"/>
       <use xlink:href="#URWPalladioL-Roma-32" transform="translate(74.719801 0) scale(0.996264)"/>
       <use xlink:href="#URWPalladioL-Roma-35" transform="translate(124.533001 0) scale(0.996264)"/>
      </g>
     </g>
    </g>
    <g id="ytick_3">
     <g id="line2d_57">
      <g>
       <use xlink:href="#m70cc904388" x="48.540475" y="193.4784" style="stroke: #000000; stroke-width: 0.5"/>
      </g>
     </g>
     <g id="line2d_58">
      <g>
       <use xlink:href="#mb18910a317" x="494.940475" y="193.4784" style="stroke: #000000; stroke-width: 0.5"/>
      </g>
     </g>
     <g id="text_10">
      <!-- 0.5 -->
      <g transform="translate(30.096515 197.755338) scale(0.12 -0.12)">
       <use xlink:href="#URWPalladioL-Roma-30" transform="scale(0.996264)"/>
       <use xlink:href="#URWPalladioL-Roma-2e" transform="translate(49.8132 0) scale(0.996264)"/>
       <use xlink:href="#URWPalladioL-Roma-35" transform="translate(74.719801 0) scale(0.996264)"/>
      </g>
     </g>
    </g>
    <g id="ytick_4">
     <g id="line2d_59">
      <g>
       <use xlink:href="#m70cc904388" x="48.540475" y="126.9504" style="stroke: #000000; stroke-width: 0.5"/>
      </g>
     </g>
     <g id="line2d_60">
      <g>
       <use xlink:href="#mb18910a317" x="494.940475" y="126.9504" style="stroke: #000000; stroke-width: 0.5"/>
      </g>
     </g>
     <g id="text_11">
      <!-- 0.75 -->
      <g transform="translate(24.118931 131.227338) scale(0.12 -0.12)">
       <defs>
        <path id="URWPalladioL-Roma-37" d="M 358 32 
L 416 -51 
C 666 -32 666 -32 710 -32 
C 755 -32 755 -32 1005 -51 
C 1274 649 1587 1317 2010 2087 
L 3181 4199 
L 3181 4372 
C 2490 4372 2266 4372 1747 4372 
C 1280 4372 966 4372 346 4372 
L 282 4359 
C 301 3750 301 3750 301 3685 
C 301 3614 301 3614 282 3031 
L 474 3031 
L 518 3390 
C 570 3789 614 3840 909 3840 
L 2618 3840 
C 2362 3313 2163 2941 1920 2549 
L 358 32 
z
" transform="scale(0.015625)"/>
       </defs>
       <use xlink:href="#URWPalladioL-Roma-30" transform="scale(0.996264)"/>
       <use xlink:href="#URWPalladioL-Roma-2e" transform="translate(49.8132 0) scale(0.996264)"/>
       <use xlink:href="#URWPalladioL-Roma-37" transform="translate(74.719801 0) scale(0.996264)"/>
       <use xlink:href="#URWPalladioL-Roma-35" transform="translate(124.533001 0) scale(0.996264)"/>
      </g>
     </g>
    </g>
    <g id="ytick_5">
     <g id="line2d_61">
      <g>
       <use xlink:href="#m70cc904388" x="48.540475" y="60.4224" style="stroke: #000000; stroke-width: 0.5"/>
      </g>
     </g>
     <g id="line2d_62">
      <g>
       <use xlink:href="#mb18910a317" x="494.940475" y="60.4224" style="stroke: #000000; stroke-width: 0.5"/>
      </g>
     </g>
     <g id="text_12">
      <!-- 1.0 -->
      <g transform="translate(30.096515 64.699338) scale(0.12 -0.12)">
       <use xlink:href="#URWPalladioL-Roma-31" transform="scale(0.996264)"/>
       <use xlink:href="#URWPalladioL-Roma-2e" transform="translate(49.8132 0) scale(0.996264)"/>
       <use xlink:href="#URWPalladioL-Roma-30" transform="translate(74.719801 0) scale(0.996264)"/>
      </g>
     </g>
    </g>
    <g id="ytick_6">
     <g id="line2d_63">
      <defs>
       <path id="m9044ac21ad" d="M 0 0 
L 1.5 0 
" style="stroke: #000000; stroke-width: 0.5"/>
      </defs>
      <g>
       <use xlink:href="#m9044ac21ad" x="48.540475" y="313.2288" style="stroke: #000000; stroke-width: 0.5"/>
      </g>
     </g>
     <g id="line2d_64">
      <defs>
       <path id="m81018def79" d="M 0 0 
L -1.5 0 
" style="stroke: #000000; stroke-width: 0.5"/>
      </defs>
      <g>
       <use xlink:href="#m81018def79" x="494.940475" y="313.2288" style="stroke: #000000; stroke-width: 0.5"/>
      </g>
     </g>
    </g>
    <g id="ytick_7">
     <g id="line2d_65">
      <g>
       <use xlink:href="#m9044ac21ad" x="48.540475" y="299.9232" style="stroke: #000000; stroke-width: 0.5"/>
      </g>
     </g>
     <g id="line2d_66">
      <g>
       <use xlink:href="#m81018def79" x="494.940475" y="299.9232" style="stroke: #000000; stroke-width: 0.5"/>
      </g>
     </g>
    </g>
    <g id="ytick_8">
     <g id="line2d_67">
      <g>
       <use xlink:href="#m9044ac21ad" x="48.540475" y="286.6176" style="stroke: #000000; stroke-width: 0.5"/>
      </g>
     </g>
     <g id="line2d_68">
      <g>
       <use xlink:href="#m81018def79" x="494.940475" y="286.6176" style="stroke: #000000; stroke-width: 0.5"/>
      </g>
     </g>
    </g>
    <g id="ytick_9">
     <g id="line2d_69">
      <g>
       <use xlink:href="#m9044ac21ad" x="48.540475" y="273.312" style="stroke: #000000; stroke-width: 0.5"/>
      </g>
     </g>
     <g id="line2d_70">
      <g>
       <use xlink:href="#m81018def79" x="494.940475" y="273.312" style="stroke: #000000; stroke-width: 0.5"/>
      </g>
     </g>
    </g>
    <g id="ytick_10">
     <g id="line2d_71">
      <g>
       <use xlink:href="#m9044ac21ad" x="48.540475" y="246.7008" style="stroke: #000000; stroke-width: 0.5"/>
      </g>
     </g>
     <g id="line2d_72">
      <g>
       <use xlink:href="#m81018def79" x="494.940475" y="246.7008" style="stroke: #000000; stroke-width: 0.5"/>
      </g>
     </g>
    </g>
    <g id="ytick_11">
     <g id="line2d_73">
      <g>
       <use xlink:href="#m9044ac21ad" x="48.540475" y="233.3952" style="stroke: #000000; stroke-width: 0.5"/>
      </g>
     </g>
     <g id="line2d_74">
      <g>
       <use xlink:href="#m81018def79" x="494.940475" y="233.3952" style="stroke: #000000; stroke-width: 0.5"/>
      </g>
     </g>
    </g>
    <g id="ytick_12">
     <g id="line2d_75">
      <g>
       <use xlink:href="#m9044ac21ad" x="48.540475" y="220.0896" style="stroke: #000000; stroke-width: 0.5"/>
      </g>
     </g>
     <g id="line2d_76">
      <g>
       <use xlink:href="#m81018def79" x="494.940475" y="220.0896" style="stroke: #000000; stroke-width: 0.5"/>
      </g>
     </g>
    </g>
    <g id="ytick_13">
     <g id="line2d_77">
      <g>
       <use xlink:href="#m9044ac21ad" x="48.540475" y="206.784" style="stroke: #000000; stroke-width: 0.5"/>
      </g>
     </g>
     <g id="line2d_78">
      <g>
       <use xlink:href="#m81018def79" x="494.940475" y="206.784" style="stroke: #000000; stroke-width: 0.5"/>
      </g>
     </g>
    </g>
    <g id="ytick_14">
     <g id="line2d_79">
      <g>
       <use xlink:href="#m9044ac21ad" x="48.540475" y="180.1728" style="stroke: #000000; stroke-width: 0.5"/>
      </g>
     </g>
     <g id="line2d_80">
      <g>
       <use xlink:href="#m81018def79" x="494.940475" y="180.1728" style="stroke: #000000; stroke-width: 0.5"/>
      </g>
     </g>
    </g>
    <g id="ytick_15">
     <g id="line2d_81">
      <g>
       <use xlink:href="#m9044ac21ad" x="48.540475" y="166.8672" style="stroke: #000000; stroke-width: 0.5"/>
      </g>
     </g>
     <g id="line2d_82">
      <g>
       <use xlink:href="#m81018def79" x="494.940475" y="166.8672" style="stroke: #000000; stroke-width: 0.5"/>
      </g>
     </g>
    </g>
    <g id="ytick_16">
     <g id="line2d_83">
      <g>
       <use xlink:href="#m9044ac21ad" x="48.540475" y="153.5616" style="stroke: #000000; stroke-width: 0.5"/>
      </g>
     </g>
     <g id="line2d_84">
      <g>
       <use xlink:href="#m81018def79" x="494.940475" y="153.5616" style="stroke: #000000; stroke-width: 0.5"/>
      </g>
     </g>
    </g>
    <g id="ytick_17">
     <g id="line2d_85">
      <g>
       <use xlink:href="#m9044ac21ad" x="48.540475" y="140.256" style="stroke: #000000; stroke-width: 0.5"/>
      </g>
     </g>
     <g id="line2d_86">
      <g>
       <use xlink:href="#m81018def79" x="494.940475" y="140.256" style="stroke: #000000; stroke-width: 0.5"/>
      </g>
     </g>
    </g>
    <g id="ytick_18">
     <g id="line2d_87">
      <g>
       <use xlink:href="#m9044ac21ad" x="48.540475" y="113.6448" style="stroke: #000000; stroke-width: 0.5"/>
      </g>
     </g>
     <g id="line2d_88">
      <g>
       <use xlink:href="#m81018def79" x="494.940475" y="113.6448" style="stroke: #000000; stroke-width: 0.5"/>
      </g>
     </g>
    </g>
    <g id="ytick_19">
     <g id="line2d_89">
      <g>
       <use xlink:href="#m9044ac21ad" x="48.540475" y="100.3392" style="stroke: #000000; stroke-width: 0.5"/>
      </g>
     </g>
     <g id="line2d_90">
      <g>
       <use xlink:href="#m81018def79" x="494.940475" y="100.3392" style="stroke: #000000; stroke-width: 0.5"/>
      </g>
     </g>
    </g>
    <g id="ytick_20">
     <g id="line2d_91">
      <g>
       <use xlink:href="#m9044ac21ad" x="48.540475" y="87.0336" style="stroke: #000000; stroke-width: 0.5"/>
      </g>
     </g>
     <g id="line2d_92">
      <g>
       <use xlink:href="#m81018def79" x="494.940475" y="87.0336" style="stroke: #000000; stroke-width: 0.5"/>
      </g>
     </g>
    </g>
    <g id="ytick_21">
     <g id="line2d_93">
      <g>
       <use xlink:href="#m9044ac21ad" x="48.540475" y="73.728" style="stroke: #000000; stroke-width: 0.5"/>
      </g>
     </g>
     <g id="line2d_94">
      <g>
       <use xlink:href="#m81018def79" x="494.940475" y="73.728" style="stroke: #000000; stroke-width: 0.5"/>
      </g>
     </g>
    </g>
    <g id="ytick_22">
     <g id="line2d_95">
      <g>
       <use xlink:href="#m9044ac21ad" x="48.540475" y="47.1168" style="stroke: #000000; stroke-width: 0.5"/>
      </g>
     </g>
     <g id="line2d_96">
      <g>
       <use xlink:href="#m81018def79" x="494.940475" y="47.1168" style="stroke: #000000; stroke-width: 0.5"/>
      </g>
     </g>
    </g>
    <g id="ytick_23">
     <g id="line2d_97">
      <g>
       <use xlink:href="#m9044ac21ad" x="48.540475" y="33.8112" style="stroke: #000000; stroke-width: 0.5"/>
      </g>
     </g>
     <g id="line2d_98">
      <g>
       <use xlink:href="#m81018def79" x="494.940475" y="33.8112" style="stroke: #000000; stroke-width: 0.5"/>
      </g>
     </g>
    </g>
    <g id="ytick_24">
     <g id="line2d_99">
      <g>
       <use xlink:href="#m9044ac21ad" x="48.540475" y="20.5056" style="stroke: #000000; stroke-width: 0.5"/>
      </g>
     </g>
     <g id="line2d_100">
      <g>
       <use xlink:href="#m81018def79" x="494.940475" y="20.5056" style="stroke: #000000; stroke-width: 0.5"/>
      </g>
     </g>
    </g>
    <g id="ytick_25">
     <g id="line2d_101">
      <g>
       <use xlink:href="#m9044ac21ad" x="48.540475" y="7.2" style="stroke: #000000; stroke-width: 0.5"/>
      </g>
     </g>
     <g id="line2d_102">
      <g>
       <use xlink:href="#m81018def79" x="494.940475" y="7.2" style="stroke: #000000; stroke-width: 0.5"/>
      </g>
     </g>
    </g>
    <g id="text_13">
     <!-- $N_{s}$, $N_{t}$ -->
     <g transform="translate(16.466703 190.6429) rotate(-90) scale(0.13 -0.13)">
      <defs>
       <path id="URWPalladioL-Ital-4e" d="M 1517 4402 
L 998 4402 
L 934 4402 
L 845 4402 
C 826 4402 730 4402 582 4402 
L 480 4402 
L 448 4224 
L 672 4224 
C 781 4224 922 4179 992 4122 
C 1088 4045 1184 3924 1184 3873 
C 1184 3867 1184 3848 1178 3828 
C 1178 3822 1178 3809 1171 3797 
C 1165 3746 1158 3701 1152 3682 
L 589 662 
C 512 267 474 216 243 190 
L 45 171 
L 13 -7 
L 723 -7 
C 800 -7 806 -7 1427 -7 
L 1459 165 
L 1190 184 
C 934 204 877 255 877 465 
C 877 516 883 586 896 656 
L 1408 3612 
L 3571 -64 
L 3891 -64 
L 4493 3459 
C 4627 4179 4640 4205 4877 4224 
L 5114 4224 
L 5146 4402 
L 5011 4402 
L 4442 4402 
L 3891 4402 
L 3770 4402 
L 3738 4224 
L 4038 4224 
C 4205 4224 4269 4177 4269 4071 
C 4269 4026 4250 3861 4237 3778 
L 3725 662 
L 1517 4402 
z
" transform="scale(0.015625)"/>
       <path id="URWPalladioL-Ital-73" d="M 198 947 
C 166 623 128 400 58 108 
C 301 -7 518 -64 742 -64 
C 1056 -64 1350 51 1677 305 
C 2003 559 2138 794 2138 1113 
C 2138 1456 1933 1640 1459 1729 
L 1184 1780 
C 800 1850 678 1959 678 2219 
C 678 2557 966 2817 1331 2817 
C 1594 2817 1837 2702 1939 2531 
L 1939 2181 
L 2086 2181 
C 2112 2404 2138 2575 2208 2900 
C 1958 3021 1779 3072 1568 3072 
C 1235 3072 845 2881 538 2576 
C 371 2404 301 2245 301 2016 
C 301 1660 499 1456 922 1374 
L 1325 1298 
C 1606 1247 1709 1132 1709 884 
C 1709 470 1414 191 960 191 
C 736 191 538 261 358 413 
L 358 947 
L 198 947 
z
" transform="scale(0.015625)"/>
       <path id="URWPalladioL-Roma-2c" d="M 1306 789 
C 1133 731 1018 693 678 596 
C 634 109 474 -308 102 -923 
L 192 -994 
L 454 -872 
C 973 -199 1216 205 1395 699 
L 1306 789 
z
" transform="scale(0.015625)"/>
       <path id="URWPalladioL-Ital-74" d="M 800 2465 
L 442 671 
C 435 626 429 615 410 538 
C 371 361 358 265 358 190 
C 358 31 429 -64 550 -64 
C 774 -64 998 62 1498 463 
L 1594 538 
L 1696 621 
L 1632 735 
L 1344 538 
C 1158 412 1030 348 960 348 
C 902 348 870 399 870 474 
C 870 639 960 1153 1146 2072 
L 1229 2465 
L 1914 2465 
L 1984 2784 
C 1741 2752 1523 2752 1280 2752 
C 1382 3348 1453 3659 1568 4001 
L 1498 4097 
C 1370 4021 1197 3944 998 3868 
L 838 2784 
C 557 2650 390 2580 275 2548 
L 262 2465 
L 800 2465 
z
" transform="scale(0.015625)"/>
      </defs>
      <use xlink:href="#URWPalladioL-Ital-4e" transform="scale(0.996264)"/>
      <use xlink:href="#URWPalladioL-Ital-73" transform="translate(74.719816 -14.943915) scale(0.757155)"/>
      <use xlink:href="#URWPalladioL-Roma-2c" transform="translate(105.617712 0) scale(0.996264)"/>
      <use xlink:href="#URWPalladioL-Ital-4e" transform="translate(160.163121 0) scale(0.996264)"/>
      <use xlink:href="#URWPalladioL-Ital-74" transform="translate(234.882937 -14.943915) scale(0.757155)"/>
     </g>
    </g>
   </g>
   <g id="line2d_103">
    <path d="M 48.540475 193.4784 
L 494.940475 193.4784 
" clip-path="url(#pbfe4a041ec)" style="fill: none; stroke-dasharray: 7.4,3.2; stroke-dashoffset: 0; stroke: #000000; stroke-width: 2"/>
   </g>
   <g id="line2d_104">
    <path d="M 48.540475 199.292696 
L 53.049566 199.359331 
L 57.558657 199.558809 
L 62.067748 199.889863 
L 66.576839 200.350413 
L 71.085929 200.937621 
L 75.59502 201.647949 
L 80.104111 202.47724 
L 84.613202 203.420805 
L 89.122293 204.473511 
L 93.631384 205.629875 
L 98.140475 206.884152 
L 102.649566 208.230419 
L 107.158657 209.662648 
L 111.667748 211.174776 
L 116.176839 212.760759 
L 120.685929 214.414617 
L 125.19502 216.130465 
L 129.704111 217.902542 
L 134.213202 219.725217 
L 138.722293 221.593 
L 143.231384 223.500533 
L 147.740475 225.442583 
L 152.249566 227.414019 
L 156.758657 229.409795 
L 161.267748 231.424918 
L 165.776839 233.454417 
L 170.285929 235.49331 
L 174.79502 237.536562 
L 179.304111 239.579051 
L 183.813202 241.615524 
L 188.322293 243.640553 
L 192.831384 245.648503 
L 197.340475 247.633482 
L 201.849566 249.589317 
L 206.358657 251.509516 
L 210.867748 253.387251 
L 215.376839 255.215346 
L 219.885929 256.986282 
L 224.39502 258.692222 
L 228.904111 260.325055 
L 233.413202 261.87647 
L 237.922293 263.338065 
L 242.431384 264.701481 
L 246.940475 265.958582 
L 251.449566 267.101652 
L 255.958657 268.123628 
L 260.467748 269.018344 
L 264.976839 269.780768 
L 269.485929 270.407221 
L 273.99502 270.895563 
L 278.504111 271.245308 
L 283.013202 271.457677 
L 287.522293 271.535568 
L 292.031384 271.483447 
L 296.540475 271.307171 
L 301.049566 271.013762 
L 305.558657 270.611142 
L 310.067748 270.107861 
L 314.576839 269.51283 
L 319.085929 268.83508 
L 323.59502 268.083547 
L 328.104111 267.266904 
L 332.613202 266.39343 
L 337.122293 265.470912 
L 341.631384 264.506586 
L 346.140475 263.507108 
L 350.649566 262.478542 
L 355.158657 261.42637 
L 359.667748 260.355513 
L 364.176839 259.270364 
L 368.685929 258.174819 
L 373.19502 257.07232 
L 377.704111 255.965892 
L 382.213202 254.858182 
L 386.722293 253.751496 
L 391.231384 252.647837 
L 395.740475 251.548933 
L 400.249566 250.456273 
L 404.758657 249.371129 
L 409.267748 248.294583 
L 413.776839 247.227552 
L 418.285929 246.170804 
L 422.79502 245.124977 
L 427.304111 244.090595 
L 431.813202 243.068085 
L 436.322293 242.057784 
L 440.831384 241.059953 
L 445.340475 240.074789 
L 449.849566 239.102428 
L 454.358657 238.142958 
L 458.867748 237.196423 
L 463.376839 236.262828 
L 467.885929 235.342147 
L 472.39502 234.434324 
L 476.904111 233.53928 
L 481.413202 232.656915 
L 485.922293 231.787113 
L 490.431384 230.92974 
L 494.940475 230.084652 
" clip-path="url(#pbfe4a041ec)" style="fill: none; stroke: #bc141a; stroke-width: 3; stroke-linecap: square"/>
   </g>
   <g id="line2d_105">
    <path d="M 48.540475 187.664104 
L 53.049566 187.597469 
L 57.558657 187.397991 
L 62.067748 187.066937 
L 66.576839 186.606387 
L 71.085929 186.019179 
L 75.59502 185.308851 
L 80.104111 184.47956 
L 84.613202 183.535995 
L 89.122293 182.483289 
L 93.631384 181.326925 
L 98.140475 180.072648 
L 102.649566 178.726381 
L 107.158657 177.294152 
L 111.667748 175.782024 
L 116.176839 174.196041 
L 120.685929 172.542183 
L 125.19502 170.826335 
L 129.704111 169.054258 
L 134.213202 167.231583 
L 138.722293 165.3638 
L 143.231384 163.456267 
L 147.740475 161.514217 
L 152.249566 159.542781 
L 156.758657 157.547005 
L 161.267748 155.531882 
L 165.776839 153.502383 
L 170.285929 151.46349 
L 174.79502 149.420238 
L 179.304111 147.377749 
L 183.813202 145.341276 
L 188.322293 143.316247 
L 192.831384 141.308297 
L 197.340475 139.323318 
L 201.849566 137.367483 
L 206.358657 135.447284 
L 210.867748 133.569549 
L 215.376839 131.741454 
L 219.885929 129.970518 
L 224.39502 128.264578 
L 228.904111 126.631745 
L 233.413202 125.08033 
L 237.922293 123.618735 
L 242.431384 122.255319 
L 246.940475 120.998218 
L 251.449566 119.855148 
L 255.958657 118.833172 
L 260.467748 117.938456 
L 264.976839 117.176032 
L 269.485929 116.549579 
L 273.99502 116.061237 
L 278.504111 115.711492 
L 283.013202 115.499123 
L 287.522293 115.421232 
L 292.031384 115.473353 
L 296.540475 115.649629 
L 301.049566 115.943038 
L 305.558657 116.345658 
L 310.067748 116.848939 
L 314.576839 117.44397 
L 319.085929 118.12172 
L 323.59502 118.873253 
L 328.104111 119.689896 
L 332.613202 120.56337 
L 337.122293 121.485888 
L 341.631384 122.450214 
L 346.140475 123.449692 
L 350.649566 124.478258 
L 355.158657 125.53043 
L 359.667748 126.601287 
L 364.176839 127.686436 
L 368.685929 128.781981 
L 373.19502 129.88448 
L 377.704111 130.990908 
L 382.213202 132.098618 
L 386.722293 133.205304 
L 391.231384 134.308963 
L 395.740475 135.407867 
L 400.249566 136.500527 
L 404.758657 137.585671 
L 409.267748 138.662217 
L 413.776839 139.729248 
L 418.285929 140.785996 
L 422.79502 141.831823 
L 427.304111 142.866205 
L 431.813202 143.888715 
L 436.322293 144.899016 
L 440.831384 145.896847 
L 445.340475 146.882011 
L 449.849566 147.854372 
L 454.358657 148.813842 
L 458.867748 149.760377 
L 463.376839 150.693972 
L 467.885929 151.614653 
L 472.39502 152.522476 
L 476.904111 153.41752 
L 481.413202 154.299885 
L 485.922293 155.169687 
L 490.431384 156.02706 
L 494.940475 156.872148 
" clip-path="url(#pbfe4a041ec)" style="fill: none; stroke: #1764ab; stroke-width: 3; stroke-linecap: square"/>
   </g>
   <g id="line2d_106">
    <path d="M 48.540475 194.628932 
L 53.049566 194.702218 
L 57.558657 194.921591 
L 62.067748 195.285601 
L 66.576839 195.791881 
L 71.085929 196.437208 
L 75.59502 197.217591 
L 80.104111 198.128372 
L 84.613202 199.164337 
L 89.122293 200.319838 
L 93.631384 201.588906 
L 98.140475 202.965366 
L 102.649566 204.442946 
L 107.158657 206.015366 
L 111.667748 207.676425 
L 116.176839 209.420068 
L 120.685929 211.240444 
L 125.19502 213.131947 
L 129.704111 215.089248 
L 134.213202 217.107317 
L 138.722293 219.181428 
L 143.231384 221.307169 
L 147.740475 223.480434 
L 152.249566 225.69741 
L 156.758657 227.954568 
L 161.267748 230.248642 
L 165.776839 232.576609 
L 170.285929 234.935665 
L 174.79502 237.323199 
L 179.304111 239.736767 
L 183.813202 242.174067 
L 188.322293 244.632901 
L 192.831384 247.111151 
L 197.340475 249.60674 
L 201.849566 252.117595 
L 206.358657 254.641609 
L 210.867748 257.17659 
L 215.376839 259.720212 
L 219.885929 262.26995 
L 224.39502 264.823013 
L 228.904111 267.37625 
L 233.413202 269.926051 
L 237.922293 272.468218 
L 242.431384 274.997804 
L 246.940475 277.508919 
L 251.449566 279.994488 
L 255.958657 282.445946 
L 260.467748 284.852873 
L 264.976839 287.20254 
L 269.485929 289.479393 
L 273.99502 291.664465 
L 278.504111 293.734802 
L 283.013202 295.66301 
L 287.522293 297.417165 
L 292.031384 298.961441 
L 296.540475 300.257914 
L 301.049566 301.269917 
L 305.558657 301.966886 
L 310.067748 302.329819 
L 314.576839 302.355629 
L 319.085929 302.058546 
L 323.59502 301.467849 
L 328.104111 300.622834 
L 332.613202 299.566983 
L 337.122293 298.343045 
L 341.631384 296.989854 
L 346.140475 295.540828 
L 350.649566 294.023674 
L 355.158657 292.460777 
L 359.667748 290.869916 
L 364.176839 289.265036 
L 368.685929 287.656976 
L 373.19502 286.054097 
L 377.704111 284.462803 
L 382.213202 282.887959 
L 386.722293 281.333223 
L 391.231384 279.801308 
L 395.740475 278.294185 
L 400.249566 276.813245 
L 404.758657 275.359424 
L 409.267748 273.9333 
L 413.776839 272.535175 
L 418.285929 271.165127 
L 422.79502 269.823067 
L 427.304111 268.508774 
L 431.813202 267.221922 
L 436.322293 265.96211 
L 440.831384 264.728874 
L 445.340475 263.52171 
L 449.849566 262.34008 
L 454.358657 261.183427 
L 458.867748 260.051178 
L 463.376839 258.942753 
L 467.885929 257.857569 
L 472.39502 256.795045 
L 476.904111 255.754604 
L 481.413202 254.735675 
L 485.922293 253.737697 
L 490.431384 252.76012 
L 494.940475 251.802402 
" clip-path="url(#pbfe4a041ec)" style="fill: none; stroke: #f14432; stroke-width: 3; stroke-linecap: square"/>
   </g>
   <g id="line2d_107">
    <path d="M 48.540475 192.327868 
L 53.049566 192.254582 
L 57.558657 192.035209 
L 62.067748 191.671199 
L 66.576839 191.164919 
L 71.085929 190.519592 
L 75.59502 189.739209 
L 80.104111 188.828428 
L 84.613202 187.792463 
L 89.122293 186.636962 
L 93.631384 185.367894 
L 98.140475 183.991434 
L 102.649566 182.513854 
L 107.158657 180.941434 
L 111.667748 179.280375 
L 116.176839 177.536732 
L 120.685929 175.716356 
L 125.19502 173.824853 
L 129.704111 171.867552 
L 134.213202 169.849483 
L 138.722293 167.775372 
L 143.231384 165.649631 
L 147.740475 163.476366 
L 152.249566 161.25939 
L 156.758657 159.002232 
L 161.267748 156.708158 
L 165.776839 154.380191 
L 170.285929 152.021135 
L 174.79502 149.633601 
L 179.304111 147.220033 
L 183.813202 144.782733 
L 188.322293 142.323899 
L 192.831384 139.845649 
L 197.340475 137.35006 
L 201.849566 134.839205 
L 206.358657 132.315191 
L 210.867748 129.78021 
L 215.376839 127.236588 
L 219.885929 124.68685 
L 224.39502 122.133787 
L 228.904111 119.58055 
L 233.413202 117.030749 
L 237.922293 114.488582 
L 242.431384 111.958996 
L 246.940475 109.447881 
L 251.449566 106.962312 
L 255.958657 104.510854 
L 260.467748 102.103927 
L 264.976839 99.75426 
L 269.485929 97.477407 
L 273.99502 95.292335 
L 278.504111 93.221998 
L 283.013202 91.29379 
L 287.522293 89.539635 
L 292.031384 87.995359 
L 296.540475 86.698886 
L 301.049566 85.686883 
L 305.558657 84.989914 
L 310.067748 84.626981 
L 314.576839 84.601171 
L 319.085929 84.898254 
L 323.59502 85.488951 
L 328.104111 86.333966 
L 332.613202 87.389817 
L 337.122293 88.613755 
L 341.631384 89.966946 
L 346.140475 91.415972 
L 350.649566 92.933126 
L 355.158657 94.496023 
L 359.667748 96.086884 
L 364.176839 97.691764 
L 368.685929 99.299824 
L 373.19502 100.902703 
L 377.704111 102.493997 
L 382.213202 104.068841 
L 386.722293 105.623577 
L 391.231384 107.155492 
L 395.740475 108.662615 
L 400.249566 110.143555 
L 404.758657 111.597376 
L 409.267748 113.0235 
L 413.776839 114.421625 
L 418.285929 115.791673 
L 422.79502 117.133733 
L 427.304111 118.448026 
L 431.813202 119.734878 
L 436.322293 120.99469 
L 440.831384 122.227926 
L 445.340475 123.43509 
L 449.849566 124.61672 
L 454.358657 125.773373 
L 458.867748 126.905622 
L 463.376839 128.014047 
L 467.885929 129.099231 
L 472.39502 130.161755 
L 476.904111 131.202196 
L 481.413202 132.221125 
L 485.922293 133.219103 
L 490.431384 134.19668 
L 494.940475 135.154398 
" clip-path="url(#pbfe4a041ec)" style="fill: none; stroke: #4a98c9; stroke-width: 3; stroke-linecap: square"/>
   </g>
   <g id="line2d_108">
    <path d="M 48.540475 196.371588 
L 53.049566 196.446045 
L 57.558657 196.668921 
L 62.067748 197.038742 
L 66.576839 197.553098 
L 71.085929 198.208709 
L 75.59502 199.001509 
L 80.104111 199.926752 
L 84.613202 200.979125 
L 89.122293 202.152865 
L 93.631384 203.441875 
L 98.140475 204.839845 
L 102.649566 206.340347 
L 107.158657 207.936937 
L 111.667748 209.623232 
L 116.176839 211.39298 
L 120.685929 213.24011 
L 125.19502 215.158772 
L 129.704111 217.143368 
L 134.213202 219.188562 
L 138.722293 221.289289 
L 143.231384 223.440746 
L 147.740475 225.638384 
L 152.249566 227.877888 
L 156.758657 230.15515 
L 161.267748 232.466241 
L 165.776839 234.807373 
L 170.285929 237.174861 
L 174.79502 239.565079 
L 179.304111 241.974408 
L 183.813202 244.399186 
L 188.322293 246.835645 
L 192.831384 249.279844 
L 197.340475 251.727595 
L 201.849566 254.174383 
L 206.358657 256.615265 
L 210.867748 259.044774 
L 215.376839 261.456794 
L 219.885929 263.844433 
L 224.39502 266.199876 
L 228.904111 268.514234 
L 233.413202 270.777382 
L 237.922293 272.977798 
L 242.431384 275.102429 
L 246.940475 277.136586 
L 251.449566 279.063933 
L 255.958657 280.866579 
L 260.467748 282.525361 
L 264.976839 284.020357 
L 269.485929 285.331685 
L 273.99502 286.440582 
L 278.504111 287.330728 
L 283.013202 287.989656 
L 287.522293 288.410042 
L 292.031384 288.590618 
L 296.540475 288.536492 
L 301.049566 288.258791 
L 305.558657 287.773686 
L 310.067748 287.10101 
L 314.576839 286.262728 
L 319.085929 285.281508 
L 323.59502 284.179547 
L 328.104111 282.977721 
L 332.613202 281.695069 
L 337.122293 280.348531 
L 341.631384 278.952899 
L 346.140475 277.520893 
L 350.649566 276.063323 
L 355.158657 274.589285 
L 359.667748 273.106373 
L 364.176839 271.620879 
L 368.685929 270.137984 
L 373.19502 268.66193 
L 377.704111 267.19616 
L 382.213202 265.743453 
L 386.722293 264.306029 
L 391.231384 262.885645 
L 395.740475 261.483669 
L 400.249566 260.101145 
L 404.758657 258.738854 
L 409.267748 257.397351 
L 413.776839 256.07701 
L 418.285929 254.778053 
L 422.79502 253.500576 
L 427.304111 252.244574 
L 431.813202 251.009957 
L 436.322293 249.796567 
L 440.831384 248.60419 
L 445.340475 247.432567 
L 449.849566 246.281405 
L 454.358657 245.150382 
L 458.867748 244.039154 
L 463.376839 242.947361 
L 467.885929 241.874632 
L 472.39502 240.820588 
L 476.904111 239.784842 
L 481.413202 238.767009 
L 485.922293 237.766699 
L 490.431384 236.783527 
L 494.940475 235.817108 
" clip-path="url(#pbfe4a041ec)" style="fill: none; stroke: #fc8a6a; stroke-width: 3; stroke-linecap: square"/>
   </g>
   <g id="line2d_109">
    <path d="M 48.540475 190.585212 
L 53.049566 190.510755 
L 57.558657 190.287879 
L 62.067748 189.918058 
L 66.576839 189.403702 
L 71.085929 188.748091 
L 75.59502 187.955291 
L 80.104111 187.030048 
L 84.613202 185.977675 
L 89.122293 184.803935 
L 93.631384 183.514925 
L 98.140475 182.116955 
L 102.649566 180.616453 
L 107.158657 179.019863 
L 111.667748 177.333568 
L 116.176839 175.56382 
L 120.685929 173.71669 
L 125.19502 171.798028 
L 129.704111 169.813432 
L 134.213202 167.768238 
L 138.722293 165.667511 
L 143.231384 163.516054 
L 147.740475 161.318416 
L 152.249566 159.078912 
L 156.758657 156.80165 
L 161.267748 154.490559 
L 165.776839 152.149427 
L 170.285929 149.781939 
L 174.79502 147.391721 
L 179.304111 144.982392 
L 183.813202 142.557614 
L 188.322293 140.121155 
L 192.831384 137.676956 
L 197.340475 135.229205 
L 201.849566 132.782417 
L 206.358657 130.341535 
L 210.867748 127.912026 
L 215.376839 125.500006 
L 219.885929 123.112367 
L 224.39502 120.756924 
L 228.904111 118.442566 
L 233.413202 116.179418 
L 237.922293 113.979002 
L 242.431384 111.854371 
L 246.940475 109.820214 
L 251.449566 107.892867 
L 255.958657 106.090221 
L 260.467748 104.431439 
L 264.976839 102.936443 
L 269.485929 101.625115 
L 273.99502 100.516218 
L 278.504111 99.626072 
L 283.013202 98.967144 
L 287.522293 98.546758 
L 292.031384 98.366182 
L 296.540475 98.420308 
L 301.049566 98.698009 
L 305.558657 99.183114 
L 310.067748 99.85579 
L 314.576839 100.694072 
L 319.085929 101.675292 
L 323.59502 102.777253 
L 328.104111 103.979079 
L 332.613202 105.261731 
L 337.122293 106.608269 
L 341.631384 108.003901 
L 346.140475 109.435907 
L 350.649566 110.893477 
L 355.158657 112.367515 
L 359.667748 113.850427 
L 364.176839 115.335921 
L 368.685929 116.818816 
L 373.19502 118.29487 
L 377.704111 119.76064 
L 382.213202 121.213347 
L 386.722293 122.650771 
L 391.231384 124.071155 
L 395.740475 125.473131 
L 400.249566 126.855655 
L 404.758657 128.217946 
L 409.267748 129.559449 
L 413.776839 130.87979 
L 418.285929 132.178747 
L 422.79502 133.456224 
L 427.304111 134.712226 
L 431.813202 135.946843 
L 436.322293 137.160233 
L 440.831384 138.35261 
L 445.340475 139.524233 
L 449.849566 140.675395 
L 454.358657 141.806418 
L 458.867748 142.917646 
L 463.376839 144.009439 
L 467.885929 145.082168 
L 472.39502 146.136212 
L 476.904111 147.171958 
L 481.413202 148.189791 
L 485.922293 149.190101 
L 490.431384 150.173273 
L 494.940475 151.139692 
" clip-path="url(#pbfe4a041ec)" style="fill: none; stroke: #94c4df; stroke-width: 3; stroke-linecap: square"/>
   </g>
   <g id="patch_3">
    <path d="M 48.540475 339.84 
L 48.540475 7.2 
" style="fill: none; stroke: #000000; stroke-width: 0.5; stroke-linejoin: miter; stroke-linecap: square"/>
   </g>
   <g id="patch_4">
    <path d="M 494.940475 339.84 
L 494.940475 7.2 
" style="fill: none; stroke: #000000; stroke-width: 0.5; stroke-linejoin: miter; stroke-linecap: square"/>
   </g>
   <g id="patch_5">
    <path d="M 48.540475 339.84 
L 494.940475 339.84 
" style="fill: none; stroke: #000000; stroke-width: 0.5; stroke-linejoin: miter; stroke-linecap: square"/>
   </g>
   <g id="patch_6">
    <path d="M 48.540475 7.2 
L 494.940475 7.2 
" style="fill: none; stroke: #000000; stroke-width: 0.5; stroke-linejoin: miter; stroke-linecap: square"/>
   </g>
   <g id="legend_1">
    <g id="line2d_110">
     <path d="M 414.858145 21.091049 
L 419.258145 21.091049 
L 423.658145 21.091049 
" style="fill: none; stroke: #bc141a; stroke-width: 3; stroke-linecap: square"/>
    </g>
    <g id="line2d_111">
     <path d="M 428.058145 21.091049 
L 432.458145 21.091049 
L 436.858145 21.091049 
" style="fill: none; stroke: #1764ab; stroke-width: 3; stroke-linecap: square"/>
    </g>
    <g id="text_14">
     <!-- $Z_0 = \xi$ -->
     <g transform="translate(445.658145 24.941049) scale(0.11 -0.11)">
      <defs>
       <path id="URWPalladioL-Ital-5a" d="M 128 0 
C 742 0 1114 0 1670 0 
C 2170 0 2918 0 3309 0 
L 3731 0 
C 3744 260 3795 621 3878 1059 
L 3712 1059 
L 3667 919 
C 3622 792 3565 625 3514 485 
L 3462 344 
C 3174 287 2931 262 2650 262 
L 851 262 
L 4077 4301 
L 4077 4416 
L 3040 4416 
L 2874 4416 
L 1523 4416 
L 768 4416 
C 768 4121 749 3874 698 3415 
L 864 3415 
C 883 3555 922 3714 998 3964 
L 1037 4091 
C 1395 4155 1638 4174 2189 4174 
L 3341 4174 
L 128 134 
L 128 0 
z
" transform="scale(0.015625)"/>
       <path id="CMR10-3d" d="M 4397 2048 
C 4493 2048 4614 2048 4614 2177 
C 4614 2305 4493 2305 4403 2305 
L 570 2305 
C 480 2305 358 2305 358 2177 
C 358 2048 480 2048 576 2048 
L 4397 2048 
z
M 4403 832 
C 4493 832 4614 832 4614 961 
C 4614 1089 4493 1089 4397 1089 
L 576 1089 
C 480 1089 358 1089 358 961 
C 358 832 480 832 570 832 
L 4403 832 
z
" transform="scale(0.015625)"/>
       <path id="PazoMath-Italic-78" d="M 774 3706 
L 909 3706 
L 1101 4070 
C 1210 4094 1267 4101 1350 4101 
C 1440 4101 1510 4094 1638 4070 
C 1869 4026 2029 4007 2176 4007 
C 1882 3796 1702 3605 1702 3369 
C 1702 3248 1734 3151 1805 3069 
C 1517 3043 1101 2814 781 2527 
C 429 2214 186 1544 186 874 
C 186 262 454 -64 966 -64 
C 1114 -64 1638 0 1830 0 
C 2048 0 2157 -114 2157 -328 
C 2157 -372 2150 -409 2144 -460 
C 1990 -906 1670 -1152 1389 -1152 
C 1165 -1152 992 -982 992 -762 
C 992 -731 998 -681 1005 -624 
L 941 -598 
L 634 -813 
C 627 -857 627 -896 627 -927 
C 627 -1199 864 -1421 1152 -1421 
C 1510 -1421 1952 -1116 2240 -754 
C 2470 -467 2515 -149 2515 74 
C 2515 131 2496 181 2458 220 
C 2368 321 2182 321 2048 321 
C 1862 321 1421 264 1210 264 
C 851 264 672 520 672 1028 
C 672 1720 896 2387 1210 2630 
C 1344 2733 1510 2817 1709 2817 
C 1856 2817 1978 2778 2093 2740 
C 2150 2720 2336 2688 2394 2688 
C 2477 2688 2637 2688 2662 2695 
C 2662 2729 2707 2889 2752 2956 
C 2752 2990 2746 3010 2739 3010 
C 2400 3010 2093 3219 2093 3537 
C 2093 3885 2662 4112 2931 4214 
L 3123 4284 
L 3162 4486 
L 3104 4544 
L 2957 4397 
C 2893 4332 2829 4307 2739 4307 
C 2522 4307 2189 4358 1882 4442 
L 1766 4474 
C 1587 4519 1459 4544 1370 4544 
C 1261 4544 1133 4525 979 4481 
L 774 3706 
z
" transform="scale(0.015625)"/>
      </defs>
      <use xlink:href="#URWPalladioL-Ital-5a" transform="scale(0.996264)"/>
      <use xlink:href="#URWPalladioL-Roma-30" transform="translate(65.204427 -17.441431) scale(0.757155)"/>
      <use xlink:href="#CMR10-3d" transform="translate(132.479551 0) scale(1.038107)"/>
      <use xlink:href="#PazoMath-Italic-78" transform="translate(243.340479 0) scale(0.996264)"/>
     </g>
    </g>
    <g id="line2d_112">
     <path d="M 414.858145 37.522438 
L 419.258145 37.522438 
L 423.658145 37.522438 
" style="fill: none; stroke: #f14432; stroke-width: 3; stroke-linecap: square"/>
    </g>
    <g id="line2d_113">
     <path d="M 428.058145 37.522438 
L 432.458145 37.522438 
L 436.858145 37.522438 
" style="fill: none; stroke: #4a98c9; stroke-width: 3; stroke-linecap: square"/>
    </g>
    <g id="text_15">
     <!-- $Z_0 = 2 \, \xi$ -->
     <g transform="translate(445.658145 41.372438) scale(0.11 -0.11)">
      <use xlink:href="#URWPalladioL-Ital-5a" transform="scale(0.996264)"/>
      <use xlink:href="#URWPalladioL-Roma-30" transform="translate(65.204427 -17.441431) scale(0.757155)"/>
      <use xlink:href="#CMR10-3d" transform="translate(132.479551 0) scale(1.038107)"/>
      <use xlink:href="#URWPalladioL-Roma-32" transform="translate(242.09518 0) scale(0.996264)"/>
      <use xlink:href="#PazoMath-Italic-78" transform="translate(309.758039 0) scale(0.996264)"/>
     </g>
    </g>
    <g id="line2d_114">
     <path d="M 414.858145 53.953827 
L 419.258145 53.953827 
L 423.658145 53.953827 
" style="fill: none; stroke: #fc8a6a; stroke-width: 3; stroke-linecap: square"/>
    </g>
    <g id="line2d_115">
     <path d="M 428.058145 53.953827 
L 432.458145 53.953827 
L 436.858145 53.953827 
" style="fill: none; stroke: #94c4df; stroke-width: 3; stroke-linecap: square"/>
    </g>
    <g id="text_16">
     <!-- $Z_0 = 3 \, \xi$ -->
     <g transform="translate(445.658145 57.803827) scale(0.11 -0.11)">
      <use xlink:href="#URWPalladioL-Ital-5a" transform="scale(0.996264)"/>
      <use xlink:href="#URWPalladioL-Roma-30" transform="translate(65.204427 -17.441431) scale(0.757155)"/>
      <use xlink:href="#CMR10-3d" transform="translate(132.479551 0) scale(1.038107)"/>
      <use xlink:href="#URWPalladioL-Roma-33" transform="translate(242.09518 0) scale(0.996264)"/>
      <use xlink:href="#PazoMath-Italic-78" transform="translate(309.758039 0) scale(0.996264)"/>
     </g>
    </g>
   </g>
   <g id="legend_2">
    <g id="line2d_116">
     <path d="M 58.440475 21.091049 
L 69.440475 21.091049 
L 80.440475 21.091049 
" style="fill: none; stroke: #bc141a; stroke-width: 3; stroke-linecap: square"/>
    </g>
    <g id="text_17">
     <!-- singlet -->
     <g transform="translate(89.240475 24.941049) scale(0.11 -0.11)">
      <defs>
       <path id="URWPalladioL-Roma-73" d="M 262 917 
C 262 475 243 282 192 26 
C 525 -83 774 -128 1069 -128 
C 1907 -128 2502 321 2502 949 
C 2502 1148 2445 1295 2323 1424 
C 2157 1584 1946 1661 1382 1770 
C 858 1873 685 2001 685 2296 
C 685 2616 909 2796 1299 2796 
C 1728 2796 2054 2572 2054 2270 
L 2054 2123 
L 2234 2123 
C 2240 2495 2246 2648 2266 2847 
C 1926 2963 1696 3008 1434 3008 
C 691 3008 237 2655 237 2078 
C 237 1770 378 1552 672 1417 
C 845 1340 1184 1238 1619 1141 
C 1907 1077 2029 943 2029 699 
C 2029 353 1709 109 1254 109 
C 787 109 454 333 454 654 
L 454 917 
L 262 917 
z
" transform="scale(0.015625)"/>
       <path id="URWPalladioL-Roma-69" d="M 1203 2993 
L 1146 3019 
C 819 2884 486 2793 147 2755 
L 147 2576 
L 384 2576 
C 640 2576 666 2531 666 2105 
L 666 651 
C 666 244 646 199 429 199 
L 134 199 
L 134 0 
C 774 0 774 0 934 0 
C 1094 0 1094 0 1734 0 
L 1734 199 
L 1440 199 
C 1222 199 1203 244 1203 651 
L 1203 2993 
z
M 909 4416 
C 717 4416 550 4249 550 4056 
C 550 3870 717 3704 902 3704 
C 1088 3704 1261 3870 1261 4056 
C 1261 4236 1088 4416 909 4416 
z
" transform="scale(0.015625)"/>
       <path id="URWPalladioL-Roma-6e" d="M 2624 -7 
C 3014 -7 3021 -7 3130 -7 
C 3219 -7 3219 -7 3661 -7 
L 3661 179 
L 3398 205 
C 3181 205 3162 244 3162 654 
L 3162 1892 
C 3162 2642 2810 3008 2093 3008 
C 1856 3008 1722 2963 1587 2847 
L 1101 2424 
L 1101 2982 
L 1043 3008 
C 717 2873 384 2783 45 2745 
L 45 2565 
L 282 2565 
C 538 2565 563 2520 563 2094 
L 563 643 
C 563 237 544 192 326 192 
L 38 192 
L 38 -7 
C 474 -7 646 -7 832 -7 
C 1018 -7 1190 -7 1626 -7 
L 1626 192 
L 1338 192 
C 1120 192 1101 237 1101 643 
L 1101 2011 
C 1101 2300 1523 2616 1914 2616 
C 2342 2616 2624 2297 2624 1806 
L 2624 -7 
z
" transform="scale(0.015625)"/>
       <path id="URWPalladioL-Roma-67" d="M 3322 2432 
L 3482 2695 
L 3456 2759 
L 2547 2759 
C 2310 2937 2080 3008 1766 3008 
C 1485 3008 1158 2920 896 2768 
C 538 2567 352 2258 352 1874 
C 352 1408 646 1087 1120 1036 
L 614 640 
C 550 543 518 459 518 361 
C 518 180 634 76 941 -14 
L 384 -316 
C 294 -367 205 -604 205 -803 
C 205 -1388 774 -1792 1587 -1792 
C 2554 -1792 3315 -1182 3315 -399 
C 3315 63 3008 384 2560 384 
L 1536 384 
C 1203 384 1050 462 1050 639 
C 1050 724 1101 795 1267 939 
C 1306 972 1318 985 1344 1011 
C 1408 1004 1446 998 1498 998 
C 1773 998 2112 1118 2374 1300 
C 2662 1507 2803 1759 2803 2093 
C 2803 2218 2784 2300 2733 2432 
L 3322 2432 
z
M 1536 2790 
C 1971 2790 2266 2438 2266 1905 
C 2266 1499 1997 1216 1606 1216 
C 1178 1216 890 1542 890 2025 
C 890 2507 1126 2790 1536 2790 
z
M 1837 -65 
C 2560 -65 2810 -212 2810 -630 
C 2810 -1182 2304 -1593 1632 -1593 
C 1075 -1593 691 -1266 691 -790 
C 691 -502 858 -238 1114 -129 
C 1216 -78 1395 -65 1837 -65 
z
" transform="scale(0.015625)"/>
       <path id="URWPalladioL-Roma-6c" d="M 147 4256 
L 506 4256 
C 621 4256 666 4185 666 3992 
L 666 651 
C 666 244 646 199 429 199 
L 134 199 
L 134 0 
C 774 0 774 0 934 0 
C 1094 0 1094 0 1734 0 
L 1734 199 
L 1440 199 
C 1222 199 1203 244 1203 650 
L 1203 4621 
L 1146 4673 
C 864 4564 653 4512 147 4435 
L 147 4256 
z
" transform="scale(0.015625)"/>
       <path id="URWPalladioL-Roma-74" d="M 627 2476 
L 627 619 
C 627 142 838 -64 1331 -64 
C 1478 -64 1632 -32 1670 13 
L 1978 353 
L 1894 463 
C 1734 372 1638 340 1517 340 
C 1267 340 1165 470 1165 788 
L 1165 2489 
L 1984 2489 
L 2042 2816 
L 1165 2816 
L 1165 3056 
C 1165 3321 1184 3547 1235 3951 
L 1158 4021 
C 1005 3925 813 3842 614 3778 
C 634 3585 640 3463 640 3271 
L 640 2822 
L 141 2598 
L 141 2476 
L 627 2476 
z
" transform="scale(0.015625)"/>
      </defs>
      <use xlink:href="#URWPalladioL-Roma-73" transform="scale(0.996264)"/>
      <use xlink:href="#URWPalladioL-Roma-69" transform="translate(42.241466 0) scale(0.996264)"/>
      <use xlink:href="#URWPalladioL-Roma-6e" transform="translate(71.231828 0) scale(0.996264)"/>
      <use xlink:href="#URWPalladioL-Roma-67" transform="translate(129.213888 0) scale(0.996264)"/>
      <use xlink:href="#URWPalladioL-Roma-6c" transform="translate(184.605565 0) scale(0.996264)"/>
      <use xlink:href="#URWPalladioL-Roma-65" transform="translate(213.595927 0) scale(0.996264)"/>
      <use xlink:href="#URWPalladioL-Roma-74" transform="translate(261.316222 0) scale(0.996264)"/>
     </g>
    </g>
    <g id="line2d_117">
     <path d="M 58.440475 37.522438 
L 69.440475 37.522438 
L 80.440475 37.522438 
" style="fill: none; stroke: #1764ab; stroke-width: 3; stroke-linecap: square"/>
    </g>
    <g id="text_18">
     <!-- triplet -->
     <g transform="translate(89.240475 41.372438) scale(0.11 -0.11)">
      <defs>
       <path id="URWPalladioL-Roma-72" d="M 147 2565 
L 384 2565 
C 640 2565 666 2520 666 2094 
L 666 643 
C 666 237 646 192 429 192 
L 134 192 
L 134 -7 
C 595 -7 762 -7 922 -7 
C 1050 -7 1050 -7 1837 -7 
L 1837 192 
L 1504 192 
C 1216 192 1203 211 1203 638 
L 1203 1751 
C 1203 2139 1459 2463 1773 2463 
C 1965 2463 2099 2373 2202 2169 
L 2336 2169 
L 2394 2937 
C 2323 2982 2208 3008 2093 3008 
C 1901 3008 1696 2905 1562 2745 
L 1203 2322 
L 1203 2982 
L 1146 3008 
C 819 2873 486 2783 147 2745 
L 147 2565 
z
" transform="scale(0.015625)"/>
       <path id="URWPalladioL-Roma-70" d="M 64 2565 
L 301 2565 
C 557 2565 582 2520 582 2095 
L 582 -1142 
C 582 -1548 563 -1593 346 -1593 
L 51 -1593 
L 51 -1792 
C 691 -1792 691 -1792 851 -1792 
C 1011 -1792 1011 -1792 1651 -1792 
L 1651 -1593 
L 1357 -1593 
C 1139 -1593 1120 -1547 1120 -1138 
L 1120 89 
C 1312 -26 1517 -71 1805 -71 
C 1990 -71 2157 -32 2259 32 
L 2989 505 
C 3245 672 3546 1330 3546 1740 
C 3546 2451 2957 3008 2214 3008 
C 1978 3008 1747 2943 1645 2847 
L 1120 2367 
L 1120 2982 
L 1062 3008 
C 736 2873 403 2783 64 2745 
L 64 2565 
z
M 1120 1964 
C 1120 2053 1152 2124 1235 2233 
C 1421 2469 1683 2591 2003 2591 
C 2605 2591 2989 2169 2989 1504 
C 2989 787 2560 256 1984 256 
C 1632 256 1370 372 1120 633 
L 1120 1964 
z
" transform="scale(0.015625)"/>
      </defs>
      <use xlink:href="#URWPalladioL-Roma-74" transform="scale(0.996264)"/>
      <use xlink:href="#URWPalladioL-Roma-72" transform="translate(32.477088 0) scale(0.996264)"/>
      <use xlink:href="#URWPalladioL-Roma-69" transform="translate(71.828984 0) scale(0.996264)"/>
      <use xlink:href="#URWPalladioL-Roma-70" transform="translate(100.819346 0) scale(0.996264)"/>
      <use xlink:href="#URWPalladioL-Roma-6c" transform="translate(160.693739 0) scale(0.996264)"/>
      <use xlink:href="#URWPalladioL-Roma-65" transform="translate(189.684101 0) scale(0.996264)"/>
      <use xlink:href="#URWPalladioL-Roma-74" transform="translate(237.404396 0) scale(0.996264)"/>
     </g>
    </g>
   </g>
  </g>
 </g>
 <defs>
  <clipPath id="pbfe4a041ec">
   <rect x="48.540475" y="7.2" width="446.4" height="332.64"/>
  </clipPath>
 </defs>
</svg>
