<?xml version="1.0" encoding="utf-8" standalone="no"?>
<!DOCTYPE svg PUBLIC "-//W3C//DTD SVG 1.1//EN"
  "http://www.w3.org/Graphics/SVG/1.1/DTD/svg11.dtd">
<svg xmlns:xlink="http://www.w3.org/1999/xlink" width="607.78098pt" height="404.228242pt" viewBox="0 0 607.78098 404.228242" xmlns="http://www.w3.org/2000/svg" version="1.1">
 <metadata>
  <rdf:RDF xmlns:dc="http://purl.org/dc/elements/1.1/" xmlns:cc="http://creativecommons.org/ns#" xmlns:rdf="http://www.w3.org/1999/02/22-rdf-syntax-ns#">
   <cc:Work>
    <dc:type rdf:resource="http://purl.org/dc/dcmitype/StillImage"/>
    <dc:date>2025-06-16T15:57:10.455222</dc:date>
    <dc:format>image/svg+xml</dc:format>
    <dc:creator>
     <cc:Agent>
      <dc:title>Matplotlib v3.7.1, https://matplotlib.org/</dc:title>
     </cc:Agent>
    </dc:creator>
   </cc:Work>
  </rdf:RDF>
 </metadata>
 <defs>
  <style type="text/css">*{stroke-linejoin: round; stroke-linecap: butt}</style>
 </defs>
 <g id="figure_1">
  <g id="patch_1">
   <path d="M 0 404.228242 
L 607.78098 404.228242 
L 607.78098 0 
L 0 0 
z
" style="fill: #ffffff"/>
  </g>
  <g id="axes_1">
   <g id="patch_2">
    <path d="M 98.38098 339.84 
L 600.58098 339.84 
L 600.58098 7.2 
L 98.38098 7.2 
z
" style="fill: #ffffff"/>
   </g>
   <g id="matplotlib.axis_1">
    <g id="xtick_1">
     <g id="line2d_1">
      <defs>
       <path id="m8986984258" d="M 0 0 
L 0 -3 
" style="stroke: #000000; stroke-width: 0.5"/>
      </defs>
      <g>
       <use xlink:href="#m8986984258" x="121.208253" y="339.84" style="stroke: #000000; stroke-width: 0.5"/>
      </g>
     </g>
     <g id="line2d_2">
      <defs>
       <path id="ma98ef22d97" d="M 0 0 
L 0 3 
" style="stroke: #000000; stroke-width: 0.5"/>
      </defs>
      <g>
       <use xlink:href="#ma98ef22d97" x="121.208253" y="7.2" style="stroke: #000000; stroke-width: 0.5"/>
      </g>
     </g>
     <g id="text_1">
      <!-- -50 -->
      <g transform="translate(105.272057 360.447767) scale(0.24 -0.24)">
       <defs>
        <path id="URWPalladioL-Roma-2d" d="M 1805 1408 
L 1997 1837 
L 1965 1869 
L 282 1869 
L 109 1440 
L 141 1408 
L 1805 1408 
z
" transform="scale(0.015625)"/>
        <path id="URWPalladioL-Roma-35" d="M 813 3877 
C 1638 3877 1997 3877 2765 3877 
L 2797 3907 
C 2784 4016 2784 4064 2784 4144 
C 2784 4229 2784 4277 2797 4386 
L 2765 4416 
C 2285 4416 1997 4416 1651 4416 
C 1299 4416 1018 4416 538 4416 
L 506 4403 
C 512 4011 518 3729 518 3523 
C 518 2977 499 2360 480 2077 
L 608 2038 
C 909 2341 1082 2432 1395 2432 
C 2010 2432 2394 1993 2394 1296 
C 2394 580 1984 160 1286 160 
C 941 160 621 277 531 444 
L 237 973 
L 83 883 
C 230 516 307 310 397 27 
C 576 -71 832 -128 1107 -128 
C 1536 -128 1990 59 2342 368 
C 2733 716 2938 1154 2938 1630 
C 2938 2359 2419 2874 1690 2874 
C 1382 2874 1152 2791 755 2554 
L 813 3877 
z
" transform="scale(0.015625)"/>
        <path id="URWPalladioL-Roma-30" d="M 1683 4416 
C 691 4416 186 3628 186 2077 
C 186 1326 320 680 544 366 
C 768 51 1126 -128 1523 -128 
C 2490 -128 2976 705 2976 2346 
C 2976 3749 2560 4416 1683 4416 
z
M 1568 4192 
C 2189 4192 2438 3564 2438 2025 
C 2438 661 2195 96 1606 96 
C 986 96 723 744 723 2308 
C 723 3660 960 4192 1568 4192 
z
" transform="scale(0.015625)"/>
       </defs>
       <use xlink:href="#URWPalladioL-Roma-2d" transform="scale(0.996264)"/>
       <use xlink:href="#URWPalladioL-Roma-35" transform="translate(33.17523 0) scale(0.996264)"/>
       <use xlink:href="#URWPalladioL-Roma-30" transform="translate(82.98843 0) scale(0.996264)"/>
      </g>
     </g>
    </g>
    <g id="xtick_2">
     <g id="line2d_3">
      <g>
       <use xlink:href="#m8986984258" x="235.344617" y="339.84" style="stroke: #000000; stroke-width: 0.5"/>
      </g>
     </g>
     <g id="line2d_4">
      <g>
       <use xlink:href="#ma98ef22d97" x="235.344617" y="7.2" style="stroke: #000000; stroke-width: 0.5"/>
      </g>
     </g>
     <g id="text_2">
      <!-- -25 -->
      <g transform="translate(219.408421 360.447767) scale(0.24 -0.24)">
       <defs>
        <path id="URWPalladioL-Roma-32" d="M 102 160 
L 102 0 
C 1299 0 1299 0 1530 0 
C 1760 0 1760 0 2995 0 
C 2982 125 2982 186 2982 269 
C 2982 348 2982 407 2995 539 
C 2259 539 1965 539 781 539 
L 1946 1761 
C 2566 2414 2758 2763 2758 3238 
C 2758 3966 2259 4416 1446 4416 
C 986 4416 672 4288 358 3969 
L 250 3099 
L 435 3099 
L 518 3393 
C 621 3763 851 3923 1280 3923 
C 1830 3923 2182 3577 2182 3035 
C 2182 2555 1914 2083 1190 1316 
L 102 160 
z
" transform="scale(0.015625)"/>
       </defs>
       <use xlink:href="#URWPalladioL-Roma-2d" transform="scale(0.996264)"/>
       <use xlink:href="#URWPalladioL-Roma-32" transform="translate(33.17523 0) scale(0.996264)"/>
       <use xlink:href="#URWPalladioL-Roma-35" transform="translate(82.98843 0) scale(0.996264)"/>
      </g>
     </g>
    </g>
    <g id="xtick_3">
     <g id="line2d_5">
      <g>
       <use xlink:href="#m8986984258" x="349.48098" y="339.84" style="stroke: #000000; stroke-width: 0.5"/>
      </g>
     </g>
     <g id="line2d_6">
      <g>
       <use xlink:href="#ma98ef22d97" x="349.48098" y="7.2" style="stroke: #000000; stroke-width: 0.5"/>
      </g>
     </g>
     <g id="text_3">
      <!-- 0 -->
      <g transform="translate(343.503396 360.447767) scale(0.24 -0.24)">
       <use xlink:href="#URWPalladioL-Roma-30" transform="scale(0.996264)"/>
      </g>
     </g>
    </g>
    <g id="xtick_4">
     <g id="line2d_7">
      <g>
       <use xlink:href="#m8986984258" x="463.617344" y="339.84" style="stroke: #000000; stroke-width: 0.5"/>
      </g>
     </g>
     <g id="line2d_8">
      <g>
       <use xlink:href="#ma98ef22d97" x="463.617344" y="7.2" style="stroke: #000000; stroke-width: 0.5"/>
      </g>
     </g>
     <g id="text_4">
      <!-- 25 -->
      <g transform="translate(451.662176 360.447767) scale(0.24 -0.24)">
       <use xlink:href="#URWPalladioL-Roma-32" transform="scale(0.996264)"/>
       <use xlink:href="#URWPalladioL-Roma-35" transform="translate(49.8132 0) scale(0.996264)"/>
      </g>
     </g>
    </g>
    <g id="xtick_5">
     <g id="line2d_9">
      <g>
       <use xlink:href="#m8986984258" x="577.753708" y="339.84" style="stroke: #000000; stroke-width: 0.5"/>
      </g>
     </g>
     <g id="line2d_10">
      <g>
       <use xlink:href="#ma98ef22d97" x="577.753708" y="7.2" style="stroke: #000000; stroke-width: 0.5"/>
      </g>
     </g>
     <g id="text_5">
      <!-- 50 -->
      <g transform="translate(565.798539 360.447767) scale(0.24 -0.24)">
       <use xlink:href="#URWPalladioL-Roma-35" transform="scale(0.996264)"/>
       <use xlink:href="#URWPalladioL-Roma-30" transform="translate(49.8132 0) scale(0.996264)"/>
      </g>
     </g>
    </g>
    <g id="xtick_6">
     <g id="line2d_11">
      <defs>
       <path id="mb21148ee79" d="M 0 0 
L 0 -1.5 
" style="stroke: #000000; stroke-width: 0.5"/>
      </defs>
      <g>
       <use xlink:href="#mb21148ee79" x="98.38098" y="339.84" style="stroke: #000000; stroke-width: 0.5"/>
      </g>
     </g>
     <g id="line2d_12">
      <defs>
       <path id="m6d0538a93f" d="M 0 0 
L 0 1.5 
" style="stroke: #000000; stroke-width: 0.5"/>
      </defs>
      <g>
       <use xlink:href="#m6d0538a93f" x="98.38098" y="7.2" style="stroke: #000000; stroke-width: 0.5"/>
      </g>
     </g>
    </g>
    <g id="xtick_7">
     <g id="line2d_13">
      <g>
       <use xlink:href="#mb21148ee79" x="144.035526" y="339.84" style="stroke: #000000; stroke-width: 0.5"/>
      </g>
     </g>
     <g id="line2d_14">
      <g>
       <use xlink:href="#m6d0538a93f" x="144.035526" y="7.2" style="stroke: #000000; stroke-width: 0.5"/>
      </g>
     </g>
    </g>
    <g id="xtick_8">
     <g id="line2d_15">
      <g>
       <use xlink:href="#mb21148ee79" x="166.862798" y="339.84" style="stroke: #000000; stroke-width: 0.5"/>
      </g>
     </g>
     <g id="line2d_16">
      <g>
       <use xlink:href="#m6d0538a93f" x="166.862798" y="7.2" style="stroke: #000000; stroke-width: 0.5"/>
      </g>
     </g>
    </g>
    <g id="xtick_9">
     <g id="line2d_17">
      <g>
       <use xlink:href="#mb21148ee79" x="189.690071" y="339.84" style="stroke: #000000; stroke-width: 0.5"/>
      </g>
     </g>
     <g id="line2d_18">
      <g>
       <use xlink:href="#m6d0538a93f" x="189.690071" y="7.2" style="stroke: #000000; stroke-width: 0.5"/>
      </g>
     </g>
    </g>
    <g id="xtick_10">
     <g id="line2d_19">
      <g>
       <use xlink:href="#mb21148ee79" x="212.517344" y="339.84" style="stroke: #000000; stroke-width: 0.5"/>
      </g>
     </g>
     <g id="line2d_20">
      <g>
       <use xlink:href="#m6d0538a93f" x="212.517344" y="7.2" style="stroke: #000000; stroke-width: 0.5"/>
      </g>
     </g>
    </g>
    <g id="xtick_11">
     <g id="line2d_21">
      <g>
       <use xlink:href="#mb21148ee79" x="258.171889" y="339.84" style="stroke: #000000; stroke-width: 0.5"/>
      </g>
     </g>
     <g id="line2d_22">
      <g>
       <use xlink:href="#m6d0538a93f" x="258.171889" y="7.2" style="stroke: #000000; stroke-width: 0.5"/>
      </g>
     </g>
    </g>
    <g id="xtick_12">
     <g id="line2d_23">
      <g>
       <use xlink:href="#mb21148ee79" x="280.999162" y="339.84" style="stroke: #000000; stroke-width: 0.5"/>
      </g>
     </g>
     <g id="line2d_24">
      <g>
       <use xlink:href="#m6d0538a93f" x="280.999162" y="7.2" style="stroke: #000000; stroke-width: 0.5"/>
      </g>
     </g>
    </g>
    <g id="xtick_13">
     <g id="line2d_25">
      <g>
       <use xlink:href="#mb21148ee79" x="303.826435" y="339.84" style="stroke: #000000; stroke-width: 0.5"/>
      </g>
     </g>
     <g id="line2d_26">
      <g>
       <use xlink:href="#m6d0538a93f" x="303.826435" y="7.2" style="stroke: #000000; stroke-width: 0.5"/>
      </g>
     </g>
    </g>
    <g id="xtick_14">
     <g id="line2d_27">
      <g>
       <use xlink:href="#mb21148ee79" x="326.653708" y="339.84" style="stroke: #000000; stroke-width: 0.5"/>
      </g>
     </g>
     <g id="line2d_28">
      <g>
       <use xlink:href="#m6d0538a93f" x="326.653708" y="7.2" style="stroke: #000000; stroke-width: 0.5"/>
      </g>
     </g>
    </g>
    <g id="xtick_15">
     <g id="line2d_29">
      <g>
       <use xlink:href="#mb21148ee79" x="372.308253" y="339.84" style="stroke: #000000; stroke-width: 0.5"/>
      </g>
     </g>
     <g id="line2d_30">
      <g>
       <use xlink:href="#m6d0538a93f" x="372.308253" y="7.2" style="stroke: #000000; stroke-width: 0.5"/>
      </g>
     </g>
    </g>
    <g id="xtick_16">
     <g id="line2d_31">
      <g>
       <use xlink:href="#mb21148ee79" x="395.135526" y="339.84" style="stroke: #000000; stroke-width: 0.5"/>
      </g>
     </g>
     <g id="line2d_32">
      <g>
       <use xlink:href="#m6d0538a93f" x="395.135526" y="7.2" style="stroke: #000000; stroke-width: 0.5"/>
      </g>
     </g>
    </g>
    <g id="xtick_17">
     <g id="line2d_33">
      <g>
       <use xlink:href="#mb21148ee79" x="417.962798" y="339.84" style="stroke: #000000; stroke-width: 0.5"/>
      </g>
     </g>
     <g id="line2d_34">
      <g>
       <use xlink:href="#m6d0538a93f" x="417.962798" y="7.2" style="stroke: #000000; stroke-width: 0.5"/>
      </g>
     </g>
    </g>
    <g id="xtick_18">
     <g id="line2d_35">
      <g>
       <use xlink:href="#mb21148ee79" x="440.790071" y="339.84" style="stroke: #000000; stroke-width: 0.5"/>
      </g>
     </g>
     <g id="line2d_36">
      <g>
       <use xlink:href="#m6d0538a93f" x="440.790071" y="7.2" style="stroke: #000000; stroke-width: 0.5"/>
      </g>
     </g>
    </g>
    <g id="xtick_19">
     <g id="line2d_37">
      <g>
       <use xlink:href="#mb21148ee79" x="486.444617" y="339.84" style="stroke: #000000; stroke-width: 0.5"/>
      </g>
     </g>
     <g id="line2d_38">
      <g>
       <use xlink:href="#m6d0538a93f" x="486.444617" y="7.2" style="stroke: #000000; stroke-width: 0.5"/>
      </g>
     </g>
    </g>
    <g id="xtick_20">
     <g id="line2d_39">
      <g>
       <use xlink:href="#mb21148ee79" x="509.271889" y="339.84" style="stroke: #000000; stroke-width: 0.5"/>
      </g>
     </g>
     <g id="line2d_40">
      <g>
       <use xlink:href="#m6d0538a93f" x="509.271889" y="7.2" style="stroke: #000000; stroke-width: 0.5"/>
      </g>
     </g>
    </g>
    <g id="xtick_21">
     <g id="line2d_41">
      <g>
       <use xlink:href="#mb21148ee79" x="532.099162" y="339.84" style="stroke: #000000; stroke-width: 0.5"/>
      </g>
     </g>
     <g id="line2d_42">
      <g>
       <use xlink:href="#m6d0538a93f" x="532.099162" y="7.2" style="stroke: #000000; stroke-width: 0.5"/>
      </g>
     </g>
    </g>
    <g id="xtick_22">
     <g id="line2d_43">
      <g>
       <use xlink:href="#mb21148ee79" x="554.926435" y="339.84" style="stroke: #000000; stroke-width: 0.5"/>
      </g>
     </g>
     <g id="line2d_44">
      <g>
       <use xlink:href="#m6d0538a93f" x="554.926435" y="7.2" style="stroke: #000000; stroke-width: 0.5"/>
      </g>
     </g>
    </g>
    <g id="xtick_23">
     <g id="line2d_45">
      <g>
       <use xlink:href="#mb21148ee79" x="600.58098" y="339.84" style="stroke: #000000; stroke-width: 0.5"/>
      </g>
     </g>
     <g id="line2d_46">
      <g>
       <use xlink:href="#m6d0538a93f" x="600.58098" y="7.2" style="stroke: #000000; stroke-width: 0.5"/>
      </g>
     </g>
    </g>
    <g id="text_6">
     <!-- $\Lambda$ [meV] -->
     <g transform="translate(300.388861 389.72377) scale(0.26 -0.26)">
      <defs>
       <path id="PazoMath-4c" d="M 2368 4365 
L 678 519 
C 602 333 474 218 333 205 
L 96 186 
L 96 0 
C 678 0 691 0 794 0 
C 877 0 890 0 1568 0 
L 1568 186 
L 1331 205 
C 1107 224 1024 269 1024 371 
C 1024 455 1114 730 1248 1050 
L 2349 3642 
L 3571 738 
C 3686 468 3699 379 3699 320 
C 3699 250 3597 205 3437 192 
L 3136 192 
L 3136 0 
C 3910 0 3923 0 4026 0 
C 4147 0 4160 0 4838 0 
L 4838 186 
L 4621 205 
C 4454 231 4384 339 4160 858 
L 2611 4493 
L 2368 4365 
z
" transform="scale(0.015625)"/>
       <path id="URWPalladioL-Roma-5b" d="M 563 -1152 
C 1018 -1152 1030 -1152 1184 -1152 
C 1338 -1152 1370 -1152 1805 -1152 
L 1843 -1120 
L 1843 -953 
L 1818 -921 
L 1574 -921 
C 1402 -921 1261 -882 1184 -818 
C 1126 -760 1107 -671 1107 -459 
C 1107 -453 1107 -318 1101 -125 
L 1101 112 
L 1101 3409 
L 1101 3646 
C 1107 3826 1107 3967 1107 3973 
C 1107 4185 1126 4281 1184 4339 
C 1261 4403 1402 4441 1574 4441 
L 1818 4441 
L 1843 4473 
L 1843 4640 
L 1805 4672 
C 1357 4672 1338 4672 1184 4672 
C 1037 4672 1005 4672 563 4672 
L 506 4595 
C 544 4435 557 4223 557 3730 
C 557 3633 557 3556 563 3492 
L 563 3409 
L 563 112 
L 563 28 
C 557 -74 557 -81 557 -190 
L 557 -260 
C 557 -696 544 -876 506 -1075 
L 563 -1152 
z
" transform="scale(0.015625)"/>
       <path id="URWPalladioL-Roma-6d" d="M 115 2565 
L 352 2565 
C 608 2565 634 2520 634 2094 
L 634 643 
C 634 237 614 192 397 192 
L 102 192 
L 102 -7 
C 717 -7 736 -7 915 -7 
C 1094 -7 1261 -7 1677 -7 
L 1677 179 
L 1408 205 
C 1190 205 1171 250 1171 654 
L 1171 2014 
C 1171 2302 1594 2616 1978 2616 
C 2323 2616 2560 2287 2560 1798 
L 2560 643 
C 2560 237 2541 192 2323 192 
L 2029 192 
L 2029 -7 
C 2669 -7 2669 -7 2829 -7 
C 2989 -7 2989 -7 3629 -7 
L 3629 192 
L 3334 192 
C 3117 192 3098 237 3098 643 
L 3098 2011 
C 3098 2300 3520 2616 3904 2616 
C 4250 2616 4486 2291 4486 1806 
L 4486 -7 
C 4877 -7 4883 -7 4992 -7 
C 5075 -7 5075 -7 5562 -7 
L 5562 192 
L 5261 192 
C 5043 192 5024 237 5024 643 
L 5024 1970 
C 5024 2608 4653 3008 4064 3008 
C 3840 3008 3654 2950 3539 2847 
L 3053 2412 
C 2848 2834 2586 3008 2144 3008 
C 1907 3008 1728 2950 1613 2847 
L 1171 2437 
L 1171 2982 
L 1114 3008 
C 787 2873 454 2783 115 2745 
L 115 2565 
z
" transform="scale(0.015625)"/>
       <path id="URWPalladioL-Roma-65" d="M 2797 447 
L 2714 511 
C 2304 269 2157 212 1882 212 
C 1466 212 1120 398 941 711 
C 819 921 774 1101 762 1472 
L 1696 1472 
C 2138 1472 2413 1472 2854 1544 
C 2861 1634 2867 1693 2867 1771 
C 2867 2520 2394 3008 1677 3008 
C 1440 3008 1165 2924 902 2770 
C 378 2469 166 2071 166 1404 
C 166 1000 262 654 435 410 
C 691 71 1120 -128 1600 -128 
C 1837 -128 2074 -77 2336 37 
C 2509 108 2643 191 2669 230 
L 2797 447 
z
M 2298 1690 
C 1965 1690 1811 1690 1581 1690 
C 1286 1690 1120 1690 774 1722 
C 774 2027 800 2169 883 2337 
C 1018 2622 1293 2796 1600 2796 
C 1811 2796 1978 2711 2093 2534 
C 2234 2319 2278 2129 2298 1690 
z
" transform="scale(0.015625)"/>
       <path id="URWPalladioL-Roma-56" d="M 1754 4224 
L 1754 4417 
C 1050 4417 1050 4417 902 4417 
C 755 4417 755 4417 51 4417 
L 51 4237 
L 282 4218 
C 416 4205 480 4147 563 3955 
L 1766 994 
C 1965 507 2042 283 2138 -64 
L 2458 -64 
C 2579 334 2656 545 2867 1058 
L 3981 3756 
C 4128 4103 4198 4199 4326 4218 
L 4518 4237 
L 4518 4417 
L 3827 4417 
C 3712 4417 3565 4417 3379 4417 
C 3347 4417 3238 4417 3136 4417 
L 3136 4224 
L 3469 4224 
C 3610 4224 3693 4159 3693 4062 
C 3693 3998 3674 3908 3635 3812 
L 2464 769 
L 1203 4030 
C 1197 4056 1190 4076 1190 4102 
C 1190 4179 1267 4224 1395 4224 
L 1754 4224 
z
" transform="scale(0.015625)"/>
       <path id="URWPalladioL-Roma-5d" d="M 1568 4672 
C 1114 4672 1094 4672 947 4672 
C 794 4672 762 4672 326 4672 
L 288 4640 
L 288 4473 
L 314 4441 
L 557 4441 
C 730 4441 864 4403 941 4339 
C 1005 4281 1024 4191 1024 3973 
C 1024 3954 1024 3826 1030 3646 
L 1030 3409 
L 1030 112 
L 1030 -125 
C 1024 -311 1024 -427 1024 -446 
C 1024 -664 1005 -760 941 -818 
C 864 -882 730 -921 557 -921 
L 314 -921 
L 288 -953 
L 288 -1120 
L 326 -1152 
C 774 -1152 787 -1152 947 -1152 
C 1094 -1152 1126 -1152 1568 -1152 
L 1626 -1075 
C 1587 -921 1581 -722 1574 -228 
C 1574 -138 1574 -55 1568 28 
L 1568 112 
L 1568 3409 
L 1568 3492 
C 1574 3563 1574 3646 1574 3736 
C 1574 4230 1587 4441 1626 4595 
L 1568 4672 
z
" transform="scale(0.015625)"/>
      </defs>
      <use xlink:href="#PazoMath-4c" transform="scale(0.996264)"/>
      <use xlink:href="#URWPalladioL-Roma-5b" transform="translate(103.661334 0) scale(0.996264)"/>
      <use xlink:href="#URWPalladioL-Roma-6d" transform="translate(136.836564 0) scale(0.996264)"/>
      <use xlink:href="#URWPalladioL-Roma-65" transform="translate(224.806238 0) scale(0.996264)"/>
      <use xlink:href="#URWPalladioL-Roma-56" transform="translate(272.526533 0) scale(0.996264)"/>
      <use xlink:href="#URWPalladioL-Roma-5d" transform="translate(344.456518 0) scale(0.996264)"/>
     </g>
    </g>
   </g>
   <g id="matplotlib.axis_2">
    <g id="ytick_1">
     <g id="line2d_47">
      <defs>
       <path id="mb06b1df776" d="M 0 0 
L 3 0 
" style="stroke: #000000; stroke-width: 0.5"/>
      </defs>
      <g>
       <use xlink:href="#mb06b1df776" x="98.38098" y="324.72" style="stroke: #000000; stroke-width: 0.5"/>
      </g>
     </g>
     <g id="line2d_48">
      <defs>
       <path id="mcfab8f1acd" d="M 0 0 
L -3 0 
" style="stroke: #000000; stroke-width: 0.5"/>
      </defs>
      <g>
       <use xlink:href="#mcfab8f1acd" x="600.58098" y="324.72" style="stroke: #000000; stroke-width: 0.5"/>
      </g>
     </g>
     <g id="text_7">
      <!-- $\mathdefault{1.00}$ -->
      <g transform="translate(53.037892 333.273883) scale(0.24 -0.24)">
       <defs>
        <path id="URWPalladioL-Roma-31" d="M 429 3584 
L 493 3584 
L 1318 3956 
C 1325 3962 1331 3962 1338 3962 
C 1376 3962 1389 3905 1389 3751 
L 1389 613 
C 1389 276 1318 205 973 205 
L 614 205 
L 614 0 
C 1600 0 1600 0 1670 0 
C 1754 0 1894 0 2112 0 
C 2189 0 2413 0 2675 0 
L 2675 205 
L 2342 205 
C 1990 205 1926 276 1926 612 
L 1926 4443 
L 1837 4475 
C 1421 4257 966 4065 384 3860 
L 429 3584 
z
" transform="scale(0.015625)"/>
        <path id="URWPalladioL-Roma-2e" d="M 794 744 
C 602 744 429 564 429 372 
C 429 179 602 0 787 0 
C 992 0 1171 173 1171 372 
C 1171 564 992 744 794 744 
z
" transform="scale(0.015625)"/>
       </defs>
       <use xlink:href="#URWPalladioL-Roma-31" transform="scale(0.996264)"/>
       <use xlink:href="#URWPalladioL-Roma-2e" transform="translate(49.8132 0) scale(0.996264)"/>
       <use xlink:href="#URWPalladioL-Roma-30" transform="translate(74.719801 0) scale(0.996264)"/>
       <use xlink:href="#URWPalladioL-Roma-30" transform="translate(124.533001 0) scale(0.996264)"/>
      </g>
     </g>
    </g>
    <g id="ytick_2">
     <g id="line2d_49">
      <g>
       <use xlink:href="#mb06b1df776" x="98.38098" y="252.313945" style="stroke: #000000; stroke-width: 0.5"/>
      </g>
     </g>
     <g id="line2d_50">
      <g>
       <use xlink:href="#mcfab8f1acd" x="600.58098" y="252.313945" style="stroke: #000000; stroke-width: 0.5"/>
      </g>
     </g>
     <g id="text_8">
      <!-- $\mathdefault{1.02}$ -->
      <g transform="translate(53.037892 260.867828) scale(0.24 -0.24)">
       <use xlink:href="#URWPalladioL-Roma-31" transform="scale(0.996264)"/>
       <use xlink:href="#URWPalladioL-Roma-2e" transform="translate(49.8132 0) scale(0.996264)"/>
       <use xlink:href="#URWPalladioL-Roma-30" transform="translate(74.719801 0) scale(0.996264)"/>
       <use xlink:href="#URWPalladioL-Roma-32" transform="translate(124.533001 0) scale(0.996264)"/>
      </g>
     </g>
    </g>
    <g id="ytick_3">
     <g id="line2d_51">
      <g>
       <use xlink:href="#mb06b1df776" x="98.38098" y="179.90789" style="stroke: #000000; stroke-width: 0.5"/>
      </g>
     </g>
     <g id="line2d_52">
      <g>
       <use xlink:href="#mcfab8f1acd" x="600.58098" y="179.90789" style="stroke: #000000; stroke-width: 0.5"/>
      </g>
     </g>
     <g id="text_9">
      <!-- $\mathdefault{1.04}$ -->
      <g transform="translate(53.037892 188.461774) scale(0.24 -0.24)">
       <defs>
        <path id="URWPalladioL-Roma-34" d="M 1792 1152 
L 1792 673 
C 1792 289 1722 199 1408 199 
L 1011 199 
L 1011 0 
C 1862 0 1862 0 2016 0 
C 2170 0 2170 0 3021 0 
L 3021 199 
L 2714 199 
C 2400 199 2330 282 2330 669 
L 2330 1152 
C 2707 1152 2842 1152 3021 1133 
L 3021 1588 
C 2720 1563 2598 1563 2502 1563 
L 2483 1563 
L 2330 1563 
L 2330 2457 
C 2330 3600 2342 4152 2374 4416 
L 2298 4448 
L 1824 4275 
L 13 1299 
L 83 1152 
L 1792 1152 
z
M 1792 1563 
L 416 1563 
L 1792 3826 
L 1792 1563 
z
" transform="scale(0.015625)"/>
       </defs>
       <use xlink:href="#URWPalladioL-Roma-31" transform="scale(0.996264)"/>
       <use xlink:href="#URWPalladioL-Roma-2e" transform="translate(49.8132 0) scale(0.996264)"/>
       <use xlink:href="#URWPalladioL-Roma-30" transform="translate(74.719801 0) scale(0.996264)"/>
       <use xlink:href="#URWPalladioL-Roma-34" transform="translate(124.533001 0) scale(0.996264)"/>
      </g>
     </g>
    </g>
    <g id="ytick_4">
     <g id="line2d_53">
      <g>
       <use xlink:href="#mb06b1df776" x="98.38098" y="107.501835" style="stroke: #000000; stroke-width: 0.5"/>
      </g>
     </g>
     <g id="line2d_54">
      <g>
       <use xlink:href="#mcfab8f1acd" x="600.58098" y="107.501835" style="stroke: #000000; stroke-width: 0.5"/>
      </g>
     </g>
     <g id="text_10">
      <!-- $\mathdefault{1.06}$ -->
      <g transform="translate(53.037892 116.055719) scale(0.24 -0.24)">
       <defs>
        <path id="URWPalladioL-Roma-36" d="M 2662 4310 
L 2426 4419 
C 1811 4214 1549 4086 1222 3804 
C 563 3246 205 2464 205 1585 
C 205 526 717 -128 1542 -128 
C 2374 -128 2995 532 2995 1405 
C 2995 2143 2554 2624 1875 2624 
C 1555 2624 1363 2540 986 2239 
C 915 2181 909 2175 838 2124 
C 973 3284 1510 3913 2662 4259 
L 2662 4310 
z
M 1632 2239 
C 2118 2239 2445 1816 2445 1181 
C 2445 513 2118 83 1626 83 
C 1082 83 787 551 787 1412 
C 787 1636 813 1758 883 1867 
C 1024 2085 1325 2239 1632 2239 
z
" transform="scale(0.015625)"/>
       </defs>
       <use xlink:href="#URWPalladioL-Roma-31" transform="scale(0.996264)"/>
       <use xlink:href="#URWPalladioL-Roma-2e" transform="translate(49.8132 0) scale(0.996264)"/>
       <use xlink:href="#URWPalladioL-Roma-30" transform="translate(74.719801 0) scale(0.996264)"/>
       <use xlink:href="#URWPalladioL-Roma-36" transform="translate(124.533001 0) scale(0.996264)"/>
      </g>
     </g>
    </g>
    <g id="ytick_5">
     <g id="line2d_55">
      <g>
       <use xlink:href="#mb06b1df776" x="98.38098" y="35.09578" style="stroke: #000000; stroke-width: 0.5"/>
      </g>
     </g>
     <g id="line2d_56">
      <g>
       <use xlink:href="#mcfab8f1acd" x="600.58098" y="35.09578" style="stroke: #000000; stroke-width: 0.5"/>
      </g>
     </g>
     <g id="text_11">
      <!-- $\mathdefault{1.08}$ -->
      <g transform="translate(53.037892 43.649664) scale(0.24 -0.24)">
       <defs>
        <path id="URWPalladioL-Roma-38" d="M 1075 2211 
C 813 2090 704 2019 563 1884 
C 320 1641 192 1352 192 1019 
C 192 359 723 -128 1446 -128 
C 2278 -128 2970 526 2970 1320 
C 2970 1833 2733 2109 2003 2442 
C 2586 2840 2790 3109 2790 3493 
C 2790 4044 2336 4416 1658 4416 
C 896 4416 339 3929 339 3257 
C 339 2821 512 2577 1075 2211 
z
M 1818 1891 
C 2221 1711 2464 1397 2464 1052 
C 2464 513 2061 90 1542 90 
C 998 90 646 475 646 1071 
C 646 1538 832 1833 1306 2122 
L 1818 1891 
z
M 1427 2712 
C 1024 2910 819 3167 819 3487 
C 819 3910 1126 4198 1581 4198 
C 2048 4198 2355 3891 2355 3422 
C 2355 3058 2195 2808 1779 2538 
L 1427 2712 
z
" transform="scale(0.015625)"/>
       </defs>
       <use xlink:href="#URWPalladioL-Roma-31" transform="scale(0.996264)"/>
       <use xlink:href="#URWPalladioL-Roma-2e" transform="translate(49.8132 0) scale(0.996264)"/>
       <use xlink:href="#URWPalladioL-Roma-30" transform="translate(74.719801 0) scale(0.996264)"/>
       <use xlink:href="#URWPalladioL-Roma-38" transform="translate(124.533001 0) scale(0.996264)"/>
      </g>
     </g>
    </g>
    <g id="ytick_6">
     <g id="line2d_57">
      <defs>
       <path id="m8675c04a4d" d="M 0 0 
L 1.5 0 
" style="stroke: #000000; stroke-width: 0.5"/>
      </defs>
      <g>
       <use xlink:href="#m8675c04a4d" x="98.38098" y="306.618486" style="stroke: #000000; stroke-width: 0.5"/>
      </g>
     </g>
     <g id="line2d_58">
      <defs>
       <path id="mf99c679a14" d="M 0 0 
L -1.5 0 
" style="stroke: #000000; stroke-width: 0.5"/>
      </defs>
      <g>
       <use xlink:href="#mf99c679a14" x="600.58098" y="306.618486" style="stroke: #000000; stroke-width: 0.5"/>
      </g>
     </g>
    </g>
    <g id="ytick_7">
     <g id="line2d_59">
      <g>
       <use xlink:href="#m8675c04a4d" x="98.38098" y="288.516973" style="stroke: #000000; stroke-width: 0.5"/>
      </g>
     </g>
     <g id="line2d_60">
      <g>
       <use xlink:href="#mf99c679a14" x="600.58098" y="288.516973" style="stroke: #000000; stroke-width: 0.5"/>
      </g>
     </g>
    </g>
    <g id="ytick_8">
     <g id="line2d_61">
      <g>
       <use xlink:href="#m8675c04a4d" x="98.38098" y="270.415459" style="stroke: #000000; stroke-width: 0.5"/>
      </g>
     </g>
     <g id="line2d_62">
      <g>
       <use xlink:href="#mf99c679a14" x="600.58098" y="270.415459" style="stroke: #000000; stroke-width: 0.5"/>
      </g>
     </g>
    </g>
    <g id="ytick_9">
     <g id="line2d_63">
      <g>
       <use xlink:href="#m8675c04a4d" x="98.38098" y="234.212431" style="stroke: #000000; stroke-width: 0.5"/>
      </g>
     </g>
     <g id="line2d_64">
      <g>
       <use xlink:href="#mf99c679a14" x="600.58098" y="234.212431" style="stroke: #000000; stroke-width: 0.5"/>
      </g>
     </g>
    </g>
    <g id="ytick_10">
     <g id="line2d_65">
      <g>
       <use xlink:href="#m8675c04a4d" x="98.38098" y="216.110918" style="stroke: #000000; stroke-width: 0.5"/>
      </g>
     </g>
     <g id="line2d_66">
      <g>
       <use xlink:href="#mf99c679a14" x="600.58098" y="216.110918" style="stroke: #000000; stroke-width: 0.5"/>
      </g>
     </g>
    </g>
    <g id="ytick_11">
     <g id="line2d_67">
      <g>
       <use xlink:href="#m8675c04a4d" x="98.38098" y="198.009404" style="stroke: #000000; stroke-width: 0.5"/>
      </g>
     </g>
     <g id="line2d_68">
      <g>
       <use xlink:href="#mf99c679a14" x="600.58098" y="198.009404" style="stroke: #000000; stroke-width: 0.5"/>
      </g>
     </g>
    </g>
    <g id="ytick_12">
     <g id="line2d_69">
      <g>
       <use xlink:href="#m8675c04a4d" x="98.38098" y="161.806377" style="stroke: #000000; stroke-width: 0.5"/>
      </g>
     </g>
     <g id="line2d_70">
      <g>
       <use xlink:href="#mf99c679a14" x="600.58098" y="161.806377" style="stroke: #000000; stroke-width: 0.5"/>
      </g>
     </g>
    </g>
    <g id="ytick_13">
     <g id="line2d_71">
      <g>
       <use xlink:href="#m8675c04a4d" x="98.38098" y="143.704863" style="stroke: #000000; stroke-width: 0.5"/>
      </g>
     </g>
     <g id="line2d_72">
      <g>
       <use xlink:href="#mf99c679a14" x="600.58098" y="143.704863" style="stroke: #000000; stroke-width: 0.5"/>
      </g>
     </g>
    </g>
    <g id="ytick_14">
     <g id="line2d_73">
      <g>
       <use xlink:href="#m8675c04a4d" x="98.38098" y="125.603349" style="stroke: #000000; stroke-width: 0.5"/>
      </g>
     </g>
     <g id="line2d_74">
      <g>
       <use xlink:href="#mf99c679a14" x="600.58098" y="125.603349" style="stroke: #000000; stroke-width: 0.5"/>
      </g>
     </g>
    </g>
    <g id="ytick_15">
     <g id="line2d_75">
      <g>
       <use xlink:href="#m8675c04a4d" x="98.38098" y="89.400322" style="stroke: #000000; stroke-width: 0.5"/>
      </g>
     </g>
     <g id="line2d_76">
      <g>
       <use xlink:href="#mf99c679a14" x="600.58098" y="89.400322" style="stroke: #000000; stroke-width: 0.5"/>
      </g>
     </g>
    </g>
    <g id="ytick_16">
     <g id="line2d_77">
      <g>
       <use xlink:href="#m8675c04a4d" x="98.38098" y="71.298808" style="stroke: #000000; stroke-width: 0.5"/>
      </g>
     </g>
     <g id="line2d_78">
      <g>
       <use xlink:href="#mf99c679a14" x="600.58098" y="71.298808" style="stroke: #000000; stroke-width: 0.5"/>
      </g>
     </g>
    </g>
    <g id="ytick_17">
     <g id="line2d_79">
      <g>
       <use xlink:href="#m8675c04a4d" x="98.38098" y="53.197294" style="stroke: #000000; stroke-width: 0.5"/>
      </g>
     </g>
     <g id="line2d_80">
      <g>
       <use xlink:href="#mf99c679a14" x="600.58098" y="53.197294" style="stroke: #000000; stroke-width: 0.5"/>
      </g>
     </g>
    </g>
    <g id="ytick_18">
     <g id="line2d_81">
      <g>
       <use xlink:href="#m8675c04a4d" x="98.38098" y="16.994267" style="stroke: #000000; stroke-width: 0.5"/>
      </g>
     </g>
     <g id="line2d_82">
      <g>
       <use xlink:href="#mf99c679a14" x="600.58098" y="16.994267" style="stroke: #000000; stroke-width: 0.5"/>
      </g>
     </g>
    </g>
    <g id="text_12">
     <!-- $\xi_{\mathrm{ind}} / \xi_0$ -->
     <g transform="translate(25.73342 214.36294) rotate(-90) scale(0.26 -0.26)">
      <defs>
       <path id="PazoMath-Italic-78" d="M 774 3706 
L 909 3706 
L 1101 4070 
C 1210 4094 1267 4101 1350 4101 
C 1440 4101 1510 4094 1638 4070 
C 1869 4026 2029 4007 2176 4007 
C 1882 3796 1702 3605 1702 3369 
C 1702 3248 1734 3151 1805 3069 
C 1517 3043 1101 2814 781 2527 
C 429 2214 186 1544 186 874 
C 186 262 454 -64 966 -64 
C 1114 -64 1638 0 1830 0 
C 2048 0 2157 -114 2157 -328 
C 2157 -372 2150 -409 2144 -460 
C 1990 -906 1670 -1152 1389 -1152 
C 1165 -1152 992 -982 992 -762 
C 992 -731 998 -681 1005 -624 
L 941 -598 
L 634 -813 
C 627 -857 627 -896 627 -927 
C 627 -1199 864 -1421 1152 -1421 
C 1510 -1421 1952 -1116 2240 -754 
C 2470 -467 2515 -149 2515 74 
C 2515 131 2496 181 2458 220 
C 2368 321 2182 321 2048 321 
C 1862 321 1421 264 1210 264 
C 851 264 672 520 672 1028 
C 672 1720 896 2387 1210 2630 
C 1344 2733 1510 2817 1709 2817 
C 1856 2817 1978 2778 2093 2740 
C 2150 2720 2336 2688 2394 2688 
C 2477 2688 2637 2688 2662 2695 
C 2662 2729 2707 2889 2752 2956 
C 2752 2990 2746 3010 2739 3010 
C 2400 3010 2093 3219 2093 3537 
C 2093 3885 2662 4112 2931 4214 
L 3123 4284 
L 3162 4486 
L 3104 4544 
L 2957 4397 
C 2893 4332 2829 4307 2739 4307 
C 2522 4307 2189 4358 1882 4442 
L 1766 4474 
C 1587 4519 1459 4544 1370 4544 
C 1261 4544 1133 4525 979 4481 
L 774 3706 
z
" transform="scale(0.015625)"/>
       <path id="URWPalladioL-Roma-69" d="M 1203 2993 
L 1146 3019 
C 819 2884 486 2793 147 2755 
L 147 2576 
L 384 2576 
C 640 2576 666 2531 666 2105 
L 666 651 
C 666 244 646 199 429 199 
L 134 199 
L 134 0 
C 774 0 774 0 934 0 
C 1094 0 1094 0 1734 0 
L 1734 199 
L 1440 199 
C 1222 199 1203 244 1203 651 
L 1203 2993 
z
M 909 4416 
C 717 4416 550 4249 550 4056 
C 550 3870 717 3704 902 3704 
C 1088 3704 1261 3870 1261 4056 
C 1261 4236 1088 4416 909 4416 
z
" transform="scale(0.015625)"/>
       <path id="URWPalladioL-Roma-6e" d="M 2624 -7 
C 3014 -7 3021 -7 3130 -7 
C 3219 -7 3219 -7 3661 -7 
L 3661 179 
L 3398 205 
C 3181 205 3162 244 3162 654 
L 3162 1892 
C 3162 2642 2810 3008 2093 3008 
C 1856 3008 1722 2963 1587 2847 
L 1101 2424 
L 1101 2982 
L 1043 3008 
C 717 2873 384 2783 45 2745 
L 45 2565 
L 282 2565 
C 538 2565 563 2520 563 2094 
L 563 643 
C 563 237 544 192 326 192 
L 38 192 
L 38 -7 
C 474 -7 646 -7 832 -7 
C 1018 -7 1190 -7 1626 -7 
L 1626 192 
L 1338 192 
C 1120 192 1101 237 1101 643 
L 1101 2011 
C 1101 2300 1523 2616 1914 2616 
C 2342 2616 2624 2297 2624 1806 
L 2624 -7 
z
" transform="scale(0.015625)"/>
       <path id="URWPalladioL-Roma-64" d="M 2637 2802 
C 2278 2956 2099 3008 1875 3008 
C 1702 3008 1549 2969 1389 2887 
L 826 2593 
C 461 2401 224 1935 224 1392 
C 224 881 397 460 710 204 
C 928 19 1229 -64 1645 -64 
C 1773 -64 1920 -38 1952 -13 
L 2662 583 
L 2630 -7 
C 2944 -7 3046 -7 3123 -7 
C 3174 -7 3264 -7 3398 -7 
C 3443 -7 3571 -7 3706 -7 
L 3706 192 
L 3411 192 
C 3194 192 3174 237 3174 643 
L 3174 4607 
L 3117 4659 
C 2835 4550 2624 4498 2118 4421 
L 2118 4242 
L 2477 4242 
C 2592 4242 2637 4171 2637 3978 
L 2637 2802 
z
M 2637 1424 
C 2637 1009 2624 946 2541 799 
C 2362 499 2048 302 1747 302 
C 1184 302 781 844 781 1603 
C 781 2298 1126 2706 1702 2706 
C 1946 2706 2202 2623 2426 2470 
C 2560 2381 2637 2298 2637 2246 
L 2637 1424 
z
" transform="scale(0.015625)"/>
       <path id="URWPalladioL-Roma-2f" d="M 3322 4640 
L 2938 4640 
L 557 -768 
L 941 -768 
L 3322 4640 
z
" transform="scale(0.015625)"/>
      </defs>
      <use xlink:href="#PazoMath-Italic-78" transform="scale(0.996264)"/>
      <use xlink:href="#URWPalladioL-Roma-69" transform="translate(48.96637 -20.886626) scale(0.757155)"/>
      <use xlink:href="#URWPalladioL-Roma-6e" transform="translate(70.998891 -20.886626) scale(0.757155)"/>
      <use xlink:href="#URWPalladioL-Roma-64" transform="translate(115.064936 -20.886626) scale(0.757155)"/>
      <use xlink:href="#URWPalladioL-Roma-2f" transform="translate(163.070477 0) scale(0.996264)"/>
      <use xlink:href="#PazoMath-Italic-78" transform="translate(225.934682 0) scale(0.996264)"/>
      <use xlink:href="#URWPalladioL-Roma-30" transform="translate(274.901052 -17.441431) scale(0.757155)"/>
     </g>
    </g>
   </g>
   <g id="line2d_83">
    <path d="M 121.208253 300.256761 
L 137.187344 303.611123 
L 153.166435 306.708163 
L 169.145526 309.551135 
L 185.124617 312.143003 
L 201.103708 314.486447 
L 217.082798 316.583874 
L 233.061889 318.437424 
L 249.04098 320.04898 
L 265.020071 321.420168 
L 280.999162 322.552368 
L 296.978253 323.446714 
L 312.957344 324.104101 
L 328.936435 324.525183 
L 344.915526 324.710381 
L 360.894617 324.659877 
L 376.873708 324.373622 
L 392.852798 323.851332 
L 408.831889 323.092485 
L 424.81098 322.096325 
L 440.790071 320.861855 
L 456.769162 319.387835 
L 472.748253 317.672782 
L 488.727344 315.714958 
L 504.706435 313.512373 
L 520.685526 311.062772 
L 536.664617 308.363632 
L 552.643708 305.412153 
L 568.622798 302.205249 
L 577.753708 300.256761 
L 577.753708 300.256761 
" clip-path="url(#p8df133f868)" style="fill: none; stroke: #1f77b4; stroke-width: 5; stroke-linecap: square"/>
   </g>
   <g id="line2d_84">
    <path d="M 121.208253 22.32 
L 128.056435 42.516664 
L 134.904617 61.781976 
L 141.752798 80.152992 
L 148.60098 97.664146 
L 155.449162 114.347453 
L 162.297344 130.232691 
L 169.145526 145.347572 
L 175.993708 159.717887 
L 182.841889 173.367646 
L 189.690071 186.319198 
L 196.538253 198.593344 
L 203.386435 210.209435 
L 210.234617 221.185467 
L 214.800071 228.155541 
L 219.365526 234.853257 
L 223.93098 241.283044 
L 228.496435 247.449111 
L 233.061889 253.355459 
L 237.627344 259.005882 
L 242.192798 264.40398 
L 246.758253 269.553165 
L 251.323708 274.456663 
L 255.889162 279.117524 
L 260.454617 283.538626 
L 265.020071 287.722678 
L 269.585526 291.672231 
L 274.15098 295.389674 
L 278.716435 298.877243 
L 283.281889 302.137027 
L 287.847344 305.170965 
L 292.412798 307.980854 
L 296.978253 310.568351 
L 301.543708 312.934975 
L 306.109162 315.08211 
L 310.674617 317.011009 
L 315.240071 318.722792 
L 319.805526 320.218449 
L 324.37098 321.498846 
L 328.936435 322.564722 
L 333.501889 323.416688 
L 338.067344 324.055236 
L 342.632798 324.480731 
L 347.198253 324.693417 
L 351.763708 324.693417 
L 356.329162 324.480731 
L 360.894617 324.055236 
L 365.460071 323.416688 
L 370.025526 322.564722 
L 374.59098 321.498846 
L 379.156435 320.218449 
L 383.721889 318.722792 
L 388.287344 317.011009 
L 392.852798 315.08211 
L 397.418253 312.934975 
L 401.983708 310.568351 
L 406.549162 307.980854 
L 411.114617 305.170965 
L 415.680071 302.137027 
L 420.245526 298.877243 
L 424.81098 295.389674 
L 429.376435 291.672231 
L 433.941889 287.722678 
L 438.507344 283.538626 
L 443.072798 279.117524 
L 447.638253 274.456663 
L 452.203708 269.553165 
L 456.769162 264.40398 
L 461.334617 259.005882 
L 465.900071 253.355459 
L 470.465526 247.449111 
L 475.03098 241.283044 
L 479.596435 234.853257 
L 484.161889 228.155541 
L 488.727344 221.185467 
L 493.292798 213.938378 
L 497.858253 206.409384 
L 504.706435 194.576006 
L 511.554617 182.078278 
L 518.402798 168.896376 
L 525.25098 155.008994 
L 532.099162 140.393243 
L 538.947344 125.024534 
L 545.795526 108.876451 
L 552.643708 91.920611 
L 559.491889 74.126509 
L 566.340071 55.461345 
L 573.188253 35.889836 
L 577.753708 22.32 
L 577.753708 22.32 
" clip-path="url(#p8df133f868)" style="fill: none; stroke: #ff7f0e; stroke-width: 5; stroke-linecap: square"/>
   </g>
   <g id="line2d_85">
    <path d="M 121.208253 167.095442 
L 128.056435 177.1263 
L 134.904617 186.75902 
L 141.752798 196.003542 
L 148.60098 204.869257 
L 155.449162 213.365036 
L 162.297344 221.499258 
L 169.145526 229.27983 
L 175.993708 236.714216 
L 182.841889 243.809454 
L 189.690071 250.57218 
L 196.538253 257.008642 
L 203.386435 263.12472 
L 210.234617 268.92594 
L 217.082798 274.41749 
L 223.93098 279.604232 
L 230.779162 284.490715 
L 237.627344 289.081189 
L 244.475526 293.37961 
L 251.323708 297.389656 
L 258.171889 301.114731 
L 265.020071 304.557978 
L 271.868253 307.72228 
L 278.716435 310.610274 
L 285.564617 313.224352 
L 292.412798 315.566669 
L 299.26098 317.639147 
L 306.109162 319.443481 
L 312.957344 320.981139 
L 319.805526 322.253371 
L 326.653708 323.261208 
L 333.501889 324.005464 
L 340.350071 324.48674 
L 347.198253 324.705423 
L 354.046435 324.66169 
L 360.894617 324.355506 
L 367.742798 323.786624 
L 374.59098 322.954585 
L 381.439162 321.858718 
L 388.287344 320.498135 
L 395.135526 318.871735 
L 401.983708 316.978194 
L 408.831889 314.815969 
L 415.680071 312.38329 
L 422.528253 309.678158 
L 429.376435 306.698339 
L 436.224617 303.44136 
L 443.072798 299.904504 
L 449.92098 296.0848 
L 456.769162 291.97902 
L 463.617344 287.583671 
L 470.465526 282.894981 
L 477.313708 277.908898 
L 484.161889 272.621075 
L 491.010071 267.026857 
L 497.858253 261.121278 
L 504.706435 254.899036 
L 511.554617 248.354491 
L 518.402798 241.48164 
L 525.25098 234.274109 
L 532.099162 226.725131 
L 538.947344 218.827526 
L 545.795526 210.573687 
L 552.643708 201.95555 
L 559.491889 192.964577 
L 566.340071 183.591726 
L 573.188253 173.827426 
L 577.753708 167.095442 
L 577.753708 167.095442 
" clip-path="url(#p8df133f868)" style="fill: none; stroke: #2ca02c; stroke-width: 5; stroke-linecap: square"/>
   </g>
   <g id="patch_3">
    <path d="M 98.38098 339.84 
L 98.38098 7.2 
" style="fill: none; stroke: #000000; stroke-width: 0.5; stroke-linejoin: miter; stroke-linecap: square"/>
   </g>
   <g id="patch_4">
    <path d="M 600.58098 339.84 
L 600.58098 7.2 
" style="fill: none; stroke: #000000; stroke-width: 0.5; stroke-linejoin: miter; stroke-linecap: square"/>
   </g>
   <g id="patch_5">
    <path d="M 98.38098 339.84 
L 600.58098 339.84 
" style="fill: none; stroke: #000000; stroke-width: 0.5; stroke-linejoin: miter; stroke-linecap: square"/>
   </g>
   <g id="patch_6">
    <path d="M 98.38098 7.2 
L 600.58098 7.2 
" style="fill: none; stroke: #000000; stroke-width: 0.5; stroke-linejoin: miter; stroke-linecap: square"/>
   </g>
   <g id="legend_1">
    <g id="line2d_86">
     <path d="M 276.076125 40.03342 
L 302.076125 40.03342 
L 328.076125 40.03342 
" style="fill: none; stroke: #1f77b4; stroke-width: 5; stroke-linecap: square"/>
    </g>
    <g id="text_13">
     <!-- $\mathrm{Bi}_2 \mathrm{Se}_3$ -->
     <g transform="translate(348.876125 49.13342) scale(0.26 -0.26)">
      <defs>
       <path id="URWPalladioL-Roma-42" d="M 2163 4416 
C 1274 4416 1274 4416 1178 4416 
C 1056 4416 1056 4416 166 4416 
L 166 4236 
L 397 4217 
C 698 4191 723 4146 723 3643 
L 723 619 
C 723 384 672 243 582 205 
L 416 141 
L 416 0 
C 858 0 992 0 1114 0 
C 1184 0 1254 0 1331 0 
C 1843 0 1843 0 1907 0 
C 2374 0 2797 114 3085 324 
C 3462 590 3686 1022 3686 1467 
C 3686 1791 3558 2051 3315 2223 
C 3072 2401 2854 2458 2362 2496 
C 2675 2559 2822 2617 3002 2738 
C 3309 2947 3469 3221 3469 3552 
C 3469 4111 3066 4416 2323 4416 
L 2163 4416 
z
M 1331 2323 
C 1581 2323 1638 2323 1760 2323 
C 2624 2323 3027 2013 3027 1335 
C 3027 662 2586 263 1824 263 
C 1638 263 1491 276 1331 314 
L 1331 2323 
z
M 1331 4121 
C 1498 4159 1645 4172 1850 4172 
C 2534 4172 2835 3942 2835 3414 
C 2835 2859 2451 2560 1722 2560 
C 1613 2560 1530 2560 1331 2560 
L 1331 4121 
z
" transform="scale(0.015625)"/>
       <path id="URWPalladioL-Roma-53" d="M 2861 3371 
C 2861 3711 2886 3928 2950 4274 
C 2438 4480 2150 4544 1798 4544 
C 845 4544 154 3941 154 3102 
C 154 2788 237 2557 422 2384 
C 640 2186 934 2083 1555 2000 
C 2048 1929 2272 1859 2438 1711 
C 2605 1577 2682 1391 2682 1147 
C 2682 571 2202 154 1536 154 
C 1024 154 525 404 493 666 
L 442 1096 
L 237 1096 
C 243 980 243 878 243 840 
C 243 545 230 404 192 116 
C 557 -45 928 -128 1299 -128 
C 2413 -128 3219 545 3219 1474 
C 3219 1775 3136 1987 2957 2153 
C 2733 2364 2464 2448 1747 2544 
C 966 2646 691 2858 691 3352 
C 691 3890 1094 4274 1658 4274 
C 1907 4274 2144 4223 2317 4127 
C 2528 4018 2598 3922 2618 3737 
L 2656 3371 
L 2861 3371 
z
" transform="scale(0.015625)"/>
       <path id="URWPalladioL-Roma-33" d="M 275 3197 
L 474 3197 
L 589 3554 
C 659 3770 1062 3987 1395 3987 
C 1811 3987 2150 3649 2150 3248 
C 2150 2770 1773 2368 1318 2368 
C 1267 2368 1197 2368 1114 2381 
L 1018 2381 
L 941 2047 
L 986 2008 
C 1229 2118 1350 2150 1523 2150 
C 2054 2150 2362 1809 2362 1222 
C 2362 566 1971 135 1376 135 
C 1082 135 819 231 627 411 
C 474 553 390 701 269 1049 
L 96 985 
C 230 593 282 361 320 39 
C 659 -77 941 -128 1178 -128 
C 1690 -128 2278 161 2630 593 
C 2848 857 2957 1140 2957 1442 
C 2957 1751 2829 2022 2598 2182 
C 2438 2298 2291 2350 1971 2407 
C 2483 2803 2675 3096 2675 3472 
C 2675 4040 2202 4416 1491 4416 
C 1056 4416 768 4295 461 3989 
L 275 3197 
z
" transform="scale(0.015625)"/>
      </defs>
      <use xlink:href="#URWPalladioL-Roma-42" transform="scale(0.996264)"/>
      <use xlink:href="#URWPalladioL-Roma-69" transform="translate(60.871631 0) scale(0.996264)"/>
      <use xlink:href="#URWPalladioL-Roma-32" transform="translate(89.861992 -17.441431) scale(0.757155)"/>
      <use xlink:href="#URWPalladioL-Roma-53" transform="translate(128.217883 0) scale(0.996264)"/>
      <use xlink:href="#URWPalladioL-Roma-65" transform="translate(180.521698 0) scale(0.996264)"/>
      <use xlink:href="#URWPalladioL-Roma-33" transform="translate(228.241993 -17.441431) scale(0.757155)"/>
     </g>
    </g>
    <g id="line2d_87">
     <path d="M 276.076125 78.871312 
L 302.076125 78.871312 
L 328.076125 78.871312 
" style="fill: none; stroke: #ff7f0e; stroke-width: 5; stroke-linecap: square"/>
    </g>
    <g id="text_14">
     <!-- $\mathrm{Bi}_2 \mathrm{Te}_3$ -->
     <g transform="translate(348.876125 87.971312) scale(0.26 -0.26)">
      <defs>
       <path id="URWPalladioL-Roma-54" d="M 1632 4114 
C 1651 3896 1658 3749 1658 3473 
L 1658 763 
C 1658 256 1626 205 1331 205 
L 1024 205 
L 1024 0 
C 1402 0 1626 0 1958 0 
C 2291 0 2522 0 2899 0 
L 2899 205 
L 2592 205 
C 2298 205 2266 256 2266 763 
L 2266 3473 
C 2266 3762 2272 3903 2291 4114 
L 3283 4114 
C 3462 4114 3533 4057 3539 3904 
L 3565 3400 
L 3763 3400 
C 3763 3810 3776 4056 3808 4416 
C 3347 4416 3136 4416 2957 4416 
C 2707 4416 2522 4416 2426 4416 
L 1414 4416 
C 1350 4416 1005 4416 550 4416 
L 115 4416 
C 147 4056 160 3810 160 3400 
L 358 3400 
L 384 3904 
C 390 4057 461 4114 640 4114 
L 1632 4114 
z
" transform="scale(0.015625)"/>
      </defs>
      <use xlink:href="#URWPalladioL-Roma-42" transform="scale(0.996264)"/>
      <use xlink:href="#URWPalladioL-Roma-69" transform="translate(60.871631 0) scale(0.996264)"/>
      <use xlink:href="#URWPalladioL-Roma-32" transform="translate(89.861992 -17.441431) scale(0.757155)"/>
      <use xlink:href="#URWPalladioL-Roma-54" transform="translate(128.217883 0) scale(0.996264)"/>
      <use xlink:href="#URWPalladioL-Roma-65" transform="translate(180.122833 0) scale(0.996264)"/>
      <use xlink:href="#URWPalladioL-Roma-33" transform="translate(227.843129 -17.441431) scale(0.757155)"/>
     </g>
    </g>
    <g id="line2d_88">
     <path d="M 276.076125 117.709204 
L 302.076125 117.709204 
L 328.076125 117.709204 
" style="fill: none; stroke: #2ca02c; stroke-width: 5; stroke-linecap: square"/>
    </g>
    <g id="text_15">
     <!-- $\mathrm{Sb}_2 \mathrm{Te}_3$ -->
     <g transform="translate(348.876125 126.809204) scale(0.26 -0.26)">
      <defs>
       <path id="URWPalladioL-Roma-62" d="M 960 4620 
L 902 4672 
C 621 4563 410 4511 -96 4434 
L -96 4255 
L 262 4255 
C 378 4255 422 4184 422 3991 
L 422 989 
C 422 591 416 416 371 -33 
L 474 -71 
L 730 160 
C 986 -7 1216 -71 1555 -71 
C 1805 -71 1971 -26 2106 70 
L 2746 531 
C 3027 735 3251 1266 3251 1733 
C 3251 2476 2771 3008 2093 3008 
C 1792 3008 1478 2892 1312 2725 
L 960 2367 
L 960 4620 
z
M 960 1977 
C 960 2066 1024 2181 1126 2297 
C 1306 2482 1555 2591 1818 2591 
C 2355 2591 2694 2156 2694 1472 
C 2694 755 2310 256 1766 256 
C 1434 256 960 460 960 601 
L 960 1977 
z
" transform="scale(0.015625)"/>
      </defs>
      <use xlink:href="#URWPalladioL-Roma-53" transform="scale(0.996264)"/>
      <use xlink:href="#URWPalladioL-Roma-62" transform="translate(52.303815 0) scale(0.996264)"/>
      <use xlink:href="#URWPalladioL-Roma-32" transform="translate(107.396214 -17.441431) scale(0.757155)"/>
      <use xlink:href="#URWPalladioL-Roma-54" transform="translate(145.752105 0) scale(0.996264)"/>
      <use xlink:href="#URWPalladioL-Roma-65" transform="translate(197.657056 0) scale(0.996264)"/>
      <use xlink:href="#URWPalladioL-Roma-33" transform="translate(245.377351 -17.441431) scale(0.757155)"/>
     </g>
    </g>
   </g>
  </g>
 </g>
 <defs>
  <clipPath id="p8df133f868">
   <rect x="98.38098" y="7.2" width="502.2" height="332.64"/>
  </clipPath>
 </defs>
</svg>
