<?xml version="1.0" encoding="utf-8" standalone="no"?>
<!DOCTYPE svg PUBLIC "-//W3C//DTD SVG 1.1//EN"
  "http://www.w3.org/Graphics/SVG/1.1/DTD/svg11.dtd">
<svg xmlns:xlink="http://www.w3.org/1999/xlink" width="695.119572pt" height="499.207998pt" viewBox="0 0 695.119572 499.207998" xmlns="http://www.w3.org/2000/svg" version="1.1">
 <metadata>
  <rdf:RDF xmlns:dc="http://purl.org/dc/elements/1.1/" xmlns:cc="http://creativecommons.org/ns#" xmlns:rdf="http://www.w3.org/1999/02/22-rdf-syntax-ns#">
   <cc:Work>
    <dc:type rdf:resource="http://purl.org/dc/dcmitype/StillImage"/>
    <dc:date>2025-05-30T15:29:39.640177</dc:date>
    <dc:format>image/svg+xml</dc:format>
    <dc:creator>
     <cc:Agent>
      <dc:title>Matplotlib v3.7.1, https://matplotlib.org/</dc:title>
     </cc:Agent>
    </dc:creator>
   </cc:Work>
  </rdf:RDF>
 </metadata>
 <defs>
  <style type="text/css">*{stroke-linejoin: round; stroke-linecap: butt}</style>
 </defs>
 <g id="figure_1">
  <g id="patch_1">
   <path d="M 0 499.207998 
L 695.119572 499.207998 
L 695.119572 0 
L 0 0 
z
" style="fill: #ffffff"/>
  </g>
  <g id="axes_1">
   <g id="patch_2">
    <path d="M 74.974094 450.72 
L 632.974094 450.72 
L 632.974094 7.2 
L 74.974094 7.2 
z
" style="fill: #ffffff"/>
   </g>
   <g id="matplotlib.axis_1">
    <g id="xtick_1">
     <g id="line2d_1">
      <defs>
       <path id="m1e04241576" d="M 0 0 
L 0 -3 
" style="stroke: #000000; stroke-width: 0.5"/>
      </defs>
      <g>
       <use xlink:href="#m1e04241576" x="133.710936" y="450.72" style="stroke: #000000; stroke-width: 0.5"/>
      </g>
     </g>
     <g id="line2d_2">
      <defs>
       <path id="ma11325b1ac" d="M 0 0 
L 0 3 
" style="stroke: #000000; stroke-width: 0.5"/>
      </defs>
      <g>
       <use xlink:href="#ma11325b1ac" x="133.710936" y="7.2" style="stroke: #000000; stroke-width: 0.5"/>
      </g>
     </g>
     <g id="text_1">
      <!-- $\mathdefault{0}$ -->
      <g transform="translate(130.224012 464.199529) scale(0.14 -0.14)">
       <defs>
        <path id="URWPalladioL-Roma-30" d="M 1683 4416 
C 691 4416 186 3628 186 2077 
C 186 1326 320 680 544 366 
C 768 51 1126 -128 1523 -128 
C 2490 -128 2976 705 2976 2346 
C 2976 3749 2560 4416 1683 4416 
z
M 1568 4192 
C 2189 4192 2438 3564 2438 2025 
C 2438 661 2195 96 1606 96 
C 986 96 723 744 723 2308 
C 723 3660 960 4192 1568 4192 
z
" transform="scale(0.015625)"/>
       </defs>
       <use xlink:href="#URWPalladioL-Roma-30" transform="scale(0.996264)"/>
      </g>
     </g>
    </g>
    <g id="xtick_2">
     <g id="line2d_3">
      <g>
       <use xlink:href="#m1e04241576" x="251.184621" y="450.72" style="stroke: #000000; stroke-width: 0.5"/>
      </g>
     </g>
     <g id="line2d_4">
      <g>
       <use xlink:href="#ma11325b1ac" x="251.184621" y="7.2" style="stroke: #000000; stroke-width: 0.5"/>
      </g>
     </g>
     <g id="text_2">
      <!-- $\mathdefault{2}$ -->
      <g transform="translate(247.697696 464.199529) scale(0.14 -0.14)">
       <defs>
        <path id="URWPalladioL-Roma-32" d="M 102 160 
L 102 0 
C 1299 0 1299 0 1530 0 
C 1760 0 1760 0 2995 0 
C 2982 125 2982 186 2982 269 
C 2982 348 2982 407 2995 539 
C 2259 539 1965 539 781 539 
L 1946 1761 
C 2566 2414 2758 2763 2758 3238 
C 2758 3966 2259 4416 1446 4416 
C 986 4416 672 4288 358 3969 
L 250 3099 
L 435 3099 
L 518 3393 
C 621 3763 851 3923 1280 3923 
C 1830 3923 2182 3577 2182 3035 
C 2182 2555 1914 2083 1190 1316 
L 102 160 
z
" transform="scale(0.015625)"/>
       </defs>
       <use xlink:href="#URWPalladioL-Roma-32" transform="scale(0.996264)"/>
      </g>
     </g>
    </g>
    <g id="xtick_3">
     <g id="line2d_5">
      <g>
       <use xlink:href="#m1e04241576" x="368.658305" y="450.72" style="stroke: #000000; stroke-width: 0.5"/>
      </g>
     </g>
     <g id="line2d_6">
      <g>
       <use xlink:href="#ma11325b1ac" x="368.658305" y="7.2" style="stroke: #000000; stroke-width: 0.5"/>
      </g>
     </g>
     <g id="text_3">
      <!-- $\mathdefault{4}$ -->
      <g transform="translate(365.171381 464.199529) scale(0.14 -0.14)">
       <defs>
        <path id="URWPalladioL-Roma-34" d="M 1792 1152 
L 1792 673 
C 1792 289 1722 199 1408 199 
L 1011 199 
L 1011 0 
C 1862 0 1862 0 2016 0 
C 2170 0 2170 0 3021 0 
L 3021 199 
L 2714 199 
C 2400 199 2330 282 2330 669 
L 2330 1152 
C 2707 1152 2842 1152 3021 1133 
L 3021 1588 
C 2720 1563 2598 1563 2502 1563 
L 2483 1563 
L 2330 1563 
L 2330 2457 
C 2330 3600 2342 4152 2374 4416 
L 2298 4448 
L 1824 4275 
L 13 1299 
L 83 1152 
L 1792 1152 
z
M 1792 1563 
L 416 1563 
L 1792 3826 
L 1792 1563 
z
" transform="scale(0.015625)"/>
       </defs>
       <use xlink:href="#URWPalladioL-Roma-34" transform="scale(0.996264)"/>
      </g>
     </g>
    </g>
    <g id="xtick_4">
     <g id="line2d_7">
      <g>
       <use xlink:href="#m1e04241576" x="486.131989" y="450.72" style="stroke: #000000; stroke-width: 0.5"/>
      </g>
     </g>
     <g id="line2d_8">
      <g>
       <use xlink:href="#ma11325b1ac" x="486.131989" y="7.2" style="stroke: #000000; stroke-width: 0.5"/>
      </g>
     </g>
     <g id="text_4">
      <!-- $\mathdefault{6}$ -->
      <g transform="translate(482.645065 464.199529) scale(0.14 -0.14)">
       <defs>
        <path id="URWPalladioL-Roma-36" d="M 2662 4310 
L 2426 4419 
C 1811 4214 1549 4086 1222 3804 
C 563 3246 205 2464 205 1585 
C 205 526 717 -128 1542 -128 
C 2374 -128 2995 532 2995 1405 
C 2995 2143 2554 2624 1875 2624 
C 1555 2624 1363 2540 986 2239 
C 915 2181 909 2175 838 2124 
C 973 3284 1510 3913 2662 4259 
L 2662 4310 
z
M 1632 2239 
C 2118 2239 2445 1816 2445 1181 
C 2445 513 2118 83 1626 83 
C 1082 83 787 551 787 1412 
C 787 1636 813 1758 883 1867 
C 1024 2085 1325 2239 1632 2239 
z
" transform="scale(0.015625)"/>
       </defs>
       <use xlink:href="#URWPalladioL-Roma-36" transform="scale(0.996264)"/>
      </g>
     </g>
    </g>
    <g id="xtick_5">
     <g id="line2d_9">
      <g>
       <use xlink:href="#m1e04241576" x="603.605673" y="450.72" style="stroke: #000000; stroke-width: 0.5"/>
      </g>
     </g>
     <g id="line2d_10">
      <g>
       <use xlink:href="#ma11325b1ac" x="603.605673" y="7.2" style="stroke: #000000; stroke-width: 0.5"/>
      </g>
     </g>
     <g id="text_5">
      <!-- $\mathdefault{8}$ -->
      <g transform="translate(600.118749 464.199529) scale(0.14 -0.14)">
       <defs>
        <path id="URWPalladioL-Roma-38" d="M 1075 2211 
C 813 2090 704 2019 563 1884 
C 320 1641 192 1352 192 1019 
C 192 359 723 -128 1446 -128 
C 2278 -128 2970 526 2970 1320 
C 2970 1833 2733 2109 2003 2442 
C 2586 2840 2790 3109 2790 3493 
C 2790 4044 2336 4416 1658 4416 
C 896 4416 339 3929 339 3257 
C 339 2821 512 2577 1075 2211 
z
M 1818 1891 
C 2221 1711 2464 1397 2464 1052 
C 2464 513 2061 90 1542 90 
C 998 90 646 475 646 1071 
C 646 1538 832 1833 1306 2122 
L 1818 1891 
z
M 1427 2712 
C 1024 2910 819 3167 819 3487 
C 819 3910 1126 4198 1581 4198 
C 2048 4198 2355 3891 2355 3422 
C 2355 3058 2195 2808 1779 2538 
L 1427 2712 
z
" transform="scale(0.015625)"/>
       </defs>
       <use xlink:href="#URWPalladioL-Roma-38" transform="scale(0.996264)"/>
      </g>
     </g>
    </g>
    <g id="xtick_6">
     <g id="line2d_11">
      <defs>
       <path id="me4371e1a17" d="M 0 0 
L 0 -1.5 
" style="stroke: #000000; stroke-width: 0.5"/>
      </defs>
      <g>
       <use xlink:href="#me4371e1a17" x="104.342515" y="450.72" style="stroke: #000000; stroke-width: 0.5"/>
      </g>
     </g>
     <g id="line2d_12">
      <defs>
       <path id="ma10f359b1a" d="M 0 0 
L 0 1.5 
" style="stroke: #000000; stroke-width: 0.5"/>
      </defs>
      <g>
       <use xlink:href="#ma10f359b1a" x="104.342515" y="7.2" style="stroke: #000000; stroke-width: 0.5"/>
      </g>
     </g>
    </g>
    <g id="xtick_7">
     <g id="line2d_13">
      <g>
       <use xlink:href="#me4371e1a17" x="163.079357" y="450.72" style="stroke: #000000; stroke-width: 0.5"/>
      </g>
     </g>
     <g id="line2d_14">
      <g>
       <use xlink:href="#ma10f359b1a" x="163.079357" y="7.2" style="stroke: #000000; stroke-width: 0.5"/>
      </g>
     </g>
    </g>
    <g id="xtick_8">
     <g id="line2d_15">
      <g>
       <use xlink:href="#me4371e1a17" x="192.447778" y="450.72" style="stroke: #000000; stroke-width: 0.5"/>
      </g>
     </g>
     <g id="line2d_16">
      <g>
       <use xlink:href="#ma10f359b1a" x="192.447778" y="7.2" style="stroke: #000000; stroke-width: 0.5"/>
      </g>
     </g>
    </g>
    <g id="xtick_9">
     <g id="line2d_17">
      <g>
       <use xlink:href="#me4371e1a17" x="221.816199" y="450.72" style="stroke: #000000; stroke-width: 0.5"/>
      </g>
     </g>
     <g id="line2d_18">
      <g>
       <use xlink:href="#ma10f359b1a" x="221.816199" y="7.2" style="stroke: #000000; stroke-width: 0.5"/>
      </g>
     </g>
    </g>
    <g id="xtick_10">
     <g id="line2d_19">
      <g>
       <use xlink:href="#me4371e1a17" x="280.553042" y="450.72" style="stroke: #000000; stroke-width: 0.5"/>
      </g>
     </g>
     <g id="line2d_20">
      <g>
       <use xlink:href="#ma10f359b1a" x="280.553042" y="7.2" style="stroke: #000000; stroke-width: 0.5"/>
      </g>
     </g>
    </g>
    <g id="xtick_11">
     <g id="line2d_21">
      <g>
       <use xlink:href="#me4371e1a17" x="309.921463" y="450.72" style="stroke: #000000; stroke-width: 0.5"/>
      </g>
     </g>
     <g id="line2d_22">
      <g>
       <use xlink:href="#ma10f359b1a" x="309.921463" y="7.2" style="stroke: #000000; stroke-width: 0.5"/>
      </g>
     </g>
    </g>
    <g id="xtick_12">
     <g id="line2d_23">
      <g>
       <use xlink:href="#me4371e1a17" x="339.289884" y="450.72" style="stroke: #000000; stroke-width: 0.5"/>
      </g>
     </g>
     <g id="line2d_24">
      <g>
       <use xlink:href="#ma10f359b1a" x="339.289884" y="7.2" style="stroke: #000000; stroke-width: 0.5"/>
      </g>
     </g>
    </g>
    <g id="xtick_13">
     <g id="line2d_25">
      <g>
       <use xlink:href="#me4371e1a17" x="398.026726" y="450.72" style="stroke: #000000; stroke-width: 0.5"/>
      </g>
     </g>
     <g id="line2d_26">
      <g>
       <use xlink:href="#ma10f359b1a" x="398.026726" y="7.2" style="stroke: #000000; stroke-width: 0.5"/>
      </g>
     </g>
    </g>
    <g id="xtick_14">
     <g id="line2d_27">
      <g>
       <use xlink:href="#me4371e1a17" x="427.395147" y="450.72" style="stroke: #000000; stroke-width: 0.5"/>
      </g>
     </g>
     <g id="line2d_28">
      <g>
       <use xlink:href="#ma10f359b1a" x="427.395147" y="7.2" style="stroke: #000000; stroke-width: 0.5"/>
      </g>
     </g>
    </g>
    <g id="xtick_15">
     <g id="line2d_29">
      <g>
       <use xlink:href="#me4371e1a17" x="456.763568" y="450.72" style="stroke: #000000; stroke-width: 0.5"/>
      </g>
     </g>
     <g id="line2d_30">
      <g>
       <use xlink:href="#ma10f359b1a" x="456.763568" y="7.2" style="stroke: #000000; stroke-width: 0.5"/>
      </g>
     </g>
    </g>
    <g id="xtick_16">
     <g id="line2d_31">
      <g>
       <use xlink:href="#me4371e1a17" x="515.50041" y="450.72" style="stroke: #000000; stroke-width: 0.5"/>
      </g>
     </g>
     <g id="line2d_32">
      <g>
       <use xlink:href="#ma10f359b1a" x="515.50041" y="7.2" style="stroke: #000000; stroke-width: 0.5"/>
      </g>
     </g>
    </g>
    <g id="xtick_17">
     <g id="line2d_33">
      <g>
       <use xlink:href="#me4371e1a17" x="544.868831" y="450.72" style="stroke: #000000; stroke-width: 0.5"/>
      </g>
     </g>
     <g id="line2d_34">
      <g>
       <use xlink:href="#ma10f359b1a" x="544.868831" y="7.2" style="stroke: #000000; stroke-width: 0.5"/>
      </g>
     </g>
    </g>
    <g id="xtick_18">
     <g id="line2d_35">
      <g>
       <use xlink:href="#me4371e1a17" x="574.237252" y="450.72" style="stroke: #000000; stroke-width: 0.5"/>
      </g>
     </g>
     <g id="line2d_36">
      <g>
       <use xlink:href="#ma10f359b1a" x="574.237252" y="7.2" style="stroke: #000000; stroke-width: 0.5"/>
      </g>
     </g>
    </g>
    <g id="xtick_19">
     <g id="line2d_37">
      <g>
       <use xlink:href="#me4371e1a17" x="632.974094" y="450.72" style="stroke: #000000; stroke-width: 0.5"/>
      </g>
     </g>
     <g id="line2d_38">
      <g>
       <use xlink:href="#ma10f359b1a" x="632.974094" y="7.2" style="stroke: #000000; stroke-width: 0.5"/>
      </g>
     </g>
    </g>
    <g id="text_6">
     <!-- $z / \xi_{ind}$ -->
     <g transform="translate(327.54499 486.389176) scale(0.2 -0.2)">
      <defs>
       <path id="URWPalladioL-Ital-7a" d="M -6 140 
L 51 -32 
C 237 114 410 172 634 172 
C 794 172 973 140 1306 63 
C 1690 -32 1888 -64 2061 -64 
C 2138 -64 2195 -51 2381 0 
C 2451 395 2502 610 2573 910 
L 2432 910 
L 2291 529 
C 2253 414 2176 369 2042 369 
C 1965 369 1862 382 1728 414 
L 1613 439 
C 1402 484 1184 516 1062 516 
C 858 516 685 478 454 382 
L 2624 2812 
L 2662 3014 
L 2605 3072 
L 2458 2925 
C 2394 2861 2330 2836 2240 2836 
C 2022 2836 1690 2887 1382 2970 
L 1267 3002 
C 1088 3046 960 3072 870 3072 
C 762 3072 634 3053 480 3008 
L 275 2232 
L 410 2232 
L 602 2600 
C 710 2626 768 2632 851 2632 
C 941 2632 1011 2626 1139 2600 
C 1357 2556 1523 2536 1658 2536 
C 1888 2536 2042 2575 2253 2683 
L -6 140 
z
" transform="scale(0.015625)"/>
       <path id="URWPalladioL-Roma-2f" d="M 3322 4640 
L 2938 4640 
L 557 -768 
L 941 -768 
L 3322 4640 
z
" transform="scale(0.015625)"/>
       <path id="PazoMath-Italic-78" d="M 774 3706 
L 909 3706 
L 1101 4070 
C 1210 4094 1267 4101 1350 4101 
C 1440 4101 1510 4094 1638 4070 
C 1869 4026 2029 4007 2176 4007 
C 1882 3796 1702 3605 1702 3369 
C 1702 3248 1734 3151 1805 3069 
C 1517 3043 1101 2814 781 2527 
C 429 2214 186 1544 186 874 
C 186 262 454 -64 966 -64 
C 1114 -64 1638 0 1830 0 
C 2048 0 2157 -114 2157 -328 
C 2157 -372 2150 -409 2144 -460 
C 1990 -906 1670 -1152 1389 -1152 
C 1165 -1152 992 -982 992 -762 
C 992 -731 998 -681 1005 -624 
L 941 -598 
L 634 -813 
C 627 -857 627 -896 627 -927 
C 627 -1199 864 -1421 1152 -1421 
C 1510 -1421 1952 -1116 2240 -754 
C 2470 -467 2515 -149 2515 74 
C 2515 131 2496 181 2458 220 
C 2368 321 2182 321 2048 321 
C 1862 321 1421 264 1210 264 
C 851 264 672 520 672 1028 
C 672 1720 896 2387 1210 2630 
C 1344 2733 1510 2817 1709 2817 
C 1856 2817 1978 2778 2093 2740 
C 2150 2720 2336 2688 2394 2688 
C 2477 2688 2637 2688 2662 2695 
C 2662 2729 2707 2889 2752 2956 
C 2752 2990 2746 3010 2739 3010 
C 2400 3010 2093 3219 2093 3537 
C 2093 3885 2662 4112 2931 4214 
L 3123 4284 
L 3162 4486 
L 3104 4544 
L 2957 4397 
C 2893 4332 2829 4307 2739 4307 
C 2522 4307 2189 4358 1882 4442 
L 1766 4474 
C 1587 4519 1459 4544 1370 4544 
C 1261 4544 1133 4525 979 4481 
L 774 3706 
z
" transform="scale(0.015625)"/>
       <path id="URWPalladioL-Ital-69" d="M 218 2471 
L 262 2343 
L 467 2477 
C 704 2625 723 2637 768 2637 
C 832 2637 883 2574 883 2490 
C 883 2445 858 2299 832 2208 
L 410 676 
C 358 478 326 306 326 184 
C 326 31 397 -64 518 -64 
C 685 -64 915 69 1542 536 
L 1478 651 
L 1312 543 
C 1126 421 979 351 922 351 
C 877 351 838 415 838 478 
C 838 542 851 600 883 734 
L 1376 2676 
C 1402 2784 1414 2855 1414 2906 
C 1414 3014 1357 3072 1254 3072 
C 1114 3072 877 2938 397 2599 
L 218 2471 
z
M 1459 4529 
C 1274 4529 1088 4318 1088 4102 
C 1088 3942 1184 3840 1338 3840 
C 1536 3840 1690 4025 1690 4267 
C 1690 4420 1594 4529 1459 4529 
z
" transform="scale(0.015625)"/>
       <path id="URWPalladioL-Ital-6e" d="M 154 2471 
L 198 2343 
L 403 2477 
C 640 2625 659 2637 704 2637 
C 774 2637 819 2574 819 2478 
C 819 2152 557 919 294 6 
L 339 -64 
C 499 -20 646 18 787 44 
C 909 849 1043 1264 1338 1705 
C 1683 2241 2163 2637 2451 2637 
C 2522 2637 2560 2580 2560 2484 
C 2560 2369 2541 2235 2490 2031 
L 2157 677 
C 2099 440 2074 294 2074 192 
C 2074 31 2144 -64 2266 -64 
C 2432 -64 2662 69 3290 536 
L 3226 651 
L 3059 543 
C 2874 421 2733 351 2669 351 
C 2624 351 2586 408 2586 478 
C 2586 510 2592 581 2598 607 
L 3021 2369 
C 3066 2555 3091 2733 3091 2841 
C 3091 2989 3021 3072 2893 3072 
C 2624 3072 2182 2830 1805 2478 
C 1562 2254 1382 2037 1050 1571 
L 1293 2599 
C 1318 2714 1331 2790 1331 2861 
C 1331 2995 1280 3072 1184 3072 
C 1050 3072 800 2932 333 2599 
L 154 2471 
z
" transform="scale(0.015625)"/>
       <path id="URWPalladioL-Ital-64" d="M 3091 4619 
L 3014 4689 
C 2682 4524 2451 4466 1990 4422 
L 1965 4288 
L 2272 4288 
C 2426 4288 2490 4242 2490 4133 
C 2490 4081 2483 4023 2477 3978 
L 2298 2983 
C 2106 3040 1933 3072 1773 3072 
C 1331 3072 730 2614 435 2060 
C 237 1692 109 1087 109 553 
C 109 140 205 -64 390 -64 
C 563 -64 800 44 1018 215 
C 1363 496 1574 743 2003 1386 
L 1856 802 
C 1786 520 1754 315 1754 147 
C 1754 13 1811 -64 1920 -64 
C 2029 -64 2182 13 2400 175 
L 2918 565 
L 2854 686 
L 2573 489 
C 2483 426 2381 381 2323 381 
C 2272 381 2234 438 2234 528 
C 2234 580 2240 637 2285 822 
L 3091 4619 
z
M 2157 2239 
C 2042 1679 1728 1119 1331 743 
C 1107 534 851 381 730 381 
C 627 381 570 470 570 629 
C 570 1431 864 2423 1178 2664 
C 1261 2728 1382 2760 1555 2760 
C 1837 2760 2022 2721 2234 2614 
L 2157 2239 
z
" transform="scale(0.015625)"/>
      </defs>
      <use xlink:href="#URWPalladioL-Ital-7a" transform="scale(0.996264)"/>
      <use xlink:href="#URWPalladioL-Roma-2f" transform="translate(46.724761 0) scale(0.996264)"/>
      <use xlink:href="#PazoMath-Italic-78" transform="translate(109.588965 0) scale(0.996264)"/>
      <use xlink:href="#URWPalladioL-Ital-69" transform="translate(158.971758 -20.849366) scale(0.757155)"/>
      <use xlink:href="#URWPalladioL-Ital-6e" transform="translate(182.442777 -20.849366) scale(0.757155)"/>
      <use xlink:href="#URWPalladioL-Ital-64" transform="translate(226.433513 -20.849366) scale(0.757155)"/>
     </g>
    </g>
   </g>
   <g id="matplotlib.axis_2">
    <g id="ytick_1">
     <g id="line2d_39">
      <defs>
       <path id="m627c60f8ba" d="M 0 0 
L 3 0 
" style="stroke: #000000; stroke-width: 0.5"/>
      </defs>
      <g>
       <use xlink:href="#m627c60f8ba" x="74.974094" y="430.560026" style="stroke: #000000; stroke-width: 0.5"/>
      </g>
     </g>
     <g id="text_7">
      <!-- $\mathdefault{0.00}$ -->
      <g transform="translate(47.065626 435.54979) scale(0.14 -0.14)">
       <defs>
        <path id="URWPalladioL-Roma-2e" d="M 794 744 
C 602 744 429 564 429 372 
C 429 179 602 0 787 0 
C 992 0 1171 173 1171 372 
C 1171 564 992 744 794 744 
z
" transform="scale(0.015625)"/>
       </defs>
       <use xlink:href="#URWPalladioL-Roma-30" transform="scale(0.996264)"/>
       <use xlink:href="#URWPalladioL-Roma-2e" transform="translate(49.8132 0) scale(0.996264)"/>
       <use xlink:href="#URWPalladioL-Roma-30" transform="translate(74.719801 0) scale(0.996264)"/>
       <use xlink:href="#URWPalladioL-Roma-30" transform="translate(124.533001 0) scale(0.996264)"/>
      </g>
     </g>
    </g>
    <g id="ytick_2">
     <g id="line2d_40">
      <g>
       <use xlink:href="#m627c60f8ba" x="74.974094" y="329.760019" style="stroke: #000000; stroke-width: 0.5"/>
      </g>
     </g>
     <g id="text_8">
      <!-- $\mathdefault{0.25}$ -->
      <g transform="translate(47.065626 334.749784) scale(0.14 -0.14)">
       <defs>
        <path id="URWPalladioL-Roma-35" d="M 813 3877 
C 1638 3877 1997 3877 2765 3877 
L 2797 3907 
C 2784 4016 2784 4064 2784 4144 
C 2784 4229 2784 4277 2797 4386 
L 2765 4416 
C 2285 4416 1997 4416 1651 4416 
C 1299 4416 1018 4416 538 4416 
L 506 4403 
C 512 4011 518 3729 518 3523 
C 518 2977 499 2360 480 2077 
L 608 2038 
C 909 2341 1082 2432 1395 2432 
C 2010 2432 2394 1993 2394 1296 
C 2394 580 1984 160 1286 160 
C 941 160 621 277 531 444 
L 237 973 
L 83 883 
C 230 516 307 310 397 27 
C 576 -71 832 -128 1107 -128 
C 1536 -128 1990 59 2342 368 
C 2733 716 2938 1154 2938 1630 
C 2938 2359 2419 2874 1690 2874 
C 1382 2874 1152 2791 755 2554 
L 813 3877 
z
" transform="scale(0.015625)"/>
       </defs>
       <use xlink:href="#URWPalladioL-Roma-30" transform="scale(0.996264)"/>
       <use xlink:href="#URWPalladioL-Roma-2e" transform="translate(49.8132 0) scale(0.996264)"/>
       <use xlink:href="#URWPalladioL-Roma-32" transform="translate(74.719801 0) scale(0.996264)"/>
       <use xlink:href="#URWPalladioL-Roma-35" transform="translate(124.533001 0) scale(0.996264)"/>
      </g>
     </g>
    </g>
    <g id="ytick_3">
     <g id="line2d_41">
      <g>
       <use xlink:href="#m627c60f8ba" x="74.974094" y="228.960013" style="stroke: #000000; stroke-width: 0.5"/>
      </g>
     </g>
     <g id="text_9">
      <!-- $\mathdefault{0.50}$ -->
      <g transform="translate(47.065626 233.949777) scale(0.14 -0.14)">
       <use xlink:href="#URWPalladioL-Roma-30" transform="scale(0.996264)"/>
       <use xlink:href="#URWPalladioL-Roma-2e" transform="translate(49.8132 0) scale(0.996264)"/>
       <use xlink:href="#URWPalladioL-Roma-35" transform="translate(74.719801 0) scale(0.996264)"/>
       <use xlink:href="#URWPalladioL-Roma-30" transform="translate(124.533001 0) scale(0.996264)"/>
      </g>
     </g>
    </g>
    <g id="ytick_4">
     <g id="line2d_42">
      <g>
       <use xlink:href="#m627c60f8ba" x="74.974094" y="128.160006" style="stroke: #000000; stroke-width: 0.5"/>
      </g>
     </g>
     <g id="text_10">
      <!-- $\mathdefault{0.75}$ -->
      <g transform="translate(47.065626 133.149771) scale(0.14 -0.14)">
       <defs>
        <path id="URWPalladioL-Roma-37" d="M 358 32 
L 416 -51 
C 666 -32 666 -32 710 -32 
C 755 -32 755 -32 1005 -51 
C 1274 649 1587 1317 2010 2087 
L 3181 4199 
L 3181 4372 
C 2490 4372 2266 4372 1747 4372 
C 1280 4372 966 4372 346 4372 
L 282 4359 
C 301 3750 301 3750 301 3685 
C 301 3614 301 3614 282 3031 
L 474 3031 
L 518 3390 
C 570 3789 614 3840 909 3840 
L 2618 3840 
C 2362 3313 2163 2941 1920 2549 
L 358 32 
z
" transform="scale(0.015625)"/>
       </defs>
       <use xlink:href="#URWPalladioL-Roma-30" transform="scale(0.996264)"/>
       <use xlink:href="#URWPalladioL-Roma-2e" transform="translate(49.8132 0) scale(0.996264)"/>
       <use xlink:href="#URWPalladioL-Roma-37" transform="translate(74.719801 0) scale(0.996264)"/>
       <use xlink:href="#URWPalladioL-Roma-35" transform="translate(124.533001 0) scale(0.996264)"/>
      </g>
     </g>
    </g>
    <g id="ytick_5">
     <g id="line2d_43">
      <g>
       <use xlink:href="#m627c60f8ba" x="74.974094" y="27.36" style="stroke: #000000; stroke-width: 0.5"/>
      </g>
     </g>
     <g id="text_11">
      <!-- $\mathdefault{1.00}$ -->
      <g transform="translate(47.065626 32.349765) scale(0.14 -0.14)">
       <defs>
        <path id="URWPalladioL-Roma-31" d="M 429 3584 
L 493 3584 
L 1318 3956 
C 1325 3962 1331 3962 1338 3962 
C 1376 3962 1389 3905 1389 3751 
L 1389 613 
C 1389 276 1318 205 973 205 
L 614 205 
L 614 0 
C 1600 0 1600 0 1670 0 
C 1754 0 1894 0 2112 0 
C 2189 0 2413 0 2675 0 
L 2675 205 
L 2342 205 
C 1990 205 1926 276 1926 612 
L 1926 4443 
L 1837 4475 
C 1421 4257 966 4065 384 3860 
L 429 3584 
z
" transform="scale(0.015625)"/>
       </defs>
       <use xlink:href="#URWPalladioL-Roma-31" transform="scale(0.996264)"/>
       <use xlink:href="#URWPalladioL-Roma-2e" transform="translate(49.8132 0) scale(0.996264)"/>
       <use xlink:href="#URWPalladioL-Roma-30" transform="translate(74.719801 0) scale(0.996264)"/>
       <use xlink:href="#URWPalladioL-Roma-30" transform="translate(124.533001 0) scale(0.996264)"/>
      </g>
     </g>
    </g>
    <g id="ytick_6">
     <g id="line2d_44">
      <defs>
       <path id="m4ea2873de3" d="M 0 0 
L 1.5 0 
" style="stroke: #000000; stroke-width: 0.5"/>
      </defs>
      <g>
       <use xlink:href="#m4ea2873de3" x="74.974094" y="410.400024" style="stroke: #000000; stroke-width: 0.5"/>
      </g>
     </g>
    </g>
    <g id="ytick_7">
     <g id="line2d_45">
      <g>
       <use xlink:href="#m4ea2873de3" x="74.974094" y="390.240023" style="stroke: #000000; stroke-width: 0.5"/>
      </g>
     </g>
    </g>
    <g id="ytick_8">
     <g id="line2d_46">
      <g>
       <use xlink:href="#m4ea2873de3" x="74.974094" y="370.080022" style="stroke: #000000; stroke-width: 0.5"/>
      </g>
     </g>
    </g>
    <g id="ytick_9">
     <g id="line2d_47">
      <g>
       <use xlink:href="#m4ea2873de3" x="74.974094" y="349.92002" style="stroke: #000000; stroke-width: 0.5"/>
      </g>
     </g>
    </g>
    <g id="ytick_10">
     <g id="line2d_48">
      <g>
       <use xlink:href="#m4ea2873de3" x="74.974094" y="309.600018" style="stroke: #000000; stroke-width: 0.5"/>
      </g>
     </g>
    </g>
    <g id="ytick_11">
     <g id="line2d_49">
      <g>
       <use xlink:href="#m4ea2873de3" x="74.974094" y="289.440017" style="stroke: #000000; stroke-width: 0.5"/>
      </g>
     </g>
    </g>
    <g id="ytick_12">
     <g id="line2d_50">
      <g>
       <use xlink:href="#m4ea2873de3" x="74.974094" y="269.280015" style="stroke: #000000; stroke-width: 0.5"/>
      </g>
     </g>
    </g>
    <g id="ytick_13">
     <g id="line2d_51">
      <g>
       <use xlink:href="#m4ea2873de3" x="74.974094" y="249.120014" style="stroke: #000000; stroke-width: 0.5"/>
      </g>
     </g>
    </g>
    <g id="ytick_14">
     <g id="line2d_52">
      <g>
       <use xlink:href="#m4ea2873de3" x="74.974094" y="208.800012" style="stroke: #000000; stroke-width: 0.5"/>
      </g>
     </g>
    </g>
    <g id="ytick_15">
     <g id="line2d_53">
      <g>
       <use xlink:href="#m4ea2873de3" x="74.974094" y="188.64001" style="stroke: #000000; stroke-width: 0.5"/>
      </g>
     </g>
    </g>
    <g id="ytick_16">
     <g id="line2d_54">
      <g>
       <use xlink:href="#m4ea2873de3" x="74.974094" y="168.480009" style="stroke: #000000; stroke-width: 0.5"/>
      </g>
     </g>
    </g>
    <g id="ytick_17">
     <g id="line2d_55">
      <g>
       <use xlink:href="#m4ea2873de3" x="74.974094" y="148.320008" style="stroke: #000000; stroke-width: 0.5"/>
      </g>
     </g>
    </g>
    <g id="ytick_18">
     <g id="line2d_56">
      <g>
       <use xlink:href="#m4ea2873de3" x="74.974094" y="108.000005" style="stroke: #000000; stroke-width: 0.5"/>
      </g>
     </g>
    </g>
    <g id="ytick_19">
     <g id="line2d_57">
      <g>
       <use xlink:href="#m4ea2873de3" x="74.974094" y="87.840004" style="stroke: #000000; stroke-width: 0.5"/>
      </g>
     </g>
    </g>
    <g id="ytick_20">
     <g id="line2d_58">
      <g>
       <use xlink:href="#m4ea2873de3" x="74.974094" y="67.680003" style="stroke: #000000; stroke-width: 0.5"/>
      </g>
     </g>
    </g>
    <g id="ytick_21">
     <g id="line2d_59">
      <g>
       <use xlink:href="#m4ea2873de3" x="74.974094" y="47.520001" style="stroke: #000000; stroke-width: 0.5"/>
      </g>
     </g>
    </g>
    <g id="text_12">
     <!-- $\left\lVert \mathcal{F}_{MTI}^{\dagger \, (2)} (z,z;\omega) \right \rVert$ -->
     <g transform="translate(30.114072 298.823971) rotate(-90) scale(0.2 -0.2)">
      <defs>
       <path id="CMEX10-d" d="M 928 -3738 
C 928 -3840 928 -3974 1062 -3974 
C 1203 -3974 1203 -3846 1203 -3738 
L 1203 -102 
C 1203 0 1203 134 1069 134 
C 928 134 928 6 928 -102 
L 928 -3738 
z
M 2349 -3738 
C 2349 -3840 2349 -3974 2483 -3974 
C 2624 -3974 2624 -3846 2624 -3738 
L 2624 -102 
C 2624 0 2624 134 2490 134 
C 2349 134 2349 6 2349 -102 
L 2349 -3738 
z
" transform="scale(0.015625)"/>
       <path id="CMSY10-46" d="M 5312 4141 
C 5312 4435 4819 4391 4621 4391 
L 2208 4391 
C 1888 4391 1318 4205 1216 3859 
C 1229 3820 1242 3814 1280 3814 
C 1421 3814 1613 3933 1702 4032 
C 1901 4032 2093 4032 2291 4032 
L 2688 4032 
C 2688 4032 2662 3916 2662 3910 
C 2413 2741 2035 1751 1754 1125 
C 1715 1041 1370 243 1280 167 
C 998 167 787 319 672 568 
C 653 606 653 632 608 632 
C 461 632 109 428 109 320 
C 109 307 115 295 122 282 
C 237 -19 525 -192 838 -192 
C 1165 -192 1542 44 1747 280 
C 1958 523 2381 1569 2547 1952 
L 3782 1952 
C 3776 1945 3770 1939 3770 1932 
C 3770 1907 3808 1888 3834 1888 
C 3974 1888 4339 2067 4339 2266 
C 4339 2310 4294 2304 4218 2304 
L 2682 2304 
C 2848 2880 3066 3443 3181 4032 
L 4026 4032 
C 4186 4032 4634 4064 4749 3929 
C 4762 3888 4742 3821 4762 3788 
C 4774 3775 4794 3775 4813 3775 
C 4966 3775 5312 3967 5312 4141 
z
" transform="scale(0.015625)"/>
       <path id="URWPalladioL-Roma-86" d="M 250 3008 
L 218 2976 
C 230 2873 237 2828 237 2757 
C 237 2686 230 2641 218 2545 
L 250 2514 
L 986 2514 
L 1363 2514 
L 1363 2021 
C 1363 1079 1350 593 1318 170 
L 1306 6 
L 1338 -26 
C 1491 -7 1542 0 1600 0 
C 1664 0 1715 -7 1862 -26 
L 1894 6 
L 1882 174 
C 1850 617 1837 1074 1837 2058 
L 1837 2560 
L 2214 2560 
C 2304 2560 2438 2560 2541 2538 
C 2694 2514 2790 2514 2829 2514 
L 2950 2514 
L 2982 2545 
C 2970 2641 2963 2686 2963 2757 
C 2963 2834 2970 2879 2982 2975 
L 2950 2990 
L 2214 2990 
L 1837 2990 
L 1837 3318 
C 1837 3527 1856 3830 1901 4221 
L 1907 4297 
L 1920 4435 
L 1888 4467 
C 1690 4448 1651 4448 1600 4448 
C 1555 4448 1510 4448 1312 4467 
L 1280 4435 
L 1293 4291 
L 1306 4167 
C 1350 3673 1363 3491 1363 3282 
L 1363 2944 
L 986 2944 
C 864 2944 749 2944 627 2965 
C 499 2997 410 3008 371 3008 
L 250 3008 
z
" transform="scale(0.015625)"/>
       <path id="CMR10-28" d="M 2118 -1536 
C 2118 -1517 2118 -1504 2010 -1395 
C 1210 -584 1005 632 1005 1616 
C 1005 2735 1248 3855 2035 4658 
C 2118 4735 2118 4748 2118 4767 
C 2118 4812 2093 4832 2054 4832 
C 1990 4832 1414 4395 1037 3577 
C 710 2870 634 2156 634 1616 
C 634 1114 704 336 1056 -391 
C 1440 -1182 1990 -1600 2054 -1600 
C 2093 -1600 2118 -1581 2118 -1536 
z
" transform="scale(0.015625)"/>
       <path id="CMR10-29" d="M 1850 1616 
C 1850 2118 1779 2896 1427 3622 
C 1043 4414 493 4832 429 4832 
C 390 4832 365 4806 365 4767 
C 365 4748 365 4735 486 4620 
C 1114 3983 1478 2960 1478 1616 
C 1478 516 1242 -617 448 -1427 
C 365 -1504 365 -1517 365 -1536 
C 365 -1575 390 -1600 429 -1600 
C 493 -1600 1069 -1163 1446 -346 
C 1773 362 1850 1075 1850 1616 
z
" transform="scale(0.015625)"/>
       <path id="URWPalladioL-Ital-4d" d="M 5997 4231 
L 6016 4416 
L 5837 4416 
C 5658 4416 5562 4416 5478 4416 
L 5325 4416 
L 4947 4416 
L 4845 4219 
C 4672 3895 4550 3678 4403 3424 
L 2829 740 
L 1869 4416 
L 1690 4416 
C 1510 4416 1414 4416 1331 4416 
L 1178 4416 
L 800 4416 
L 781 4244 
L 947 4231 
C 1280 4205 1395 4142 1395 3976 
C 1395 3938 1389 3893 1376 3849 
L 448 611 
C 346 280 250 197 -102 166 
L -122 0 
L 128 0 
C 346 0 506 0 595 0 
C 685 0 851 0 1075 0 
L 1299 0 
L 1318 172 
L 1075 198 
C 870 198 762 262 762 358 
C 762 421 774 504 806 620 
L 1600 3581 
L 2554 -96 
L 2701 -96 
L 3066 566 
C 3565 1463 4166 2493 4595 3200 
L 4928 3753 
L 4691 440 
C 4666 264 4589 220 4262 194 
L 4064 176 
L 4045 0 
L 4346 0 
C 4614 0 4806 0 4902 0 
C 5005 0 5197 0 5459 0 
L 5754 0 
L 5773 172 
L 5536 191 
C 5306 211 5190 281 5190 415 
L 5197 650 
L 5459 4045 
C 5472 4167 5568 4231 5754 4231 
L 5997 4231 
z
" transform="scale(0.015625)"/>
       <path id="URWPalladioL-Ital-54" d="M 2496 4136 
L 2963 4136 
C 3462 4136 3693 4104 3712 4028 
C 3731 3977 3744 3855 3738 3791 
L 3712 3383 
L 3891 3383 
L 4064 4416 
L 3482 4416 
C 2918 4416 2483 4416 2259 4416 
C 2022 4416 1613 4416 1062 4416 
L 454 4416 
L 339 3383 
L 525 3383 
L 621 3766 
C 653 3907 698 4009 736 4053 
C 774 4098 1018 4136 1254 4136 
L 1971 4136 
L 1421 801 
C 1318 218 1306 199 1050 179 
L 723 179 
L 698 0 
L 1062 0 
C 1318 0 1504 0 1606 0 
C 1728 0 1926 0 2176 0 
L 2458 0 
L 2477 179 
L 2099 179 
C 1933 179 1869 230 1869 365 
C 1869 423 1875 468 1894 590 
L 2496 4136 
z
" transform="scale(0.015625)"/>
       <path id="URWPalladioL-Ital-49" d="M 659 4238 
L 960 4238 
C 1114 4238 1184 4185 1184 4072 
C 1184 4028 1146 3690 1126 3582 
L 666 816 
C 570 248 550 217 294 197 
L 64 178 
L 45 0 
L 250 0 
L 851 0 
L 1453 0 
L 1658 0 
L 1677 179 
L 1344 179 
C 1178 192 1114 237 1114 364 
C 1114 403 1120 473 1126 498 
L 1696 3912 
C 1741 4161 1773 4193 2022 4219 
L 2246 4238 
L 2266 4416 
L 2208 4416 
L 1587 4416 
C 1478 4416 1363 4416 1088 4416 
L 678 4416 
L 659 4238 
z
" transform="scale(0.015625)"/>
       <path id="URWPalladioL-Roma-2c" d="M 1306 789 
C 1133 731 1018 693 678 596 
C 634 109 474 -308 102 -923 
L 192 -994 
L 454 -872 
C 973 -199 1216 205 1395 699 
L 1306 789 
z
" transform="scale(0.015625)"/>
       <path id="URWPalladioL-Roma-3b" d="M 1306 798 
C 1133 740 1018 701 678 605 
C 634 118 474 -299 102 -915 
L 192 -985 
L 454 -863 
C 973 -190 1216 214 1395 708 
L 1306 798 
z
M 960 2920 
C 768 2920 595 2741 595 2548 
C 595 2356 768 2176 954 2176 
C 1158 2176 1338 2349 1338 2542 
C 1338 2741 1158 2920 960 2920 
z
" transform="scale(0.015625)"/>
       <path id="PazoMath-Italic-77" d="M 1440 3105 
C 1274 2983 986 2770 819 2616 
C 352 2186 96 1627 96 1138 
C 96 765 115 444 326 193 
C 467 26 614 -64 851 -64 
C 1037 -64 1280 39 1459 142 
C 1709 282 1837 411 2061 597 
C 2125 200 2387 -64 2752 -64 
C 3034 -64 3296 65 3603 354 
C 3878 618 4160 1022 4346 1427 
C 4506 1767 4614 2204 4614 2474 
C 4614 2847 4454 3104 4218 3104 
C 4128 3104 4064 3078 4006 3026 
L 3686 2721 
L 3757 2598 
C 3814 2637 3866 2656 3930 2656 
C 4109 2656 4198 2508 4198 2252 
C 4198 1297 3584 258 3021 258 
C 2707 258 2509 520 2509 943 
C 2509 1040 2509 1123 2547 1289 
L 2669 1783 
C 2694 1892 2733 1982 2771 2091 
L 2701 2181 
L 2285 2014 
L 2112 1232 
C 2035 1014 1971 745 1786 584 
C 1606 431 1421 328 1203 328 
C 1018 328 858 412 755 540 
C 621 688 582 920 582 1112 
C 582 1704 736 2224 1286 2745 
C 1357 2809 1478 2918 1542 2989 
L 1440 3105 
z
" transform="scale(0.015625)"/>
      </defs>
      <use xlink:href="#CMEX10-d" transform="translate(0 114.570407) scale(0.996264)"/>
      <use xlink:href="#CMEX10-d" transform="translate(0 54.794536) scale(0.996264)"/>
      <use xlink:href="#CMEX10-d" transform="translate(0 -4.981335) scale(0.996264)"/>
      <use xlink:href="#CMSY10-46" transform="translate(57.782355 0) scale(1.038107)"/>
      <use xlink:href="#URWPalladioL-Roma-86" transform="translate(144.75613 54.03323) scale(0.757155)"/>
      <use xlink:href="#CMR10-28" transform="translate(197.125966 54.03323) scale(0.788955)"/>
      <use xlink:href="#URWPalladioL-Roma-32" transform="translate(228.661486 54.03323) scale(0.757155)"/>
      <use xlink:href="#CMR10-29" transform="translate(267.465662 54.03323) scale(0.788955)"/>
      <use xlink:href="#URWPalladioL-Ital-4d" transform="translate(137.901859 -34.025906) scale(0.757155)"/>
      <use xlink:href="#URWPalladioL-Ital-54" transform="translate(212.633031 -34.025906) scale(0.757155)"/>
      <use xlink:href="#URWPalladioL-Ital-49" transform="translate(266.390319 -34.025906) scale(0.757155)"/>
      <use xlink:href="#CMR10-28" transform="translate(300.744614 0) scale(1.038107)"/>
      <use xlink:href="#URWPalladioL-Ital-7a" transform="translate(343.484318 0) scale(0.996264)"/>
      <use xlink:href="#URWPalladioL-Roma-2c" transform="translate(388.96378 0) scale(0.996264)"/>
      <use xlink:href="#URWPalladioL-Ital-7a" transform="translate(431.720039 0) scale(0.996264)"/>
      <use xlink:href="#URWPalladioL-Roma-3b" transform="translate(477.1995 0) scale(0.996264)"/>
      <use xlink:href="#PazoMath-Italic-77" transform="translate(519.95576 0) scale(0.996264)"/>
      <use xlink:href="#CMR10-29" transform="translate(598.559981 0) scale(1.038107)"/>
      <use xlink:href="#CMEX10-d" transform="translate(641.299686 114.570407) scale(0.996264)"/>
      <use xlink:href="#CMEX10-d" transform="translate(641.299686 54.794536) scale(0.996264)"/>
      <use xlink:href="#CMEX10-d" transform="translate(641.299686 -4.981335) scale(0.996264)"/>
     </g>
    </g>
   </g>
   <g id="line2d_60">
    <path d="M 133.710936 450.72 
L 133.710936 7.2 
" clip-path="url(#p09f24c4dc4)" style="fill: none; stroke-dasharray: 5.55,2.4; stroke-dashoffset: 0; stroke: #000000; stroke-width: 1.5"/>
   </g>
   <g id="line2d_61">
    <path d="M 133.710936 27.36 
L 136.379681 62.76548 
L 139.048426 95.755885 
L 141.717171 126.448816 
L 144.385916 154.958891 
L 147.054661 181.39764 
L 149.723406 205.873413 
L 152.392151 228.491302 
L 155.060896 249.353084 
L 157.729642 268.557183 
L 160.398387 286.198631 
L 163.067132 302.369063 
L 165.735877 317.156706 
L 168.404622 330.646386 
L 171.073367 342.919551 
L 173.742112 354.054292 
L 176.410857 364.125383 
L 179.079602 373.204319 
L 181.748347 381.35937 
L 184.417092 388.655638 
L 187.085837 395.155115 
L 189.754582 400.916753 
L 192.423327 405.996532 
L 195.092072 410.447541 
L 197.760817 414.320047 
L 200.429562 417.661585 
L 203.098307 420.517034 
L 205.767052 422.928705 
L 208.435797 424.936425 
L 211.104542 426.577625 
L 213.773287 427.887427 
L 216.442032 428.898733 
L 219.110777 429.642305 
L 221.779522 430.146852 
L 224.448267 430.439051 
L 227.117012 430.542756 
L 229.785757 430.484533 
L 232.454502 430.282605 
L 237.791992 429.527209 
L 243.129482 428.4178 
L 248.466972 427.072212 
L 259.141952 424.046385 
L 269.816932 421.032983 
L 277.823168 419.006312 
L 285.829403 417.284463 
L 291.166893 416.331567 
L 296.504383 415.543085 
L 301.841873 414.920377 
L 307.179363 414.460683 
L 312.516853 414.157976 
L 320.523088 413.979047 
L 328.529323 414.097555 
L 336.535558 414.471936 
L 344.541793 415.058391 
L 355.216773 416.095109 
L 368.560498 417.6652 
L 421.935399 424.313139 
L 435.279124 425.65354 
L 448.622849 426.797551 
L 461.966574 427.745764 
L 477.979044 428.642521 
L 493.991514 429.308252 
L 512.672729 429.846032 
L 534.02269 430.222906 
L 560.71014 430.457612 
L 600.741315 430.556751 
L 696.119572 430.537346 
L 696.119572 430.537346 
" clip-path="url(#p09f24c4dc4)" style="fill: none; stroke: #1f77b4; stroke-width: 4; stroke-linecap: square"/>
   </g>
   <g id="line2d_62">
    <path clip-path="url(#p09f24c4dc4)" style="fill: none; stroke: #d62728; stroke-width: 4; stroke-linecap: square"/>
   </g>
   <g id="line2d_63">
    <path d="M 133.710936 27.36 
L 136.379681 45.269694 
L 139.048426 62.38386 
L 141.717171 78.737834 
L 144.385916 94.365382 
L 147.054661 109.298773 
L 149.723406 123.568838 
L 152.392151 137.205044 
L 155.060896 150.235544 
L 157.729642 162.687244 
L 160.398387 174.585854 
L 163.067132 185.95594 
L 165.735877 196.82098 
L 168.404622 207.203407 
L 171.073367 217.124659 
L 173.742112 226.605219 
L 176.410857 235.664663 
L 179.079602 244.321698 
L 181.748347 252.594196 
L 184.417092 260.499239 
L 187.085837 268.053149 
L 189.754582 275.271523 
L 195.092072 288.760616 
L 200.429562 301.077983 
L 205.767052 312.325406 
L 211.104542 322.595824 
L 216.442032 331.974105 
L 221.779522 340.537744 
L 227.117012 348.357505 
L 232.454502 355.498004 
L 237.791992 362.018246 
L 243.129482 367.972109 
L 248.466972 373.408791 
L 253.804462 378.373218 
L 259.141952 382.906411 
L 264.479442 387.045829 
L 269.816932 390.825678 
L 275.154422 394.277191 
L 280.491913 397.42889 
L 285.829403 400.306817 
L 291.166893 402.934753 
L 296.504383 405.334415 
L 301.841873 407.525631 
L 307.179363 409.526507 
L 312.516853 411.353578 
L 320.523088 413.800963 
L 328.529323 415.93649 
L 336.535558 417.799896 
L 344.541793 419.425858 
L 352.548028 420.844631 
L 363.223008 422.459174 
L 373.897988 423.805406 
L 384.572968 424.927915 
L 397.916693 426.072479 
L 411.260419 426.984444 
L 427.272889 427.837625 
L 445.954104 428.579297 
L 467.304064 429.182926 
L 493.991514 429.685765 
L 526.016455 430.053208 
L 571.38512 430.325926 
L 640.77249 430.488187 
L 696.119572 430.532022 
L 696.119572 430.532022 
" clip-path="url(#p09f24c4dc4)" style="fill: none; stroke-dasharray: 9.25,4; stroke-dashoffset: 0; stroke: #000000; stroke-width: 2.5"/>
   </g>
   <g id="patch_3">
    <path d="M 74.974094 450.72 
L 74.974094 7.2 
" style="fill: none; stroke: #000000; stroke-width: 0.5; stroke-linejoin: miter; stroke-linecap: square"/>
   </g>
   <g id="patch_4">
    <path d="M 632.974094 450.72 
L 632.974094 7.2 
" style="fill: none; stroke: #000000; stroke-width: 0.5; stroke-linejoin: miter; stroke-linecap: square"/>
   </g>
   <g id="patch_5">
    <path d="M 74.974094 450.72 
L 632.974094 450.72 
" style="fill: none; stroke: #000000; stroke-width: 0.5; stroke-linejoin: miter; stroke-linecap: square"/>
   </g>
   <g id="patch_6">
    <path d="M 74.974094 7.2 
L 632.974094 7.2 
" style="fill: none; stroke: #000000; stroke-width: 0.5; stroke-linejoin: miter; stroke-linecap: square"/>
   </g>
   <g id="legend_1">
    <g id="line2d_64">
     <path d="M 531.252193 26.142356 
L 546.252193 26.142356 
L 561.252193 26.142356 
" style="fill: none; stroke: #1f77b4; stroke-width: 4; stroke-linecap: square"/>
    </g>
    <g id="text_13">
     <!-- $\Delta_{ind}$ -->
     <g transform="translate(573.252193 31.392356) scale(0.15 -0.15)">
      <defs>
       <path id="PazoMath-44" d="M 2042 4365 
L 192 160 
L 205 0 
C 787 0 1216 0 1824 0 
C 2426 0 3194 0 3706 0 
L 4102 217 
L 4102 275 
L 2285 4493 
L 2042 4365 
z
M 2022 3642 
L 3245 749 
C 3302 615 3373 474 3373 397 
C 3373 327 3270 288 3110 275 
L 986 275 
C 774 295 698 339 698 442 
C 698 525 838 858 922 1050 
L 2022 3642 
z
" transform="scale(0.015625)"/>
      </defs>
      <use xlink:href="#PazoMath-44" transform="scale(0.996264)"/>
      <use xlink:href="#URWPalladioL-Ital-69" transform="translate(69.008202 -20.849366) scale(0.757155)"/>
      <use xlink:href="#URWPalladioL-Ital-6e" transform="translate(92.479222 -20.849366) scale(0.757155)"/>
      <use xlink:href="#URWPalladioL-Ital-64" transform="translate(136.469958 -20.849366) scale(0.757155)"/>
     </g>
    </g>
    <g id="line2d_65">
     <path d="M 531.252193 50.920109 
L 546.252193 50.920109 
L 561.252193 50.920109 
" style="fill: none; stroke: #d62728; stroke-width: 4; stroke-linecap: square"/>
    </g>
    <g id="text_14">
     <!-- $|\psi|^2$ -->
     <g transform="translate(573.252193 56.170109) scale(0.15 -0.15)">
      <defs>
       <path id="CMSY10-6a" d="M 1018 4570 
C 1018 4685 1018 4800 890 4800 
C 762 4800 762 4685 762 4570 
L 762 -1370 
C 762 -1485 762 -1600 890 -1600 
C 1018 -1600 1018 -1485 1018 -1370 
L 1018 4570 
z
" transform="scale(0.015625)"/>
       <path id="PazoMath-Italic-79" d="M 2413 1549 
C 2413 1549 2534 2218 2637 2796 
C 2739 3400 2810 3715 2925 4062 
L 2854 4159 
C 2726 4081 2554 4004 2355 3927 
C 2176 2655 1997 1479 1779 270 
C 1446 303 1011 431 1011 945 
C 1011 1042 1024 1164 1050 1286 
L 1312 2629 
C 1331 2732 1344 2822 1344 2905 
C 1344 3028 1293 3105 1203 3105 
C 1069 3105 832 2976 352 2629 
L 173 2501 
L 218 2372 
L 422 2507 
C 608 2623 672 2655 730 2655 
C 794 2655 838 2597 838 2526 
C 838 2494 832 2443 826 2411 
L 550 945 
C 544 894 544 836 544 785 
C 544 341 1018 -64 1658 -64 
L 1715 -64 
C 1626 -533 1530 -1002 1427 -1490 
L 1376 -1728 
L 1421 -1767 
C 1555 -1722 1683 -1690 1888 -1657 
L 2157 -12 
C 2406 39 2720 168 3040 463 
C 3322 720 3514 1022 3699 1427 
C 3859 1768 3968 2205 3968 2475 
C 3968 2848 3808 3105 3571 3105 
C 3482 3105 3418 3079 3360 3028 
L 3040 2726 
L 3110 2604 
C 3168 2638 3219 2655 3283 2655 
C 3462 2655 3558 2507 3558 2251 
C 3558 885 2816 360 2202 277 
L 2413 1549 
z
" transform="scale(0.015625)"/>
      </defs>
      <use xlink:href="#CMSY10-6a" transform="scale(1.038107)"/>
      <use xlink:href="#PazoMath-Italic-79" transform="translate(31.282699 0) scale(0.996264)"/>
      <use xlink:href="#CMSY10-6a" transform="translate(98.530428 0) scale(1.038107)"/>
      <use xlink:href="#URWPalladioL-Roma-32" transform="translate(128.567828 36.164371) scale(0.757155)"/>
     </g>
    </g>
    <g id="line2d_66">
     <path d="M 531.252193 73.326582 
L 546.252193 73.326582 
L 561.252193 73.326582 
" style="fill: none; stroke-dasharray: 9.25,4; stroke-dashoffset: 0; stroke: #000000; stroke-width: 2.5"/>
    </g>
    <g id="text_15">
     <!-- $e^{-z/\xi_{ind}}$ -->
     <g transform="translate(573.252193 78.576582) scale(0.15 -0.15)">
      <defs>
       <path id="URWPalladioL-Ital-65" d="M 2099 712 
L 1946 604 
C 1606 363 1299 235 1069 235 
C 768 235 582 471 582 853 
C 582 1011 602 1183 634 1368 
L 1158 1494 
C 1267 1520 1440 1584 1600 1654 
C 2144 1889 2394 2182 2394 2576 
C 2394 2874 2176 3072 1856 3072 
C 1440 3072 730 2633 480 2226 
C 288 1908 96 1151 96 724 
C 96 228 378 -64 838 -64 
C 1203 -64 1562 114 2150 591 
L 2099 712 
z
M 723 1748 
C 832 2187 960 2461 1146 2626 
C 1261 2728 1459 2804 1613 2804 
C 1798 2804 1920 2677 1920 2474 
C 1920 2193 1696 1895 1363 1735 
C 1184 1647 954 1577 666 1513 
L 723 1748 
z
" transform="scale(0.015625)"/>
       <path id="CMSY10-0" d="M 4218 1472 
C 4326 1472 4442 1472 4442 1600 
C 4442 1728 4326 1728 4218 1728 
L 755 1728 
C 646 1728 531 1728 531 1600 
C 531 1472 646 1472 755 1472 
L 4218 1472 
z
" transform="scale(0.015625)"/>
      </defs>
      <use xlink:href="#URWPalladioL-Ital-65" transform="scale(0.996264)"/>
      <use xlink:href="#CMSY10-0" transform="translate(40.946487 36.164371) scale(0.788955)"/>
      <use xlink:href="#URWPalladioL-Ital-7a" transform="translate(104.168146 36.164371) scale(0.757155)"/>
      <use xlink:href="#URWPalladioL-Roma-2f" transform="translate(139.678704 36.164371) scale(0.757155)"/>
      <use xlink:href="#PazoMath-Italic-78" transform="translate(187.455155 36.164371) scale(0.757155)"/>
      <use xlink:href="#URWPalladioL-Ital-69" transform="translate(224.998085 18.693282) scale(0.597764)"/>
      <use xlink:href="#URWPalladioL-Ital-6e" transform="translate(243.52816 18.693282) scale(0.597764)"/>
      <use xlink:href="#URWPalladioL-Ital-64" transform="translate(278.258289 18.693282) scale(0.597764)"/>
     </g>
    </g>
   </g>
  </g>
  <g id="axes_2">
   <g id="matplotlib.axis_3">
    <g id="ytick_22">
     <g id="line2d_67">
      <defs>
       <path id="m13fbc938c4" d="M 0 0 
L -3 0 
" style="stroke: #000000; stroke-width: 0.5"/>
      </defs>
      <g>
       <use xlink:href="#m13fbc938c4" x="632.974094" y="433.661538" style="stroke: #000000; stroke-width: 0.5"/>
      </g>
     </g>
     <g id="text_16">
      <!-- $\mathdefault{0.00}$ -->
      <g transform="translate(636.474094 438.651303) scale(0.14 -0.14)">
       <use xlink:href="#URWPalladioL-Roma-30" transform="scale(0.996264)"/>
       <use xlink:href="#URWPalladioL-Roma-2e" transform="translate(49.8132 0) scale(0.996264)"/>
       <use xlink:href="#URWPalladioL-Roma-30" transform="translate(74.719801 0) scale(0.996264)"/>
       <use xlink:href="#URWPalladioL-Roma-30" transform="translate(124.533001 0) scale(0.996264)"/>
      </g>
     </g>
    </g>
    <g id="ytick_23">
     <g id="line2d_68">
      <g>
       <use xlink:href="#m13fbc938c4" x="632.974094" y="365.427692" style="stroke: #000000; stroke-width: 0.5"/>
      </g>
     </g>
     <g id="text_17">
      <!-- $\mathdefault{0.02}$ -->
      <g transform="translate(636.474094 370.417457) scale(0.14 -0.14)">
       <use xlink:href="#URWPalladioL-Roma-30" transform="scale(0.996264)"/>
       <use xlink:href="#URWPalladioL-Roma-2e" transform="translate(49.8132 0) scale(0.996264)"/>
       <use xlink:href="#URWPalladioL-Roma-30" transform="translate(74.719801 0) scale(0.996264)"/>
       <use xlink:href="#URWPalladioL-Roma-32" transform="translate(124.533001 0) scale(0.996264)"/>
      </g>
     </g>
    </g>
    <g id="ytick_24">
     <g id="line2d_69">
      <g>
       <use xlink:href="#m13fbc938c4" x="632.974094" y="297.193846" style="stroke: #000000; stroke-width: 0.5"/>
      </g>
     </g>
     <g id="text_18">
      <!-- $\mathdefault{0.04}$ -->
      <g transform="translate(636.474094 302.183611) scale(0.14 -0.14)">
       <use xlink:href="#URWPalladioL-Roma-30" transform="scale(0.996264)"/>
       <use xlink:href="#URWPalladioL-Roma-2e" transform="translate(49.8132 0) scale(0.996264)"/>
       <use xlink:href="#URWPalladioL-Roma-30" transform="translate(74.719801 0) scale(0.996264)"/>
       <use xlink:href="#URWPalladioL-Roma-34" transform="translate(124.533001 0) scale(0.996264)"/>
      </g>
     </g>
    </g>
    <g id="ytick_25">
     <g id="line2d_70">
      <g>
       <use xlink:href="#m13fbc938c4" x="632.974094" y="228.96" style="stroke: #000000; stroke-width: 0.5"/>
      </g>
     </g>
     <g id="text_19">
      <!-- $\mathdefault{0.06}$ -->
      <g transform="translate(636.474094 233.949765) scale(0.14 -0.14)">
       <use xlink:href="#URWPalladioL-Roma-30" transform="scale(0.996264)"/>
       <use xlink:href="#URWPalladioL-Roma-2e" transform="translate(49.8132 0) scale(0.996264)"/>
       <use xlink:href="#URWPalladioL-Roma-30" transform="translate(74.719801 0) scale(0.996264)"/>
       <use xlink:href="#URWPalladioL-Roma-36" transform="translate(124.533001 0) scale(0.996264)"/>
      </g>
     </g>
    </g>
    <g id="ytick_26">
     <g id="line2d_71">
      <g>
       <use xlink:href="#m13fbc938c4" x="632.974094" y="160.726154" style="stroke: #000000; stroke-width: 0.5"/>
      </g>
     </g>
     <g id="text_20">
      <!-- $\mathdefault{0.08}$ -->
      <g transform="translate(636.474094 165.715918) scale(0.14 -0.14)">
       <use xlink:href="#URWPalladioL-Roma-30" transform="scale(0.996264)"/>
       <use xlink:href="#URWPalladioL-Roma-2e" transform="translate(49.8132 0) scale(0.996264)"/>
       <use xlink:href="#URWPalladioL-Roma-30" transform="translate(74.719801 0) scale(0.996264)"/>
       <use xlink:href="#URWPalladioL-Roma-38" transform="translate(124.533001 0) scale(0.996264)"/>
      </g>
     </g>
    </g>
    <g id="ytick_27">
     <g id="line2d_72">
      <g>
       <use xlink:href="#m13fbc938c4" x="632.974094" y="92.492308" style="stroke: #000000; stroke-width: 0.5"/>
      </g>
     </g>
     <g id="text_21">
      <!-- $\mathdefault{0.10}$ -->
      <g transform="translate(636.474094 97.482072) scale(0.14 -0.14)">
       <use xlink:href="#URWPalladioL-Roma-30" transform="scale(0.996264)"/>
       <use xlink:href="#URWPalladioL-Roma-2e" transform="translate(49.8132 0) scale(0.996264)"/>
       <use xlink:href="#URWPalladioL-Roma-31" transform="translate(74.719801 0) scale(0.996264)"/>
       <use xlink:href="#URWPalladioL-Roma-30" transform="translate(124.533001 0) scale(0.996264)"/>
      </g>
     </g>
    </g>
    <g id="ytick_28">
     <g id="line2d_73">
      <g>
       <use xlink:href="#m13fbc938c4" x="632.974094" y="24.258462" style="stroke: #000000; stroke-width: 0.5"/>
      </g>
     </g>
     <g id="text_22">
      <!-- $\mathdefault{0.12}$ -->
      <g transform="translate(636.474094 29.248226) scale(0.14 -0.14)">
       <use xlink:href="#URWPalladioL-Roma-30" transform="scale(0.996264)"/>
       <use xlink:href="#URWPalladioL-Roma-2e" transform="translate(49.8132 0) scale(0.996264)"/>
       <use xlink:href="#URWPalladioL-Roma-31" transform="translate(74.719801 0) scale(0.996264)"/>
       <use xlink:href="#URWPalladioL-Roma-32" transform="translate(124.533001 0) scale(0.996264)"/>
      </g>
     </g>
    </g>
    <g id="ytick_29">
     <g id="line2d_74">
      <defs>
       <path id="mef085355d4" d="M 0 0 
L -1.5 0 
" style="stroke: #000000; stroke-width: 0.5"/>
      </defs>
      <g>
       <use xlink:href="#mef085355d4" x="632.974094" y="450.72" style="stroke: #000000; stroke-width: 0.5"/>
      </g>
     </g>
    </g>
    <g id="ytick_30">
     <g id="line2d_75">
      <g>
       <use xlink:href="#mef085355d4" x="632.974094" y="416.603077" style="stroke: #000000; stroke-width: 0.5"/>
      </g>
     </g>
    </g>
    <g id="ytick_31">
     <g id="line2d_76">
      <g>
       <use xlink:href="#mef085355d4" x="632.974094" y="399.544615" style="stroke: #000000; stroke-width: 0.5"/>
      </g>
     </g>
    </g>
    <g id="ytick_32">
     <g id="line2d_77">
      <g>
       <use xlink:href="#mef085355d4" x="632.974094" y="382.486154" style="stroke: #000000; stroke-width: 0.5"/>
      </g>
     </g>
    </g>
    <g id="ytick_33">
     <g id="line2d_78">
      <g>
       <use xlink:href="#mef085355d4" x="632.974094" y="348.369231" style="stroke: #000000; stroke-width: 0.5"/>
      </g>
     </g>
    </g>
    <g id="ytick_34">
     <g id="line2d_79">
      <g>
       <use xlink:href="#mef085355d4" x="632.974094" y="331.310769" style="stroke: #000000; stroke-width: 0.5"/>
      </g>
     </g>
    </g>
    <g id="ytick_35">
     <g id="line2d_80">
      <g>
       <use xlink:href="#mef085355d4" x="632.974094" y="314.252308" style="stroke: #000000; stroke-width: 0.5"/>
      </g>
     </g>
    </g>
    <g id="ytick_36">
     <g id="line2d_81">
      <g>
       <use xlink:href="#mef085355d4" x="632.974094" y="280.135385" style="stroke: #000000; stroke-width: 0.5"/>
      </g>
     </g>
    </g>
    <g id="ytick_37">
     <g id="line2d_82">
      <g>
       <use xlink:href="#mef085355d4" x="632.974094" y="263.076923" style="stroke: #000000; stroke-width: 0.5"/>
      </g>
     </g>
    </g>
    <g id="ytick_38">
     <g id="line2d_83">
      <g>
       <use xlink:href="#mef085355d4" x="632.974094" y="246.018462" style="stroke: #000000; stroke-width: 0.5"/>
      </g>
     </g>
    </g>
    <g id="ytick_39">
     <g id="line2d_84">
      <g>
       <use xlink:href="#mef085355d4" x="632.974094" y="211.901538" style="stroke: #000000; stroke-width: 0.5"/>
      </g>
     </g>
    </g>
    <g id="ytick_40">
     <g id="line2d_85">
      <g>
       <use xlink:href="#mef085355d4" x="632.974094" y="194.843077" style="stroke: #000000; stroke-width: 0.5"/>
      </g>
     </g>
    </g>
    <g id="ytick_41">
     <g id="line2d_86">
      <g>
       <use xlink:href="#mef085355d4" x="632.974094" y="177.784615" style="stroke: #000000; stroke-width: 0.5"/>
      </g>
     </g>
    </g>
    <g id="ytick_42">
     <g id="line2d_87">
      <g>
       <use xlink:href="#mef085355d4" x="632.974094" y="143.667692" style="stroke: #000000; stroke-width: 0.5"/>
      </g>
     </g>
    </g>
    <g id="ytick_43">
     <g id="line2d_88">
      <g>
       <use xlink:href="#mef085355d4" x="632.974094" y="126.609231" style="stroke: #000000; stroke-width: 0.5"/>
      </g>
     </g>
    </g>
    <g id="ytick_44">
     <g id="line2d_89">
      <g>
       <use xlink:href="#mef085355d4" x="632.974094" y="109.550769" style="stroke: #000000; stroke-width: 0.5"/>
      </g>
     </g>
    </g>
    <g id="ytick_45">
     <g id="line2d_90">
      <g>
       <use xlink:href="#mef085355d4" x="632.974094" y="75.433846" style="stroke: #000000; stroke-width: 0.5"/>
      </g>
     </g>
    </g>
    <g id="ytick_46">
     <g id="line2d_91">
      <g>
       <use xlink:href="#mef085355d4" x="632.974094" y="58.375385" style="stroke: #000000; stroke-width: 0.5"/>
      </g>
     </g>
    </g>
    <g id="ytick_47">
     <g id="line2d_92">
      <g>
       <use xlink:href="#mef085355d4" x="632.974094" y="41.316923" style="stroke: #000000; stroke-width: 0.5"/>
      </g>
     </g>
    </g>
    <g id="text_23">
     <!-- $|\psi(z)|^2$ -->
     <g transform="translate(682.30075 258.822959) rotate(-90) scale(0.2 -0.2)">
      <use xlink:href="#CMSY10-6a" transform="scale(1.038107)"/>
      <use xlink:href="#PazoMath-Italic-79" transform="translate(31.282699 0) scale(0.996264)"/>
      <use xlink:href="#CMR10-28" transform="translate(98.530428 0) scale(1.038107)"/>
      <use xlink:href="#URWPalladioL-Ital-7a" transform="translate(141.270133 0) scale(0.996264)"/>
      <use xlink:href="#CMR10-29" transform="translate(187.994894 0) scale(1.038107)"/>
      <use xlink:href="#CMSY10-6a" transform="translate(230.734599 0) scale(1.038107)"/>
      <use xlink:href="#URWPalladioL-Roma-32" transform="translate(260.771998 36.164371) scale(0.757155)"/>
     </g>
    </g>
   </g>
   <g id="line2d_93">
    <path d="M 133.710936 75.794164 
L 141.335922 78.674326 
L 148.960908 86.530664 
L 156.585894 98.542141 
L 164.210879 113.891757 
L 171.835865 131.796866 
L 179.460851 151.530599 
L 187.085837 172.435929 
L 209.960794 236.797074 
L 217.58578 257.407076 
L 225.210766 277.090675 
L 232.835751 295.648801 
L 240.460737 312.94193 
L 248.085723 328.882605 
L 255.710709 343.427916 
L 263.335695 356.572212 
L 270.96068 368.340213 
L 278.585666 378.780655 
L 286.210652 387.960556 
L 293.835638 395.960127 
L 301.460623 402.868362 
L 309.085609 408.779271 
L 316.710595 413.788746 
L 324.335581 417.992006 
L 331.960567 421.481569 
L 339.585552 424.34571 
L 347.210538 426.667328 
L 354.835524 428.52318 
L 362.46051 429.983422 
L 370.085495 431.111401 
L 377.710481 431.963656 
L 385.335467 432.590088 
L 392.960453 433.034242 
L 400.585439 433.333696 
L 415.83541 433.621655 
L 431.085382 433.652808 
L 469.210311 433.367822 
L 507.335239 433.175877 
L 553.085154 433.227424 
L 696.119572 433.628049 
L 696.119572 433.628049 
" clip-path="url(#p09f24c4dc4)" style="fill: none; stroke: #d62728; stroke-width: 4; stroke-linecap: square"/>
   </g>
   <g id="patch_7">
    <path d="M 74.974094 450.72 
L 74.974094 7.2 
" style="fill: none; stroke: #000000; stroke-width: 0.5; stroke-linejoin: miter; stroke-linecap: square"/>
   </g>
   <g id="patch_8">
    <path d="M 632.974094 450.72 
L 632.974094 7.2 
" style="fill: none; stroke: #000000; stroke-width: 0.5; stroke-linejoin: miter; stroke-linecap: square"/>
   </g>
   <g id="patch_9">
    <path d="M 74.974094 450.72 
L 632.974094 450.72 
" style="fill: none; stroke: #000000; stroke-width: 0.5; stroke-linejoin: miter; stroke-linecap: square"/>
   </g>
   <g id="patch_10">
    <path d="M 74.974094 7.2 
L 632.974094 7.2 
" style="fill: none; stroke: #000000; stroke-width: 0.5; stroke-linejoin: miter; stroke-linecap: square"/>
   </g>
  </g>
 </g>
 <defs>
  <clipPath id="p09f24c4dc4">
   <rect x="74.974094" y="7.2" width="558" height="443.52"/>
  </clipPath>
 </defs>
</svg>
