<?xml version="1.0" encoding="utf-8" standalone="no"?>
<!DOCTYPE svg PUBLIC "-//W3C//DTD SVG 1.1//EN"
  "http://www.w3.org/Graphics/SVG/1.1/DTD/svg11.dtd">
<svg xmlns:xlink="http://www.w3.org/1999/xlink" width="702.371371pt" height="403.234471pt" viewBox="0 0 702.371371 403.234471" xmlns="http://www.w3.org/2000/svg" version="1.1">
 <metadata>
  <rdf:RDF xmlns:dc="http://purl.org/dc/elements/1.1/" xmlns:cc="http://creativecommons.org/ns#" xmlns:rdf="http://www.w3.org/1999/02/22-rdf-syntax-ns#">
   <cc:Work>
    <dc:type rdf:resource="http://purl.org/dc/dcmitype/StillImage"/>
    <dc:date>2025-06-16T16:03:17.314643</dc:date>
    <dc:format>image/svg+xml</dc:format>
    <dc:creator>
     <cc:Agent>
      <dc:title>Matplotlib v3.7.1, https://matplotlib.org/</dc:title>
     </cc:Agent>
    </dc:creator>
   </cc:Work>
  </rdf:RDF>
 </metadata>
 <defs>
  <style type="text/css">*{stroke-linejoin: round; stroke-linecap: butt}</style>
 </defs>
 <g id="figure_1">
  <g id="patch_1">
   <path d="M 0 403.234471 
L 702.371371 403.234471 
L 702.371371 0 
L 0 0 
z
" style="fill: #ffffff"/>
  </g>
  <g id="axes_1">
   <g id="patch_2">
    <path d="M 98.832002 339.84 
L 601.032002 339.84 
L 601.032002 7.2 
L 98.832002 7.2 
z
" style="fill: #ffffff"/>
   </g>
   <g id="matplotlib.axis_1">
    <g id="xtick_1">
     <g id="line2d_1">
      <defs>
       <path id="m470df0b75f" d="M 0 0 
L 0 -3 
" style="stroke: #000000; stroke-width: 0.5"/>
      </defs>
      <g>
       <use xlink:href="#m470df0b75f" x="151.69516" y="339.84" style="stroke: #000000; stroke-width: 0.5"/>
      </g>
     </g>
     <g id="line2d_2">
      <defs>
       <path id="m37d7db683e" d="M 0 0 
L 0 3 
" style="stroke: #000000; stroke-width: 0.5"/>
      </defs>
      <g>
       <use xlink:href="#m37d7db683e" x="151.69516" y="7.2" style="stroke: #000000; stroke-width: 0.5"/>
      </g>
     </g>
     <g id="text_1">
      <!-- $\mathdefault{0}$ -->
      <g transform="translate(145.717576 360.447767) scale(0.24 -0.24)">
       <defs>
        <path id="URWPalladioL-Roma-30" d="M 1683 4416 
C 691 4416 186 3628 186 2077 
C 186 1326 320 680 544 366 
C 768 51 1126 -128 1523 -128 
C 2490 -128 2976 705 2976 2346 
C 2976 3749 2560 4416 1683 4416 
z
M 1568 4192 
C 2189 4192 2438 3564 2438 2025 
C 2438 661 2195 96 1606 96 
C 986 96 723 744 723 2308 
C 723 3660 960 4192 1568 4192 
z
" transform="scale(0.015625)"/>
       </defs>
       <use xlink:href="#URWPalladioL-Roma-30" transform="scale(0.996264)"/>
      </g>
     </g>
    </g>
    <g id="xtick_2">
     <g id="line2d_3">
      <g>
       <use xlink:href="#m470df0b75f" x="257.421476" y="339.84" style="stroke: #000000; stroke-width: 0.5"/>
      </g>
     </g>
     <g id="line2d_4">
      <g>
       <use xlink:href="#m37d7db683e" x="257.421476" y="7.2" style="stroke: #000000; stroke-width: 0.5"/>
      </g>
     </g>
     <g id="text_2">
      <!-- $\mathdefault{2}$ -->
      <g transform="translate(251.443892 360.447767) scale(0.24 -0.24)">
       <defs>
        <path id="URWPalladioL-Roma-32" d="M 102 160 
L 102 0 
C 1299 0 1299 0 1530 0 
C 1760 0 1760 0 2995 0 
C 2982 125 2982 186 2982 269 
C 2982 348 2982 407 2995 539 
C 2259 539 1965 539 781 539 
L 1946 1761 
C 2566 2414 2758 2763 2758 3238 
C 2758 3966 2259 4416 1446 4416 
C 986 4416 672 4288 358 3969 
L 250 3099 
L 435 3099 
L 518 3393 
C 621 3763 851 3923 1280 3923 
C 1830 3923 2182 3577 2182 3035 
C 2182 2555 1914 2083 1190 1316 
L 102 160 
z
" transform="scale(0.015625)"/>
       </defs>
       <use xlink:href="#URWPalladioL-Roma-32" transform="scale(0.996264)"/>
      </g>
     </g>
    </g>
    <g id="xtick_3">
     <g id="line2d_5">
      <g>
       <use xlink:href="#m470df0b75f" x="363.147791" y="339.84" style="stroke: #000000; stroke-width: 0.5"/>
      </g>
     </g>
     <g id="line2d_6">
      <g>
       <use xlink:href="#m37d7db683e" x="363.147791" y="7.2" style="stroke: #000000; stroke-width: 0.5"/>
      </g>
     </g>
     <g id="text_3">
      <!-- $\mathdefault{4}$ -->
      <g transform="translate(357.170207 360.447767) scale(0.24 -0.24)">
       <defs>
        <path id="URWPalladioL-Roma-34" d="M 1792 1152 
L 1792 673 
C 1792 289 1722 199 1408 199 
L 1011 199 
L 1011 0 
C 1862 0 1862 0 2016 0 
C 2170 0 2170 0 3021 0 
L 3021 199 
L 2714 199 
C 2400 199 2330 282 2330 669 
L 2330 1152 
C 2707 1152 2842 1152 3021 1133 
L 3021 1588 
C 2720 1563 2598 1563 2502 1563 
L 2483 1563 
L 2330 1563 
L 2330 2457 
C 2330 3600 2342 4152 2374 4416 
L 2298 4448 
L 1824 4275 
L 13 1299 
L 83 1152 
L 1792 1152 
z
M 1792 1563 
L 416 1563 
L 1792 3826 
L 1792 1563 
z
" transform="scale(0.015625)"/>
       </defs>
       <use xlink:href="#URWPalladioL-Roma-34" transform="scale(0.996264)"/>
      </g>
     </g>
    </g>
    <g id="xtick_4">
     <g id="line2d_7">
      <g>
       <use xlink:href="#m470df0b75f" x="468.874107" y="339.84" style="stroke: #000000; stroke-width: 0.5"/>
      </g>
     </g>
     <g id="line2d_8">
      <g>
       <use xlink:href="#m37d7db683e" x="468.874107" y="7.2" style="stroke: #000000; stroke-width: 0.5"/>
      </g>
     </g>
     <g id="text_4">
      <!-- $\mathdefault{6}$ -->
      <g transform="translate(462.896523 360.447767) scale(0.24 -0.24)">
       <defs>
        <path id="URWPalladioL-Roma-36" d="M 2662 4310 
L 2426 4419 
C 1811 4214 1549 4086 1222 3804 
C 563 3246 205 2464 205 1585 
C 205 526 717 -128 1542 -128 
C 2374 -128 2995 532 2995 1405 
C 2995 2143 2554 2624 1875 2624 
C 1555 2624 1363 2540 986 2239 
C 915 2181 909 2175 838 2124 
C 973 3284 1510 3913 2662 4259 
L 2662 4310 
z
M 1632 2239 
C 2118 2239 2445 1816 2445 1181 
C 2445 513 2118 83 1626 83 
C 1082 83 787 551 787 1412 
C 787 1636 813 1758 883 1867 
C 1024 2085 1325 2239 1632 2239 
z
" transform="scale(0.015625)"/>
       </defs>
       <use xlink:href="#URWPalladioL-Roma-36" transform="scale(0.996264)"/>
      </g>
     </g>
    </g>
    <g id="xtick_5">
     <g id="line2d_9">
      <g>
       <use xlink:href="#m470df0b75f" x="574.600423" y="339.84" style="stroke: #000000; stroke-width: 0.5"/>
      </g>
     </g>
     <g id="line2d_10">
      <g>
       <use xlink:href="#m37d7db683e" x="574.600423" y="7.2" style="stroke: #000000; stroke-width: 0.5"/>
      </g>
     </g>
     <g id="text_5">
      <!-- $\mathdefault{8}$ -->
      <g transform="translate(568.622839 360.447767) scale(0.24 -0.24)">
       <defs>
        <path id="URWPalladioL-Roma-38" d="M 1075 2211 
C 813 2090 704 2019 563 1884 
C 320 1641 192 1352 192 1019 
C 192 359 723 -128 1446 -128 
C 2278 -128 2970 526 2970 1320 
C 2970 1833 2733 2109 2003 2442 
C 2586 2840 2790 3109 2790 3493 
C 2790 4044 2336 4416 1658 4416 
C 896 4416 339 3929 339 3257 
C 339 2821 512 2577 1075 2211 
z
M 1818 1891 
C 2221 1711 2464 1397 2464 1052 
C 2464 513 2061 90 1542 90 
C 998 90 646 475 646 1071 
C 646 1538 832 1833 1306 2122 
L 1818 1891 
z
M 1427 2712 
C 1024 2910 819 3167 819 3487 
C 819 3910 1126 4198 1581 4198 
C 2048 4198 2355 3891 2355 3422 
C 2355 3058 2195 2808 1779 2538 
L 1427 2712 
z
" transform="scale(0.015625)"/>
       </defs>
       <use xlink:href="#URWPalladioL-Roma-38" transform="scale(0.996264)"/>
      </g>
     </g>
    </g>
    <g id="xtick_6">
     <g id="line2d_11">
      <defs>
       <path id="m13d020e57d" d="M 0 0 
L 0 -1.5 
" style="stroke: #000000; stroke-width: 0.5"/>
      </defs>
      <g>
       <use xlink:href="#m13d020e57d" x="125.263581" y="339.84" style="stroke: #000000; stroke-width: 0.5"/>
      </g>
     </g>
     <g id="line2d_12">
      <defs>
       <path id="m14c65515e6" d="M 0 0 
L 0 1.5 
" style="stroke: #000000; stroke-width: 0.5"/>
      </defs>
      <g>
       <use xlink:href="#m14c65515e6" x="125.263581" y="7.2" style="stroke: #000000; stroke-width: 0.5"/>
      </g>
     </g>
    </g>
    <g id="xtick_7">
     <g id="line2d_13">
      <g>
       <use xlink:href="#m13d020e57d" x="178.126739" y="339.84" style="stroke: #000000; stroke-width: 0.5"/>
      </g>
     </g>
     <g id="line2d_14">
      <g>
       <use xlink:href="#m14c65515e6" x="178.126739" y="7.2" style="stroke: #000000; stroke-width: 0.5"/>
      </g>
     </g>
    </g>
    <g id="xtick_8">
     <g id="line2d_15">
      <g>
       <use xlink:href="#m13d020e57d" x="204.558318" y="339.84" style="stroke: #000000; stroke-width: 0.5"/>
      </g>
     </g>
     <g id="line2d_16">
      <g>
       <use xlink:href="#m14c65515e6" x="204.558318" y="7.2" style="stroke: #000000; stroke-width: 0.5"/>
      </g>
     </g>
    </g>
    <g id="xtick_9">
     <g id="line2d_17">
      <g>
       <use xlink:href="#m13d020e57d" x="230.989897" y="339.84" style="stroke: #000000; stroke-width: 0.5"/>
      </g>
     </g>
     <g id="line2d_18">
      <g>
       <use xlink:href="#m14c65515e6" x="230.989897" y="7.2" style="stroke: #000000; stroke-width: 0.5"/>
      </g>
     </g>
    </g>
    <g id="xtick_10">
     <g id="line2d_19">
      <g>
       <use xlink:href="#m13d020e57d" x="283.853055" y="339.84" style="stroke: #000000; stroke-width: 0.5"/>
      </g>
     </g>
     <g id="line2d_20">
      <g>
       <use xlink:href="#m14c65515e6" x="283.853055" y="7.2" style="stroke: #000000; stroke-width: 0.5"/>
      </g>
     </g>
    </g>
    <g id="xtick_11">
     <g id="line2d_21">
      <g>
       <use xlink:href="#m13d020e57d" x="310.284634" y="339.84" style="stroke: #000000; stroke-width: 0.5"/>
      </g>
     </g>
     <g id="line2d_22">
      <g>
       <use xlink:href="#m14c65515e6" x="310.284634" y="7.2" style="stroke: #000000; stroke-width: 0.5"/>
      </g>
     </g>
    </g>
    <g id="xtick_12">
     <g id="line2d_23">
      <g>
       <use xlink:href="#m13d020e57d" x="336.716212" y="339.84" style="stroke: #000000; stroke-width: 0.5"/>
      </g>
     </g>
     <g id="line2d_24">
      <g>
       <use xlink:href="#m14c65515e6" x="336.716212" y="7.2" style="stroke: #000000; stroke-width: 0.5"/>
      </g>
     </g>
    </g>
    <g id="xtick_13">
     <g id="line2d_25">
      <g>
       <use xlink:href="#m13d020e57d" x="389.57937" y="339.84" style="stroke: #000000; stroke-width: 0.5"/>
      </g>
     </g>
     <g id="line2d_26">
      <g>
       <use xlink:href="#m14c65515e6" x="389.57937" y="7.2" style="stroke: #000000; stroke-width: 0.5"/>
      </g>
     </g>
    </g>
    <g id="xtick_14">
     <g id="line2d_27">
      <g>
       <use xlink:href="#m13d020e57d" x="416.010949" y="339.84" style="stroke: #000000; stroke-width: 0.5"/>
      </g>
     </g>
     <g id="line2d_28">
      <g>
       <use xlink:href="#m14c65515e6" x="416.010949" y="7.2" style="stroke: #000000; stroke-width: 0.5"/>
      </g>
     </g>
    </g>
    <g id="xtick_15">
     <g id="line2d_29">
      <g>
       <use xlink:href="#m13d020e57d" x="442.442528" y="339.84" style="stroke: #000000; stroke-width: 0.5"/>
      </g>
     </g>
     <g id="line2d_30">
      <g>
       <use xlink:href="#m14c65515e6" x="442.442528" y="7.2" style="stroke: #000000; stroke-width: 0.5"/>
      </g>
     </g>
    </g>
    <g id="xtick_16">
     <g id="line2d_31">
      <g>
       <use xlink:href="#m13d020e57d" x="495.305686" y="339.84" style="stroke: #000000; stroke-width: 0.5"/>
      </g>
     </g>
     <g id="line2d_32">
      <g>
       <use xlink:href="#m14c65515e6" x="495.305686" y="7.2" style="stroke: #000000; stroke-width: 0.5"/>
      </g>
     </g>
    </g>
    <g id="xtick_17">
     <g id="line2d_33">
      <g>
       <use xlink:href="#m13d020e57d" x="521.737265" y="339.84" style="stroke: #000000; stroke-width: 0.5"/>
      </g>
     </g>
     <g id="line2d_34">
      <g>
       <use xlink:href="#m14c65515e6" x="521.737265" y="7.2" style="stroke: #000000; stroke-width: 0.5"/>
      </g>
     </g>
    </g>
    <g id="xtick_18">
     <g id="line2d_35">
      <g>
       <use xlink:href="#m13d020e57d" x="548.168844" y="339.84" style="stroke: #000000; stroke-width: 0.5"/>
      </g>
     </g>
     <g id="line2d_36">
      <g>
       <use xlink:href="#m14c65515e6" x="548.168844" y="7.2" style="stroke: #000000; stroke-width: 0.5"/>
      </g>
     </g>
    </g>
    <g id="xtick_19">
     <g id="line2d_37">
      <g>
       <use xlink:href="#m13d020e57d" x="601.032002" y="339.84" style="stroke: #000000; stroke-width: 0.5"/>
      </g>
     </g>
     <g id="line2d_38">
      <g>
       <use xlink:href="#m14c65515e6" x="601.032002" y="7.2" style="stroke: #000000; stroke-width: 0.5"/>
      </g>
     </g>
    </g>
    <g id="text_6">
     <!-- $z / \xi_{ind}$ -->
     <g transform="translate(316.895602 389.010943) scale(0.25 -0.25)">
      <defs>
       <path id="URWPalladioL-Ital-7a" d="M -6 140 
L 51 -32 
C 237 114 410 172 634 172 
C 794 172 973 140 1306 63 
C 1690 -32 1888 -64 2061 -64 
C 2138 -64 2195 -51 2381 0 
C 2451 395 2502 610 2573 910 
L 2432 910 
L 2291 529 
C 2253 414 2176 369 2042 369 
C 1965 369 1862 382 1728 414 
L 1613 439 
C 1402 484 1184 516 1062 516 
C 858 516 685 478 454 382 
L 2624 2812 
L 2662 3014 
L 2605 3072 
L 2458 2925 
C 2394 2861 2330 2836 2240 2836 
C 2022 2836 1690 2887 1382 2970 
L 1267 3002 
C 1088 3046 960 3072 870 3072 
C 762 3072 634 3053 480 3008 
L 275 2232 
L 410 2232 
L 602 2600 
C 710 2626 768 2632 851 2632 
C 941 2632 1011 2626 1139 2600 
C 1357 2556 1523 2536 1658 2536 
C 1888 2536 2042 2575 2253 2683 
L -6 140 
z
" transform="scale(0.015625)"/>
       <path id="URWPalladioL-Roma-2f" d="M 3322 4640 
L 2938 4640 
L 557 -768 
L 941 -768 
L 3322 4640 
z
" transform="scale(0.015625)"/>
       <path id="PazoMath-Italic-78" d="M 774 3706 
L 909 3706 
L 1101 4070 
C 1210 4094 1267 4101 1350 4101 
C 1440 4101 1510 4094 1638 4070 
C 1869 4026 2029 4007 2176 4007 
C 1882 3796 1702 3605 1702 3369 
C 1702 3248 1734 3151 1805 3069 
C 1517 3043 1101 2814 781 2527 
C 429 2214 186 1544 186 874 
C 186 262 454 -64 966 -64 
C 1114 -64 1638 0 1830 0 
C 2048 0 2157 -114 2157 -328 
C 2157 -372 2150 -409 2144 -460 
C 1990 -906 1670 -1152 1389 -1152 
C 1165 -1152 992 -982 992 -762 
C 992 -731 998 -681 1005 -624 
L 941 -598 
L 634 -813 
C 627 -857 627 -896 627 -927 
C 627 -1199 864 -1421 1152 -1421 
C 1510 -1421 1952 -1116 2240 -754 
C 2470 -467 2515 -149 2515 74 
C 2515 131 2496 181 2458 220 
C 2368 321 2182 321 2048 321 
C 1862 321 1421 264 1210 264 
C 851 264 672 520 672 1028 
C 672 1720 896 2387 1210 2630 
C 1344 2733 1510 2817 1709 2817 
C 1856 2817 1978 2778 2093 2740 
C 2150 2720 2336 2688 2394 2688 
C 2477 2688 2637 2688 2662 2695 
C 2662 2729 2707 2889 2752 2956 
C 2752 2990 2746 3010 2739 3010 
C 2400 3010 2093 3219 2093 3537 
C 2093 3885 2662 4112 2931 4214 
L 3123 4284 
L 3162 4486 
L 3104 4544 
L 2957 4397 
C 2893 4332 2829 4307 2739 4307 
C 2522 4307 2189 4358 1882 4442 
L 1766 4474 
C 1587 4519 1459 4544 1370 4544 
C 1261 4544 1133 4525 979 4481 
L 774 3706 
z
" transform="scale(0.015625)"/>
       <path id="URWPalladioL-Ital-69" d="M 218 2471 
L 262 2343 
L 467 2477 
C 704 2625 723 2637 768 2637 
C 832 2637 883 2574 883 2490 
C 883 2445 858 2299 832 2208 
L 410 676 
C 358 478 326 306 326 184 
C 326 31 397 -64 518 -64 
C 685 -64 915 69 1542 536 
L 1478 651 
L 1312 543 
C 1126 421 979 351 922 351 
C 877 351 838 415 838 478 
C 838 542 851 600 883 734 
L 1376 2676 
C 1402 2784 1414 2855 1414 2906 
C 1414 3014 1357 3072 1254 3072 
C 1114 3072 877 2938 397 2599 
L 218 2471 
z
M 1459 4529 
C 1274 4529 1088 4318 1088 4102 
C 1088 3942 1184 3840 1338 3840 
C 1536 3840 1690 4025 1690 4267 
C 1690 4420 1594 4529 1459 4529 
z
" transform="scale(0.015625)"/>
       <path id="URWPalladioL-Ital-6e" d="M 154 2471 
L 198 2343 
L 403 2477 
C 640 2625 659 2637 704 2637 
C 774 2637 819 2574 819 2478 
C 819 2152 557 919 294 6 
L 339 -64 
C 499 -20 646 18 787 44 
C 909 849 1043 1264 1338 1705 
C 1683 2241 2163 2637 2451 2637 
C 2522 2637 2560 2580 2560 2484 
C 2560 2369 2541 2235 2490 2031 
L 2157 677 
C 2099 440 2074 294 2074 192 
C 2074 31 2144 -64 2266 -64 
C 2432 -64 2662 69 3290 536 
L 3226 651 
L 3059 543 
C 2874 421 2733 351 2669 351 
C 2624 351 2586 408 2586 478 
C 2586 510 2592 581 2598 607 
L 3021 2369 
C 3066 2555 3091 2733 3091 2841 
C 3091 2989 3021 3072 2893 3072 
C 2624 3072 2182 2830 1805 2478 
C 1562 2254 1382 2037 1050 1571 
L 1293 2599 
C 1318 2714 1331 2790 1331 2861 
C 1331 2995 1280 3072 1184 3072 
C 1050 3072 800 2932 333 2599 
L 154 2471 
z
" transform="scale(0.015625)"/>
       <path id="URWPalladioL-Ital-64" d="M 3091 4619 
L 3014 4689 
C 2682 4524 2451 4466 1990 4422 
L 1965 4288 
L 2272 4288 
C 2426 4288 2490 4242 2490 4133 
C 2490 4081 2483 4023 2477 3978 
L 2298 2983 
C 2106 3040 1933 3072 1773 3072 
C 1331 3072 730 2614 435 2060 
C 237 1692 109 1087 109 553 
C 109 140 205 -64 390 -64 
C 563 -64 800 44 1018 215 
C 1363 496 1574 743 2003 1386 
L 1856 802 
C 1786 520 1754 315 1754 147 
C 1754 13 1811 -64 1920 -64 
C 2029 -64 2182 13 2400 175 
L 2918 565 
L 2854 686 
L 2573 489 
C 2483 426 2381 381 2323 381 
C 2272 381 2234 438 2234 528 
C 2234 580 2240 637 2285 822 
L 3091 4619 
z
M 2157 2239 
C 2042 1679 1728 1119 1331 743 
C 1107 534 851 381 730 381 
C 627 381 570 470 570 629 
C 570 1431 864 2423 1178 2664 
C 1261 2728 1382 2760 1555 2760 
C 1837 2760 2022 2721 2234 2614 
L 2157 2239 
z
" transform="scale(0.015625)"/>
      </defs>
      <use xlink:href="#URWPalladioL-Ital-7a" transform="scale(0.996264)"/>
      <use xlink:href="#URWPalladioL-Roma-2f" transform="translate(46.724761 0) scale(0.996264)"/>
      <use xlink:href="#PazoMath-Italic-78" transform="translate(109.588965 0) scale(0.996264)"/>
      <use xlink:href="#URWPalladioL-Ital-69" transform="translate(158.971758 -20.849366) scale(0.757155)"/>
      <use xlink:href="#URWPalladioL-Ital-6e" transform="translate(182.442777 -20.849366) scale(0.757155)"/>
      <use xlink:href="#URWPalladioL-Ital-64" transform="translate(226.433513 -20.849366) scale(0.757155)"/>
     </g>
    </g>
   </g>
   <g id="matplotlib.axis_2">
    <g id="ytick_1">
     <g id="line2d_39">
      <defs>
       <path id="m54f9a1a9ee" d="M 0 0 
L 3 0 
" style="stroke: #000000; stroke-width: 0.5"/>
      </defs>
      <g>
       <use xlink:href="#m54f9a1a9ee" x="98.832002" y="324.720019" style="stroke: #000000; stroke-width: 0.5"/>
      </g>
     </g>
     <g id="text_7">
      <!-- $\mathdefault{0.00}$ -->
      <g transform="translate(53.488914 333.273903) scale(0.24 -0.24)">
       <defs>
        <path id="URWPalladioL-Roma-2e" d="M 794 744 
C 602 744 429 564 429 372 
C 429 179 602 0 787 0 
C 992 0 1171 173 1171 372 
C 1171 564 992 744 794 744 
z
" transform="scale(0.015625)"/>
       </defs>
       <use xlink:href="#URWPalladioL-Roma-30" transform="scale(0.996264)"/>
       <use xlink:href="#URWPalladioL-Roma-2e" transform="translate(49.8132 0) scale(0.996264)"/>
       <use xlink:href="#URWPalladioL-Roma-30" transform="translate(74.719801 0) scale(0.996264)"/>
       <use xlink:href="#URWPalladioL-Roma-30" transform="translate(124.533001 0) scale(0.996264)"/>
      </g>
     </g>
    </g>
    <g id="ytick_2">
     <g id="line2d_40">
      <g>
       <use xlink:href="#m54f9a1a9ee" x="98.832002" y="249.120014" style="stroke: #000000; stroke-width: 0.5"/>
      </g>
     </g>
     <g id="text_8">
      <!-- $\mathdefault{0.25}$ -->
      <g transform="translate(53.488914 257.673898) scale(0.24 -0.24)">
       <defs>
        <path id="URWPalladioL-Roma-35" d="M 813 3877 
C 1638 3877 1997 3877 2765 3877 
L 2797 3907 
C 2784 4016 2784 4064 2784 4144 
C 2784 4229 2784 4277 2797 4386 
L 2765 4416 
C 2285 4416 1997 4416 1651 4416 
C 1299 4416 1018 4416 538 4416 
L 506 4403 
C 512 4011 518 3729 518 3523 
C 518 2977 499 2360 480 2077 
L 608 2038 
C 909 2341 1082 2432 1395 2432 
C 2010 2432 2394 1993 2394 1296 
C 2394 580 1984 160 1286 160 
C 941 160 621 277 531 444 
L 237 973 
L 83 883 
C 230 516 307 310 397 27 
C 576 -71 832 -128 1107 -128 
C 1536 -128 1990 59 2342 368 
C 2733 716 2938 1154 2938 1630 
C 2938 2359 2419 2874 1690 2874 
C 1382 2874 1152 2791 755 2554 
L 813 3877 
z
" transform="scale(0.015625)"/>
       </defs>
       <use xlink:href="#URWPalladioL-Roma-30" transform="scale(0.996264)"/>
       <use xlink:href="#URWPalladioL-Roma-2e" transform="translate(49.8132 0) scale(0.996264)"/>
       <use xlink:href="#URWPalladioL-Roma-32" transform="translate(74.719801 0) scale(0.996264)"/>
       <use xlink:href="#URWPalladioL-Roma-35" transform="translate(124.533001 0) scale(0.996264)"/>
      </g>
     </g>
    </g>
    <g id="ytick_3">
     <g id="line2d_41">
      <g>
       <use xlink:href="#m54f9a1a9ee" x="98.832002" y="173.52001" style="stroke: #000000; stroke-width: 0.5"/>
      </g>
     </g>
     <g id="text_9">
      <!-- $\mathdefault{0.50}$ -->
      <g transform="translate(53.488914 182.073893) scale(0.24 -0.24)">
       <use xlink:href="#URWPalladioL-Roma-30" transform="scale(0.996264)"/>
       <use xlink:href="#URWPalladioL-Roma-2e" transform="translate(49.8132 0) scale(0.996264)"/>
       <use xlink:href="#URWPalladioL-Roma-35" transform="translate(74.719801 0) scale(0.996264)"/>
       <use xlink:href="#URWPalladioL-Roma-30" transform="translate(124.533001 0) scale(0.996264)"/>
      </g>
     </g>
    </g>
    <g id="ytick_4">
     <g id="line2d_42">
      <g>
       <use xlink:href="#m54f9a1a9ee" x="98.832002" y="97.920005" style="stroke: #000000; stroke-width: 0.5"/>
      </g>
     </g>
     <g id="text_10">
      <!-- $\mathdefault{0.75}$ -->
      <g transform="translate(53.488914 106.473888) scale(0.24 -0.24)">
       <defs>
        <path id="URWPalladioL-Roma-37" d="M 358 32 
L 416 -51 
C 666 -32 666 -32 710 -32 
C 755 -32 755 -32 1005 -51 
C 1274 649 1587 1317 2010 2087 
L 3181 4199 
L 3181 4372 
C 2490 4372 2266 4372 1747 4372 
C 1280 4372 966 4372 346 4372 
L 282 4359 
C 301 3750 301 3750 301 3685 
C 301 3614 301 3614 282 3031 
L 474 3031 
L 518 3390 
C 570 3789 614 3840 909 3840 
L 2618 3840 
C 2362 3313 2163 2941 1920 2549 
L 358 32 
z
" transform="scale(0.015625)"/>
       </defs>
       <use xlink:href="#URWPalladioL-Roma-30" transform="scale(0.996264)"/>
       <use xlink:href="#URWPalladioL-Roma-2e" transform="translate(49.8132 0) scale(0.996264)"/>
       <use xlink:href="#URWPalladioL-Roma-37" transform="translate(74.719801 0) scale(0.996264)"/>
       <use xlink:href="#URWPalladioL-Roma-35" transform="translate(124.533001 0) scale(0.996264)"/>
      </g>
     </g>
    </g>
    <g id="ytick_5">
     <g id="line2d_43">
      <g>
       <use xlink:href="#m54f9a1a9ee" x="98.832002" y="22.32" style="stroke: #000000; stroke-width: 0.5"/>
      </g>
     </g>
     <g id="text_11">
      <!-- $\mathdefault{1.00}$ -->
      <g transform="translate(53.488914 30.873883) scale(0.24 -0.24)">
       <defs>
        <path id="URWPalladioL-Roma-31" d="M 429 3584 
L 493 3584 
L 1318 3956 
C 1325 3962 1331 3962 1338 3962 
C 1376 3962 1389 3905 1389 3751 
L 1389 613 
C 1389 276 1318 205 973 205 
L 614 205 
L 614 0 
C 1600 0 1600 0 1670 0 
C 1754 0 1894 0 2112 0 
C 2189 0 2413 0 2675 0 
L 2675 205 
L 2342 205 
C 1990 205 1926 276 1926 612 
L 1926 4443 
L 1837 4475 
C 1421 4257 966 4065 384 3860 
L 429 3584 
z
" transform="scale(0.015625)"/>
       </defs>
       <use xlink:href="#URWPalladioL-Roma-31" transform="scale(0.996264)"/>
       <use xlink:href="#URWPalladioL-Roma-2e" transform="translate(49.8132 0) scale(0.996264)"/>
       <use xlink:href="#URWPalladioL-Roma-30" transform="translate(74.719801 0) scale(0.996264)"/>
       <use xlink:href="#URWPalladioL-Roma-30" transform="translate(124.533001 0) scale(0.996264)"/>
      </g>
     </g>
    </g>
    <g id="ytick_6">
     <g id="line2d_44">
      <defs>
       <path id="md097e22e29" d="M 0 0 
L 1.5 0 
" style="stroke: #000000; stroke-width: 0.5"/>
      </defs>
      <g>
       <use xlink:href="#md097e22e29" x="98.832002" y="309.600018" style="stroke: #000000; stroke-width: 0.5"/>
      </g>
     </g>
    </g>
    <g id="ytick_7">
     <g id="line2d_45">
      <g>
       <use xlink:href="#md097e22e29" x="98.832002" y="294.480017" style="stroke: #000000; stroke-width: 0.5"/>
      </g>
     </g>
    </g>
    <g id="ytick_8">
     <g id="line2d_46">
      <g>
       <use xlink:href="#md097e22e29" x="98.832002" y="279.360016" style="stroke: #000000; stroke-width: 0.5"/>
      </g>
     </g>
    </g>
    <g id="ytick_9">
     <g id="line2d_47">
      <g>
       <use xlink:href="#md097e22e29" x="98.832002" y="264.240015" style="stroke: #000000; stroke-width: 0.5"/>
      </g>
     </g>
    </g>
    <g id="ytick_10">
     <g id="line2d_48">
      <g>
       <use xlink:href="#md097e22e29" x="98.832002" y="234.000013" style="stroke: #000000; stroke-width: 0.5"/>
      </g>
     </g>
    </g>
    <g id="ytick_11">
     <g id="line2d_49">
      <g>
       <use xlink:href="#md097e22e29" x="98.832002" y="218.880012" style="stroke: #000000; stroke-width: 0.5"/>
      </g>
     </g>
    </g>
    <g id="ytick_12">
     <g id="line2d_50">
      <g>
       <use xlink:href="#md097e22e29" x="98.832002" y="203.760012" style="stroke: #000000; stroke-width: 0.5"/>
      </g>
     </g>
    </g>
    <g id="ytick_13">
     <g id="line2d_51">
      <g>
       <use xlink:href="#md097e22e29" x="98.832002" y="188.640011" style="stroke: #000000; stroke-width: 0.5"/>
      </g>
     </g>
    </g>
    <g id="ytick_14">
     <g id="line2d_52">
      <g>
       <use xlink:href="#md097e22e29" x="98.832002" y="158.400009" style="stroke: #000000; stroke-width: 0.5"/>
      </g>
     </g>
    </g>
    <g id="ytick_15">
     <g id="line2d_53">
      <g>
       <use xlink:href="#md097e22e29" x="98.832002" y="143.280008" style="stroke: #000000; stroke-width: 0.5"/>
      </g>
     </g>
    </g>
    <g id="ytick_16">
     <g id="line2d_54">
      <g>
       <use xlink:href="#md097e22e29" x="98.832002" y="128.160007" style="stroke: #000000; stroke-width: 0.5"/>
      </g>
     </g>
    </g>
    <g id="ytick_17">
     <g id="line2d_55">
      <g>
       <use xlink:href="#md097e22e29" x="98.832002" y="113.040006" style="stroke: #000000; stroke-width: 0.5"/>
      </g>
     </g>
    </g>
    <g id="ytick_18">
     <g id="line2d_56">
      <g>
       <use xlink:href="#md097e22e29" x="98.832002" y="82.800004" style="stroke: #000000; stroke-width: 0.5"/>
      </g>
     </g>
    </g>
    <g id="ytick_19">
     <g id="line2d_57">
      <g>
       <use xlink:href="#md097e22e29" x="98.832002" y="67.680003" style="stroke: #000000; stroke-width: 0.5"/>
      </g>
     </g>
    </g>
    <g id="ytick_20">
     <g id="line2d_58">
      <g>
       <use xlink:href="#md097e22e29" x="98.832002" y="52.560002" style="stroke: #000000; stroke-width: 0.5"/>
      </g>
     </g>
    </g>
    <g id="ytick_21">
     <g id="line2d_59">
      <g>
       <use xlink:href="#md097e22e29" x="98.832002" y="37.440001" style="stroke: #000000; stroke-width: 0.5"/>
      </g>
     </g>
    </g>
    <g id="text_12">
     <!-- $\left\lVert \Delta_{\mathrm{ind}}(z) \right \rVert$ -->
     <g transform="translate(26.465386 226.35685) rotate(-90) scale(0.25 -0.25)">
      <defs>
       <path id="CMSY10-6b" d="M 1103 4582 
C 1103 4685 1103 4800 975 4800 
C 847 4800 847 4659 847 4563 
L 847 -1363 
C 847 -1466 847 -1600 975 -1600 
C 1103 -1600 1103 -1485 1103 -1382 
L 1103 4582 
z
M 2351 4563 
C 2351 4666 2351 4800 2223 4800 
C 2095 4800 2095 4685 2095 4582 
L 2095 -1382 
C 2095 -1485 2095 -1600 2223 -1600 
C 2351 -1600 2351 -1459 2351 -1363 
L 2351 4563 
z
" transform="scale(0.015625)"/>
       <path id="PazoMath-44" d="M 2042 4365 
L 192 160 
L 205 0 
C 787 0 1216 0 1824 0 
C 2426 0 3194 0 3706 0 
L 4102 217 
L 4102 275 
L 2285 4493 
L 2042 4365 
z
M 2022 3642 
L 3245 749 
C 3302 615 3373 474 3373 397 
C 3373 327 3270 288 3110 275 
L 986 275 
C 774 295 698 339 698 442 
C 698 525 838 858 922 1050 
L 2022 3642 
z
" transform="scale(0.015625)"/>
       <path id="URWPalladioL-Roma-69" d="M 1203 2993 
L 1146 3019 
C 819 2884 486 2793 147 2755 
L 147 2576 
L 384 2576 
C 640 2576 666 2531 666 2105 
L 666 651 
C 666 244 646 199 429 199 
L 134 199 
L 134 0 
C 774 0 774 0 934 0 
C 1094 0 1094 0 1734 0 
L 1734 199 
L 1440 199 
C 1222 199 1203 244 1203 651 
L 1203 2993 
z
M 909 4416 
C 717 4416 550 4249 550 4056 
C 550 3870 717 3704 902 3704 
C 1088 3704 1261 3870 1261 4056 
C 1261 4236 1088 4416 909 4416 
z
" transform="scale(0.015625)"/>
       <path id="URWPalladioL-Roma-6e" d="M 2624 -7 
C 3014 -7 3021 -7 3130 -7 
C 3219 -7 3219 -7 3661 -7 
L 3661 179 
L 3398 205 
C 3181 205 3162 244 3162 654 
L 3162 1892 
C 3162 2642 2810 3008 2093 3008 
C 1856 3008 1722 2963 1587 2847 
L 1101 2424 
L 1101 2982 
L 1043 3008 
C 717 2873 384 2783 45 2745 
L 45 2565 
L 282 2565 
C 538 2565 563 2520 563 2094 
L 563 643 
C 563 237 544 192 326 192 
L 38 192 
L 38 -7 
C 474 -7 646 -7 832 -7 
C 1018 -7 1190 -7 1626 -7 
L 1626 192 
L 1338 192 
C 1120 192 1101 237 1101 643 
L 1101 2011 
C 1101 2300 1523 2616 1914 2616 
C 2342 2616 2624 2297 2624 1806 
L 2624 -7 
z
" transform="scale(0.015625)"/>
       <path id="URWPalladioL-Roma-64" d="M 2637 2802 
C 2278 2956 2099 3008 1875 3008 
C 1702 3008 1549 2969 1389 2887 
L 826 2593 
C 461 2401 224 1935 224 1392 
C 224 881 397 460 710 204 
C 928 19 1229 -64 1645 -64 
C 1773 -64 1920 -38 1952 -13 
L 2662 583 
L 2630 -7 
C 2944 -7 3046 -7 3123 -7 
C 3174 -7 3264 -7 3398 -7 
C 3443 -7 3571 -7 3706 -7 
L 3706 192 
L 3411 192 
C 3194 192 3174 237 3174 643 
L 3174 4607 
L 3117 4659 
C 2835 4550 2624 4498 2118 4421 
L 2118 4242 
L 2477 4242 
C 2592 4242 2637 4171 2637 3978 
L 2637 2802 
z
M 2637 1424 
C 2637 1009 2624 946 2541 799 
C 2362 499 2048 302 1747 302 
C 1184 302 781 844 781 1603 
C 781 2298 1126 2706 1702 2706 
C 1946 2706 2202 2623 2426 2470 
C 2560 2381 2637 2298 2637 2246 
L 2637 1424 
z
" transform="scale(0.015625)"/>
       <path id="CMR10-28" d="M 2118 -1536 
C 2118 -1517 2118 -1504 2010 -1395 
C 1210 -584 1005 632 1005 1616 
C 1005 2735 1248 3855 2035 4658 
C 2118 4735 2118 4748 2118 4767 
C 2118 4812 2093 4832 2054 4832 
C 1990 4832 1414 4395 1037 3577 
C 710 2870 634 2156 634 1616 
C 634 1114 704 336 1056 -391 
C 1440 -1182 1990 -1600 2054 -1600 
C 2093 -1600 2118 -1581 2118 -1536 
z
" transform="scale(0.015625)"/>
       <path id="CMR10-29" d="M 1850 1616 
C 1850 2118 1779 2896 1427 3622 
C 1043 4414 493 4832 429 4832 
C 390 4832 365 4806 365 4767 
C 365 4748 365 4735 486 4620 
C 1114 3983 1478 2960 1478 1616 
C 1478 516 1242 -617 448 -1427 
C 365 -1504 365 -1517 365 -1536 
C 365 -1575 390 -1600 429 -1600 
C 493 -1600 1069 -1163 1446 -346 
C 1773 362 1850 1075 1850 1616 
z
" transform="scale(0.015625)"/>
      </defs>
      <use xlink:href="#CMSY10-6b" transform="translate(0 -1.344978) scale(1.038107)"/>
      <use xlink:href="#PazoMath-44" transform="translate(54.395018 0) scale(0.996264)"/>
      <use xlink:href="#URWPalladioL-Roma-69" transform="translate(122.986798 -20.886626) scale(0.757155)"/>
      <use xlink:href="#URWPalladioL-Roma-6e" transform="translate(145.019318 -20.886626) scale(0.757155)"/>
      <use xlink:href="#URWPalladioL-Roma-64" transform="translate(189.085363 -20.886626) scale(0.757155)"/>
      <use xlink:href="#CMR10-28" transform="translate(237.090905 0) scale(1.038107)"/>
      <use xlink:href="#URWPalladioL-Ital-7a" transform="translate(279.83061 0) scale(0.996264)"/>
      <use xlink:href="#CMR10-29" transform="translate(326.55537 0) scale(1.038107)"/>
      <use xlink:href="#CMSY10-6b" transform="translate(369.295075 -1.344978) scale(1.038107)"/>
     </g>
    </g>
   </g>
   <g id="line2d_60">
    <path d="M 151.69516 339.84 
L 151.69516 7.2 
" clip-path="url(#pd0c4eec41c)" style="fill: none; stroke-dasharray: 5.55,2.4; stroke-dashoffset: 0; stroke: #000000; stroke-width: 1.5"/>
   </g>
   <g id="line2d_61">
    <path d="M 151.69516 22.32 
L 154.09703 48.87411 
L 156.498901 73.616914 
L 158.900771 96.636612 
L 161.302642 118.019168 
L 163.704512 137.84823 
L 166.106383 156.20506 
L 168.508253 173.168476 
L 170.910124 188.814813 
L 173.311995 203.217887 
L 175.713865 216.448973 
L 178.115736 228.576797 
L 180.517606 239.667529 
L 182.919477 249.784789 
L 185.321347 258.989663 
L 187.723218 267.340719 
L 190.125088 274.894037 
L 192.526959 281.703239 
L 194.928829 287.819528 
L 197.3307 293.291729 
L 199.73257 298.166337 
L 202.134441 302.487565 
L 204.536311 306.297399 
L 206.938182 309.635656 
L 209.340052 312.540036 
L 211.741923 315.046189 
L 214.143793 317.187776 
L 216.545664 318.996529 
L 218.947534 320.502319 
L 221.349405 321.733219 
L 223.751275 322.715571 
L 226.153146 323.47405 
L 228.555016 324.031729 
L 230.956887 324.410139 
L 233.358758 324.629288 
L 235.760628 324.707067 
L 240.564369 324.511954 
L 245.36811 323.945407 
L 250.171851 323.11335 
L 257.377463 321.556618 
L 278.994297 316.53863 
L 286.199909 315.165584 
L 293.40552 314.048675 
L 300.611132 313.208322 
L 307.816744 312.645513 
L 315.022355 312.347177 
L 322.227967 312.290607 
L 329.433578 312.447046 
L 339.04106 312.931545 
L 348.648542 313.659984 
L 360.657895 314.800661 
L 384.6766 317.387743 
L 403.891564 319.365272 
L 418.302788 320.655365 
L 432.714011 321.738469 
L 447.125234 322.609323 
L 463.938327 323.376366 
L 480.751421 323.914225 
L 499.966385 324.309525 
L 523.98509 324.574167 
L 557.611278 324.704112 
L 636.873005 324.705985 
L 703.371371 324.705518 
L 703.371371 324.705518 
" clip-path="url(#pd0c4eec41c)" style="fill: none; stroke: #1f77b4; stroke-width: 5; stroke-linecap: square"/>
   </g>
   <g id="line2d_62">
    <path clip-path="url(#pd0c4eec41c)" style="fill: none; stroke: #d62728; stroke-width: 5; stroke-linecap: square"/>
   </g>
   <g id="line2d_63">
    <path d="M 151.69516 22.32 
L 156.498901 48.587895 
L 161.302642 72.574037 
L 166.106383 94.476629 
L 170.910124 114.476658 
L 175.713865 132.73939 
L 180.517606 149.415735 
L 185.321347 164.643494 
L 190.125088 178.548498 
L 194.928829 191.245647 
L 199.73257 202.839862 
L 204.536311 213.426948 
L 209.340052 223.094391 
L 214.143793 231.922073 
L 218.947534 239.982941 
L 223.751275 247.343605 
L 228.555016 254.064886 
L 233.358758 260.202325 
L 238.162499 265.806637 
L 242.96624 270.924131 
L 247.769981 275.597097 
L 252.573722 279.864146 
L 257.377463 283.760539 
L 262.181204 287.318473 
L 266.984945 290.567348 
L 271.788686 293.534011 
L 276.592427 296.242975 
L 281.396168 298.716625 
L 286.199909 300.975403 
L 291.00365 303.037973 
L 295.807391 304.921378 
L 303.013003 307.444223 
L 310.218614 309.645594 
L 317.424226 311.566456 
L 324.629837 313.242551 
L 331.835449 314.705069 
L 339.04106 315.981226 
L 348.648542 317.433473 
L 358.256025 318.644381 
L 367.863507 319.654054 
L 379.872859 320.683566 
L 391.882212 321.503858 
L 406.293435 322.271277 
L 423.106529 322.938395 
L 442.321493 323.481347 
L 466.340198 323.93364 
L 497.564515 324.284397 
L 540.798184 324.527743 
L 610.452429 324.668534 
L 703.371371 324.711139 
L 703.371371 324.711139 
" clip-path="url(#pd0c4eec41c)" style="fill: none; stroke-dasharray: 12.95,5.6; stroke-dashoffset: 0; stroke: #000000; stroke-width: 3.5"/>
   </g>
   <g id="patch_3">
    <path d="M 98.832002 339.84 
L 98.832002 7.2 
" style="fill: none; stroke: #000000; stroke-width: 0.5; stroke-linejoin: miter; stroke-linecap: square"/>
   </g>
   <g id="patch_4">
    <path d="M 601.032002 339.84 
L 601.032002 7.2 
" style="fill: none; stroke: #000000; stroke-width: 0.5; stroke-linejoin: miter; stroke-linecap: square"/>
   </g>
   <g id="patch_5">
    <path d="M 98.832002 339.84 
L 601.032002 339.84 
" style="fill: none; stroke: #000000; stroke-width: 0.5; stroke-linejoin: miter; stroke-linecap: square"/>
   </g>
   <g id="patch_6">
    <path d="M 98.832002 7.2 
L 601.032002 7.2 
" style="fill: none; stroke: #000000; stroke-width: 0.5; stroke-linejoin: miter; stroke-linecap: square"/>
   </g>
   <g id="legend_1">
    <g id="line2d_64">
     <path d="M 431.495434 38.770593 
L 456.495434 38.770593 
L 481.495434 38.770593 
" style="fill: none; stroke: #1f77b4; stroke-width: 5; stroke-linecap: square"/>
    </g>
    <g id="text_13">
     <!-- $\Delta_{ind}$ -->
     <g transform="translate(501.495434 47.520593) scale(0.25 -0.25)">
      <use xlink:href="#PazoMath-44" transform="scale(0.996264)"/>
      <use xlink:href="#URWPalladioL-Ital-69" transform="translate(69.008202 -20.849366) scale(0.757155)"/>
      <use xlink:href="#URWPalladioL-Ital-6e" transform="translate(92.479222 -20.849366) scale(0.757155)"/>
      <use xlink:href="#URWPalladioL-Ital-64" transform="translate(136.469958 -20.849366) scale(0.757155)"/>
     </g>
    </g>
    <g id="line2d_65">
     <path d="M 431.495434 80.066874 
L 456.495434 80.066874 
L 481.495434 80.066874 
" style="fill: none; stroke: #d62728; stroke-width: 5; stroke-linecap: square"/>
    </g>
    <g id="text_14">
     <!-- $|\psi|^2$ -->
     <g transform="translate(501.495434 88.816874) scale(0.25 -0.25)">
      <defs>
       <path id="CMSY10-6a" d="M 1018 4570 
C 1018 4685 1018 4800 890 4800 
C 762 4800 762 4685 762 4570 
L 762 -1370 
C 762 -1485 762 -1600 890 -1600 
C 1018 -1600 1018 -1485 1018 -1370 
L 1018 4570 
z
" transform="scale(0.015625)"/>
       <path id="PazoMath-Italic-79" d="M 2413 1549 
C 2413 1549 2534 2218 2637 2796 
C 2739 3400 2810 3715 2925 4062 
L 2854 4159 
C 2726 4081 2554 4004 2355 3927 
C 2176 2655 1997 1479 1779 270 
C 1446 303 1011 431 1011 945 
C 1011 1042 1024 1164 1050 1286 
L 1312 2629 
C 1331 2732 1344 2822 1344 2905 
C 1344 3028 1293 3105 1203 3105 
C 1069 3105 832 2976 352 2629 
L 173 2501 
L 218 2372 
L 422 2507 
C 608 2623 672 2655 730 2655 
C 794 2655 838 2597 838 2526 
C 838 2494 832 2443 826 2411 
L 550 945 
C 544 894 544 836 544 785 
C 544 341 1018 -64 1658 -64 
L 1715 -64 
C 1626 -533 1530 -1002 1427 -1490 
L 1376 -1728 
L 1421 -1767 
C 1555 -1722 1683 -1690 1888 -1657 
L 2157 -12 
C 2406 39 2720 168 3040 463 
C 3322 720 3514 1022 3699 1427 
C 3859 1768 3968 2205 3968 2475 
C 3968 2848 3808 3105 3571 3105 
C 3482 3105 3418 3079 3360 3028 
L 3040 2726 
L 3110 2604 
C 3168 2638 3219 2655 3283 2655 
C 3462 2655 3558 2507 3558 2251 
C 3558 885 2816 360 2202 277 
L 2413 1549 
z
" transform="scale(0.015625)"/>
      </defs>
      <use xlink:href="#CMSY10-6a" transform="scale(1.038107)"/>
      <use xlink:href="#PazoMath-Italic-79" transform="translate(31.282699 0) scale(0.996264)"/>
      <use xlink:href="#CMSY10-6a" transform="translate(98.530428 0) scale(1.038107)"/>
      <use xlink:href="#URWPalladioL-Roma-32" transform="translate(128.567828 36.164371) scale(0.757155)"/>
     </g>
    </g>
    <g id="line2d_66">
     <path d="M 431.495434 117.410995 
L 456.495434 117.410995 
L 481.495434 117.410995 
" style="fill: none; stroke-dasharray: 12.95,5.6; stroke-dashoffset: 0; stroke: #000000; stroke-width: 3.5"/>
    </g>
    <g id="text_15">
     <!-- $e^{-z/\xi_{ind}}$ -->
     <g transform="translate(501.495434 126.160995) scale(0.25 -0.25)">
      <defs>
       <path id="URWPalladioL-Ital-65" d="M 2099 712 
L 1946 604 
C 1606 363 1299 235 1069 235 
C 768 235 582 471 582 853 
C 582 1011 602 1183 634 1368 
L 1158 1494 
C 1267 1520 1440 1584 1600 1654 
C 2144 1889 2394 2182 2394 2576 
C 2394 2874 2176 3072 1856 3072 
C 1440 3072 730 2633 480 2226 
C 288 1908 96 1151 96 724 
C 96 228 378 -64 838 -64 
C 1203 -64 1562 114 2150 591 
L 2099 712 
z
M 723 1748 
C 832 2187 960 2461 1146 2626 
C 1261 2728 1459 2804 1613 2804 
C 1798 2804 1920 2677 1920 2474 
C 1920 2193 1696 1895 1363 1735 
C 1184 1647 954 1577 666 1513 
L 723 1748 
z
" transform="scale(0.015625)"/>
       <path id="CMSY10-0" d="M 4218 1472 
C 4326 1472 4442 1472 4442 1600 
C 4442 1728 4326 1728 4218 1728 
L 755 1728 
C 646 1728 531 1728 531 1600 
C 531 1472 646 1472 755 1472 
L 4218 1472 
z
" transform="scale(0.015625)"/>
      </defs>
      <use xlink:href="#URWPalladioL-Ital-65" transform="scale(0.996264)"/>
      <use xlink:href="#CMSY10-0" transform="translate(40.946487 36.164371) scale(0.788955)"/>
      <use xlink:href="#URWPalladioL-Ital-7a" transform="translate(104.168146 36.164371) scale(0.757155)"/>
      <use xlink:href="#URWPalladioL-Roma-2f" transform="translate(139.678704 36.164371) scale(0.757155)"/>
      <use xlink:href="#PazoMath-Italic-78" transform="translate(187.455155 36.164371) scale(0.757155)"/>
      <use xlink:href="#URWPalladioL-Ital-69" transform="translate(224.998085 18.693282) scale(0.597764)"/>
      <use xlink:href="#URWPalladioL-Ital-6e" transform="translate(243.52816 18.693282) scale(0.597764)"/>
      <use xlink:href="#URWPalladioL-Ital-64" transform="translate(278.258289 18.693282) scale(0.597764)"/>
     </g>
    </g>
   </g>
  </g>
  <g id="axes_2">
   <g id="matplotlib.axis_3">
    <g id="ytick_22">
     <g id="line2d_67">
      <defs>
       <path id="m8de31ba2e5" d="M 0 0 
L -3 0 
" style="stroke: #000000; stroke-width: 0.5"/>
      </defs>
      <g>
       <use xlink:href="#m8de31ba2e5" x="601.032002" y="326.445189" style="stroke: #000000; stroke-width: 0.5"/>
      </g>
     </g>
     <g id="text_16">
      <!-- $\mathdefault{0.00}$ -->
      <g transform="translate(604.532002 334.999073) scale(0.24 -0.24)">
       <use xlink:href="#URWPalladioL-Roma-30" transform="scale(0.996264)"/>
       <use xlink:href="#URWPalladioL-Roma-2e" transform="translate(49.8132 0) scale(0.996264)"/>
       <use xlink:href="#URWPalladioL-Roma-30" transform="translate(74.719801 0) scale(0.996264)"/>
       <use xlink:href="#URWPalladioL-Roma-30" transform="translate(124.533001 0) scale(0.996264)"/>
      </g>
     </g>
    </g>
    <g id="ytick_23">
     <g id="line2d_68">
      <g>
       <use xlink:href="#m8de31ba2e5" x="601.032002" y="224.286729" style="stroke: #000000; stroke-width: 0.5"/>
      </g>
     </g>
     <g id="text_17">
      <!-- $\mathdefault{0.04}$ -->
      <g transform="translate(604.532002 232.840612) scale(0.24 -0.24)">
       <use xlink:href="#URWPalladioL-Roma-30" transform="scale(0.996264)"/>
       <use xlink:href="#URWPalladioL-Roma-2e" transform="translate(49.8132 0) scale(0.996264)"/>
       <use xlink:href="#URWPalladioL-Roma-30" transform="translate(74.719801 0) scale(0.996264)"/>
       <use xlink:href="#URWPalladioL-Roma-34" transform="translate(124.533001 0) scale(0.996264)"/>
      </g>
     </g>
    </g>
    <g id="ytick_24">
     <g id="line2d_69">
      <g>
       <use xlink:href="#m8de31ba2e5" x="601.032002" y="122.128268" style="stroke: #000000; stroke-width: 0.5"/>
      </g>
     </g>
     <g id="text_18">
      <!-- $\mathdefault{0.08}$ -->
      <g transform="translate(604.532002 130.682151) scale(0.24 -0.24)">
       <use xlink:href="#URWPalladioL-Roma-30" transform="scale(0.996264)"/>
       <use xlink:href="#URWPalladioL-Roma-2e" transform="translate(49.8132 0) scale(0.996264)"/>
       <use xlink:href="#URWPalladioL-Roma-30" transform="translate(74.719801 0) scale(0.996264)"/>
       <use xlink:href="#URWPalladioL-Roma-38" transform="translate(124.533001 0) scale(0.996264)"/>
      </g>
     </g>
    </g>
    <g id="ytick_25">
     <g id="line2d_70">
      <g>
       <use xlink:href="#m8de31ba2e5" x="601.032002" y="19.969808" style="stroke: #000000; stroke-width: 0.5"/>
      </g>
     </g>
     <g id="text_19">
      <!-- $\mathdefault{0.12}$ -->
      <g transform="translate(604.532002 28.523691) scale(0.24 -0.24)">
       <use xlink:href="#URWPalladioL-Roma-30" transform="scale(0.996264)"/>
       <use xlink:href="#URWPalladioL-Roma-2e" transform="translate(49.8132 0) scale(0.996264)"/>
       <use xlink:href="#URWPalladioL-Roma-31" transform="translate(74.719801 0) scale(0.996264)"/>
       <use xlink:href="#URWPalladioL-Roma-32" transform="translate(124.533001 0) scale(0.996264)"/>
      </g>
     </g>
    </g>
    <g id="ytick_26">
     <g id="line2d_71">
      <defs>
       <path id="mcfc54b49b8" d="M 0 0 
L -1.5 0 
" style="stroke: #000000; stroke-width: 0.5"/>
      </defs>
      <g>
       <use xlink:href="#mcfc54b49b8" x="601.032002" y="300.905574" style="stroke: #000000; stroke-width: 0.5"/>
      </g>
     </g>
    </g>
    <g id="ytick_27">
     <g id="line2d_72">
      <g>
       <use xlink:href="#mcfc54b49b8" x="601.032002" y="275.365959" style="stroke: #000000; stroke-width: 0.5"/>
      </g>
     </g>
    </g>
    <g id="ytick_28">
     <g id="line2d_73">
      <g>
       <use xlink:href="#mcfc54b49b8" x="601.032002" y="249.826344" style="stroke: #000000; stroke-width: 0.5"/>
      </g>
     </g>
    </g>
    <g id="ytick_29">
     <g id="line2d_74">
      <g>
       <use xlink:href="#mcfc54b49b8" x="601.032002" y="198.747114" style="stroke: #000000; stroke-width: 0.5"/>
      </g>
     </g>
    </g>
    <g id="ytick_30">
     <g id="line2d_75">
      <g>
       <use xlink:href="#mcfc54b49b8" x="601.032002" y="173.207498" style="stroke: #000000; stroke-width: 0.5"/>
      </g>
     </g>
    </g>
    <g id="ytick_31">
     <g id="line2d_76">
      <g>
       <use xlink:href="#mcfc54b49b8" x="601.032002" y="147.667883" style="stroke: #000000; stroke-width: 0.5"/>
      </g>
     </g>
    </g>
    <g id="ytick_32">
     <g id="line2d_77">
      <g>
       <use xlink:href="#mcfc54b49b8" x="601.032002" y="96.588653" style="stroke: #000000; stroke-width: 0.5"/>
      </g>
     </g>
    </g>
    <g id="ytick_33">
     <g id="line2d_78">
      <g>
       <use xlink:href="#mcfc54b49b8" x="601.032002" y="71.049038" style="stroke: #000000; stroke-width: 0.5"/>
      </g>
     </g>
    </g>
    <g id="ytick_34">
     <g id="line2d_79">
      <g>
       <use xlink:href="#mcfc54b49b8" x="601.032002" y="45.509423" style="stroke: #000000; stroke-width: 0.5"/>
      </g>
     </g>
    </g>
    <g id="text_20">
     <!-- $|\psi(z)|^2$ -->
     <g transform="translate(688.147843 210.848699) rotate(-90) scale(0.25 -0.25)">
      <use xlink:href="#CMSY10-6a" transform="scale(1.038107)"/>
      <use xlink:href="#PazoMath-Italic-79" transform="translate(31.282699 0) scale(0.996264)"/>
      <use xlink:href="#CMR10-28" transform="translate(98.530428 0) scale(1.038107)"/>
      <use xlink:href="#URWPalladioL-Ital-7a" transform="translate(141.270133 0) scale(0.996264)"/>
      <use xlink:href="#CMR10-29" transform="translate(187.994894 0) scale(1.038107)"/>
      <use xlink:href="#CMSY10-6a" transform="translate(230.734599 0) scale(1.038107)"/>
      <use xlink:href="#URWPalladioL-Roma-32" transform="translate(260.771998 36.164371) scale(0.757155)"/>
     </g>
    </g>
   </g>
   <g id="line2d_80">
    <path d="M 151.69516 58.548961 
L 158.557647 60.705024 
L 165.420134 66.586206 
L 172.282621 75.577888 
L 179.145109 87.068469 
L 186.007596 100.472069 
L 192.870083 115.24456 
L 199.73257 130.894098 
L 220.320032 179.07426 
L 227.182519 194.502718 
L 234.045006 209.237679 
L 240.907493 223.130122 
L 247.769981 236.0756 
L 254.632468 248.008642 
L 261.494955 258.897129 
L 268.357442 268.736828 
L 275.219929 277.546245 
L 282.082417 285.361864 
L 288.944904 292.233853 
L 295.807391 298.222259 
L 302.669878 303.3937 
L 309.532365 307.818552 
L 316.394853 311.5686 
L 323.25734 314.715121 
L 330.119827 317.327376 
L 336.982314 319.471446 
L 343.844801 321.209388 
L 350.707289 322.598662 
L 357.569776 323.691785 
L 364.432263 324.536179 
L 371.29475 325.17417 
L 378.157237 325.643111 
L 391.882212 326.19977 
L 405.607186 326.415333 
L 426.194648 326.411153 
L 494.81952 326.074654 
L 542.85693 326.160688 
L 652.656725 326.415752 
L 703.371371 326.441032 
L 703.371371 326.441032 
" clip-path="url(#pd0c4eec41c)" style="fill: none; stroke: #d62728; stroke-width: 5; stroke-linecap: square"/>
   </g>
   <g id="patch_7">
    <path d="M 98.832002 339.84 
L 98.832002 7.2 
" style="fill: none; stroke: #000000; stroke-width: 0.5; stroke-linejoin: miter; stroke-linecap: square"/>
   </g>
   <g id="patch_8">
    <path d="M 601.032002 339.84 
L 601.032002 7.2 
" style="fill: none; stroke: #000000; stroke-width: 0.5; stroke-linejoin: miter; stroke-linecap: square"/>
   </g>
   <g id="patch_9">
    <path d="M 98.832002 339.84 
L 601.032002 339.84 
" style="fill: none; stroke: #000000; stroke-width: 0.5; stroke-linejoin: miter; stroke-linecap: square"/>
   </g>
   <g id="patch_10">
    <path d="M 98.832002 7.2 
L 601.032002 7.2 
" style="fill: none; stroke: #000000; stroke-width: 0.5; stroke-linejoin: miter; stroke-linecap: square"/>
   </g>
  </g>
 </g>
 <defs>
  <clipPath id="pd0c4eec41c">
   <rect x="98.832002" y="7.2" width="502.2" height="332.64"/>
  </clipPath>
 </defs>
</svg>
