<?xml version="1.0" encoding="utf-8" standalone="no"?>
<!DOCTYPE svg PUBLIC "-//W3C//DTD SVG 1.1//EN"
  "http://www.w3.org/Graphics/SVG/1.1/DTD/svg11.dtd">
<svg xmlns:xlink="http://www.w3.org/1999/xlink" width="508.118059pt" height="379.384091pt" viewBox="0 0 508.118059 379.384091" xmlns="http://www.w3.org/2000/svg" version="1.1">
 <metadata>
  <rdf:RDF xmlns:dc="http://purl.org/dc/elements/1.1/" xmlns:cc="http://creativecommons.org/ns#" xmlns:rdf="http://www.w3.org/1999/02/22-rdf-syntax-ns#">
   <cc:Work>
    <dc:type rdf:resource="http://purl.org/dc/dcmitype/StillImage"/>
    <dc:date>2025-06-03T11:04:03.009175</dc:date>
    <dc:format>image/svg+xml</dc:format>
    <dc:creator>
     <cc:Agent>
      <dc:title>Matplotlib v3.7.1, https://matplotlib.org/</dc:title>
     </cc:Agent>
    </dc:creator>
   </cc:Work>
  </rdf:RDF>
 </metadata>
 <defs>
  <style type="text/css">*{stroke-linejoin: round; stroke-linecap: butt}</style>
 </defs>
 <g id="figure_1">
  <g id="patch_1">
   <path d="M 0 379.384091 
L 508.118059 379.384091 
L 508.118059 0 
L 0 0 
z
" style="fill: #ffffff"/>
  </g>
  <g id="axes_1">
   <g id="patch_2">
    <path d="M 48.540475 339.84 
L 494.940475 339.84 
L 494.940475 7.2 
L 48.540475 7.2 
z
" style="fill: #ffffff"/>
   </g>
   <g id="matplotlib.axis_1">
    <g id="xtick_1">
     <g id="line2d_1">
      <defs>
       <path id="md2e1812fc1" d="M 0 0 
L 0 -3 
" style="stroke: #000000; stroke-width: 0.5"/>
      </defs>
      <g>
       <use xlink:href="#md2e1812fc1" x="48.540475" y="339.84" style="stroke: #000000; stroke-width: 0.5"/>
      </g>
     </g>
     <g id="line2d_2">
      <defs>
       <path id="m0ca6826267" d="M 0 0 
L 0 3 
" style="stroke: #000000; stroke-width: 0.5"/>
      </defs>
      <g>
       <use xlink:href="#m0ca6826267" x="48.540475" y="7.2" style="stroke: #000000; stroke-width: 0.5"/>
      </g>
     </g>
     <g id="text_1">
      <!-- 0 -->
      <g transform="translate(45.551683 351.893876) scale(0.12 -0.12)">
       <defs>
        <path id="URWPalladioL-Roma-30" d="M 1683 4416 
C 691 4416 186 3628 186 2077 
C 186 1326 320 680 544 366 
C 768 51 1126 -128 1523 -128 
C 2490 -128 2976 705 2976 2346 
C 2976 3749 2560 4416 1683 4416 
z
M 1568 4192 
C 2189 4192 2438 3564 2438 2025 
C 2438 661 2195 96 1606 96 
C 986 96 723 744 723 2308 
C 723 3660 960 4192 1568 4192 
z
" transform="scale(0.015625)"/>
       </defs>
       <use xlink:href="#URWPalladioL-Roma-30" transform="scale(0.996264)"/>
      </g>
     </g>
    </g>
    <g id="xtick_2">
     <g id="line2d_3">
      <g>
       <use xlink:href="#md2e1812fc1" x="137.820475" y="339.84" style="stroke: #000000; stroke-width: 0.5"/>
      </g>
     </g>
     <g id="line2d_4">
      <g>
       <use xlink:href="#m0ca6826267" x="137.820475" y="7.2" style="stroke: #000000; stroke-width: 0.5"/>
      </g>
     </g>
     <g id="text_2">
      <!-- 10 -->
      <g transform="translate(131.842891 351.893876) scale(0.12 -0.12)">
       <defs>
        <path id="URWPalladioL-Roma-31" d="M 429 3584 
L 493 3584 
L 1318 3956 
C 1325 3962 1331 3962 1338 3962 
C 1376 3962 1389 3905 1389 3751 
L 1389 613 
C 1389 276 1318 205 973 205 
L 614 205 
L 614 0 
C 1600 0 1600 0 1670 0 
C 1754 0 1894 0 2112 0 
C 2189 0 2413 0 2675 0 
L 2675 205 
L 2342 205 
C 1990 205 1926 276 1926 612 
L 1926 4443 
L 1837 4475 
C 1421 4257 966 4065 384 3860 
L 429 3584 
z
" transform="scale(0.015625)"/>
       </defs>
       <use xlink:href="#URWPalladioL-Roma-31" transform="scale(0.996264)"/>
       <use xlink:href="#URWPalladioL-Roma-30" transform="translate(49.8132 0) scale(0.996264)"/>
      </g>
     </g>
    </g>
    <g id="xtick_3">
     <g id="line2d_5">
      <g>
       <use xlink:href="#md2e1812fc1" x="227.100475" y="339.84" style="stroke: #000000; stroke-width: 0.5"/>
      </g>
     </g>
     <g id="line2d_6">
      <g>
       <use xlink:href="#m0ca6826267" x="227.100475" y="7.2" style="stroke: #000000; stroke-width: 0.5"/>
      </g>
     </g>
     <g id="text_3">
      <!-- 20 -->
      <g transform="translate(221.122891 351.893876) scale(0.12 -0.12)">
       <defs>
        <path id="URWPalladioL-Roma-32" d="M 102 160 
L 102 0 
C 1299 0 1299 0 1530 0 
C 1760 0 1760 0 2995 0 
C 2982 125 2982 186 2982 269 
C 2982 348 2982 407 2995 539 
C 2259 539 1965 539 781 539 
L 1946 1761 
C 2566 2414 2758 2763 2758 3238 
C 2758 3966 2259 4416 1446 4416 
C 986 4416 672 4288 358 3969 
L 250 3099 
L 435 3099 
L 518 3393 
C 621 3763 851 3923 1280 3923 
C 1830 3923 2182 3577 2182 3035 
C 2182 2555 1914 2083 1190 1316 
L 102 160 
z
" transform="scale(0.015625)"/>
       </defs>
       <use xlink:href="#URWPalladioL-Roma-32" transform="scale(0.996264)"/>
       <use xlink:href="#URWPalladioL-Roma-30" transform="translate(49.8132 0) scale(0.996264)"/>
      </g>
     </g>
    </g>
    <g id="xtick_4">
     <g id="line2d_7">
      <g>
       <use xlink:href="#md2e1812fc1" x="316.380475" y="339.84" style="stroke: #000000; stroke-width: 0.5"/>
      </g>
     </g>
     <g id="line2d_8">
      <g>
       <use xlink:href="#m0ca6826267" x="316.380475" y="7.2" style="stroke: #000000; stroke-width: 0.5"/>
      </g>
     </g>
     <g id="text_4">
      <!-- 30 -->
      <g transform="translate(310.402891 351.893876) scale(0.12 -0.12)">
       <defs>
        <path id="URWPalladioL-Roma-33" d="M 275 3197 
L 474 3197 
L 589 3554 
C 659 3770 1062 3987 1395 3987 
C 1811 3987 2150 3649 2150 3248 
C 2150 2770 1773 2368 1318 2368 
C 1267 2368 1197 2368 1114 2381 
L 1018 2381 
L 941 2047 
L 986 2008 
C 1229 2118 1350 2150 1523 2150 
C 2054 2150 2362 1809 2362 1222 
C 2362 566 1971 135 1376 135 
C 1082 135 819 231 627 411 
C 474 553 390 701 269 1049 
L 96 985 
C 230 593 282 361 320 39 
C 659 -77 941 -128 1178 -128 
C 1690 -128 2278 161 2630 593 
C 2848 857 2957 1140 2957 1442 
C 2957 1751 2829 2022 2598 2182 
C 2438 2298 2291 2350 1971 2407 
C 2483 2803 2675 3096 2675 3472 
C 2675 4040 2202 4416 1491 4416 
C 1056 4416 768 4295 461 3989 
L 275 3197 
z
" transform="scale(0.015625)"/>
       </defs>
       <use xlink:href="#URWPalladioL-Roma-33" transform="scale(0.996264)"/>
       <use xlink:href="#URWPalladioL-Roma-30" transform="translate(49.8132 0) scale(0.996264)"/>
      </g>
     </g>
    </g>
    <g id="xtick_5">
     <g id="line2d_9">
      <g>
       <use xlink:href="#md2e1812fc1" x="405.660475" y="339.84" style="stroke: #000000; stroke-width: 0.5"/>
      </g>
     </g>
     <g id="line2d_10">
      <g>
       <use xlink:href="#m0ca6826267" x="405.660475" y="7.2" style="stroke: #000000; stroke-width: 0.5"/>
      </g>
     </g>
     <g id="text_5">
      <!-- 40 -->
      <g transform="translate(399.682891 351.893876) scale(0.12 -0.12)">
       <defs>
        <path id="URWPalladioL-Roma-34" d="M 1792 1152 
L 1792 673 
C 1792 289 1722 199 1408 199 
L 1011 199 
L 1011 0 
C 1862 0 1862 0 2016 0 
C 2170 0 2170 0 3021 0 
L 3021 199 
L 2714 199 
C 2400 199 2330 282 2330 669 
L 2330 1152 
C 2707 1152 2842 1152 3021 1133 
L 3021 1588 
C 2720 1563 2598 1563 2502 1563 
L 2483 1563 
L 2330 1563 
L 2330 2457 
C 2330 3600 2342 4152 2374 4416 
L 2298 4448 
L 1824 4275 
L 13 1299 
L 83 1152 
L 1792 1152 
z
M 1792 1563 
L 416 1563 
L 1792 3826 
L 1792 1563 
z
" transform="scale(0.015625)"/>
       </defs>
       <use xlink:href="#URWPalladioL-Roma-34" transform="scale(0.996264)"/>
       <use xlink:href="#URWPalladioL-Roma-30" transform="translate(49.8132 0) scale(0.996264)"/>
      </g>
     </g>
    </g>
    <g id="xtick_6">
     <g id="line2d_11">
      <g>
       <use xlink:href="#md2e1812fc1" x="494.940475" y="339.84" style="stroke: #000000; stroke-width: 0.5"/>
      </g>
     </g>
     <g id="line2d_12">
      <g>
       <use xlink:href="#m0ca6826267" x="494.940475" y="7.2" style="stroke: #000000; stroke-width: 0.5"/>
      </g>
     </g>
     <g id="text_6">
      <!-- 50 -->
      <g transform="translate(488.962891 351.893876) scale(0.12 -0.12)">
       <defs>
        <path id="URWPalladioL-Roma-35" d="M 813 3877 
C 1638 3877 1997 3877 2765 3877 
L 2797 3907 
C 2784 4016 2784 4064 2784 4144 
C 2784 4229 2784 4277 2797 4386 
L 2765 4416 
C 2285 4416 1997 4416 1651 4416 
C 1299 4416 1018 4416 538 4416 
L 506 4403 
C 512 4011 518 3729 518 3523 
C 518 2977 499 2360 480 2077 
L 608 2038 
C 909 2341 1082 2432 1395 2432 
C 2010 2432 2394 1993 2394 1296 
C 2394 580 1984 160 1286 160 
C 941 160 621 277 531 444 
L 237 973 
L 83 883 
C 230 516 307 310 397 27 
C 576 -71 832 -128 1107 -128 
C 1536 -128 1990 59 2342 368 
C 2733 716 2938 1154 2938 1630 
C 2938 2359 2419 2874 1690 2874 
C 1382 2874 1152 2791 755 2554 
L 813 3877 
z
" transform="scale(0.015625)"/>
       </defs>
       <use xlink:href="#URWPalladioL-Roma-35" transform="scale(0.996264)"/>
       <use xlink:href="#URWPalladioL-Roma-30" transform="translate(49.8132 0) scale(0.996264)"/>
      </g>
     </g>
    </g>
    <g id="xtick_7">
     <g id="line2d_13">
      <defs>
       <path id="m3aa19ea253" d="M 0 0 
L 0 -1.5 
" style="stroke: #000000; stroke-width: 0.5"/>
      </defs>
      <g>
       <use xlink:href="#m3aa19ea253" x="66.396475" y="339.84" style="stroke: #000000; stroke-width: 0.5"/>
      </g>
     </g>
     <g id="line2d_14">
      <defs>
       <path id="m024e1144eb" d="M 0 0 
L 0 1.5 
" style="stroke: #000000; stroke-width: 0.5"/>
      </defs>
      <g>
       <use xlink:href="#m024e1144eb" x="66.396475" y="7.2" style="stroke: #000000; stroke-width: 0.5"/>
      </g>
     </g>
    </g>
    <g id="xtick_8">
     <g id="line2d_15">
      <g>
       <use xlink:href="#m3aa19ea253" x="84.252475" y="339.84" style="stroke: #000000; stroke-width: 0.5"/>
      </g>
     </g>
     <g id="line2d_16">
      <g>
       <use xlink:href="#m024e1144eb" x="84.252475" y="7.2" style="stroke: #000000; stroke-width: 0.5"/>
      </g>
     </g>
    </g>
    <g id="xtick_9">
     <g id="line2d_17">
      <g>
       <use xlink:href="#m3aa19ea253" x="102.108475" y="339.84" style="stroke: #000000; stroke-width: 0.5"/>
      </g>
     </g>
     <g id="line2d_18">
      <g>
       <use xlink:href="#m024e1144eb" x="102.108475" y="7.2" style="stroke: #000000; stroke-width: 0.5"/>
      </g>
     </g>
    </g>
    <g id="xtick_10">
     <g id="line2d_19">
      <g>
       <use xlink:href="#m3aa19ea253" x="119.964475" y="339.84" style="stroke: #000000; stroke-width: 0.5"/>
      </g>
     </g>
     <g id="line2d_20">
      <g>
       <use xlink:href="#m024e1144eb" x="119.964475" y="7.2" style="stroke: #000000; stroke-width: 0.5"/>
      </g>
     </g>
    </g>
    <g id="xtick_11">
     <g id="line2d_21">
      <g>
       <use xlink:href="#m3aa19ea253" x="155.676475" y="339.84" style="stroke: #000000; stroke-width: 0.5"/>
      </g>
     </g>
     <g id="line2d_22">
      <g>
       <use xlink:href="#m024e1144eb" x="155.676475" y="7.2" style="stroke: #000000; stroke-width: 0.5"/>
      </g>
     </g>
    </g>
    <g id="xtick_12">
     <g id="line2d_23">
      <g>
       <use xlink:href="#m3aa19ea253" x="173.532475" y="339.84" style="stroke: #000000; stroke-width: 0.5"/>
      </g>
     </g>
     <g id="line2d_24">
      <g>
       <use xlink:href="#m024e1144eb" x="173.532475" y="7.2" style="stroke: #000000; stroke-width: 0.5"/>
      </g>
     </g>
    </g>
    <g id="xtick_13">
     <g id="line2d_25">
      <g>
       <use xlink:href="#m3aa19ea253" x="191.388475" y="339.84" style="stroke: #000000; stroke-width: 0.5"/>
      </g>
     </g>
     <g id="line2d_26">
      <g>
       <use xlink:href="#m024e1144eb" x="191.388475" y="7.2" style="stroke: #000000; stroke-width: 0.5"/>
      </g>
     </g>
    </g>
    <g id="xtick_14">
     <g id="line2d_27">
      <g>
       <use xlink:href="#m3aa19ea253" x="209.244475" y="339.84" style="stroke: #000000; stroke-width: 0.5"/>
      </g>
     </g>
     <g id="line2d_28">
      <g>
       <use xlink:href="#m024e1144eb" x="209.244475" y="7.2" style="stroke: #000000; stroke-width: 0.5"/>
      </g>
     </g>
    </g>
    <g id="xtick_15">
     <g id="line2d_29">
      <g>
       <use xlink:href="#m3aa19ea253" x="244.956475" y="339.84" style="stroke: #000000; stroke-width: 0.5"/>
      </g>
     </g>
     <g id="line2d_30">
      <g>
       <use xlink:href="#m024e1144eb" x="244.956475" y="7.2" style="stroke: #000000; stroke-width: 0.5"/>
      </g>
     </g>
    </g>
    <g id="xtick_16">
     <g id="line2d_31">
      <g>
       <use xlink:href="#m3aa19ea253" x="262.812475" y="339.84" style="stroke: #000000; stroke-width: 0.5"/>
      </g>
     </g>
     <g id="line2d_32">
      <g>
       <use xlink:href="#m024e1144eb" x="262.812475" y="7.2" style="stroke: #000000; stroke-width: 0.5"/>
      </g>
     </g>
    </g>
    <g id="xtick_17">
     <g id="line2d_33">
      <g>
       <use xlink:href="#m3aa19ea253" x="280.668475" y="339.84" style="stroke: #000000; stroke-width: 0.5"/>
      </g>
     </g>
     <g id="line2d_34">
      <g>
       <use xlink:href="#m024e1144eb" x="280.668475" y="7.2" style="stroke: #000000; stroke-width: 0.5"/>
      </g>
     </g>
    </g>
    <g id="xtick_18">
     <g id="line2d_35">
      <g>
       <use xlink:href="#m3aa19ea253" x="298.524475" y="339.84" style="stroke: #000000; stroke-width: 0.5"/>
      </g>
     </g>
     <g id="line2d_36">
      <g>
       <use xlink:href="#m024e1144eb" x="298.524475" y="7.2" style="stroke: #000000; stroke-width: 0.5"/>
      </g>
     </g>
    </g>
    <g id="xtick_19">
     <g id="line2d_37">
      <g>
       <use xlink:href="#m3aa19ea253" x="334.236475" y="339.84" style="stroke: #000000; stroke-width: 0.5"/>
      </g>
     </g>
     <g id="line2d_38">
      <g>
       <use xlink:href="#m024e1144eb" x="334.236475" y="7.2" style="stroke: #000000; stroke-width: 0.5"/>
      </g>
     </g>
    </g>
    <g id="xtick_20">
     <g id="line2d_39">
      <g>
       <use xlink:href="#m3aa19ea253" x="352.092475" y="339.84" style="stroke: #000000; stroke-width: 0.5"/>
      </g>
     </g>
     <g id="line2d_40">
      <g>
       <use xlink:href="#m024e1144eb" x="352.092475" y="7.2" style="stroke: #000000; stroke-width: 0.5"/>
      </g>
     </g>
    </g>
    <g id="xtick_21">
     <g id="line2d_41">
      <g>
       <use xlink:href="#m3aa19ea253" x="369.948475" y="339.84" style="stroke: #000000; stroke-width: 0.5"/>
      </g>
     </g>
     <g id="line2d_42">
      <g>
       <use xlink:href="#m024e1144eb" x="369.948475" y="7.2" style="stroke: #000000; stroke-width: 0.5"/>
      </g>
     </g>
    </g>
    <g id="xtick_22">
     <g id="line2d_43">
      <g>
       <use xlink:href="#m3aa19ea253" x="387.804475" y="339.84" style="stroke: #000000; stroke-width: 0.5"/>
      </g>
     </g>
     <g id="line2d_44">
      <g>
       <use xlink:href="#m024e1144eb" x="387.804475" y="7.2" style="stroke: #000000; stroke-width: 0.5"/>
      </g>
     </g>
    </g>
    <g id="xtick_23">
     <g id="line2d_45">
      <g>
       <use xlink:href="#m3aa19ea253" x="423.516475" y="339.84" style="stroke: #000000; stroke-width: 0.5"/>
      </g>
     </g>
     <g id="line2d_46">
      <g>
       <use xlink:href="#m024e1144eb" x="423.516475" y="7.2" style="stroke: #000000; stroke-width: 0.5"/>
      </g>
     </g>
    </g>
    <g id="xtick_24">
     <g id="line2d_47">
      <g>
       <use xlink:href="#m3aa19ea253" x="441.372475" y="339.84" style="stroke: #000000; stroke-width: 0.5"/>
      </g>
     </g>
     <g id="line2d_48">
      <g>
       <use xlink:href="#m024e1144eb" x="441.372475" y="7.2" style="stroke: #000000; stroke-width: 0.5"/>
      </g>
     </g>
    </g>
    <g id="xtick_25">
     <g id="line2d_49">
      <g>
       <use xlink:href="#m3aa19ea253" x="459.228475" y="339.84" style="stroke: #000000; stroke-width: 0.5"/>
      </g>
     </g>
     <g id="line2d_50">
      <g>
       <use xlink:href="#m024e1144eb" x="459.228475" y="7.2" style="stroke: #000000; stroke-width: 0.5"/>
      </g>
     </g>
    </g>
    <g id="xtick_26">
     <g id="line2d_51">
      <g>
       <use xlink:href="#m3aa19ea253" x="477.084475" y="339.84" style="stroke: #000000; stroke-width: 0.5"/>
      </g>
     </g>
     <g id="line2d_52">
      <g>
       <use xlink:href="#m024e1144eb" x="477.084475" y="7.2" style="stroke: #000000; stroke-width: 0.5"/>
      </g>
     </g>
    </g>
    <g id="text_7">
     <!-- $\Lambda$ [meV] -->
     <g transform="translate(247.194423 368.531862) scale(0.13 -0.13)">
      <defs>
       <path id="PazoMath-4c" d="M 2368 4365 
L 678 519 
C 602 333 474 218 333 205 
L 96 186 
L 96 0 
C 678 0 691 0 794 0 
C 877 0 890 0 1568 0 
L 1568 186 
L 1331 205 
C 1107 224 1024 269 1024 371 
C 1024 455 1114 730 1248 1050 
L 2349 3642 
L 3571 738 
C 3686 468 3699 379 3699 320 
C 3699 250 3597 205 3437 192 
L 3136 192 
L 3136 0 
C 3910 0 3923 0 4026 0 
C 4147 0 4160 0 4838 0 
L 4838 186 
L 4621 205 
C 4454 231 4384 339 4160 858 
L 2611 4493 
L 2368 4365 
z
" transform="scale(0.015625)"/>
       <path id="URWPalladioL-Roma-5b" d="M 563 -1152 
C 1018 -1152 1030 -1152 1184 -1152 
C 1338 -1152 1370 -1152 1805 -1152 
L 1843 -1120 
L 1843 -953 
L 1818 -921 
L 1574 -921 
C 1402 -921 1261 -882 1184 -818 
C 1126 -760 1107 -671 1107 -459 
C 1107 -453 1107 -318 1101 -125 
L 1101 112 
L 1101 3409 
L 1101 3646 
C 1107 3826 1107 3967 1107 3973 
C 1107 4185 1126 4281 1184 4339 
C 1261 4403 1402 4441 1574 4441 
L 1818 4441 
L 1843 4473 
L 1843 4640 
L 1805 4672 
C 1357 4672 1338 4672 1184 4672 
C 1037 4672 1005 4672 563 4672 
L 506 4595 
C 544 4435 557 4223 557 3730 
C 557 3633 557 3556 563 3492 
L 563 3409 
L 563 112 
L 563 28 
C 557 -74 557 -81 557 -190 
L 557 -260 
C 557 -696 544 -876 506 -1075 
L 563 -1152 
z
" transform="scale(0.015625)"/>
       <path id="URWPalladioL-Roma-6d" d="M 115 2565 
L 352 2565 
C 608 2565 634 2520 634 2094 
L 634 643 
C 634 237 614 192 397 192 
L 102 192 
L 102 -7 
C 717 -7 736 -7 915 -7 
C 1094 -7 1261 -7 1677 -7 
L 1677 179 
L 1408 205 
C 1190 205 1171 250 1171 654 
L 1171 2014 
C 1171 2302 1594 2616 1978 2616 
C 2323 2616 2560 2287 2560 1798 
L 2560 643 
C 2560 237 2541 192 2323 192 
L 2029 192 
L 2029 -7 
C 2669 -7 2669 -7 2829 -7 
C 2989 -7 2989 -7 3629 -7 
L 3629 192 
L 3334 192 
C 3117 192 3098 237 3098 643 
L 3098 2011 
C 3098 2300 3520 2616 3904 2616 
C 4250 2616 4486 2291 4486 1806 
L 4486 -7 
C 4877 -7 4883 -7 4992 -7 
C 5075 -7 5075 -7 5562 -7 
L 5562 192 
L 5261 192 
C 5043 192 5024 237 5024 643 
L 5024 1970 
C 5024 2608 4653 3008 4064 3008 
C 3840 3008 3654 2950 3539 2847 
L 3053 2412 
C 2848 2834 2586 3008 2144 3008 
C 1907 3008 1728 2950 1613 2847 
L 1171 2437 
L 1171 2982 
L 1114 3008 
C 787 2873 454 2783 115 2745 
L 115 2565 
z
" transform="scale(0.015625)"/>
       <path id="URWPalladioL-Roma-65" d="M 2797 447 
L 2714 511 
C 2304 269 2157 212 1882 212 
C 1466 212 1120 398 941 711 
C 819 921 774 1101 762 1472 
L 1696 1472 
C 2138 1472 2413 1472 2854 1544 
C 2861 1634 2867 1693 2867 1771 
C 2867 2520 2394 3008 1677 3008 
C 1440 3008 1165 2924 902 2770 
C 378 2469 166 2071 166 1404 
C 166 1000 262 654 435 410 
C 691 71 1120 -128 1600 -128 
C 1837 -128 2074 -77 2336 37 
C 2509 108 2643 191 2669 230 
L 2797 447 
z
M 2298 1690 
C 1965 1690 1811 1690 1581 1690 
C 1286 1690 1120 1690 774 1722 
C 774 2027 800 2169 883 2337 
C 1018 2622 1293 2796 1600 2796 
C 1811 2796 1978 2711 2093 2534 
C 2234 2319 2278 2129 2298 1690 
z
" transform="scale(0.015625)"/>
       <path id="URWPalladioL-Roma-56" d="M 1754 4224 
L 1754 4417 
C 1050 4417 1050 4417 902 4417 
C 755 4417 755 4417 51 4417 
L 51 4237 
L 282 4218 
C 416 4205 480 4147 563 3955 
L 1766 994 
C 1965 507 2042 283 2138 -64 
L 2458 -64 
C 2579 334 2656 545 2867 1058 
L 3981 3756 
C 4128 4103 4198 4199 4326 4218 
L 4518 4237 
L 4518 4417 
L 3827 4417 
C 3712 4417 3565 4417 3379 4417 
C 3347 4417 3238 4417 3136 4417 
L 3136 4224 
L 3469 4224 
C 3610 4224 3693 4159 3693 4062 
C 3693 3998 3674 3908 3635 3812 
L 2464 769 
L 1203 4030 
C 1197 4056 1190 4076 1190 4102 
C 1190 4179 1267 4224 1395 4224 
L 1754 4224 
z
" transform="scale(0.015625)"/>
       <path id="URWPalladioL-Roma-5d" d="M 1568 4672 
C 1114 4672 1094 4672 947 4672 
C 794 4672 762 4672 326 4672 
L 288 4640 
L 288 4473 
L 314 4441 
L 557 4441 
C 730 4441 864 4403 941 4339 
C 1005 4281 1024 4191 1024 3973 
C 1024 3954 1024 3826 1030 3646 
L 1030 3409 
L 1030 112 
L 1030 -125 
C 1024 -311 1024 -427 1024 -446 
C 1024 -664 1005 -760 941 -818 
C 864 -882 730 -921 557 -921 
L 314 -921 
L 288 -953 
L 288 -1120 
L 326 -1152 
C 774 -1152 787 -1152 947 -1152 
C 1094 -1152 1126 -1152 1568 -1152 
L 1626 -1075 
C 1587 -921 1581 -722 1574 -228 
C 1574 -138 1574 -55 1568 28 
L 1568 112 
L 1568 3409 
L 1568 3492 
C 1574 3563 1574 3646 1574 3736 
C 1574 4230 1587 4441 1626 4595 
L 1568 4672 
z
" transform="scale(0.015625)"/>
      </defs>
      <use xlink:href="#PazoMath-4c" transform="scale(0.996264)"/>
      <use xlink:href="#URWPalladioL-Roma-5b" transform="translate(103.661334 0) scale(0.996264)"/>
      <use xlink:href="#URWPalladioL-Roma-6d" transform="translate(136.836564 0) scale(0.996264)"/>
      <use xlink:href="#URWPalladioL-Roma-65" transform="translate(224.806238 0) scale(0.996264)"/>
      <use xlink:href="#URWPalladioL-Roma-56" transform="translate(272.526533 0) scale(0.996264)"/>
      <use xlink:href="#URWPalladioL-Roma-5d" transform="translate(344.456518 0) scale(0.996264)"/>
     </g>
    </g>
   </g>
   <g id="matplotlib.axis_2">
    <g id="ytick_1">
     <g id="line2d_53">
      <defs>
       <path id="mc7a0efe93c" d="M 0 0 
L 3 0 
" style="stroke: #000000; stroke-width: 0.5"/>
      </defs>
      <g>
       <use xlink:href="#mc7a0efe93c" x="48.540475" y="326.5344" style="stroke: #000000; stroke-width: 0.5"/>
      </g>
     </g>
     <g id="line2d_54">
      <defs>
       <path id="md5f8dbc03d" d="M 0 0 
L -3 0 
" style="stroke: #000000; stroke-width: 0.5"/>
      </defs>
      <g>
       <use xlink:href="#md5f8dbc03d" x="494.940475" y="326.5344" style="stroke: #000000; stroke-width: 0.5"/>
      </g>
     </g>
     <g id="text_8">
      <!-- 0.0 -->
      <g transform="translate(30.096515 330.811338) scale(0.12 -0.12)">
       <defs>
        <path id="URWPalladioL-Roma-2e" d="M 794 744 
C 602 744 429 564 429 372 
C 429 179 602 0 787 0 
C 992 0 1171 173 1171 372 
C 1171 564 992 744 794 744 
z
" transform="scale(0.015625)"/>
       </defs>
       <use xlink:href="#URWPalladioL-Roma-30" transform="scale(0.996264)"/>
       <use xlink:href="#URWPalladioL-Roma-2e" transform="translate(49.8132 0) scale(0.996264)"/>
       <use xlink:href="#URWPalladioL-Roma-30" transform="translate(74.719801 0) scale(0.996264)"/>
      </g>
     </g>
    </g>
    <g id="ytick_2">
     <g id="line2d_55">
      <g>
       <use xlink:href="#mc7a0efe93c" x="48.540475" y="260.0064" style="stroke: #000000; stroke-width: 0.5"/>
      </g>
     </g>
     <g id="line2d_56">
      <g>
       <use xlink:href="#md5f8dbc03d" x="494.940475" y="260.0064" style="stroke: #000000; stroke-width: 0.5"/>
      </g>
     </g>
     <g id="text_9">
      <!-- 0.25 -->
      <g transform="translate(24.118931 264.283338) scale(0.12 -0.12)">
       <use xlink:href="#URWPalladioL-Roma-30" transform="scale(0.996264)"/>
       <use xlink:href="#URWPalladioL-Roma-2e" transform="translate(49.8132 0) scale(0.996264)"/>
       <use xlink:href="#URWPalladioL-Roma-32" transform="translate(74.719801 0) scale(0.996264)"/>
       <use xlink:href="#URWPalladioL-Roma-35" transform="translate(124.533001 0) scale(0.996264)"/>
      </g>
     </g>
    </g>
    <g id="ytick_3">
     <g id="line2d_57">
      <g>
       <use xlink:href="#mc7a0efe93c" x="48.540475" y="193.4784" style="stroke: #000000; stroke-width: 0.5"/>
      </g>
     </g>
     <g id="line2d_58">
      <g>
       <use xlink:href="#md5f8dbc03d" x="494.940475" y="193.4784" style="stroke: #000000; stroke-width: 0.5"/>
      </g>
     </g>
     <g id="text_10">
      <!-- 0.5 -->
      <g transform="translate(30.096515 197.755338) scale(0.12 -0.12)">
       <use xlink:href="#URWPalladioL-Roma-30" transform="scale(0.996264)"/>
       <use xlink:href="#URWPalladioL-Roma-2e" transform="translate(49.8132 0) scale(0.996264)"/>
       <use xlink:href="#URWPalladioL-Roma-35" transform="translate(74.719801 0) scale(0.996264)"/>
      </g>
     </g>
    </g>
    <g id="ytick_4">
     <g id="line2d_59">
      <g>
       <use xlink:href="#mc7a0efe93c" x="48.540475" y="126.9504" style="stroke: #000000; stroke-width: 0.5"/>
      </g>
     </g>
     <g id="line2d_60">
      <g>
       <use xlink:href="#md5f8dbc03d" x="494.940475" y="126.9504" style="stroke: #000000; stroke-width: 0.5"/>
      </g>
     </g>
     <g id="text_11">
      <!-- 0.75 -->
      <g transform="translate(24.118931 131.227338) scale(0.12 -0.12)">
       <defs>
        <path id="URWPalladioL-Roma-37" d="M 358 32 
L 416 -51 
C 666 -32 666 -32 710 -32 
C 755 -32 755 -32 1005 -51 
C 1274 649 1587 1317 2010 2087 
L 3181 4199 
L 3181 4372 
C 2490 4372 2266 4372 1747 4372 
C 1280 4372 966 4372 346 4372 
L 282 4359 
C 301 3750 301 3750 301 3685 
C 301 3614 301 3614 282 3031 
L 474 3031 
L 518 3390 
C 570 3789 614 3840 909 3840 
L 2618 3840 
C 2362 3313 2163 2941 1920 2549 
L 358 32 
z
" transform="scale(0.015625)"/>
       </defs>
       <use xlink:href="#URWPalladioL-Roma-30" transform="scale(0.996264)"/>
       <use xlink:href="#URWPalladioL-Roma-2e" transform="translate(49.8132 0) scale(0.996264)"/>
       <use xlink:href="#URWPalladioL-Roma-37" transform="translate(74.719801 0) scale(0.996264)"/>
       <use xlink:href="#URWPalladioL-Roma-35" transform="translate(124.533001 0) scale(0.996264)"/>
      </g>
     </g>
    </g>
    <g id="ytick_5">
     <g id="line2d_61">
      <g>
       <use xlink:href="#mc7a0efe93c" x="48.540475" y="60.4224" style="stroke: #000000; stroke-width: 0.5"/>
      </g>
     </g>
     <g id="line2d_62">
      <g>
       <use xlink:href="#md5f8dbc03d" x="494.940475" y="60.4224" style="stroke: #000000; stroke-width: 0.5"/>
      </g>
     </g>
     <g id="text_12">
      <!-- 1.0 -->
      <g transform="translate(30.096515 64.699338) scale(0.12 -0.12)">
       <use xlink:href="#URWPalladioL-Roma-31" transform="scale(0.996264)"/>
       <use xlink:href="#URWPalladioL-Roma-2e" transform="translate(49.8132 0) scale(0.996264)"/>
       <use xlink:href="#URWPalladioL-Roma-30" transform="translate(74.719801 0) scale(0.996264)"/>
      </g>
     </g>
    </g>
    <g id="ytick_6">
     <g id="line2d_63">
      <defs>
       <path id="me4422b7685" d="M 0 0 
L 1.5 0 
" style="stroke: #000000; stroke-width: 0.5"/>
      </defs>
      <g>
       <use xlink:href="#me4422b7685" x="48.540475" y="313.2288" style="stroke: #000000; stroke-width: 0.5"/>
      </g>
     </g>
     <g id="line2d_64">
      <defs>
       <path id="mdee8dc418d" d="M 0 0 
L -1.5 0 
" style="stroke: #000000; stroke-width: 0.5"/>
      </defs>
      <g>
       <use xlink:href="#mdee8dc418d" x="494.940475" y="313.2288" style="stroke: #000000; stroke-width: 0.5"/>
      </g>
     </g>
    </g>
    <g id="ytick_7">
     <g id="line2d_65">
      <g>
       <use xlink:href="#me4422b7685" x="48.540475" y="299.9232" style="stroke: #000000; stroke-width: 0.5"/>
      </g>
     </g>
     <g id="line2d_66">
      <g>
       <use xlink:href="#mdee8dc418d" x="494.940475" y="299.9232" style="stroke: #000000; stroke-width: 0.5"/>
      </g>
     </g>
    </g>
    <g id="ytick_8">
     <g id="line2d_67">
      <g>
       <use xlink:href="#me4422b7685" x="48.540475" y="286.6176" style="stroke: #000000; stroke-width: 0.5"/>
      </g>
     </g>
     <g id="line2d_68">
      <g>
       <use xlink:href="#mdee8dc418d" x="494.940475" y="286.6176" style="stroke: #000000; stroke-width: 0.5"/>
      </g>
     </g>
    </g>
    <g id="ytick_9">
     <g id="line2d_69">
      <g>
       <use xlink:href="#me4422b7685" x="48.540475" y="273.312" style="stroke: #000000; stroke-width: 0.5"/>
      </g>
     </g>
     <g id="line2d_70">
      <g>
       <use xlink:href="#mdee8dc418d" x="494.940475" y="273.312" style="stroke: #000000; stroke-width: 0.5"/>
      </g>
     </g>
    </g>
    <g id="ytick_10">
     <g id="line2d_71">
      <g>
       <use xlink:href="#me4422b7685" x="48.540475" y="246.7008" style="stroke: #000000; stroke-width: 0.5"/>
      </g>
     </g>
     <g id="line2d_72">
      <g>
       <use xlink:href="#mdee8dc418d" x="494.940475" y="246.7008" style="stroke: #000000; stroke-width: 0.5"/>
      </g>
     </g>
    </g>
    <g id="ytick_11">
     <g id="line2d_73">
      <g>
       <use xlink:href="#me4422b7685" x="48.540475" y="233.3952" style="stroke: #000000; stroke-width: 0.5"/>
      </g>
     </g>
     <g id="line2d_74">
      <g>
       <use xlink:href="#mdee8dc418d" x="494.940475" y="233.3952" style="stroke: #000000; stroke-width: 0.5"/>
      </g>
     </g>
    </g>
    <g id="ytick_12">
     <g id="line2d_75">
      <g>
       <use xlink:href="#me4422b7685" x="48.540475" y="220.0896" style="stroke: #000000; stroke-width: 0.5"/>
      </g>
     </g>
     <g id="line2d_76">
      <g>
       <use xlink:href="#mdee8dc418d" x="494.940475" y="220.0896" style="stroke: #000000; stroke-width: 0.5"/>
      </g>
     </g>
    </g>
    <g id="ytick_13">
     <g id="line2d_77">
      <g>
       <use xlink:href="#me4422b7685" x="48.540475" y="206.784" style="stroke: #000000; stroke-width: 0.5"/>
      </g>
     </g>
     <g id="line2d_78">
      <g>
       <use xlink:href="#mdee8dc418d" x="494.940475" y="206.784" style="stroke: #000000; stroke-width: 0.5"/>
      </g>
     </g>
    </g>
    <g id="ytick_14">
     <g id="line2d_79">
      <g>
       <use xlink:href="#me4422b7685" x="48.540475" y="180.1728" style="stroke: #000000; stroke-width: 0.5"/>
      </g>
     </g>
     <g id="line2d_80">
      <g>
       <use xlink:href="#mdee8dc418d" x="494.940475" y="180.1728" style="stroke: #000000; stroke-width: 0.5"/>
      </g>
     </g>
    </g>
    <g id="ytick_15">
     <g id="line2d_81">
      <g>
       <use xlink:href="#me4422b7685" x="48.540475" y="166.8672" style="stroke: #000000; stroke-width: 0.5"/>
      </g>
     </g>
     <g id="line2d_82">
      <g>
       <use xlink:href="#mdee8dc418d" x="494.940475" y="166.8672" style="stroke: #000000; stroke-width: 0.5"/>
      </g>
     </g>
    </g>
    <g id="ytick_16">
     <g id="line2d_83">
      <g>
       <use xlink:href="#me4422b7685" x="48.540475" y="153.5616" style="stroke: #000000; stroke-width: 0.5"/>
      </g>
     </g>
     <g id="line2d_84">
      <g>
       <use xlink:href="#mdee8dc418d" x="494.940475" y="153.5616" style="stroke: #000000; stroke-width: 0.5"/>
      </g>
     </g>
    </g>
    <g id="ytick_17">
     <g id="line2d_85">
      <g>
       <use xlink:href="#me4422b7685" x="48.540475" y="140.256" style="stroke: #000000; stroke-width: 0.5"/>
      </g>
     </g>
     <g id="line2d_86">
      <g>
       <use xlink:href="#mdee8dc418d" x="494.940475" y="140.256" style="stroke: #000000; stroke-width: 0.5"/>
      </g>
     </g>
    </g>
    <g id="ytick_18">
     <g id="line2d_87">
      <g>
       <use xlink:href="#me4422b7685" x="48.540475" y="113.6448" style="stroke: #000000; stroke-width: 0.5"/>
      </g>
     </g>
     <g id="line2d_88">
      <g>
       <use xlink:href="#mdee8dc418d" x="494.940475" y="113.6448" style="stroke: #000000; stroke-width: 0.5"/>
      </g>
     </g>
    </g>
    <g id="ytick_19">
     <g id="line2d_89">
      <g>
       <use xlink:href="#me4422b7685" x="48.540475" y="100.3392" style="stroke: #000000; stroke-width: 0.5"/>
      </g>
     </g>
     <g id="line2d_90">
      <g>
       <use xlink:href="#mdee8dc418d" x="494.940475" y="100.3392" style="stroke: #000000; stroke-width: 0.5"/>
      </g>
     </g>
    </g>
    <g id="ytick_20">
     <g id="line2d_91">
      <g>
       <use xlink:href="#me4422b7685" x="48.540475" y="87.0336" style="stroke: #000000; stroke-width: 0.5"/>
      </g>
     </g>
     <g id="line2d_92">
      <g>
       <use xlink:href="#mdee8dc418d" x="494.940475" y="87.0336" style="stroke: #000000; stroke-width: 0.5"/>
      </g>
     </g>
    </g>
    <g id="ytick_21">
     <g id="line2d_93">
      <g>
       <use xlink:href="#me4422b7685" x="48.540475" y="73.728" style="stroke: #000000; stroke-width: 0.5"/>
      </g>
     </g>
     <g id="line2d_94">
      <g>
       <use xlink:href="#mdee8dc418d" x="494.940475" y="73.728" style="stroke: #000000; stroke-width: 0.5"/>
      </g>
     </g>
    </g>
    <g id="ytick_22">
     <g id="line2d_95">
      <g>
       <use xlink:href="#me4422b7685" x="48.540475" y="47.1168" style="stroke: #000000; stroke-width: 0.5"/>
      </g>
     </g>
     <g id="line2d_96">
      <g>
       <use xlink:href="#mdee8dc418d" x="494.940475" y="47.1168" style="stroke: #000000; stroke-width: 0.5"/>
      </g>
     </g>
    </g>
    <g id="ytick_23">
     <g id="line2d_97">
      <g>
       <use xlink:href="#me4422b7685" x="48.540475" y="33.8112" style="stroke: #000000; stroke-width: 0.5"/>
      </g>
     </g>
     <g id="line2d_98">
      <g>
       <use xlink:href="#mdee8dc418d" x="494.940475" y="33.8112" style="stroke: #000000; stroke-width: 0.5"/>
      </g>
     </g>
    </g>
    <g id="ytick_24">
     <g id="line2d_99">
      <g>
       <use xlink:href="#me4422b7685" x="48.540475" y="20.5056" style="stroke: #000000; stroke-width: 0.5"/>
      </g>
     </g>
     <g id="line2d_100">
      <g>
       <use xlink:href="#mdee8dc418d" x="494.940475" y="20.5056" style="stroke: #000000; stroke-width: 0.5"/>
      </g>
     </g>
    </g>
    <g id="ytick_25">
     <g id="line2d_101">
      <g>
       <use xlink:href="#me4422b7685" x="48.540475" y="7.2" style="stroke: #000000; stroke-width: 0.5"/>
      </g>
     </g>
     <g id="line2d_102">
      <g>
       <use xlink:href="#mdee8dc418d" x="494.940475" y="7.2" style="stroke: #000000; stroke-width: 0.5"/>
      </g>
     </g>
    </g>
    <g id="text_13">
     <!-- $N_{e}$, $N_{o}$ -->
     <g transform="translate(16.466703 191.189184) rotate(-90) scale(0.13 -0.13)">
      <defs>
       <path id="URWPalladioL-Ital-4e" d="M 1517 4402 
L 998 4402 
L 934 4402 
L 845 4402 
C 826 4402 730 4402 582 4402 
L 480 4402 
L 448 4224 
L 672 4224 
C 781 4224 922 4179 992 4122 
C 1088 4045 1184 3924 1184 3873 
C 1184 3867 1184 3848 1178 3828 
C 1178 3822 1178 3809 1171 3797 
C 1165 3746 1158 3701 1152 3682 
L 589 662 
C 512 267 474 216 243 190 
L 45 171 
L 13 -7 
L 723 -7 
C 800 -7 806 -7 1427 -7 
L 1459 165 
L 1190 184 
C 934 204 877 255 877 465 
C 877 516 883 586 896 656 
L 1408 3612 
L 3571 -64 
L 3891 -64 
L 4493 3459 
C 4627 4179 4640 4205 4877 4224 
L 5114 4224 
L 5146 4402 
L 5011 4402 
L 4442 4402 
L 3891 4402 
L 3770 4402 
L 3738 4224 
L 4038 4224 
C 4205 4224 4269 4177 4269 4071 
C 4269 4026 4250 3861 4237 3778 
L 3725 662 
L 1517 4402 
z
" transform="scale(0.015625)"/>
       <path id="URWPalladioL-Ital-65" d="M 2099 712 
L 1946 604 
C 1606 363 1299 235 1069 235 
C 768 235 582 471 582 853 
C 582 1011 602 1183 634 1368 
L 1158 1494 
C 1267 1520 1440 1584 1600 1654 
C 2144 1889 2394 2182 2394 2576 
C 2394 2874 2176 3072 1856 3072 
C 1440 3072 730 2633 480 2226 
C 288 1908 96 1151 96 724 
C 96 228 378 -64 838 -64 
C 1203 -64 1562 114 2150 591 
L 2099 712 
z
M 723 1748 
C 832 2187 960 2461 1146 2626 
C 1261 2728 1459 2804 1613 2804 
C 1798 2804 1920 2677 1920 2474 
C 1920 2193 1696 1895 1363 1735 
C 1184 1647 954 1577 666 1513 
L 723 1748 
z
" transform="scale(0.015625)"/>
       <path id="URWPalladioL-Roma-2c" d="M 1306 789 
C 1133 731 1018 693 678 596 
C 634 109 474 -308 102 -923 
L 192 -994 
L 454 -872 
C 973 -199 1216 205 1395 699 
L 1306 789 
z
" transform="scale(0.015625)"/>
       <path id="URWPalladioL-Ital-6f" d="M 1779 3072 
C 1504 3072 1203 2963 915 2761 
C 397 2391 109 1749 109 973 
C 109 298 397 -64 928 -64 
C 1280 -64 1664 102 1952 368 
C 2349 743 2630 1469 2630 2111 
C 2630 2710 2310 3072 1779 3072 
z
M 1542 2830 
C 1933 2830 2144 2544 2144 2010 
C 2144 1399 1946 725 1664 388 
C 1549 255 1382 178 1184 178 
C 813 178 595 464 595 966 
C 595 1685 845 2467 1158 2721 
C 1242 2791 1389 2830 1542 2830 
z
" transform="scale(0.015625)"/>
      </defs>
      <use xlink:href="#URWPalladioL-Ital-4e" transform="scale(0.996264)"/>
      <use xlink:href="#URWPalladioL-Ital-65" transform="translate(74.719816 -14.943915) scale(0.757155)"/>
      <use xlink:href="#URWPalladioL-Roma-2c" transform="translate(105.617788 0) scale(0.996264)"/>
      <use xlink:href="#URWPalladioL-Ital-4e" transform="translate(160.163197 0) scale(0.996264)"/>
      <use xlink:href="#URWPalladioL-Ital-6f" transform="translate(234.883013 -14.943915) scale(0.757155)"/>
     </g>
    </g>
   </g>
   <g id="line2d_103">
    <path d="M 48.540475 193.4784 
L 494.940475 193.4784 
" clip-path="url(#p50fb2f0577)" style="fill: none; stroke-dasharray: 7.4,3.2; stroke-dashoffset: 0; stroke: #000000; stroke-width: 2"/>
   </g>
   <g id="line2d_104">
    <path d="M 48.540475 118.100007 
L 53.049566 118.537381 
L 57.558657 119.817679 
L 62.067748 121.854014 
L 66.576839 124.525491 
L 71.085929 127.700669 
L 75.59502 131.255466 
L 80.104111 135.082949 
L 84.613202 139.096447 
L 89.122293 143.228615 
L 93.631384 147.428677 
L 98.140475 151.659227 
L 102.649566 155.893249 
L 107.158657 160.111618 
L 111.667748 164.301103 
L 116.176839 168.452824 
L 120.685929 172.561084 
L 125.19502 176.622479 
L 129.704111 180.635232 
L 134.213202 184.598696 
L 138.722293 188.512967 
L 143.231384 192.378594 
L 147.740475 196.196352 
L 152.249566 199.967061 
L 156.758657 203.691435 
L 161.267748 207.369956 
L 165.776839 211.002762 
L 170.285929 214.589538 
L 174.79502 218.129413 
L 179.304111 221.620852 
L 183.813202 225.06155 
L 188.322293 228.448306 
L 192.831384 231.776899 
L 197.340475 235.041953 
L 201.849566 238.236785 
L 206.358657 241.353265 
L 210.867748 244.381667 
L 215.376839 247.310542 
L 219.885929 250.126622 
L 224.39502 252.814788 
L 228.904111 255.358129 
L 233.413202 257.738131 
L 237.922293 259.93505 
L 242.431384 261.928497 
L 246.940475 263.698272 
L 251.449566 265.225416 
L 255.958657 266.49345 
L 260.467748 267.489658 
L 264.976839 268.206261 
L 269.485929 268.641281 
L 273.99502 268.798949 
L 278.504111 268.689542 
L 283.013202 268.328688 
L 287.522293 267.736261 
L 292.031384 266.935032 
L 296.540475 265.949299 
L 301.049566 264.803648 
L 305.558657 263.521948 
L 310.067748 262.126623 
L 314.576839 260.638191 
L 319.085929 259.075032 
L 323.59502 257.453323 
L 328.104111 255.787107 
L 332.613202 254.088426 
L 337.122293 252.367509 
L 341.631384 250.63297 
L 346.140475 248.892005 
L 350.649566 247.150586 
L 355.158657 245.413634 
L 359.667748 243.685175 
L 364.176839 241.968475 
L 368.685929 240.266163 
L 373.19502 238.580328 
L 377.704111 236.912612 
L 382.213202 235.264279 
L 386.722293 233.63628 
L 391.231384 232.029307 
L 395.740475 230.443834 
L 400.249566 228.880158 
L 404.758657 227.338428 
L 409.267748 225.818673 
L 413.776839 224.320821 
L 418.285929 222.844721 
L 422.79502 221.390157 
L 427.304111 219.956861 
L 431.813202 218.544522 
L 436.322293 217.152798 
L 440.831384 215.781322 
L 445.340475 214.429709 
L 449.849566 213.097559 
L 454.358657 211.784464 
L 458.867748 210.490011 
L 463.376839 209.213784 
L 467.885929 207.955368 
L 472.39502 206.714349 
L 476.904111 205.490316 
L 481.413202 204.282865 
L 485.922293 203.091598 
L 490.431384 201.916121 
L 494.940475 200.75605 
" clip-path="url(#p50fb2f0577)" style="fill: none; stroke: #1764ab; stroke-width: 3; stroke-linecap: square"/>
   </g>
   <g id="line2d_105">
    <path d="M 48.540475 268.856793 
L 53.049566 268.419419 
L 57.558657 267.139121 
L 62.067748 265.102786 
L 66.576839 262.431309 
L 71.085929 259.256131 
L 75.59502 255.701334 
L 80.104111 251.873851 
L 84.613202 247.860353 
L 89.122293 243.728185 
L 93.631384 239.528123 
L 98.140475 235.297573 
L 102.649566 231.063551 
L 107.158657 226.845182 
L 111.667748 222.655697 
L 116.176839 218.503976 
L 120.685929 214.395716 
L 125.19502 210.334321 
L 129.704111 206.321568 
L 134.213202 202.358104 
L 138.722293 198.443833 
L 143.231384 194.578206 
L 147.740475 190.760448 
L 152.249566 186.989739 
L 156.758657 183.265365 
L 161.267748 179.586844 
L 165.776839 175.954038 
L 170.285929 172.367262 
L 174.79502 168.827387 
L 179.304111 165.335948 
L 183.813202 161.89525 
L 188.322293 158.508494 
L 192.831384 155.179901 
L 197.340475 151.914847 
L 201.849566 148.720015 
L 206.358657 145.603535 
L 210.867748 142.575133 
L 215.376839 139.646258 
L 219.885929 136.830178 
L 224.39502 134.142012 
L 228.904111 131.598671 
L 233.413202 129.218669 
L 237.922293 127.02175 
L 242.431384 125.028303 
L 246.940475 123.258528 
L 251.449566 121.731384 
L 255.958657 120.46335 
L 260.467748 119.467142 
L 264.976839 118.750539 
L 269.485929 118.315519 
L 273.99502 118.157851 
L 278.504111 118.267258 
L 283.013202 118.628112 
L 287.522293 119.220539 
L 292.031384 120.021768 
L 296.540475 121.007501 
L 301.049566 122.153152 
L 305.558657 123.434852 
L 310.067748 124.830177 
L 314.576839 126.318609 
L 319.085929 127.881768 
L 323.59502 129.503477 
L 328.104111 131.169693 
L 332.613202 132.868374 
L 337.122293 134.589291 
L 341.631384 136.32383 
L 346.140475 138.064795 
L 350.649566 139.806214 
L 355.158657 141.543166 
L 359.667748 143.271625 
L 364.176839 144.988325 
L 368.685929 146.690637 
L 373.19502 148.376472 
L 377.704111 150.044188 
L 382.213202 151.692521 
L 386.722293 153.32052 
L 391.231384 154.927493 
L 395.740475 156.512966 
L 400.249566 158.076642 
L 404.758657 159.618372 
L 409.267748 161.138127 
L 413.776839 162.635979 
L 418.285929 164.112079 
L 422.79502 165.566643 
L 427.304111 166.999939 
L 431.813202 168.412278 
L 436.322293 169.804002 
L 440.831384 171.175478 
L 445.340475 172.527091 
L 449.849566 173.859241 
L 454.358657 175.172336 
L 458.867748 176.466789 
L 463.376839 177.743016 
L 467.885929 179.001432 
L 472.39502 180.242451 
L 476.904111 181.466484 
L 481.413202 182.673935 
L 485.922293 183.865202 
L 490.431384 185.040679 
L 494.940475 186.20075 
" clip-path="url(#p50fb2f0577)" style="fill: none; stroke: #bc141a; stroke-width: 3; stroke-linecap: square"/>
   </g>
   <g id="line2d_106">
    <path d="M 48.540475 153.710391 
L 53.049566 153.88789 
L 57.558657 154.416252 
L 62.067748 155.283428 
L 66.576839 156.470459 
L 71.085929 157.952939 
L 75.59502 159.702728 
L 80.104111 161.689645 
L 84.613202 163.882987 
L 89.122293 166.252754 
L 93.631384 168.770523 
L 98.140475 171.410012 
L 102.649566 174.147366 
L 107.158657 176.961225 
L 111.667748 179.832637 
L 116.176839 182.744878 
L 120.685929 185.683207 
L 125.19502 188.634594 
L 129.704111 191.587443 
L 134.213202 194.531327 
L 138.722293 197.456732 
L 143.231384 200.354827 
L 147.740475 203.217257 
L 152.249566 206.035961 
L 156.758657 208.803009 
L 161.267748 211.510472 
L 165.776839 214.150314 
L 170.285929 216.714307 
L 174.79502 219.193984 
L 179.304111 221.580617 
L 183.813202 223.865229 
L 188.322293 226.03865 
L 192.831384 228.091604 
L 197.340475 230.014848 
L 201.849566 231.799338 
L 206.358657 233.436445 
L 210.867748 234.918193 
L 215.376839 236.237516 
L 219.885929 237.388517 
L 224.39502 238.36672 
L 228.904111 239.169272 
L 233.413202 239.795107 
L 237.922293 240.245032 
L 242.431384 240.521736 
L 246.940475 240.629718 
L 251.449566 240.575144 
L 255.958657 240.365628 
L 260.467748 240.00998 
L 264.976839 239.517915 
L 269.485929 238.899769 
L 273.99502 238.166212 
L 278.504111 237.327992 
L 283.013202 236.395719 
L 287.522293 235.379681 
L 292.031384 234.2897 
L 296.540475 233.135037 
L 301.049566 231.924318 
L 305.558657 230.665503 
L 310.067748 229.365873 
L 314.576839 228.032036 
L 319.085929 226.66995 
L 323.59502 225.284957 
L 328.104111 223.881816 
L 332.613202 222.464754 
L 337.122293 221.037501 
L 341.631384 219.60334 
L 346.140475 218.165149 
L 350.649566 216.725439 
L 355.158657 215.286394 
L 359.667748 213.849906 
L 364.176839 212.417609 
L 368.685929 210.990904 
L 373.19502 209.570992 
L 377.704111 208.158891 
L 382.213202 206.755463 
L 386.722293 205.36143 
L 391.231384 203.977394 
L 395.740475 202.603848 
L 400.249566 201.241192 
L 404.758657 199.889746 
L 409.267748 198.549757 
L 413.776839 197.221411 
L 418.285929 195.904842 
L 422.79502 194.600134 
L 427.304111 193.307333 
L 431.813202 192.026449 
L 436.322293 190.757465 
L 440.831384 189.500335 
L 445.340475 188.254993 
L 449.849566 187.021354 
L 454.358657 185.799318 
L 458.867748 184.588772 
L 463.376839 183.389591 
L 467.885929 182.201642 
L 472.39502 181.024786 
L 476.904111 179.858876 
L 481.413202 178.703763 
L 485.922293 177.559293 
L 490.431384 176.425312 
L 494.940475 175.301663 
" clip-path="url(#p50fb2f0577)" style="fill: none; stroke: #4a98c9; stroke-width: 3; stroke-linecap: square"/>
   </g>
   <g id="line2d_107">
    <path d="M 48.540475 233.246409 
L 53.049566 233.06891 
L 57.558657 232.540548 
L 62.067748 231.673372 
L 66.576839 230.486341 
L 71.085929 229.003861 
L 75.59502 227.254072 
L 80.104111 225.267155 
L 84.613202 223.073813 
L 89.122293 220.704046 
L 93.631384 218.186277 
L 98.140475 215.546788 
L 102.649566 212.809434 
L 107.158657 209.995575 
L 111.667748 207.124163 
L 116.176839 204.211922 
L 120.685929 201.273593 
L 125.19502 198.322206 
L 129.704111 195.369357 
L 134.213202 192.425473 
L 138.722293 189.500068 
L 143.231384 186.601973 
L 147.740475 183.739543 
L 152.249566 180.920839 
L 156.758657 178.153791 
L 161.267748 175.446328 
L 165.776839 172.806486 
L 170.285929 170.242493 
L 174.79502 167.762816 
L 179.304111 165.376183 
L 183.813202 163.091571 
L 188.322293 160.91815 
L 192.831384 158.865196 
L 197.340475 156.941952 
L 201.849566 155.157462 
L 206.358657 153.520355 
L 210.867748 152.038607 
L 215.376839 150.719284 
L 219.885929 149.568283 
L 224.39502 148.59008 
L 228.904111 147.787528 
L 233.413202 147.161693 
L 237.922293 146.711768 
L 242.431384 146.435064 
L 246.940475 146.327082 
L 251.449566 146.381656 
L 255.958657 146.591172 
L 260.467748 146.94682 
L 264.976839 147.438885 
L 269.485929 148.057031 
L 273.99502 148.790588 
L 278.504111 149.628808 
L 283.013202 150.561081 
L 287.522293 151.577119 
L 292.031384 152.6671 
L 296.540475 153.821763 
L 301.049566 155.032482 
L 305.558657 156.291297 
L 310.067748 157.590927 
L 314.576839 158.924764 
L 319.085929 160.28685 
L 323.59502 161.671843 
L 328.104111 163.074984 
L 332.613202 164.492046 
L 337.122293 165.919299 
L 341.631384 167.35346 
L 346.140475 168.791651 
L 350.649566 170.231361 
L 355.158657 171.670406 
L 359.667748 173.106894 
L 364.176839 174.539191 
L 368.685929 175.965896 
L 373.19502 177.385808 
L 377.704111 178.797909 
L 382.213202 180.201337 
L 386.722293 181.59537 
L 391.231384 182.979406 
L 395.740475 184.352952 
L 400.249566 185.715608 
L 404.758657 187.067054 
L 409.267748 188.407043 
L 413.776839 189.735389 
L 418.285929 191.051958 
L 422.79502 192.356666 
L 427.304111 193.649467 
L 431.813202 194.930351 
L 436.322293 196.199335 
L 440.831384 197.456465 
L 445.340475 198.701807 
L 449.849566 199.935446 
L 454.358657 201.157482 
L 458.867748 202.368028 
L 463.376839 203.567209 
L 467.885929 204.755158 
L 472.39502 205.932014 
L 476.904111 207.097924 
L 481.413202 208.253037 
L 485.922293 209.397507 
L 490.431384 210.531488 
L 494.940475 211.655137 
" clip-path="url(#p50fb2f0577)" style="fill: none; stroke: #f14432; stroke-width: 3; stroke-linecap: square"/>
   </g>
   <g id="line2d_108">
    <path d="M 48.540475 118.775757 
L 53.049566 119.271845 
L 57.558657 120.719873 
L 62.067748 123.011199 
L 66.576839 125.997652 
L 71.085929 129.522319 
L 75.59502 133.441401 
L 80.104111 137.634747 
L 84.613202 142.007935 
L 89.122293 146.48982 
L 93.631384 151.028402 
L 98.140475 155.586596 
L 102.649566 160.138563 
L 107.158657 164.666759 
L 111.667748 169.159674 
L 116.176839 173.610125 
L 120.685929 178.013989 
L 125.19502 182.369265 
L 129.704111 186.675366 
L 134.213202 190.9326 
L 138.722293 195.141756 
L 143.231384 199.303794 
L 147.740475 203.419575 
L 152.249566 207.489643 
L 156.758657 211.514016 
L 161.267748 215.491988 
L 165.776839 219.421927 
L 170.285929 223.301055 
L 174.79502 227.125213 
L 179.304111 230.888591 
L 183.813202 234.583433 
L 188.322293 238.199708 
L 192.831384 241.724756 
L 197.340475 245.142925 
L 201.849566 248.435236 
L 206.358657 251.579117 
L 210.867748 254.548293 
L 215.376839 257.312949 
L 219.885929 259.840282 
L 224.39502 262.095621 
L 228.904111 264.044185 
L 233.413202 265.653513 
L 237.922293 266.89637 
L 242.431384 267.753743 
L 246.940475 268.217336 
L 251.449566 268.290984 
L 255.958657 267.990577 
L 260.467748 267.3425 
L 264.976839 266.380957 
L 269.485929 265.144804 
L 273.99502 263.674486 
L 278.504111 262.00953 
L 283.013202 260.186765 
L 287.522293 258.239275 
L 292.031384 256.195945 
L 296.540475 254.081442 
L 301.049566 251.916457 
L 305.558657 249.718109 
L 310.067748 247.500388 
L 314.576839 245.274613 
L 319.085929 243.049854 
L 323.59502 240.833311 
L 328.104111 238.630642 
L 332.613202 236.44624 
L 337.122293 234.283469 
L 341.631384 232.144857 
L 346.140475 230.032253 
L 350.649566 227.946964 
L 355.158657 225.889857 
L 359.667748 223.861448 
L 364.176839 221.861973 
L 368.685929 219.891448 
L 373.19502 217.949712 
L 377.704111 216.036468 
L 382.213202 214.151316 
L 386.722293 212.293771 
L 391.231384 210.463292 
L 395.740475 208.659291 
L 400.249566 206.881154 
L 404.758657 205.128244 
L 409.267748 203.399915 
L 413.776839 201.695517 
L 418.285929 200.014401 
L 422.79502 198.355927 
L 427.304111 196.719461 
L 431.813202 195.104385 
L 436.322293 193.510092 
L 440.831384 191.935996 
L 445.340475 190.381523 
L 449.849566 188.846122 
L 454.358657 187.329259 
L 458.867748 185.830419 
L 463.376839 184.349108 
L 467.885929 182.884849 
L 472.39502 181.437189 
L 476.904111 180.005691 
L 481.413202 178.58994 
L 485.922293 177.189537 
L 490.431384 175.804107 
L 494.940475 174.43329 
" clip-path="url(#p50fb2f0577)" style="fill: none; stroke: #94c4df; stroke-width: 3; stroke-linecap: square"/>
   </g>
   <g id="line2d_109">
    <path d="M 48.540475 268.181043 
L 53.049566 267.684955 
L 57.558657 266.236927 
L 62.067748 263.945601 
L 66.576839 260.959148 
L 71.085929 257.434481 
L 75.59502 253.515399 
L 80.104111 249.322053 
L 84.613202 244.948865 
L 89.122293 240.46698 
L 93.631384 235.928398 
L 98.140475 231.370204 
L 102.649566 226.818237 
L 107.158657 222.290041 
L 111.667748 217.797126 
L 116.176839 213.346675 
L 120.685929 208.942811 
L 125.19502 204.587535 
L 129.704111 200.281434 
L 134.213202 196.0242 
L 138.722293 191.815044 
L 143.231384 187.653006 
L 147.740475 183.537225 
L 152.249566 179.467157 
L 156.758657 175.442784 
L 161.267748 171.464812 
L 165.776839 167.534873 
L 170.285929 163.655745 
L 174.79502 159.831587 
L 179.304111 156.068209 
L 183.813202 152.373367 
L 188.322293 148.757092 
L 192.831384 145.232044 
L 197.340475 141.813875 
L 201.849566 138.521564 
L 206.358657 135.377683 
L 210.867748 132.408507 
L 215.376839 129.643851 
L 219.885929 127.116518 
L 224.39502 124.861179 
L 228.904111 122.912615 
L 233.413202 121.303287 
L 237.922293 120.06043 
L 242.431384 119.203057 
L 246.940475 118.739464 
L 251.449566 118.665816 
L 255.958657 118.966223 
L 260.467748 119.6143 
L 264.976839 120.575843 
L 269.485929 121.811996 
L 273.99502 123.282314 
L 278.504111 124.94727 
L 283.013202 126.770035 
L 287.522293 128.717525 
L 292.031384 130.760855 
L 296.540475 132.875358 
L 301.049566 135.040343 
L 305.558657 137.238691 
L 310.067748 139.456412 
L 314.576839 141.682187 
L 319.085929 143.906946 
L 323.59502 146.123489 
L 328.104111 148.326158 
L 332.613202 150.51056 
L 337.122293 152.673331 
L 341.631384 154.811943 
L 346.140475 156.924547 
L 350.649566 159.009836 
L 355.158657 161.066943 
L 359.667748 163.095352 
L 364.176839 165.094827 
L 368.685929 167.065352 
L 373.19502 169.007088 
L 377.704111 170.920332 
L 382.213202 172.805484 
L 386.722293 174.663029 
L 391.231384 176.493508 
L 395.740475 178.297509 
L 400.249566 180.075646 
L 404.758657 181.828556 
L 409.267748 183.556885 
L 413.776839 185.261283 
L 418.285929 186.942399 
L 422.79502 188.600873 
L 427.304111 190.237339 
L 431.813202 191.852415 
L 436.322293 193.446708 
L 440.831384 195.020804 
L 445.340475 196.575277 
L 449.849566 198.110678 
L 454.358657 199.627541 
L 458.867748 201.126381 
L 463.376839 202.607692 
L 467.885929 204.071951 
L 472.39502 205.519611 
L 476.904111 206.951109 
L 481.413202 208.36686 
L 485.922293 209.767263 
L 490.431384 211.152693 
L 494.940475 212.52351 
" clip-path="url(#p50fb2f0577)" style="fill: none; stroke: #fc8a6a; stroke-width: 3; stroke-linecap: square"/>
   </g>
   <g id="patch_3">
    <path d="M 48.540475 339.84 
L 48.540475 7.2 
" style="fill: none; stroke: #000000; stroke-width: 0.5; stroke-linejoin: miter; stroke-linecap: square"/>
   </g>
   <g id="patch_4">
    <path d="M 494.940475 339.84 
L 494.940475 7.2 
" style="fill: none; stroke: #000000; stroke-width: 0.5; stroke-linejoin: miter; stroke-linecap: square"/>
   </g>
   <g id="patch_5">
    <path d="M 48.540475 339.84 
L 494.940475 339.84 
" style="fill: none; stroke: #000000; stroke-width: 0.5; stroke-linejoin: miter; stroke-linecap: square"/>
   </g>
   <g id="patch_6">
    <path d="M 48.540475 7.2 
L 494.940475 7.2 
" style="fill: none; stroke: #000000; stroke-width: 0.5; stroke-linejoin: miter; stroke-linecap: square"/>
   </g>
   <g id="legend_1">
    <g id="line2d_110">
     <path d="M 414.858145 21.091049 
L 419.258145 21.091049 
L 423.658145 21.091049 
" style="fill: none; stroke: #1764ab; stroke-width: 3; stroke-linecap: square"/>
    </g>
    <g id="line2d_111">
     <path d="M 428.058145 21.091049 
L 432.458145 21.091049 
L 436.858145 21.091049 
" style="fill: none; stroke: #bc141a; stroke-width: 3; stroke-linecap: square"/>
    </g>
    <g id="text_14">
     <!-- $Z_0 = \xi$ -->
     <g transform="translate(445.658145 24.941049) scale(0.11 -0.11)">
      <defs>
       <path id="URWPalladioL-Ital-5a" d="M 128 0 
C 742 0 1114 0 1670 0 
C 2170 0 2918 0 3309 0 
L 3731 0 
C 3744 260 3795 621 3878 1059 
L 3712 1059 
L 3667 919 
C 3622 792 3565 625 3514 485 
L 3462 344 
C 3174 287 2931 262 2650 262 
L 851 262 
L 4077 4301 
L 4077 4416 
L 3040 4416 
L 2874 4416 
L 1523 4416 
L 768 4416 
C 768 4121 749 3874 698 3415 
L 864 3415 
C 883 3555 922 3714 998 3964 
L 1037 4091 
C 1395 4155 1638 4174 2189 4174 
L 3341 4174 
L 128 134 
L 128 0 
z
" transform="scale(0.015625)"/>
       <path id="CMR10-3d" d="M 4397 2048 
C 4493 2048 4614 2048 4614 2177 
C 4614 2305 4493 2305 4403 2305 
L 570 2305 
C 480 2305 358 2305 358 2177 
C 358 2048 480 2048 576 2048 
L 4397 2048 
z
M 4403 832 
C 4493 832 4614 832 4614 961 
C 4614 1089 4493 1089 4397 1089 
L 576 1089 
C 480 1089 358 1089 358 961 
C 358 832 480 832 570 832 
L 4403 832 
z
" transform="scale(0.015625)"/>
       <path id="PazoMath-Italic-78" d="M 774 3706 
L 909 3706 
L 1101 4070 
C 1210 4094 1267 4101 1350 4101 
C 1440 4101 1510 4094 1638 4070 
C 1869 4026 2029 4007 2176 4007 
C 1882 3796 1702 3605 1702 3369 
C 1702 3248 1734 3151 1805 3069 
C 1517 3043 1101 2814 781 2527 
C 429 2214 186 1544 186 874 
C 186 262 454 -64 966 -64 
C 1114 -64 1638 0 1830 0 
C 2048 0 2157 -114 2157 -328 
C 2157 -372 2150 -409 2144 -460 
C 1990 -906 1670 -1152 1389 -1152 
C 1165 -1152 992 -982 992 -762 
C 992 -731 998 -681 1005 -624 
L 941 -598 
L 634 -813 
C 627 -857 627 -896 627 -927 
C 627 -1199 864 -1421 1152 -1421 
C 1510 -1421 1952 -1116 2240 -754 
C 2470 -467 2515 -149 2515 74 
C 2515 131 2496 181 2458 220 
C 2368 321 2182 321 2048 321 
C 1862 321 1421 264 1210 264 
C 851 264 672 520 672 1028 
C 672 1720 896 2387 1210 2630 
C 1344 2733 1510 2817 1709 2817 
C 1856 2817 1978 2778 2093 2740 
C 2150 2720 2336 2688 2394 2688 
C 2477 2688 2637 2688 2662 2695 
C 2662 2729 2707 2889 2752 2956 
C 2752 2990 2746 3010 2739 3010 
C 2400 3010 2093 3219 2093 3537 
C 2093 3885 2662 4112 2931 4214 
L 3123 4284 
L 3162 4486 
L 3104 4544 
L 2957 4397 
C 2893 4332 2829 4307 2739 4307 
C 2522 4307 2189 4358 1882 4442 
L 1766 4474 
C 1587 4519 1459 4544 1370 4544 
C 1261 4544 1133 4525 979 4481 
L 774 3706 
z
" transform="scale(0.015625)"/>
      </defs>
      <use xlink:href="#URWPalladioL-Ital-5a" transform="scale(0.996264)"/>
      <use xlink:href="#URWPalladioL-Roma-30" transform="translate(65.204427 -17.441431) scale(0.757155)"/>
      <use xlink:href="#CMR10-3d" transform="translate(132.479551 0) scale(1.038107)"/>
      <use xlink:href="#PazoMath-Italic-78" transform="translate(243.340479 0) scale(0.996264)"/>
     </g>
    </g>
    <g id="line2d_112">
     <path d="M 414.858145 37.522438 
L 419.258145 37.522438 
L 423.658145 37.522438 
" style="fill: none; stroke: #4a98c9; stroke-width: 3; stroke-linecap: square"/>
    </g>
    <g id="line2d_113">
     <path d="M 428.058145 37.522438 
L 432.458145 37.522438 
L 436.858145 37.522438 
" style="fill: none; stroke: #f14432; stroke-width: 3; stroke-linecap: square"/>
    </g>
    <g id="text_15">
     <!-- $Z_0 = 2 \, \xi$ -->
     <g transform="translate(445.658145 41.372438) scale(0.11 -0.11)">
      <use xlink:href="#URWPalladioL-Ital-5a" transform="scale(0.996264)"/>
      <use xlink:href="#URWPalladioL-Roma-30" transform="translate(65.204427 -17.441431) scale(0.757155)"/>
      <use xlink:href="#CMR10-3d" transform="translate(132.479551 0) scale(1.038107)"/>
      <use xlink:href="#URWPalladioL-Roma-32" transform="translate(242.09518 0) scale(0.996264)"/>
      <use xlink:href="#PazoMath-Italic-78" transform="translate(309.758039 0) scale(0.996264)"/>
     </g>
    </g>
    <g id="line2d_114">
     <path d="M 414.858145 53.953827 
L 419.258145 53.953827 
L 423.658145 53.953827 
" style="fill: none; stroke: #94c4df; stroke-width: 3; stroke-linecap: square"/>
    </g>
    <g id="line2d_115">
     <path d="M 428.058145 53.953827 
L 432.458145 53.953827 
L 436.858145 53.953827 
" style="fill: none; stroke: #fc8a6a; stroke-width: 3; stroke-linecap: square"/>
    </g>
    <g id="text_16">
     <!-- $Z_0 = 3 \, \xi$ -->
     <g transform="translate(445.658145 57.803827) scale(0.11 -0.11)">
      <use xlink:href="#URWPalladioL-Ital-5a" transform="scale(0.996264)"/>
      <use xlink:href="#URWPalladioL-Roma-30" transform="translate(65.204427 -17.441431) scale(0.757155)"/>
      <use xlink:href="#CMR10-3d" transform="translate(132.479551 0) scale(1.038107)"/>
      <use xlink:href="#URWPalladioL-Roma-33" transform="translate(242.09518 0) scale(0.996264)"/>
      <use xlink:href="#PazoMath-Italic-78" transform="translate(309.758039 0) scale(0.996264)"/>
     </g>
    </g>
   </g>
   <g id="legend_2">
    <g id="line2d_116">
     <path d="M 58.440475 21.091049 
L 69.440475 21.091049 
L 80.440475 21.091049 
" style="fill: none; stroke: #1764ab; stroke-width: 3; stroke-linecap: square"/>
    </g>
    <g id="text_17">
     <!-- even -->
     <g transform="translate(89.240475 24.941049) scale(0.11 -0.11)">
      <defs>
       <path id="URWPalladioL-Roma-76" d="M 3450 2752 
L 3450 2932 
C 3066 2932 2950 2932 2848 2932 
C 2746 2932 2630 2932 2246 2932 
L 2246 2752 
L 2509 2752 
C 2611 2752 2662 2694 2662 2591 
C 2662 2489 2618 2317 2541 2124 
L 2272 1445 
C 2195 1259 2118 1080 1875 549 
L 1114 2393 
C 1075 2482 1056 2566 1056 2636 
C 1056 2707 1114 2752 1216 2752 
L 1530 2752 
L 1530 2932 
C 902 2932 902 2932 781 2932 
C 659 2932 352 2932 38 2932 
L 38 2752 
L 256 2752 
C 352 2739 384 2701 454 2541 
L 1555 -32 
L 1875 -32 
C 1914 77 1978 243 1978 256 
C 2048 447 2131 664 2138 664 
L 2893 2324 
C 3034 2625 3123 2739 3251 2752 
L 3450 2752 
z
" transform="scale(0.015625)"/>
       <path id="URWPalladioL-Roma-6e" d="M 2624 -7 
C 3014 -7 3021 -7 3130 -7 
C 3219 -7 3219 -7 3661 -7 
L 3661 179 
L 3398 205 
C 3181 205 3162 244 3162 654 
L 3162 1892 
C 3162 2642 2810 3008 2093 3008 
C 1856 3008 1722 2963 1587 2847 
L 1101 2424 
L 1101 2982 
L 1043 3008 
C 717 2873 384 2783 45 2745 
L 45 2565 
L 282 2565 
C 538 2565 563 2520 563 2094 
L 563 643 
C 563 237 544 192 326 192 
L 38 192 
L 38 -7 
C 474 -7 646 -7 832 -7 
C 1018 -7 1190 -7 1626 -7 
L 1626 192 
L 1338 192 
C 1120 192 1101 237 1101 643 
L 1101 2011 
C 1101 2300 1523 2616 1914 2616 
C 2342 2616 2624 2297 2624 1806 
L 2624 -7 
z
" transform="scale(0.015625)"/>
      </defs>
      <use xlink:href="#URWPalladioL-Roma-65" transform="scale(0.996264)"/>
      <use xlink:href="#URWPalladioL-Roma-76" transform="translate(47.720295 0) scale(0.996264)"/>
      <use xlink:href="#URWPalladioL-Roma-65" transform="translate(104.008208 0) scale(0.996264)"/>
      <use xlink:href="#URWPalladioL-Roma-6e" transform="translate(151.728503 0) scale(0.996264)"/>
     </g>
    </g>
    <g id="line2d_117">
     <path d="M 58.440475 37.522438 
L 69.440475 37.522438 
L 80.440475 37.522438 
" style="fill: none; stroke: #bc141a; stroke-width: 3; stroke-linecap: square"/>
    </g>
    <g id="text_18">
     <!-- odd -->
     <g transform="translate(89.240475 41.372438) scale(0.11 -0.11)">
      <defs>
       <path id="URWPalladioL-Roma-6f" d="M 1786 3008 
C 851 3008 205 2347 205 1392 
C 205 487 774 -128 1600 -128 
C 2586 -128 3290 558 3290 1520 
C 3290 2386 2662 3008 1786 3008 
z
M 1670 2796 
C 2259 2796 2694 2155 2694 1283 
C 2694 545 2368 83 1850 83 
C 1222 83 800 699 800 1610 
C 800 2379 1107 2796 1670 2796 
z
" transform="scale(0.015625)"/>
       <path id="URWPalladioL-Roma-64" d="M 2637 2802 
C 2278 2956 2099 3008 1875 3008 
C 1702 3008 1549 2969 1389 2887 
L 826 2593 
C 461 2401 224 1935 224 1392 
C 224 881 397 460 710 204 
C 928 19 1229 -64 1645 -64 
C 1773 -64 1920 -38 1952 -13 
L 2662 583 
L 2630 -7 
C 2944 -7 3046 -7 3123 -7 
C 3174 -7 3264 -7 3398 -7 
C 3443 -7 3571 -7 3706 -7 
L 3706 192 
L 3411 192 
C 3194 192 3174 237 3174 643 
L 3174 4607 
L 3117 4659 
C 2835 4550 2624 4498 2118 4421 
L 2118 4242 
L 2477 4242 
C 2592 4242 2637 4171 2637 3978 
L 2637 2802 
z
M 2637 1424 
C 2637 1009 2624 946 2541 799 
C 2362 499 2048 302 1747 302 
C 1184 302 781 844 781 1603 
C 781 2298 1126 2706 1702 2706 
C 1946 2706 2202 2623 2426 2470 
C 2560 2381 2637 2298 2637 2246 
L 2637 1424 
z
" transform="scale(0.015625)"/>
      </defs>
      <use xlink:href="#URWPalladioL-Roma-6f" transform="scale(0.996264)"/>
      <use xlink:href="#URWPalladioL-Roma-64" transform="translate(54.39558 0) scale(0.996264)"/>
      <use xlink:href="#URWPalladioL-Roma-64" transform="translate(115.267211 0) scale(0.996264)"/>
     </g>
    </g>
   </g>
  </g>
 </g>
 <defs>
  <clipPath id="p50fb2f0577">
   <rect x="48.540475" y="7.2" width="446.4" height="332.64"/>
  </clipPath>
 </defs>
</svg>
