<?xml version="1.0" encoding="utf-8" standalone="no"?>
<!DOCTYPE svg PUBLIC "-//W3C//DTD SVG 1.1//EN"
  "http://www.w3.org/Graphics/SVG/1.1/DTD/svg11.dtd">
<svg xmlns:xlink="http://www.w3.org/1999/xlink" width="645.319325pt" height="392.371353pt" viewBox="0 0 645.319325 392.371353" xmlns="http://www.w3.org/2000/svg" version="1.1">
 <metadata>
  <rdf:RDF xmlns:dc="http://purl.org/dc/elements/1.1/" xmlns:cc="http://creativecommons.org/ns#" xmlns:rdf="http://www.w3.org/1999/02/22-rdf-syntax-ns#">
   <cc:Work>
    <dc:type rdf:resource="http://purl.org/dc/dcmitype/StillImage"/>
    <dc:date>2025-06-06T10:54:39.984911</dc:date>
    <dc:format>image/svg+xml</dc:format>
    <dc:creator>
     <cc:Agent>
      <dc:title>Matplotlib v3.7.1, https://matplotlib.org/</dc:title>
     </cc:Agent>
    </dc:creator>
   </cc:Work>
  </rdf:RDF>
 </metadata>
 <defs>
  <style type="text/css">*{stroke-linejoin: round; stroke-linecap: butt}</style>
 </defs>
 <g id="figure_1">
  <g id="patch_1">
   <path d="M 0 392.371353 
L 645.319325 392.371353 
L 645.319325 0 
L 0 0 
z
" style="fill: #ffffff"/>
  </g>
  <g id="axes_1">
   <g id="patch_2">
    <path d="M 80.119325 339.84 
L 638.119325 339.84 
L 638.119325 7.2 
L 80.119325 7.2 
z
" style="fill: #ffffff"/>
   </g>
   <g id="matplotlib.axis_1">
    <g id="xtick_1">
     <g id="line2d_1">
      <defs>
       <path id="me6aca5116c" d="M 0 0 
L 0 -3 
" style="stroke: #000000; stroke-width: 0.5"/>
      </defs>
      <g>
       <use xlink:href="#me6aca5116c" x="105.482962" y="339.84" style="stroke: #000000; stroke-width: 0.5"/>
      </g>
     </g>
     <g id="line2d_2">
      <defs>
       <path id="m62f6cff66e" d="M 0 0 
L 0 3 
" style="stroke: #000000; stroke-width: 0.5"/>
      </defs>
      <g>
       <use xlink:href="#m62f6cff66e" x="105.482962" y="7.2" style="stroke: #000000; stroke-width: 0.5"/>
      </g>
     </g>
     <g id="text_1">
      <!-- $\mathdefault{0}$ -->
      <g transform="translate(100.999774 356.170821) scale(0.18 -0.18)">
       <defs>
        <path id="URWPalladioL-Roma-30" d="M 1683 4416 
C 691 4416 186 3628 186 2077 
C 186 1326 320 680 544 366 
C 768 51 1126 -128 1523 -128 
C 2490 -128 2976 705 2976 2346 
C 2976 3749 2560 4416 1683 4416 
z
M 1568 4192 
C 2189 4192 2438 3564 2438 2025 
C 2438 661 2195 96 1606 96 
C 986 96 723 744 723 2308 
C 723 3660 960 4192 1568 4192 
z
" transform="scale(0.015625)"/>
       </defs>
       <use xlink:href="#URWPalladioL-Roma-30" transform="scale(0.996264)"/>
      </g>
     </g>
    </g>
    <g id="xtick_2">
     <g id="line2d_3">
      <g>
       <use xlink:href="#me6aca5116c" x="206.937507" y="339.84" style="stroke: #000000; stroke-width: 0.5"/>
      </g>
     </g>
     <g id="line2d_4">
      <g>
       <use xlink:href="#m62f6cff66e" x="206.937507" y="7.2" style="stroke: #000000; stroke-width: 0.5"/>
      </g>
     </g>
     <g id="text_2">
      <!-- $\mathdefault{20}$ -->
      <g transform="translate(197.971131 356.170821) scale(0.18 -0.18)">
       <defs>
        <path id="URWPalladioL-Roma-32" d="M 102 160 
L 102 0 
C 1299 0 1299 0 1530 0 
C 1760 0 1760 0 2995 0 
C 2982 125 2982 186 2982 269 
C 2982 348 2982 407 2995 539 
C 2259 539 1965 539 781 539 
L 1946 1761 
C 2566 2414 2758 2763 2758 3238 
C 2758 3966 2259 4416 1446 4416 
C 986 4416 672 4288 358 3969 
L 250 3099 
L 435 3099 
L 518 3393 
C 621 3763 851 3923 1280 3923 
C 1830 3923 2182 3577 2182 3035 
C 2182 2555 1914 2083 1190 1316 
L 102 160 
z
" transform="scale(0.015625)"/>
       </defs>
       <use xlink:href="#URWPalladioL-Roma-32" transform="scale(0.996264)"/>
       <use xlink:href="#URWPalladioL-Roma-30" transform="translate(49.8132 0) scale(0.996264)"/>
      </g>
     </g>
    </g>
    <g id="xtick_3">
     <g id="line2d_5">
      <g>
       <use xlink:href="#me6aca5116c" x="308.392053" y="339.84" style="stroke: #000000; stroke-width: 0.5"/>
      </g>
     </g>
     <g id="line2d_6">
      <g>
       <use xlink:href="#m62f6cff66e" x="308.392053" y="7.2" style="stroke: #000000; stroke-width: 0.5"/>
      </g>
     </g>
     <g id="text_3">
      <!-- $\mathdefault{40}$ -->
      <g transform="translate(299.425677 356.170821) scale(0.18 -0.18)">
       <defs>
        <path id="URWPalladioL-Roma-34" d="M 1792 1152 
L 1792 673 
C 1792 289 1722 199 1408 199 
L 1011 199 
L 1011 0 
C 1862 0 1862 0 2016 0 
C 2170 0 2170 0 3021 0 
L 3021 199 
L 2714 199 
C 2400 199 2330 282 2330 669 
L 2330 1152 
C 2707 1152 2842 1152 3021 1133 
L 3021 1588 
C 2720 1563 2598 1563 2502 1563 
L 2483 1563 
L 2330 1563 
L 2330 2457 
C 2330 3600 2342 4152 2374 4416 
L 2298 4448 
L 1824 4275 
L 13 1299 
L 83 1152 
L 1792 1152 
z
M 1792 1563 
L 416 1563 
L 1792 3826 
L 1792 1563 
z
" transform="scale(0.015625)"/>
       </defs>
       <use xlink:href="#URWPalladioL-Roma-34" transform="scale(0.996264)"/>
       <use xlink:href="#URWPalladioL-Roma-30" transform="translate(49.8132 0) scale(0.996264)"/>
      </g>
     </g>
    </g>
    <g id="xtick_4">
     <g id="line2d_7">
      <g>
       <use xlink:href="#me6aca5116c" x="409.846598" y="339.84" style="stroke: #000000; stroke-width: 0.5"/>
      </g>
     </g>
     <g id="line2d_8">
      <g>
       <use xlink:href="#m62f6cff66e" x="409.846598" y="7.2" style="stroke: #000000; stroke-width: 0.5"/>
      </g>
     </g>
     <g id="text_4">
      <!-- $\mathdefault{60}$ -->
      <g transform="translate(400.880222 356.170821) scale(0.18 -0.18)">
       <defs>
        <path id="URWPalladioL-Roma-36" d="M 2662 4310 
L 2426 4419 
C 1811 4214 1549 4086 1222 3804 
C 563 3246 205 2464 205 1585 
C 205 526 717 -128 1542 -128 
C 2374 -128 2995 532 2995 1405 
C 2995 2143 2554 2624 1875 2624 
C 1555 2624 1363 2540 986 2239 
C 915 2181 909 2175 838 2124 
C 973 3284 1510 3913 2662 4259 
L 2662 4310 
z
M 1632 2239 
C 2118 2239 2445 1816 2445 1181 
C 2445 513 2118 83 1626 83 
C 1082 83 787 551 787 1412 
C 787 1636 813 1758 883 1867 
C 1024 2085 1325 2239 1632 2239 
z
" transform="scale(0.015625)"/>
       </defs>
       <use xlink:href="#URWPalladioL-Roma-36" transform="scale(0.996264)"/>
       <use xlink:href="#URWPalladioL-Roma-30" transform="translate(49.8132 0) scale(0.996264)"/>
      </g>
     </g>
    </g>
    <g id="xtick_5">
     <g id="line2d_9">
      <g>
       <use xlink:href="#me6aca5116c" x="511.301144" y="339.84" style="stroke: #000000; stroke-width: 0.5"/>
      </g>
     </g>
     <g id="line2d_10">
      <g>
       <use xlink:href="#m62f6cff66e" x="511.301144" y="7.2" style="stroke: #000000; stroke-width: 0.5"/>
      </g>
     </g>
     <g id="text_5">
      <!-- $\mathdefault{80}$ -->
      <g transform="translate(502.334767 356.170821) scale(0.18 -0.18)">
       <defs>
        <path id="URWPalladioL-Roma-38" d="M 1075 2211 
C 813 2090 704 2019 563 1884 
C 320 1641 192 1352 192 1019 
C 192 359 723 -128 1446 -128 
C 2278 -128 2970 526 2970 1320 
C 2970 1833 2733 2109 2003 2442 
C 2586 2840 2790 3109 2790 3493 
C 2790 4044 2336 4416 1658 4416 
C 896 4416 339 3929 339 3257 
C 339 2821 512 2577 1075 2211 
z
M 1818 1891 
C 2221 1711 2464 1397 2464 1052 
C 2464 513 2061 90 1542 90 
C 998 90 646 475 646 1071 
C 646 1538 832 1833 1306 2122 
L 1818 1891 
z
M 1427 2712 
C 1024 2910 819 3167 819 3487 
C 819 3910 1126 4198 1581 4198 
C 2048 4198 2355 3891 2355 3422 
C 2355 3058 2195 2808 1779 2538 
L 1427 2712 
z
" transform="scale(0.015625)"/>
       </defs>
       <use xlink:href="#URWPalladioL-Roma-38" transform="scale(0.996264)"/>
       <use xlink:href="#URWPalladioL-Roma-30" transform="translate(49.8132 0) scale(0.996264)"/>
      </g>
     </g>
    </g>
    <g id="xtick_6">
     <g id="line2d_11">
      <g>
       <use xlink:href="#me6aca5116c" x="612.755689" y="339.84" style="stroke: #000000; stroke-width: 0.5"/>
      </g>
     </g>
     <g id="line2d_12">
      <g>
       <use xlink:href="#m62f6cff66e" x="612.755689" y="7.2" style="stroke: #000000; stroke-width: 0.5"/>
      </g>
     </g>
     <g id="text_6">
      <!-- $\mathdefault{100}$ -->
      <g transform="translate(599.306125 356.170821) scale(0.18 -0.18)">
       <defs>
        <path id="URWPalladioL-Roma-31" d="M 429 3584 
L 493 3584 
L 1318 3956 
C 1325 3962 1331 3962 1338 3962 
C 1376 3962 1389 3905 1389 3751 
L 1389 613 
C 1389 276 1318 205 973 205 
L 614 205 
L 614 0 
C 1600 0 1600 0 1670 0 
C 1754 0 1894 0 2112 0 
C 2189 0 2413 0 2675 0 
L 2675 205 
L 2342 205 
C 1990 205 1926 276 1926 612 
L 1926 4443 
L 1837 4475 
C 1421 4257 966 4065 384 3860 
L 429 3584 
z
" transform="scale(0.015625)"/>
       </defs>
       <use xlink:href="#URWPalladioL-Roma-31" transform="scale(0.996264)"/>
       <use xlink:href="#URWPalladioL-Roma-30" transform="translate(49.8132 0) scale(0.996264)"/>
       <use xlink:href="#URWPalladioL-Roma-30" transform="translate(99.626401 0) scale(0.996264)"/>
      </g>
     </g>
    </g>
    <g id="xtick_7">
     <g id="line2d_13">
      <defs>
       <path id="m73c634ea0e" d="M 0 0 
L 0 -1.5 
" style="stroke: #000000; stroke-width: 0.5"/>
      </defs>
      <g>
       <use xlink:href="#m73c634ea0e" x="130.846598" y="339.84" style="stroke: #000000; stroke-width: 0.5"/>
      </g>
     </g>
     <g id="line2d_14">
      <defs>
       <path id="m002402ec16" d="M 0 0 
L 0 1.5 
" style="stroke: #000000; stroke-width: 0.5"/>
      </defs>
      <g>
       <use xlink:href="#m002402ec16" x="130.846598" y="7.2" style="stroke: #000000; stroke-width: 0.5"/>
      </g>
     </g>
    </g>
    <g id="xtick_8">
     <g id="line2d_15">
      <g>
       <use xlink:href="#m73c634ea0e" x="156.210234" y="339.84" style="stroke: #000000; stroke-width: 0.5"/>
      </g>
     </g>
     <g id="line2d_16">
      <g>
       <use xlink:href="#m002402ec16" x="156.210234" y="7.2" style="stroke: #000000; stroke-width: 0.5"/>
      </g>
     </g>
    </g>
    <g id="xtick_9">
     <g id="line2d_17">
      <g>
       <use xlink:href="#m73c634ea0e" x="181.573871" y="339.84" style="stroke: #000000; stroke-width: 0.5"/>
      </g>
     </g>
     <g id="line2d_18">
      <g>
       <use xlink:href="#m002402ec16" x="181.573871" y="7.2" style="stroke: #000000; stroke-width: 0.5"/>
      </g>
     </g>
    </g>
    <g id="xtick_10">
     <g id="line2d_19">
      <g>
       <use xlink:href="#m73c634ea0e" x="232.301144" y="339.84" style="stroke: #000000; stroke-width: 0.5"/>
      </g>
     </g>
     <g id="line2d_20">
      <g>
       <use xlink:href="#m002402ec16" x="232.301144" y="7.2" style="stroke: #000000; stroke-width: 0.5"/>
      </g>
     </g>
    </g>
    <g id="xtick_11">
     <g id="line2d_21">
      <g>
       <use xlink:href="#m73c634ea0e" x="257.66478" y="339.84" style="stroke: #000000; stroke-width: 0.5"/>
      </g>
     </g>
     <g id="line2d_22">
      <g>
       <use xlink:href="#m002402ec16" x="257.66478" y="7.2" style="stroke: #000000; stroke-width: 0.5"/>
      </g>
     </g>
    </g>
    <g id="xtick_12">
     <g id="line2d_23">
      <g>
       <use xlink:href="#m73c634ea0e" x="283.028416" y="339.84" style="stroke: #000000; stroke-width: 0.5"/>
      </g>
     </g>
     <g id="line2d_24">
      <g>
       <use xlink:href="#m002402ec16" x="283.028416" y="7.2" style="stroke: #000000; stroke-width: 0.5"/>
      </g>
     </g>
    </g>
    <g id="xtick_13">
     <g id="line2d_25">
      <g>
       <use xlink:href="#m73c634ea0e" x="333.755689" y="339.84" style="stroke: #000000; stroke-width: 0.5"/>
      </g>
     </g>
     <g id="line2d_26">
      <g>
       <use xlink:href="#m002402ec16" x="333.755689" y="7.2" style="stroke: #000000; stroke-width: 0.5"/>
      </g>
     </g>
    </g>
    <g id="xtick_14">
     <g id="line2d_27">
      <g>
       <use xlink:href="#m73c634ea0e" x="359.119325" y="339.84" style="stroke: #000000; stroke-width: 0.5"/>
      </g>
     </g>
     <g id="line2d_28">
      <g>
       <use xlink:href="#m002402ec16" x="359.119325" y="7.2" style="stroke: #000000; stroke-width: 0.5"/>
      </g>
     </g>
    </g>
    <g id="xtick_15">
     <g id="line2d_29">
      <g>
       <use xlink:href="#m73c634ea0e" x="384.482962" y="339.84" style="stroke: #000000; stroke-width: 0.5"/>
      </g>
     </g>
     <g id="line2d_30">
      <g>
       <use xlink:href="#m002402ec16" x="384.482962" y="7.2" style="stroke: #000000; stroke-width: 0.5"/>
      </g>
     </g>
    </g>
    <g id="xtick_16">
     <g id="line2d_31">
      <g>
       <use xlink:href="#m73c634ea0e" x="435.210234" y="339.84" style="stroke: #000000; stroke-width: 0.5"/>
      </g>
     </g>
     <g id="line2d_32">
      <g>
       <use xlink:href="#m002402ec16" x="435.210234" y="7.2" style="stroke: #000000; stroke-width: 0.5"/>
      </g>
     </g>
    </g>
    <g id="xtick_17">
     <g id="line2d_33">
      <g>
       <use xlink:href="#m73c634ea0e" x="460.573871" y="339.84" style="stroke: #000000; stroke-width: 0.5"/>
      </g>
     </g>
     <g id="line2d_34">
      <g>
       <use xlink:href="#m002402ec16" x="460.573871" y="7.2" style="stroke: #000000; stroke-width: 0.5"/>
      </g>
     </g>
    </g>
    <g id="xtick_18">
     <g id="line2d_35">
      <g>
       <use xlink:href="#m73c634ea0e" x="485.937507" y="339.84" style="stroke: #000000; stroke-width: 0.5"/>
      </g>
     </g>
     <g id="line2d_36">
      <g>
       <use xlink:href="#m002402ec16" x="485.937507" y="7.2" style="stroke: #000000; stroke-width: 0.5"/>
      </g>
     </g>
    </g>
    <g id="xtick_19">
     <g id="line2d_37">
      <g>
       <use xlink:href="#m73c634ea0e" x="536.66478" y="339.84" style="stroke: #000000; stroke-width: 0.5"/>
      </g>
     </g>
     <g id="line2d_38">
      <g>
       <use xlink:href="#m002402ec16" x="536.66478" y="7.2" style="stroke: #000000; stroke-width: 0.5"/>
      </g>
     </g>
    </g>
    <g id="xtick_20">
     <g id="line2d_39">
      <g>
       <use xlink:href="#m73c634ea0e" x="562.028416" y="339.84" style="stroke: #000000; stroke-width: 0.5"/>
      </g>
     </g>
     <g id="line2d_40">
      <g>
       <use xlink:href="#m002402ec16" x="562.028416" y="7.2" style="stroke: #000000; stroke-width: 0.5"/>
      </g>
     </g>
    </g>
    <g id="xtick_21">
     <g id="line2d_41">
      <g>
       <use xlink:href="#m73c634ea0e" x="587.392053" y="339.84" style="stroke: #000000; stroke-width: 0.5"/>
      </g>
     </g>
     <g id="line2d_42">
      <g>
       <use xlink:href="#m002402ec16" x="587.392053" y="7.2" style="stroke: #000000; stroke-width: 0.5"/>
      </g>
     </g>
    </g>
    <g id="xtick_22">
     <g id="line2d_43">
      <g>
       <use xlink:href="#m73c634ea0e" x="638.119325" y="339.84" style="stroke: #000000; stroke-width: 0.5"/>
      </g>
     </g>
     <g id="line2d_44">
      <g>
       <use xlink:href="#m002402ec16" x="638.119325" y="7.2" style="stroke: #000000; stroke-width: 0.5"/>
      </g>
     </g>
    </g>
    <g id="text_7">
     <!-- $z$ [Å] -->
     <g transform="translate(337.694838 379.552531) scale(0.2 -0.2)">
      <defs>
       <path id="URWPalladioL-Ital-7a" d="M -6 140 
L 51 -32 
C 237 114 410 172 634 172 
C 794 172 973 140 1306 63 
C 1690 -32 1888 -64 2061 -64 
C 2138 -64 2195 -51 2381 0 
C 2451 395 2502 610 2573 910 
L 2432 910 
L 2291 529 
C 2253 414 2176 369 2042 369 
C 1965 369 1862 382 1728 414 
L 1613 439 
C 1402 484 1184 516 1062 516 
C 858 516 685 478 454 382 
L 2624 2812 
L 2662 3014 
L 2605 3072 
L 2458 2925 
C 2394 2861 2330 2836 2240 2836 
C 2022 2836 1690 2887 1382 2970 
L 1267 3002 
C 1088 3046 960 3072 870 3072 
C 762 3072 634 3053 480 3008 
L 275 2232 
L 410 2232 
L 602 2600 
C 710 2626 768 2632 851 2632 
C 941 2632 1011 2626 1139 2600 
C 1357 2556 1523 2536 1658 2536 
C 1888 2536 2042 2575 2253 2683 
L -6 140 
z
" transform="scale(0.015625)"/>
       <path id="URWPalladioL-Roma-5b" d="M 563 -1152 
C 1018 -1152 1030 -1152 1184 -1152 
C 1338 -1152 1370 -1152 1805 -1152 
L 1843 -1120 
L 1843 -953 
L 1818 -921 
L 1574 -921 
C 1402 -921 1261 -882 1184 -818 
C 1126 -760 1107 -671 1107 -459 
C 1107 -453 1107 -318 1101 -125 
L 1101 112 
L 1101 3409 
L 1101 3646 
C 1107 3826 1107 3967 1107 3973 
C 1107 4185 1126 4281 1184 4339 
C 1261 4403 1402 4441 1574 4441 
L 1818 4441 
L 1843 4473 
L 1843 4640 
L 1805 4672 
C 1357 4672 1338 4672 1184 4672 
C 1037 4672 1005 4672 563 4672 
L 506 4595 
C 544 4435 557 4223 557 3730 
C 557 3633 557 3556 563 3492 
L 563 3409 
L 563 112 
L 563 28 
C 557 -74 557 -81 557 -190 
L 557 -260 
C 557 -696 544 -876 506 -1075 
L 563 -1152 
z
" transform="scale(0.015625)"/>
       <path id="URWPalladioL-Roma-9" d="M 1082 4544 
C 717 4544 429 4263 429 3910 
C 429 3546 710 3264 1069 3264 
C 1421 3264 1709 3546 1709 3905 
C 1709 4256 1421 4544 1082 4544 
z
M 1075 4313 
C 1306 4313 1466 4147 1466 3905 
C 1466 3661 1306 3495 1069 3495 
C 826 3495 672 3655 672 3910 
C 672 4154 832 4313 1075 4313 
z
" transform="scale(0.015625)"/>
       <path id="URWPalladioL-Roma-41" d="M 2611 4512 
L 2406 4512 
C 2291 4235 2195 3998 2157 3902 
L 1818 3124 
L 678 522 
C 602 335 474 219 333 206 
L 96 187 
L 96 0 
C 691 0 691 0 794 0 
C 877 0 877 0 1568 0 
L 1568 187 
L 1331 206 
C 1107 226 1024 270 1024 371 
C 1024 454 1114 727 1248 1046 
L 1427 1472 
L 3270 1472 
L 3565 733 
C 3674 463 3699 379 3699 322 
C 3699 251 3597 206 3437 193 
L 3136 193 
L 3136 0 
C 3923 0 3923 0 4026 0 
C 4147 0 4147 0 4838 0 
L 4838 187 
L 4621 206 
C 4454 232 4384 341 4160 861 
L 2611 4512 
z
M 1536 1728 
L 2349 3653 
L 3155 1728 
L 1536 1728 
z
" transform="scale(0.015625)"/>
       <path id="URWPalladioL-Roma-5d" d="M 1568 4672 
C 1114 4672 1094 4672 947 4672 
C 794 4672 762 4672 326 4672 
L 288 4640 
L 288 4473 
L 314 4441 
L 557 4441 
C 730 4441 864 4403 941 4339 
C 1005 4281 1024 4191 1024 3973 
C 1024 3954 1024 3826 1030 3646 
L 1030 3409 
L 1030 112 
L 1030 -125 
C 1024 -311 1024 -427 1024 -446 
C 1024 -664 1005 -760 941 -818 
C 864 -882 730 -921 557 -921 
L 314 -921 
L 288 -953 
L 288 -1120 
L 326 -1152 
C 774 -1152 787 -1152 947 -1152 
C 1094 -1152 1126 -1152 1568 -1152 
L 1626 -1075 
C 1587 -921 1581 -722 1574 -228 
C 1574 -138 1574 -55 1568 28 
L 1568 112 
L 1568 3409 
L 1568 3492 
C 1574 3563 1574 3646 1574 3736 
C 1574 4230 1587 4441 1626 4595 
L 1568 4672 
z
" transform="scale(0.015625)"/>
      </defs>
      <use xlink:href="#URWPalladioL-Ital-7a" transform="scale(0.996264)"/>
      <use xlink:href="#URWPalladioL-Roma-5b" transform="translate(70.386061 0) scale(0.996264)"/>
      <use xlink:href="#URWPalladioL-Roma-9" transform="translate(125.678076 15.285499) scale(0.996264)"/>
      <use xlink:href="#URWPalladioL-Roma-41" transform="translate(103.561291 0) scale(0.996264)"/>
      <use xlink:href="#URWPalladioL-Roma-5d" transform="translate(181.069661 0) scale(0.996264)"/>
     </g>
    </g>
   </g>
   <g id="matplotlib.axis_2">
    <g id="ytick_1">
     <g id="line2d_45">
      <defs>
       <path id="m5c39e66250" d="M 0 0 
L 3 0 
" style="stroke: #000000; stroke-width: 0.5"/>
      </defs>
      <g>
       <use xlink:href="#m5c39e66250" x="80.119325" y="324.720001" style="stroke: #000000; stroke-width: 0.5"/>
      </g>
     </g>
     <g id="line2d_46">
      <defs>
       <path id="mb48f30e6cd" d="M 0 0 
L -3 0 
" style="stroke: #000000; stroke-width: 0.5"/>
      </defs>
      <g>
       <use xlink:href="#mb48f30e6cd" x="638.119325" y="324.720001" style="stroke: #000000; stroke-width: 0.5"/>
      </g>
     </g>
     <g id="text_8">
      <!-- $\mathdefault{0.00}$ -->
      <g transform="translate(45.237009 331.135412) scale(0.18 -0.18)">
       <defs>
        <path id="URWPalladioL-Roma-2e" d="M 794 744 
C 602 744 429 564 429 372 
C 429 179 602 0 787 0 
C 992 0 1171 173 1171 372 
C 1171 564 992 744 794 744 
z
" transform="scale(0.015625)"/>
       </defs>
       <use xlink:href="#URWPalladioL-Roma-30" transform="scale(0.996264)"/>
       <use xlink:href="#URWPalladioL-Roma-2e" transform="translate(49.8132 0) scale(0.996264)"/>
       <use xlink:href="#URWPalladioL-Roma-30" transform="translate(74.719801 0) scale(0.996264)"/>
       <use xlink:href="#URWPalladioL-Roma-30" transform="translate(124.533001 0) scale(0.996264)"/>
      </g>
     </g>
    </g>
    <g id="ytick_2">
     <g id="line2d_47">
      <g>
       <use xlink:href="#m5c39e66250" x="80.119325" y="278.625921" style="stroke: #000000; stroke-width: 0.5"/>
      </g>
     </g>
     <g id="line2d_48">
      <g>
       <use xlink:href="#mb48f30e6cd" x="638.119325" y="278.625921" style="stroke: #000000; stroke-width: 0.5"/>
      </g>
     </g>
     <g id="text_9">
      <!-- $\mathdefault{0.01}$ -->
      <g transform="translate(45.237009 285.041331) scale(0.18 -0.18)">
       <use xlink:href="#URWPalladioL-Roma-30" transform="scale(0.996264)"/>
       <use xlink:href="#URWPalladioL-Roma-2e" transform="translate(49.8132 0) scale(0.996264)"/>
       <use xlink:href="#URWPalladioL-Roma-30" transform="translate(74.719801 0) scale(0.996264)"/>
       <use xlink:href="#URWPalladioL-Roma-31" transform="translate(124.533001 0) scale(0.996264)"/>
      </g>
     </g>
    </g>
    <g id="ytick_3">
     <g id="line2d_49">
      <g>
       <use xlink:href="#m5c39e66250" x="80.119325" y="232.53184" style="stroke: #000000; stroke-width: 0.5"/>
      </g>
     </g>
     <g id="line2d_50">
      <g>
       <use xlink:href="#mb48f30e6cd" x="638.119325" y="232.53184" style="stroke: #000000; stroke-width: 0.5"/>
      </g>
     </g>
     <g id="text_10">
      <!-- $\mathdefault{0.02}$ -->
      <g transform="translate(45.237009 238.947251) scale(0.18 -0.18)">
       <use xlink:href="#URWPalladioL-Roma-30" transform="scale(0.996264)"/>
       <use xlink:href="#URWPalladioL-Roma-2e" transform="translate(49.8132 0) scale(0.996264)"/>
       <use xlink:href="#URWPalladioL-Roma-30" transform="translate(74.719801 0) scale(0.996264)"/>
       <use xlink:href="#URWPalladioL-Roma-32" transform="translate(124.533001 0) scale(0.996264)"/>
      </g>
     </g>
    </g>
    <g id="ytick_4">
     <g id="line2d_51">
      <g>
       <use xlink:href="#m5c39e66250" x="80.119325" y="186.43776" style="stroke: #000000; stroke-width: 0.5"/>
      </g>
     </g>
     <g id="line2d_52">
      <g>
       <use xlink:href="#mb48f30e6cd" x="638.119325" y="186.43776" style="stroke: #000000; stroke-width: 0.5"/>
      </g>
     </g>
     <g id="text_11">
      <!-- $\mathdefault{0.03}$ -->
      <g transform="translate(45.237009 192.853171) scale(0.18 -0.18)">
       <defs>
        <path id="URWPalladioL-Roma-33" d="M 275 3197 
L 474 3197 
L 589 3554 
C 659 3770 1062 3987 1395 3987 
C 1811 3987 2150 3649 2150 3248 
C 2150 2770 1773 2368 1318 2368 
C 1267 2368 1197 2368 1114 2381 
L 1018 2381 
L 941 2047 
L 986 2008 
C 1229 2118 1350 2150 1523 2150 
C 2054 2150 2362 1809 2362 1222 
C 2362 566 1971 135 1376 135 
C 1082 135 819 231 627 411 
C 474 553 390 701 269 1049 
L 96 985 
C 230 593 282 361 320 39 
C 659 -77 941 -128 1178 -128 
C 1690 -128 2278 161 2630 593 
C 2848 857 2957 1140 2957 1442 
C 2957 1751 2829 2022 2598 2182 
C 2438 2298 2291 2350 1971 2407 
C 2483 2803 2675 3096 2675 3472 
C 2675 4040 2202 4416 1491 4416 
C 1056 4416 768 4295 461 3989 
L 275 3197 
z
" transform="scale(0.015625)"/>
       </defs>
       <use xlink:href="#URWPalladioL-Roma-30" transform="scale(0.996264)"/>
       <use xlink:href="#URWPalladioL-Roma-2e" transform="translate(49.8132 0) scale(0.996264)"/>
       <use xlink:href="#URWPalladioL-Roma-30" transform="translate(74.719801 0) scale(0.996264)"/>
       <use xlink:href="#URWPalladioL-Roma-33" transform="translate(124.533001 0) scale(0.996264)"/>
      </g>
     </g>
    </g>
    <g id="ytick_5">
     <g id="line2d_53">
      <g>
       <use xlink:href="#m5c39e66250" x="80.119325" y="140.34368" style="stroke: #000000; stroke-width: 0.5"/>
      </g>
     </g>
     <g id="line2d_54">
      <g>
       <use xlink:href="#mb48f30e6cd" x="638.119325" y="140.34368" style="stroke: #000000; stroke-width: 0.5"/>
      </g>
     </g>
     <g id="text_12">
      <!-- $\mathdefault{0.04}$ -->
      <g transform="translate(45.237009 146.75909) scale(0.18 -0.18)">
       <use xlink:href="#URWPalladioL-Roma-30" transform="scale(0.996264)"/>
       <use xlink:href="#URWPalladioL-Roma-2e" transform="translate(49.8132 0) scale(0.996264)"/>
       <use xlink:href="#URWPalladioL-Roma-30" transform="translate(74.719801 0) scale(0.996264)"/>
       <use xlink:href="#URWPalladioL-Roma-34" transform="translate(124.533001 0) scale(0.996264)"/>
      </g>
     </g>
    </g>
    <g id="ytick_6">
     <g id="line2d_55">
      <g>
       <use xlink:href="#m5c39e66250" x="80.119325" y="94.249599" style="stroke: #000000; stroke-width: 0.5"/>
      </g>
     </g>
     <g id="line2d_56">
      <g>
       <use xlink:href="#mb48f30e6cd" x="638.119325" y="94.249599" style="stroke: #000000; stroke-width: 0.5"/>
      </g>
     </g>
     <g id="text_13">
      <!-- $\mathdefault{0.05}$ -->
      <g transform="translate(45.237009 100.66501) scale(0.18 -0.18)">
       <defs>
        <path id="URWPalladioL-Roma-35" d="M 813 3877 
C 1638 3877 1997 3877 2765 3877 
L 2797 3907 
C 2784 4016 2784 4064 2784 4144 
C 2784 4229 2784 4277 2797 4386 
L 2765 4416 
C 2285 4416 1997 4416 1651 4416 
C 1299 4416 1018 4416 538 4416 
L 506 4403 
C 512 4011 518 3729 518 3523 
C 518 2977 499 2360 480 2077 
L 608 2038 
C 909 2341 1082 2432 1395 2432 
C 2010 2432 2394 1993 2394 1296 
C 2394 580 1984 160 1286 160 
C 941 160 621 277 531 444 
L 237 973 
L 83 883 
C 230 516 307 310 397 27 
C 576 -71 832 -128 1107 -128 
C 1536 -128 1990 59 2342 368 
C 2733 716 2938 1154 2938 1630 
C 2938 2359 2419 2874 1690 2874 
C 1382 2874 1152 2791 755 2554 
L 813 3877 
z
" transform="scale(0.015625)"/>
       </defs>
       <use xlink:href="#URWPalladioL-Roma-30" transform="scale(0.996264)"/>
       <use xlink:href="#URWPalladioL-Roma-2e" transform="translate(49.8132 0) scale(0.996264)"/>
       <use xlink:href="#URWPalladioL-Roma-30" transform="translate(74.719801 0) scale(0.996264)"/>
       <use xlink:href="#URWPalladioL-Roma-35" transform="translate(124.533001 0) scale(0.996264)"/>
      </g>
     </g>
    </g>
    <g id="ytick_7">
     <g id="line2d_57">
      <g>
       <use xlink:href="#m5c39e66250" x="80.119325" y="48.155519" style="stroke: #000000; stroke-width: 0.5"/>
      </g>
     </g>
     <g id="line2d_58">
      <g>
       <use xlink:href="#mb48f30e6cd" x="638.119325" y="48.155519" style="stroke: #000000; stroke-width: 0.5"/>
      </g>
     </g>
     <g id="text_14">
      <!-- $\mathdefault{0.06}$ -->
      <g transform="translate(45.237009 54.570929) scale(0.18 -0.18)">
       <use xlink:href="#URWPalladioL-Roma-30" transform="scale(0.996264)"/>
       <use xlink:href="#URWPalladioL-Roma-2e" transform="translate(49.8132 0) scale(0.996264)"/>
       <use xlink:href="#URWPalladioL-Roma-30" transform="translate(74.719801 0) scale(0.996264)"/>
       <use xlink:href="#URWPalladioL-Roma-36" transform="translate(124.533001 0) scale(0.996264)"/>
      </g>
     </g>
    </g>
    <g id="ytick_8">
     <g id="line2d_59">
      <defs>
       <path id="m4bf9d118c6" d="M 0 0 
L 1.5 0 
" style="stroke: #000000; stroke-width: 0.5"/>
      </defs>
      <g>
       <use xlink:href="#m4bf9d118c6" x="80.119325" y="333.938817" style="stroke: #000000; stroke-width: 0.5"/>
      </g>
     </g>
     <g id="line2d_60">
      <defs>
       <path id="ma6f5478692" d="M 0 0 
L -1.5 0 
" style="stroke: #000000; stroke-width: 0.5"/>
      </defs>
      <g>
       <use xlink:href="#ma6f5478692" x="638.119325" y="333.938817" style="stroke: #000000; stroke-width: 0.5"/>
      </g>
     </g>
    </g>
    <g id="ytick_9">
     <g id="line2d_61">
      <g>
       <use xlink:href="#m4bf9d118c6" x="80.119325" y="315.501185" style="stroke: #000000; stroke-width: 0.5"/>
      </g>
     </g>
     <g id="line2d_62">
      <g>
       <use xlink:href="#ma6f5478692" x="638.119325" y="315.501185" style="stroke: #000000; stroke-width: 0.5"/>
      </g>
     </g>
    </g>
    <g id="ytick_10">
     <g id="line2d_63">
      <g>
       <use xlink:href="#m4bf9d118c6" x="80.119325" y="306.282369" style="stroke: #000000; stroke-width: 0.5"/>
      </g>
     </g>
     <g id="line2d_64">
      <g>
       <use xlink:href="#ma6f5478692" x="638.119325" y="306.282369" style="stroke: #000000; stroke-width: 0.5"/>
      </g>
     </g>
    </g>
    <g id="ytick_11">
     <g id="line2d_65">
      <g>
       <use xlink:href="#m4bf9d118c6" x="80.119325" y="297.063553" style="stroke: #000000; stroke-width: 0.5"/>
      </g>
     </g>
     <g id="line2d_66">
      <g>
       <use xlink:href="#ma6f5478692" x="638.119325" y="297.063553" style="stroke: #000000; stroke-width: 0.5"/>
      </g>
     </g>
    </g>
    <g id="ytick_12">
     <g id="line2d_67">
      <g>
       <use xlink:href="#m4bf9d118c6" x="80.119325" y="287.844737" style="stroke: #000000; stroke-width: 0.5"/>
      </g>
     </g>
     <g id="line2d_68">
      <g>
       <use xlink:href="#ma6f5478692" x="638.119325" y="287.844737" style="stroke: #000000; stroke-width: 0.5"/>
      </g>
     </g>
    </g>
    <g id="ytick_13">
     <g id="line2d_69">
      <g>
       <use xlink:href="#m4bf9d118c6" x="80.119325" y="269.407105" style="stroke: #000000; stroke-width: 0.5"/>
      </g>
     </g>
     <g id="line2d_70">
      <g>
       <use xlink:href="#ma6f5478692" x="638.119325" y="269.407105" style="stroke: #000000; stroke-width: 0.5"/>
      </g>
     </g>
    </g>
    <g id="ytick_14">
     <g id="line2d_71">
      <g>
       <use xlink:href="#m4bf9d118c6" x="80.119325" y="260.188289" style="stroke: #000000; stroke-width: 0.5"/>
      </g>
     </g>
     <g id="line2d_72">
      <g>
       <use xlink:href="#ma6f5478692" x="638.119325" y="260.188289" style="stroke: #000000; stroke-width: 0.5"/>
      </g>
     </g>
    </g>
    <g id="ytick_15">
     <g id="line2d_73">
      <g>
       <use xlink:href="#m4bf9d118c6" x="80.119325" y="250.969473" style="stroke: #000000; stroke-width: 0.5"/>
      </g>
     </g>
     <g id="line2d_74">
      <g>
       <use xlink:href="#ma6f5478692" x="638.119325" y="250.969473" style="stroke: #000000; stroke-width: 0.5"/>
      </g>
     </g>
    </g>
    <g id="ytick_16">
     <g id="line2d_75">
      <g>
       <use xlink:href="#m4bf9d118c6" x="80.119325" y="241.750656" style="stroke: #000000; stroke-width: 0.5"/>
      </g>
     </g>
     <g id="line2d_76">
      <g>
       <use xlink:href="#ma6f5478692" x="638.119325" y="241.750656" style="stroke: #000000; stroke-width: 0.5"/>
      </g>
     </g>
    </g>
    <g id="ytick_17">
     <g id="line2d_77">
      <g>
       <use xlink:href="#m4bf9d118c6" x="80.119325" y="223.313024" style="stroke: #000000; stroke-width: 0.5"/>
      </g>
     </g>
     <g id="line2d_78">
      <g>
       <use xlink:href="#ma6f5478692" x="638.119325" y="223.313024" style="stroke: #000000; stroke-width: 0.5"/>
      </g>
     </g>
    </g>
    <g id="ytick_18">
     <g id="line2d_79">
      <g>
       <use xlink:href="#m4bf9d118c6" x="80.119325" y="214.094208" style="stroke: #000000; stroke-width: 0.5"/>
      </g>
     </g>
     <g id="line2d_80">
      <g>
       <use xlink:href="#ma6f5478692" x="638.119325" y="214.094208" style="stroke: #000000; stroke-width: 0.5"/>
      </g>
     </g>
    </g>
    <g id="ytick_19">
     <g id="line2d_81">
      <g>
       <use xlink:href="#m4bf9d118c6" x="80.119325" y="204.875392" style="stroke: #000000; stroke-width: 0.5"/>
      </g>
     </g>
     <g id="line2d_82">
      <g>
       <use xlink:href="#ma6f5478692" x="638.119325" y="204.875392" style="stroke: #000000; stroke-width: 0.5"/>
      </g>
     </g>
    </g>
    <g id="ytick_20">
     <g id="line2d_83">
      <g>
       <use xlink:href="#m4bf9d118c6" x="80.119325" y="195.656576" style="stroke: #000000; stroke-width: 0.5"/>
      </g>
     </g>
     <g id="line2d_84">
      <g>
       <use xlink:href="#ma6f5478692" x="638.119325" y="195.656576" style="stroke: #000000; stroke-width: 0.5"/>
      </g>
     </g>
    </g>
    <g id="ytick_21">
     <g id="line2d_85">
      <g>
       <use xlink:href="#m4bf9d118c6" x="80.119325" y="177.218944" style="stroke: #000000; stroke-width: 0.5"/>
      </g>
     </g>
     <g id="line2d_86">
      <g>
       <use xlink:href="#ma6f5478692" x="638.119325" y="177.218944" style="stroke: #000000; stroke-width: 0.5"/>
      </g>
     </g>
    </g>
    <g id="ytick_22">
     <g id="line2d_87">
      <g>
       <use xlink:href="#m4bf9d118c6" x="80.119325" y="168.000128" style="stroke: #000000; stroke-width: 0.5"/>
      </g>
     </g>
     <g id="line2d_88">
      <g>
       <use xlink:href="#ma6f5478692" x="638.119325" y="168.000128" style="stroke: #000000; stroke-width: 0.5"/>
      </g>
     </g>
    </g>
    <g id="ytick_23">
     <g id="line2d_89">
      <g>
       <use xlink:href="#m4bf9d118c6" x="80.119325" y="158.781312" style="stroke: #000000; stroke-width: 0.5"/>
      </g>
     </g>
     <g id="line2d_90">
      <g>
       <use xlink:href="#ma6f5478692" x="638.119325" y="158.781312" style="stroke: #000000; stroke-width: 0.5"/>
      </g>
     </g>
    </g>
    <g id="ytick_24">
     <g id="line2d_91">
      <g>
       <use xlink:href="#m4bf9d118c6" x="80.119325" y="149.562496" style="stroke: #000000; stroke-width: 0.5"/>
      </g>
     </g>
     <g id="line2d_92">
      <g>
       <use xlink:href="#ma6f5478692" x="638.119325" y="149.562496" style="stroke: #000000; stroke-width: 0.5"/>
      </g>
     </g>
    </g>
    <g id="ytick_25">
     <g id="line2d_93">
      <g>
       <use xlink:href="#m4bf9d118c6" x="80.119325" y="131.124863" style="stroke: #000000; stroke-width: 0.5"/>
      </g>
     </g>
     <g id="line2d_94">
      <g>
       <use xlink:href="#ma6f5478692" x="638.119325" y="131.124863" style="stroke: #000000; stroke-width: 0.5"/>
      </g>
     </g>
    </g>
    <g id="ytick_26">
     <g id="line2d_95">
      <g>
       <use xlink:href="#m4bf9d118c6" x="80.119325" y="121.906047" style="stroke: #000000; stroke-width: 0.5"/>
      </g>
     </g>
     <g id="line2d_96">
      <g>
       <use xlink:href="#ma6f5478692" x="638.119325" y="121.906047" style="stroke: #000000; stroke-width: 0.5"/>
      </g>
     </g>
    </g>
    <g id="ytick_27">
     <g id="line2d_97">
      <g>
       <use xlink:href="#m4bf9d118c6" x="80.119325" y="112.687231" style="stroke: #000000; stroke-width: 0.5"/>
      </g>
     </g>
     <g id="line2d_98">
      <g>
       <use xlink:href="#ma6f5478692" x="638.119325" y="112.687231" style="stroke: #000000; stroke-width: 0.5"/>
      </g>
     </g>
    </g>
    <g id="ytick_28">
     <g id="line2d_99">
      <g>
       <use xlink:href="#m4bf9d118c6" x="80.119325" y="103.468415" style="stroke: #000000; stroke-width: 0.5"/>
      </g>
     </g>
     <g id="line2d_100">
      <g>
       <use xlink:href="#ma6f5478692" x="638.119325" y="103.468415" style="stroke: #000000; stroke-width: 0.5"/>
      </g>
     </g>
    </g>
    <g id="ytick_29">
     <g id="line2d_101">
      <g>
       <use xlink:href="#m4bf9d118c6" x="80.119325" y="85.030783" style="stroke: #000000; stroke-width: 0.5"/>
      </g>
     </g>
     <g id="line2d_102">
      <g>
       <use xlink:href="#ma6f5478692" x="638.119325" y="85.030783" style="stroke: #000000; stroke-width: 0.5"/>
      </g>
     </g>
    </g>
    <g id="ytick_30">
     <g id="line2d_103">
      <g>
       <use xlink:href="#m4bf9d118c6" x="80.119325" y="75.811967" style="stroke: #000000; stroke-width: 0.5"/>
      </g>
     </g>
     <g id="line2d_104">
      <g>
       <use xlink:href="#ma6f5478692" x="638.119325" y="75.811967" style="stroke: #000000; stroke-width: 0.5"/>
      </g>
     </g>
    </g>
    <g id="ytick_31">
     <g id="line2d_105">
      <g>
       <use xlink:href="#m4bf9d118c6" x="80.119325" y="66.593151" style="stroke: #000000; stroke-width: 0.5"/>
      </g>
     </g>
     <g id="line2d_106">
      <g>
       <use xlink:href="#ma6f5478692" x="638.119325" y="66.593151" style="stroke: #000000; stroke-width: 0.5"/>
      </g>
     </g>
    </g>
    <g id="ytick_32">
     <g id="line2d_107">
      <g>
       <use xlink:href="#m4bf9d118c6" x="80.119325" y="57.374335" style="stroke: #000000; stroke-width: 0.5"/>
      </g>
     </g>
     <g id="line2d_108">
      <g>
       <use xlink:href="#ma6f5478692" x="638.119325" y="57.374335" style="stroke: #000000; stroke-width: 0.5"/>
      </g>
     </g>
    </g>
    <g id="ytick_33">
     <g id="line2d_109">
      <g>
       <use xlink:href="#m4bf9d118c6" x="80.119325" y="38.936703" style="stroke: #000000; stroke-width: 0.5"/>
      </g>
     </g>
     <g id="line2d_110">
      <g>
       <use xlink:href="#ma6f5478692" x="638.119325" y="38.936703" style="stroke: #000000; stroke-width: 0.5"/>
      </g>
     </g>
    </g>
    <g id="ytick_34">
     <g id="line2d_111">
      <g>
       <use xlink:href="#m4bf9d118c6" x="80.119325" y="29.717887" style="stroke: #000000; stroke-width: 0.5"/>
      </g>
     </g>
     <g id="line2d_112">
      <g>
       <use xlink:href="#ma6f5478692" x="638.119325" y="29.717887" style="stroke: #000000; stroke-width: 0.5"/>
      </g>
     </g>
    </g>
    <g id="ytick_35">
     <g id="line2d_113">
      <g>
       <use xlink:href="#m4bf9d118c6" x="80.119325" y="20.49907" style="stroke: #000000; stroke-width: 0.5"/>
      </g>
     </g>
     <g id="line2d_114">
      <g>
       <use xlink:href="#ma6f5478692" x="638.119325" y="20.49907" style="stroke: #000000; stroke-width: 0.5"/>
      </g>
     </g>
    </g>
    <g id="ytick_36">
     <g id="line2d_115">
      <g>
       <use xlink:href="#m4bf9d118c6" x="80.119325" y="11.280254" style="stroke: #000000; stroke-width: 0.5"/>
      </g>
     </g>
     <g id="line2d_116">
      <g>
       <use xlink:href="#ma6f5478692" x="638.119325" y="11.280254" style="stroke: #000000; stroke-width: 0.5"/>
      </g>
     </g>
    </g>
    <g id="text_15">
     <!-- $|\varphi_n(z)|^2$ -->
     <g transform="translate(24.618187 207.921512) rotate(-90) scale(0.2 -0.2)">
      <defs>
       <path id="CMSY10-6a" d="M 1018 4570 
C 1018 4685 1018 4800 890 4800 
C 762 4800 762 4685 762 4570 
L 762 -1370 
C 762 -1485 762 -1600 890 -1600 
C 1018 -1600 1018 -1485 1018 -1370 
L 1018 4570 
z
" transform="scale(0.015625)"/>
       <path id="PazoMath-Italic-6a" d="M 595 986 
C 595 1712 1043 2502 1536 2775 
C 1613 2814 1722 2846 1850 2865 
C 1914 2924 1907 2924 1946 2982 
C 1926 3054 1901 3054 1882 3054 
C 1741 3054 1491 2931 1293 2834 
C 531 2459 109 1799 109 991 
C 109 298 512 -64 1261 -64 
C 1299 -64 1338 -64 1376 -57 
C 1306 -436 1197 -970 1082 -1490 
L 1030 -1728 
L 1075 -1767 
C 1210 -1722 1338 -1690 1542 -1656 
L 1805 10 
C 2112 81 2413 203 2662 371 
C 3232 753 3635 1489 3635 2155 
C 3635 2310 3597 2445 3546 2569 
C 3462 2762 3187 3131 3014 3131 
C 2867 3131 2707 3086 2566 3008 
C 2323 2865 2029 2625 1869 2443 
C 1805 2373 1760 2250 1741 2146 
L 1414 189 
C 902 240 595 520 595 986 
z
M 2342 397 
C 2208 299 2035 228 1837 195 
C 1882 442 1939 772 1971 967 
C 2048 1480 2202 2530 2355 2660 
C 2432 2757 2611 2816 2822 2816 
C 2995 2816 3149 2394 3149 2050 
C 3142 1421 2790 740 2342 397 
z
" transform="scale(0.015625)"/>
       <path id="URWPalladioL-Ital-6e" d="M 154 2471 
L 198 2343 
L 403 2477 
C 640 2625 659 2637 704 2637 
C 774 2637 819 2574 819 2478 
C 819 2152 557 919 294 6 
L 339 -64 
C 499 -20 646 18 787 44 
C 909 849 1043 1264 1338 1705 
C 1683 2241 2163 2637 2451 2637 
C 2522 2637 2560 2580 2560 2484 
C 2560 2369 2541 2235 2490 2031 
L 2157 677 
C 2099 440 2074 294 2074 192 
C 2074 31 2144 -64 2266 -64 
C 2432 -64 2662 69 3290 536 
L 3226 651 
L 3059 543 
C 2874 421 2733 351 2669 351 
C 2624 351 2586 408 2586 478 
C 2586 510 2592 581 2598 607 
L 3021 2369 
C 3066 2555 3091 2733 3091 2841 
C 3091 2989 3021 3072 2893 3072 
C 2624 3072 2182 2830 1805 2478 
C 1562 2254 1382 2037 1050 1571 
L 1293 2599 
C 1318 2714 1331 2790 1331 2861 
C 1331 2995 1280 3072 1184 3072 
C 1050 3072 800 2932 333 2599 
L 154 2471 
z
" transform="scale(0.015625)"/>
       <path id="CMR10-28" d="M 2118 -1536 
C 2118 -1517 2118 -1504 2010 -1395 
C 1210 -584 1005 632 1005 1616 
C 1005 2735 1248 3855 2035 4658 
C 2118 4735 2118 4748 2118 4767 
C 2118 4812 2093 4832 2054 4832 
C 1990 4832 1414 4395 1037 3577 
C 710 2870 634 2156 634 1616 
C 634 1114 704 336 1056 -391 
C 1440 -1182 1990 -1600 2054 -1600 
C 2093 -1600 2118 -1581 2118 -1536 
z
" transform="scale(0.015625)"/>
       <path id="CMR10-29" d="M 1850 1616 
C 1850 2118 1779 2896 1427 3622 
C 1043 4414 493 4832 429 4832 
C 390 4832 365 4806 365 4767 
C 365 4748 365 4735 486 4620 
C 1114 3983 1478 2960 1478 1616 
C 1478 516 1242 -617 448 -1427 
C 365 -1504 365 -1517 365 -1536 
C 365 -1575 390 -1600 429 -1600 
C 493 -1600 1069 -1163 1446 -346 
C 1773 362 1850 1075 1850 1616 
z
" transform="scale(0.015625)"/>
      </defs>
      <use xlink:href="#CMSY10-6a" transform="scale(1.038107)"/>
      <use xlink:href="#PazoMath-Italic-6a" transform="translate(36.264049 0) scale(0.996264)"/>
      <use xlink:href="#URWPalladioL-Ital-6e" transform="translate(97.135695 -14.943915) scale(0.757155)"/>
      <use xlink:href="#CMR10-28" transform="translate(141.923445 0) scale(1.038107)"/>
      <use xlink:href="#URWPalladioL-Ital-7a" transform="translate(184.66315 0) scale(0.996264)"/>
      <use xlink:href="#CMR10-29" transform="translate(231.387911 0) scale(1.038107)"/>
      <use xlink:href="#CMSY10-6a" transform="translate(274.127615 0) scale(1.038107)"/>
      <use xlink:href="#URWPalladioL-Roma-32" transform="translate(304.165015 36.164371) scale(0.757155)"/>
     </g>
    </g>
   </g>
   <g id="line2d_117">
    <path d="M 105.482962 314.133515 
L 107.520202 287.680658 
L 109.557441 252.012733 
L 115.669161 134.583636 
L 117.706401 101.284708 
L 119.743641 73.433443 
L 121.780881 51.61187 
L 123.818121 35.970883 
L 125.85536 26.340134 
L 127.8926 22.32 
L 129.92984 23.357343 
L 131.96708 28.806821 
L 134.00432 37.97951 
L 136.04156 50.180498 
L 138.0788 64.737068 
L 140.116039 81.018923 
L 144.190519 116.525853 
L 150.302239 170.520537 
L 154.376719 203.412148 
L 156.413958 218.365626 
L 158.451198 232.193543 
L 160.488438 244.848949 
L 162.525678 256.318218 
L 164.562918 266.615113 
L 166.600158 275.77527 
L 168.637398 283.851182 
L 170.674638 290.907734 
L 172.711877 297.018299 
L 174.749117 302.261394 
L 176.786357 306.717869 
L 178.823597 310.468606 
L 180.860837 313.592675 
L 182.898077 316.165911 
L 184.935317 318.259858 
L 186.972556 319.94103 
L 189.009796 321.270455 
L 191.047036 322.303432 
L 193.084276 323.089492 
L 195.121516 323.672494 
L 197.158756 324.090844 
L 201.233236 324.561811 
L 205.307715 324.713352 
L 211.419435 324.650219 
L 227.717354 324.313258 
L 239.940793 324.346818 
L 284.76007 324.706058 
L 360.137945 324.719491 
L 453.850979 324.615681 
L 494.595777 324.358506 
L 514.968175 324.666963 
L 519.042655 324.377795 
L 521.079895 324.090845 
L 523.117135 323.672495 
L 525.154375 323.089493 
L 527.191615 322.303434 
L 529.228854 321.270457 
L 531.266094 319.941033 
L 533.303334 318.259862 
L 535.340574 316.165916 
L 537.377814 313.592681 
L 539.415054 310.468614 
L 541.452294 306.71788 
L 543.489533 302.261407 
L 545.526773 297.018316 
L 547.564013 290.907754 
L 549.601253 283.851207 
L 551.638493 275.775299 
L 553.675733 266.615148 
L 555.712973 256.318259 
L 557.750213 244.848997 
L 559.787452 232.193599 
L 561.824692 218.365689 
L 563.861932 203.41222 
L 565.899172 187.419713 
L 569.973652 152.899635 
L 578.122611 81.019069 
L 580.159851 64.737224 
L 582.197091 50.180663 
L 584.234331 37.979682 
L 586.271571 28.806999 
L 588.308811 23.357523 
L 590.34605 22.320181 
L 592.38329 26.340313 
L 594.42053 35.971056 
L 596.45777 51.612034 
L 598.49501 73.433593 
L 600.53225 101.284842 
L 602.56949 134.58375 
L 604.60673 172.187709 
L 608.681209 252.012777 
L 610.718449 287.680681 
L 612.755689 314.133521 
L 612.755689 314.133521 
" clip-path="url(#pf209168a28)" style="fill: none; stroke: #ff0000; stroke-width: 3; stroke-linecap: square"/>
   </g>
   <g id="line2d_118">
    <path d="M 105.482962 314.133517 
L 107.520202 287.680666 
L 109.557441 252.012749 
L 115.669161 134.583676 
L 117.706401 101.284755 
L 119.743641 73.433496 
L 121.780881 51.611928 
L 123.818121 35.970944 
L 125.85536 26.340197 
L 127.8926 22.320064 
L 129.92984 23.357406 
L 131.96708 28.806883 
L 134.00432 37.97957 
L 136.04156 50.180556 
L 138.0788 64.737123 
L 140.116039 81.018975 
L 144.190519 116.525897 
L 150.302239 170.520569 
L 154.376719 203.412173 
L 156.413958 218.365648 
L 158.451198 232.193563 
L 160.488438 244.848966 
L 162.525678 256.318232 
L 164.562918 266.615125 
L 166.600158 275.77528 
L 168.637398 283.851191 
L 170.674638 290.907741 
L 172.711877 297.018305 
L 174.749117 302.261399 
L 176.786357 306.717873 
L 178.823597 310.468609 
L 180.860837 313.592677 
L 182.898077 316.165913 
L 184.935317 318.259859 
L 186.972556 319.941031 
L 189.009796 321.270455 
L 191.047036 322.303433 
L 193.084276 323.089493 
L 195.121516 323.672495 
L 197.158756 324.090844 
L 201.233236 324.561811 
L 205.307715 324.713352 
L 211.419435 324.650219 
L 227.717354 324.313258 
L 239.940793 324.346818 
L 284.76007 324.706058 
L 360.137945 324.719491 
L 453.850979 324.615681 
L 494.595777 324.358506 
L 514.968175 324.666963 
L 519.042655 324.377795 
L 521.079895 324.090845 
L 523.117135 323.672495 
L 525.154375 323.089493 
L 527.191615 322.303433 
L 529.228854 321.270456 
L 531.266094 319.941032 
L 533.303334 318.25986 
L 535.340574 316.165914 
L 537.377814 313.592679 
L 539.415054 310.468611 
L 541.452294 306.717876 
L 543.489533 302.261403 
L 545.526773 297.01831 
L 547.564013 290.907747 
L 549.601253 283.851198 
L 551.638493 275.775289 
L 553.675733 266.615136 
L 555.712973 256.318245 
L 557.750213 244.84898 
L 559.787452 232.193579 
L 561.824692 218.365667 
L 563.861932 203.412195 
L 565.899172 187.419684 
L 569.973652 152.899599 
L 578.122611 81.019018 
L 580.159851 64.737169 
L 582.197091 50.180605 
L 584.234331 37.979621 
L 586.271571 28.806936 
L 588.308811 23.35746 
L 590.34605 22.320118 
L 592.38329 26.34025 
L 594.42053 35.970995 
L 596.45777 51.611976 
L 598.49501 73.43354 
L 600.53225 101.284795 
L 602.56949 134.58371 
L 604.60673 172.187677 
L 608.681209 252.012762 
L 610.718449 287.680673 
L 612.755689 314.133519 
L 612.755689 314.133519 
" clip-path="url(#pf209168a28)" style="fill: none; stroke: #ff1700; stroke-width: 3; stroke-linecap: square"/>
   </g>
   <g id="line2d_119">
    <path d="M 105.482962 314.133521 
L 107.520202 287.680681 
L 109.557441 252.012777 
L 115.669161 134.58375 
L 117.706401 101.284842 
L 119.743641 73.433593 
L 121.780881 51.612034 
L 123.818121 35.971056 
L 125.85536 26.340313 
L 127.8926 22.320181 
L 129.92984 23.357523 
L 131.96708 28.806999 
L 134.00432 37.979682 
L 136.04156 50.180663 
L 138.0788 64.737224 
L 140.116039 81.019069 
L 144.190519 116.525978 
L 150.302239 170.520629 
L 154.376719 203.41222 
L 156.413958 218.365689 
L 158.451198 232.193599 
L 160.488438 244.848997 
L 162.525678 256.318259 
L 164.562918 266.615148 
L 166.600158 275.775299 
L 168.637398 283.851207 
L 170.674638 290.907754 
L 172.711877 297.018316 
L 174.749117 302.261407 
L 176.786357 306.71788 
L 178.823597 310.468614 
L 180.860837 313.592681 
L 182.898077 316.165916 
L 184.935317 318.259862 
L 186.972556 319.941033 
L 189.009796 321.270457 
L 191.047036 322.303434 
L 193.084276 323.089493 
L 195.121516 323.672495 
L 197.158756 324.090845 
L 201.233236 324.561811 
L 205.307715 324.713352 
L 211.419435 324.650219 
L 227.717354 324.313258 
L 239.940793 324.346818 
L 284.76007 324.706058 
L 360.137945 324.719491 
L 453.850979 324.615681 
L 494.595777 324.358506 
L 514.968175 324.666963 
L 519.042655 324.377795 
L 521.079895 324.090844 
L 523.117135 323.672494 
L 525.154375 323.089492 
L 527.191615 322.303432 
L 529.228854 321.270455 
L 531.266094 319.94103 
L 533.303334 318.259858 
L 535.340574 316.165911 
L 537.377814 313.592675 
L 539.415054 310.468606 
L 541.452294 306.717869 
L 543.489533 302.261394 
L 545.526773 297.018299 
L 547.564013 290.907734 
L 549.601253 283.851182 
L 551.638493 275.77527 
L 553.675733 266.615113 
L 555.712973 256.318218 
L 557.750213 244.848949 
L 559.787452 232.193543 
L 561.824692 218.365626 
L 563.861932 203.412148 
L 565.899172 187.419631 
L 569.973652 152.899532 
L 578.122611 81.018923 
L 580.159851 64.737068 
L 582.197091 50.180498 
L 584.234331 37.97951 
L 586.271571 28.806821 
L 588.308811 23.357343 
L 590.34605 22.32 
L 592.38329 26.340134 
L 594.42053 35.970883 
L 596.45777 51.61187 
L 598.49501 73.433443 
L 600.53225 101.284708 
L 602.56949 134.583636 
L 604.60673 172.187618 
L 608.681209 252.012733 
L 610.718449 287.680658 
L 612.755689 314.133515 
L 612.755689 314.133515 
" clip-path="url(#pf209168a28)" style="fill: none; stroke: #ff2e00; stroke-width: 3; stroke-linecap: square"/>
   </g>
   <g id="line2d_120">
    <path d="M 105.482962 314.133519 
L 107.520202 287.680673 
L 109.557441 252.012762 
L 115.669161 134.58371 
L 117.706401 101.284795 
L 119.743641 73.43354 
L 121.780881 51.611976 
L 123.818121 35.970995 
L 125.85536 26.34025 
L 127.8926 22.320118 
L 129.92984 23.35746 
L 131.96708 28.806936 
L 134.00432 37.979621 
L 136.04156 50.180605 
L 138.0788 64.737169 
L 140.116039 81.019018 
L 144.190519 116.525934 
L 150.302239 170.520597 
L 154.376719 203.412195 
L 156.413958 218.365667 
L 158.451198 232.193579 
L 160.488438 244.84898 
L 162.525678 256.318245 
L 164.562918 266.615136 
L 166.600158 275.775289 
L 168.637398 283.851198 
L 170.674638 290.907747 
L 172.711877 297.01831 
L 174.749117 302.261403 
L 176.786357 306.717876 
L 178.823597 310.468611 
L 180.860837 313.592679 
L 182.898077 316.165914 
L 184.935317 318.25986 
L 186.972556 319.941032 
L 189.009796 321.270456 
L 191.047036 322.303433 
L 193.084276 323.089493 
L 195.121516 323.672495 
L 197.158756 324.090845 
L 201.233236 324.561811 
L 205.307715 324.713352 
L 211.419435 324.650219 
L 227.717354 324.313258 
L 239.940793 324.346818 
L 284.76007 324.706058 
L 360.137945 324.719491 
L 453.850979 324.615681 
L 494.595777 324.358506 
L 514.968175 324.666963 
L 519.042655 324.377795 
L 521.079895 324.090844 
L 523.117135 323.672495 
L 525.154375 323.089493 
L 527.191615 322.303433 
L 529.228854 321.270455 
L 531.266094 319.941031 
L 533.303334 318.259859 
L 535.340574 316.165913 
L 537.377814 313.592677 
L 539.415054 310.468609 
L 541.452294 306.717873 
L 543.489533 302.261399 
L 545.526773 297.018305 
L 547.564013 290.907741 
L 549.601253 283.851191 
L 551.638493 275.77528 
L 553.675733 266.615125 
L 555.712973 256.318232 
L 557.750213 244.848966 
L 559.787452 232.193563 
L 561.824692 218.365648 
L 563.861932 203.412173 
L 565.899172 187.41966 
L 569.973652 152.899569 
L 578.122611 81.018975 
L 580.159851 64.737123 
L 582.197091 50.180556 
L 584.234331 37.97957 
L 586.271571 28.806883 
L 588.308811 23.357406 
L 590.34605 22.320064 
L 592.38329 26.340197 
L 594.42053 35.970944 
L 596.45777 51.611928 
L 598.49501 73.433496 
L 600.53225 101.284755 
L 602.56949 134.583676 
L 604.60673 172.18765 
L 608.681209 252.012749 
L 610.718449 287.680666 
L 612.755689 314.133517 
L 612.755689 314.133517 
" clip-path="url(#pf209168a28)" style="fill: none; stroke: #ff4600; stroke-width: 3; stroke-linecap: square"/>
   </g>
   <g id="line2d_121">
    <path d="M 105.482962 324.717449 
L 119.743641 324.583611 
L 129.92984 324.326475 
L 138.0788 323.94161 
L 146.227759 323.313743 
L 152.339479 322.634151 
L 158.451198 321.738758 
L 164.562918 320.597348 
L 170.674638 319.183671 
L 176.786357 317.476244 
L 182.898077 315.458917 
L 189.009796 313.121245 
L 195.121516 310.458679 
L 201.233236 307.47262 
L 207.344955 304.170346 
L 213.456675 300.56483 
L 219.568394 296.674479 
L 225.680114 292.522787 
L 231.791834 288.137928 
L 239.940793 281.985287 
L 250.126992 273.92639 
L 268.462151 258.976262 
L 278.648351 250.794394 
L 286.79731 244.497813 
L 292.90903 239.991552 
L 299.020749 235.719479 
L 305.132469 231.723504 
L 311.244188 228.04307 
L 317.355908 224.714687 
L 321.430388 222.707873 
L 325.504868 220.881257 
L 329.579347 219.242968 
L 333.653827 217.800311 
L 337.728307 216.559729 
L 341.802786 215.526768 
L 345.877266 214.706049 
L 349.951746 214.101249 
L 354.026226 213.715077 
L 358.100705 213.549266 
L 362.175185 213.604557 
L 366.249665 213.880703 
L 370.324145 214.376467 
L 374.398624 215.089626 
L 378.473104 216.016985 
L 382.547584 217.154393 
L 386.622064 218.496762 
L 390.696543 220.038095 
L 394.771023 221.771513 
L 398.845503 223.689295 
L 402.919983 225.782911 
L 409.031702 229.232502 
L 415.143422 233.022328 
L 421.255141 237.114849 
L 427.366861 241.469749 
L 435.51582 247.610488 
L 443.66478 254.035937 
L 457.925459 265.636595 
L 472.186138 277.188716 
L 480.335098 283.5523 
L 488.484057 289.623537 
L 494.595777 293.934074 
L 500.707496 298.001561 
L 506.819216 301.799334 
L 512.930935 305.305553 
L 519.042655 308.503587 
L 525.154375 311.382336 
L 531.266094 313.936466 
L 537.377814 316.166557 
L 543.489533 318.079137 
L 549.601253 319.68658 
L 555.712973 321.006865 
L 561.824692 322.063138 
L 567.936412 322.883073 
L 574.048131 323.497979 
L 582.197091 324.057424 
L 590.34605 324.394092 
L 602.56949 324.642391 
L 612.755689 324.717449 
L 612.755689 324.717449 
" clip-path="url(#pf209168a28)" style="fill: none; stroke: #ff5d00; stroke-width: 3; stroke-linecap: square"/>
   </g>
   <g id="line2d_122">
    <path d="M 105.482962 324.717449 
L 119.743641 324.583611 
L 129.92984 324.326475 
L 138.0788 323.94161 
L 146.227759 323.313743 
L 152.339479 322.634151 
L 158.451198 321.738758 
L 164.562918 320.597348 
L 170.674638 319.183671 
L 176.786357 317.476244 
L 182.898077 315.458917 
L 189.009796 313.121245 
L 195.121516 310.458679 
L 201.233236 307.47262 
L 207.344955 304.170346 
L 213.456675 300.56483 
L 219.568394 296.674479 
L 225.680114 292.522787 
L 231.791834 288.137928 
L 239.940793 281.985287 
L 250.126992 273.92639 
L 268.462151 258.976262 
L 278.648351 250.794394 
L 286.79731 244.497813 
L 292.90903 239.991552 
L 299.020749 235.719479 
L 305.132469 231.723504 
L 311.244188 228.04307 
L 317.355908 224.714687 
L 321.430388 222.707873 
L 325.504868 220.881257 
L 329.579347 219.242968 
L 333.653827 217.800311 
L 337.728307 216.559729 
L 341.802786 215.526768 
L 345.877266 214.706049 
L 349.951746 214.101249 
L 354.026226 213.715077 
L 358.100705 213.549266 
L 362.175185 213.604557 
L 366.249665 213.880703 
L 370.324145 214.376467 
L 374.398624 215.089626 
L 378.473104 216.016985 
L 382.547584 217.154393 
L 386.622064 218.496762 
L 390.696543 220.038095 
L 394.771023 221.771513 
L 398.845503 223.689295 
L 402.919983 225.782911 
L 409.031702 229.232502 
L 415.143422 233.022328 
L 421.255141 237.114849 
L 427.366861 241.469749 
L 435.51582 247.610488 
L 443.66478 254.035937 
L 457.925459 265.636595 
L 472.186138 277.188716 
L 480.335098 283.5523 
L 488.484057 289.623537 
L 494.595777 293.934074 
L 500.707496 298.001561 
L 506.819216 301.799334 
L 512.930935 305.305553 
L 519.042655 308.503587 
L 525.154375 311.382336 
L 531.266094 313.936466 
L 537.377814 316.166557 
L 543.489533 318.079137 
L 549.601253 319.68658 
L 555.712973 321.006865 
L 561.824692 322.063138 
L 567.936412 322.883073 
L 574.048131 323.497979 
L 582.197091 324.057424 
L 590.34605 324.394092 
L 602.56949 324.642391 
L 612.755689 324.717449 
L 612.755689 324.717449 
" clip-path="url(#pf209168a28)" style="fill: none; stroke: #ff7400; stroke-width: 3; stroke-linecap: square"/>
   </g>
   <g id="line2d_123">
    <path d="M 105.482962 324.703 
L 111.594681 324.490575 
L 117.706401 324.088593 
L 123.818121 323.480821 
L 127.8926 322.92196 
L 131.96708 322.200941 
L 136.04156 321.280024 
L 140.116039 320.121085 
L 144.190519 318.688085 
L 148.264999 316.949104 
L 152.339479 314.877976 
L 156.413958 312.455554 
L 160.488438 309.670643 
L 164.562918 306.520618 
L 168.637398 303.011756 
L 172.711877 299.159308 
L 176.786357 294.987337 
L 180.860837 290.528335 
L 186.972556 283.391898 
L 193.084276 275.867445 
L 209.382195 255.446116 
L 215.493915 248.292705 
L 219.568394 243.859692 
L 223.642874 239.770793 
L 227.717354 236.086546 
L 231.791834 232.862655 
L 235.866313 230.148976 
L 237.903553 228.997218 
L 239.940793 227.988598 
L 241.978033 227.127314 
L 244.015273 226.417048 
L 246.052513 225.860947 
L 248.089753 225.461609 
L 250.126992 225.221068 
L 252.164232 225.140786 
L 254.201472 225.221639 
L 256.238712 225.463914 
L 258.275952 225.867306 
L 260.313192 226.430911 
L 262.350432 227.153235 
L 264.387671 228.032189 
L 266.424911 229.0651 
L 268.462151 230.248716 
L 270.499391 231.57922 
L 272.536631 233.052237 
L 276.611111 236.40563 
L 280.68559 240.263419 
L 284.76007 244.572412 
L 288.83455 249.272464 
L 292.90903 254.297351 
L 299.020749 262.286584 
L 319.393148 289.664196 
L 323.467628 294.681684 
L 327.542107 299.369007 
L 331.616587 303.657698 
L 335.691067 307.485028 
L 339.765547 310.79495 
L 341.802786 312.240406 
L 343.840026 313.538948 
L 345.877266 314.685806 
L 347.914506 315.676771 
L 349.951746 316.5082 
L 351.988986 317.177041 
L 354.026226 317.680834 
L 356.063466 318.017728 
L 358.100705 318.186486 
L 360.137945 318.186486 
L 362.175185 318.017728 
L 364.212425 317.680834 
L 366.249665 317.177041 
L 368.286905 316.5082 
L 370.324145 315.676771 
L 372.361385 314.685806 
L 374.398624 313.538948 
L 376.435864 312.240406 
L 378.473104 310.79495 
L 382.547584 307.485028 
L 386.622064 303.657698 
L 390.696543 299.369007 
L 394.771023 294.681684 
L 398.845503 289.664196 
L 404.957222 281.679974 
L 425.329621 254.297351 
L 429.404101 249.272464 
L 433.478581 244.572412 
L 437.55306 240.263419 
L 441.62754 236.40563 
L 445.70202 233.052237 
L 447.73926 231.57922 
L 449.7765 230.248716 
L 451.813739 229.0651 
L 453.850979 228.032189 
L 455.888219 227.153235 
L 457.925459 226.430911 
L 459.962699 225.867306 
L 461.999939 225.463914 
L 464.037179 225.221639 
L 466.074418 225.140786 
L 468.111658 225.221068 
L 470.148898 225.461609 
L 472.186138 225.860947 
L 474.223378 226.417048 
L 476.260618 227.127314 
L 478.297858 227.988598 
L 480.335098 228.997218 
L 482.372337 230.148976 
L 484.409577 231.439177 
L 488.484057 234.413792 
L 492.558537 237.874481 
L 496.633016 241.768344 
L 500.707496 246.037127 
L 504.781976 250.618285 
L 510.893696 257.931432 
L 519.042655 268.149357 
L 529.228854 280.917785 
L 535.340574 288.203521 
L 539.415054 292.791369 
L 543.489533 297.111424 
L 547.564013 301.127179 
L 551.638493 304.810298 
L 555.712973 308.141088 
L 559.787452 311.10878 
L 563.861932 313.711571 
L 567.936412 315.956432 
L 572.010892 317.858629 
L 576.085371 319.440955 
L 580.159851 320.732634 
L 584.234331 321.767875 
L 588.308811 322.584038 
L 592.38329 323.219394 
L 598.49501 323.911937 
L 604.60673 324.376666 
L 610.718449 324.65615 
L 612.755689 324.703 
L 612.755689 324.703 
" clip-path="url(#pf209168a28)" style="fill: none; stroke: #ff8b00; stroke-width: 3; stroke-linecap: square"/>
   </g>
   <g id="line2d_124">
    <path d="M 105.482962 324.703 
L 111.594681 324.490575 
L 117.706401 324.088593 
L 123.818121 323.480821 
L 127.8926 322.92196 
L 131.96708 322.200941 
L 136.04156 321.280024 
L 140.116039 320.121085 
L 144.190519 318.688085 
L 148.264999 316.949104 
L 152.339479 314.877976 
L 156.413958 312.455554 
L 160.488438 309.670643 
L 164.562918 306.520618 
L 168.637398 303.011756 
L 172.711877 299.159308 
L 176.786357 294.987337 
L 180.860837 290.528335 
L 186.972556 283.391898 
L 193.084276 275.867445 
L 209.382195 255.446116 
L 215.493915 248.292705 
L 219.568394 243.859692 
L 223.642874 239.770793 
L 227.717354 236.086546 
L 231.791834 232.862655 
L 235.866313 230.148976 
L 237.903553 228.997218 
L 239.940793 227.988598 
L 241.978033 227.127314 
L 244.015273 226.417048 
L 246.052513 225.860947 
L 248.089753 225.461609 
L 250.126992 225.221068 
L 252.164232 225.140786 
L 254.201472 225.221639 
L 256.238712 225.463914 
L 258.275952 225.867306 
L 260.313192 226.430911 
L 262.350432 227.153235 
L 264.387671 228.032189 
L 266.424911 229.0651 
L 268.462151 230.248716 
L 270.499391 231.57922 
L 272.536631 233.052237 
L 276.611111 236.40563 
L 280.68559 240.263419 
L 284.76007 244.572412 
L 288.83455 249.272464 
L 292.90903 254.297351 
L 299.020749 262.286584 
L 319.393148 289.664196 
L 323.467628 294.681684 
L 327.542107 299.369007 
L 331.616587 303.657698 
L 335.691067 307.485028 
L 339.765547 310.79495 
L 341.802786 312.240406 
L 343.840026 313.538948 
L 345.877266 314.685806 
L 347.914506 315.676771 
L 349.951746 316.5082 
L 351.988986 317.177041 
L 354.026226 317.680834 
L 356.063466 318.017728 
L 358.100705 318.186486 
L 360.137945 318.186486 
L 362.175185 318.017728 
L 364.212425 317.680834 
L 366.249665 317.177041 
L 368.286905 316.5082 
L 370.324145 315.676771 
L 372.361385 314.685806 
L 374.398624 313.538948 
L 376.435864 312.240406 
L 378.473104 310.79495 
L 382.547584 307.485028 
L 386.622064 303.657698 
L 390.696543 299.369007 
L 394.771023 294.681684 
L 398.845503 289.664196 
L 404.957222 281.679974 
L 425.329621 254.297351 
L 429.404101 249.272464 
L 433.478581 244.572412 
L 437.55306 240.263419 
L 441.62754 236.40563 
L 445.70202 233.052237 
L 447.73926 231.57922 
L 449.7765 230.248716 
L 451.813739 229.0651 
L 453.850979 228.032189 
L 455.888219 227.153235 
L 457.925459 226.430911 
L 459.962699 225.867306 
L 461.999939 225.463914 
L 464.037179 225.221639 
L 466.074418 225.140786 
L 468.111658 225.221068 
L 470.148898 225.461609 
L 472.186138 225.860947 
L 474.223378 226.417048 
L 476.260618 227.127314 
L 478.297858 227.988598 
L 480.335098 228.997218 
L 482.372337 230.148976 
L 484.409577 231.439177 
L 488.484057 234.413792 
L 492.558537 237.874481 
L 496.633016 241.768344 
L 500.707496 246.037127 
L 504.781976 250.618285 
L 510.893696 257.931432 
L 519.042655 268.149357 
L 529.228854 280.917785 
L 535.340574 288.203521 
L 539.415054 292.791369 
L 543.489533 297.111424 
L 547.564013 301.127179 
L 551.638493 304.810298 
L 555.712973 308.141088 
L 559.787452 311.10878 
L 563.861932 313.711571 
L 567.936412 315.956432 
L 572.010892 317.858629 
L 576.085371 319.440955 
L 580.159851 320.732634 
L 584.234331 321.767875 
L 588.308811 322.584038 
L 592.38329 323.219394 
L 598.49501 323.911937 
L 604.60673 324.376666 
L 610.718449 324.65615 
L 612.755689 324.703 
L 612.755689 324.703 
" clip-path="url(#pf209168a28)" style="fill: none; stroke: #ffa200; stroke-width: 3; stroke-linecap: square"/>
   </g>
   <g id="line2d_125">
    <path d="M 105.482962 324.656959 
L 109.557441 324.230033 
L 113.631921 323.520258 
L 117.706401 322.595673 
L 121.780881 321.4614 
L 125.85536 320.080364 
L 129.92984 318.390848 
L 134.00432 316.321155 
L 138.0788 313.801603 
L 142.153279 310.774054 
L 146.227759 307.199131 
L 150.302239 303.061302 
L 154.376719 298.371977 
L 158.451198 293.170798 
L 162.525678 287.525277 
L 166.600158 281.528992 
L 174.749117 268.969386 
L 180.860837 259.620137 
L 184.935317 253.715294 
L 189.009796 248.259286 
L 193.084276 243.40548 
L 195.121516 241.249176 
L 197.158756 239.295161 
L 199.195996 237.55833 
L 201.233236 236.052185 
L 203.270475 234.788701 
L 205.307715 233.778211 
L 207.344955 233.029298 
L 209.382195 232.548704 
L 211.419435 232.341256 
L 213.456675 232.409808 
L 215.493915 232.755197 
L 217.531154 233.376217 
L 219.568394 234.269614 
L 221.605634 235.430093 
L 223.642874 236.850342 
L 225.680114 238.521081 
L 227.717354 240.431112 
L 229.754594 242.567405 
L 231.791834 244.915179 
L 235.866313 250.177969 
L 239.940793 256.070654 
L 244.015273 262.424543 
L 252.164232 275.772719 
L 258.275952 285.578595 
L 262.350432 291.657366 
L 266.424911 297.159706 
L 268.462151 299.643579 
L 270.499391 301.924577 
L 272.536631 303.986074 
L 274.573871 305.813105 
L 276.611111 307.392491 
L 278.648351 308.712934 
L 280.68559 309.765115 
L 282.72283 310.541761 
L 284.76007 311.037709 
L 286.79731 311.249943 
L 288.83455 311.177624 
L 290.87179 310.822093 
L 292.90903 310.186865 
L 294.946269 309.277602 
L 296.983509 308.102074 
L 299.020749 306.670091 
L 301.057989 304.993439 
L 303.095229 303.085779 
L 305.132469 300.96255 
L 307.169709 298.640844 
L 311.244188 293.477841 
L 315.318668 287.761296 
L 321.430388 278.548639 
L 329.579347 266.098473 
L 333.653827 260.243819 
L 337.728307 254.885153 
L 339.765547 252.445247 
L 341.802786 250.191015 
L 343.840026 248.140205 
L 345.877266 246.308958 
L 347.914506 244.711686 
L 349.951746 243.360957 
L 351.988986 242.267399 
L 354.026226 241.439614 
L 356.063466 240.884113 
L 358.100705 240.605265 
L 360.137945 240.605265 
L 362.175185 240.884113 
L 364.212425 241.439614 
L 366.249665 242.267399 
L 368.286905 243.360957 
L 370.324145 244.711686 
L 372.361385 246.308958 
L 374.398624 248.140205 
L 376.435864 250.191015 
L 378.473104 252.445247 
L 382.547584 257.49152 
L 386.622064 263.120361 
L 390.696543 269.15467 
L 402.919983 287.761296 
L 406.994462 293.477841 
L 411.068942 298.640844 
L 413.106182 300.96255 
L 415.143422 303.085779 
L 417.180662 304.993439 
L 419.217901 306.670091 
L 421.255141 308.102074 
L 423.292381 309.277602 
L 425.329621 310.186865 
L 427.366861 310.822093 
L 429.404101 311.177624 
L 431.441341 311.249943 
L 433.478581 311.037709 
L 435.51582 310.541761 
L 437.55306 309.765115 
L 439.5903 308.712934 
L 441.62754 307.392491 
L 443.66478 305.813105 
L 445.70202 303.986074 
L 447.73926 301.924577 
L 449.7765 299.643579 
L 451.813739 297.159706 
L 455.888219 291.657366 
L 459.962699 285.578595 
L 466.074418 275.772719 
L 476.260618 259.201133 
L 480.335098 253.055708 
L 484.409577 247.458015 
L 486.446817 244.915179 
L 488.484057 242.567405 
L 490.521297 240.431112 
L 492.558537 238.521081 
L 494.595777 236.850342 
L 496.633016 235.430093 
L 498.670256 234.269614 
L 500.707496 233.376217 
L 502.744736 232.755197 
L 504.781976 232.409808 
L 506.819216 232.341256 
L 508.856456 232.548704 
L 510.893696 233.029298 
L 512.930935 233.778211 
L 514.968175 234.788701 
L 517.005415 236.052185 
L 519.042655 237.55833 
L 521.079895 239.295161 
L 523.117135 241.249176 
L 525.154375 243.40548 
L 529.228854 248.259286 
L 533.303334 253.715294 
L 537.377814 259.620137 
L 543.489533 268.969386 
L 551.638493 281.528992 
L 555.712973 287.525277 
L 559.787452 293.170798 
L 563.861932 298.371977 
L 567.936412 303.061302 
L 572.010892 307.199131 
L 576.085371 310.774054 
L 580.159851 313.801603 
L 584.234331 316.321155 
L 588.308811 318.390848 
L 592.38329 320.080364 
L 596.45777 321.4614 
L 600.53225 322.595673 
L 604.60673 323.520258 
L 608.681209 324.230033 
L 612.755689 324.656959 
L 612.755689 324.656959 
" clip-path="url(#pf209168a28)" style="fill: none; stroke: #ffb900; stroke-width: 3; stroke-linecap: square"/>
   </g>
   <g id="line2d_126">
    <path d="M 105.482962 324.656959 
L 109.557441 324.230033 
L 113.631921 323.520258 
L 117.706401 322.595673 
L 121.780881 321.4614 
L 125.85536 320.080364 
L 129.92984 318.390848 
L 134.00432 316.321155 
L 138.0788 313.801603 
L 142.153279 310.774054 
L 146.227759 307.199131 
L 150.302239 303.061302 
L 154.376719 298.371977 
L 158.451198 293.170798 
L 162.525678 287.525277 
L 166.600158 281.528992 
L 174.749117 268.969386 
L 180.860837 259.620137 
L 184.935317 253.715294 
L 189.009796 248.259286 
L 193.084276 243.40548 
L 195.121516 241.249176 
L 197.158756 239.295161 
L 199.195996 237.55833 
L 201.233236 236.052185 
L 203.270475 234.788701 
L 205.307715 233.778211 
L 207.344955 233.029298 
L 209.382195 232.548704 
L 211.419435 232.341256 
L 213.456675 232.409808 
L 215.493915 232.755197 
L 217.531154 233.376217 
L 219.568394 234.269614 
L 221.605634 235.430093 
L 223.642874 236.850342 
L 225.680114 238.521081 
L 227.717354 240.431112 
L 229.754594 242.567405 
L 231.791834 244.915179 
L 235.866313 250.177969 
L 239.940793 256.070654 
L 244.015273 262.424543 
L 252.164232 275.772719 
L 258.275952 285.578595 
L 262.350432 291.657366 
L 266.424911 297.159706 
L 268.462151 299.643579 
L 270.499391 301.924577 
L 272.536631 303.986074 
L 274.573871 305.813105 
L 276.611111 307.392491 
L 278.648351 308.712934 
L 280.68559 309.765115 
L 282.72283 310.541761 
L 284.76007 311.037709 
L 286.79731 311.249943 
L 288.83455 311.177624 
L 290.87179 310.822093 
L 292.90903 310.186865 
L 294.946269 309.277602 
L 296.983509 308.102074 
L 299.020749 306.670091 
L 301.057989 304.993439 
L 303.095229 303.085779 
L 305.132469 300.96255 
L 307.169709 298.640844 
L 311.244188 293.477841 
L 315.318668 287.761296 
L 321.430388 278.548639 
L 329.579347 266.098473 
L 333.653827 260.243819 
L 337.728307 254.885153 
L 339.765547 252.445247 
L 341.802786 250.191015 
L 343.840026 248.140205 
L 345.877266 246.308958 
L 347.914506 244.711686 
L 349.951746 243.360957 
L 351.988986 242.267399 
L 354.026226 241.439614 
L 356.063466 240.884113 
L 358.100705 240.605265 
L 360.137945 240.605265 
L 362.175185 240.884113 
L 364.212425 241.439614 
L 366.249665 242.267399 
L 368.286905 243.360957 
L 370.324145 244.711686 
L 372.361385 246.308958 
L 374.398624 248.140205 
L 376.435864 250.191015 
L 378.473104 252.445247 
L 382.547584 257.49152 
L 386.622064 263.120361 
L 390.696543 269.15467 
L 402.919983 287.761296 
L 406.994462 293.477841 
L 411.068942 298.640844 
L 413.106182 300.96255 
L 415.143422 303.085779 
L 417.180662 304.993439 
L 419.217901 306.670091 
L 421.255141 308.102074 
L 423.292381 309.277602 
L 425.329621 310.186865 
L 427.366861 310.822093 
L 429.404101 311.177624 
L 431.441341 311.249943 
L 433.478581 311.037709 
L 435.51582 310.541761 
L 437.55306 309.765115 
L 439.5903 308.712934 
L 441.62754 307.392491 
L 443.66478 305.813105 
L 445.70202 303.986074 
L 447.73926 301.924577 
L 449.7765 299.643579 
L 451.813739 297.159706 
L 455.888219 291.657366 
L 459.962699 285.578595 
L 466.074418 275.772719 
L 476.260618 259.201133 
L 480.335098 253.055708 
L 484.409577 247.458015 
L 486.446817 244.915179 
L 488.484057 242.567405 
L 490.521297 240.431112 
L 492.558537 238.521081 
L 494.595777 236.850342 
L 496.633016 235.430093 
L 498.670256 234.269614 
L 500.707496 233.376217 
L 502.744736 232.755197 
L 504.781976 232.409808 
L 506.819216 232.341256 
L 508.856456 232.548704 
L 510.893696 233.029298 
L 512.930935 233.778211 
L 514.968175 234.788701 
L 517.005415 236.052185 
L 519.042655 237.55833 
L 521.079895 239.295161 
L 523.117135 241.249176 
L 525.154375 243.40548 
L 529.228854 248.259286 
L 533.303334 253.715294 
L 537.377814 259.620137 
L 543.489533 268.969386 
L 551.638493 281.528992 
L 555.712973 287.525277 
L 559.787452 293.170798 
L 563.861932 298.371977 
L 567.936412 303.061302 
L 572.010892 307.199131 
L 576.085371 310.774054 
L 580.159851 313.801603 
L 584.234331 316.321155 
L 588.308811 318.390848 
L 592.38329 320.080364 
L 596.45777 321.4614 
L 600.53225 322.595673 
L 604.60673 323.520258 
L 608.681209 324.230033 
L 612.755689 324.656959 
L 612.755689 324.656959 
" clip-path="url(#pf209168a28)" style="fill: none; stroke: #ffd100; stroke-width: 3; stroke-linecap: square"/>
   </g>
   <g id="line2d_127">
    <path d="M 105.482962 324.717449 
L 119.743641 324.583611 
L 129.92984 324.326475 
L 138.0788 323.94161 
L 146.227759 323.313743 
L 152.339479 322.634151 
L 158.451198 321.738758 
L 164.562918 320.597348 
L 170.674638 319.183671 
L 176.786357 317.476244 
L 182.898077 315.458917 
L 189.009796 313.121245 
L 195.121516 310.458679 
L 201.233236 307.47262 
L 207.344955 304.170346 
L 213.456675 300.56483 
L 219.568394 296.674479 
L 225.680114 292.522787 
L 231.791834 288.137928 
L 239.940793 281.985287 
L 250.126992 273.92639 
L 268.462151 258.976262 
L 278.648351 250.794394 
L 286.79731 244.497813 
L 292.90903 239.991552 
L 299.020749 235.719479 
L 305.132469 231.723504 
L 311.244188 228.04307 
L 317.355908 224.714687 
L 321.430388 222.707873 
L 325.504868 220.881257 
L 329.579347 219.242968 
L 333.653827 217.800311 
L 337.728307 216.559729 
L 341.802786 215.526768 
L 345.877266 214.706049 
L 349.951746 214.101249 
L 354.026226 213.715077 
L 358.100705 213.549266 
L 362.175185 213.604557 
L 366.249665 213.880703 
L 370.324145 214.376467 
L 374.398624 215.089626 
L 378.473104 216.016985 
L 382.547584 217.154393 
L 386.622064 218.496762 
L 390.696543 220.038095 
L 394.771023 221.771513 
L 398.845503 223.689295 
L 402.919983 225.782911 
L 409.031702 229.232502 
L 415.143422 233.022328 
L 421.255141 237.114849 
L 427.366861 241.469749 
L 435.51582 247.610488 
L 443.66478 254.035937 
L 457.925459 265.636595 
L 472.186138 277.188716 
L 480.335098 283.5523 
L 488.484057 289.623537 
L 494.595777 293.934074 
L 500.707496 298.001561 
L 506.819216 301.799334 
L 512.930935 305.305553 
L 519.042655 308.503587 
L 525.154375 311.382336 
L 531.266094 313.936466 
L 537.377814 316.166557 
L 543.489533 318.079137 
L 549.601253 319.68658 
L 555.712973 321.006865 
L 561.824692 322.063138 
L 567.936412 322.883073 
L 574.048131 323.497979 
L 582.197091 324.057424 
L 590.34605 324.394092 
L 602.56949 324.642391 
L 612.755689 324.717449 
L 612.755689 324.717449 
" clip-path="url(#pf209168a28)" style="fill: none; stroke: #ffe800; stroke-width: 3; stroke-linecap: square"/>
   </g>
   <g id="line2d_128">
    <path d="M 105.482962 324.717449 
L 119.743641 324.583611 
L 129.92984 324.326475 
L 138.0788 323.94161 
L 146.227759 323.313743 
L 152.339479 322.634151 
L 158.451198 321.738758 
L 164.562918 320.597348 
L 170.674638 319.183671 
L 176.786357 317.476244 
L 182.898077 315.458917 
L 189.009796 313.121245 
L 195.121516 310.458679 
L 201.233236 307.47262 
L 207.344955 304.170346 
L 213.456675 300.56483 
L 219.568394 296.674479 
L 225.680114 292.522787 
L 231.791834 288.137928 
L 239.940793 281.985287 
L 250.126992 273.92639 
L 268.462151 258.976262 
L 278.648351 250.794394 
L 286.79731 244.497813 
L 292.90903 239.991552 
L 299.020749 235.719479 
L 305.132469 231.723504 
L 311.244188 228.04307 
L 317.355908 224.714687 
L 321.430388 222.707873 
L 325.504868 220.881257 
L 329.579347 219.242968 
L 333.653827 217.800311 
L 337.728307 216.559729 
L 341.802786 215.526768 
L 345.877266 214.706049 
L 349.951746 214.101249 
L 354.026226 213.715077 
L 358.100705 213.549266 
L 362.175185 213.604557 
L 366.249665 213.880703 
L 370.324145 214.376467 
L 374.398624 215.089626 
L 378.473104 216.016985 
L 382.547584 217.154393 
L 386.622064 218.496762 
L 390.696543 220.038095 
L 394.771023 221.771513 
L 398.845503 223.689295 
L 402.919983 225.782911 
L 409.031702 229.232502 
L 415.143422 233.022328 
L 421.255141 237.114849 
L 427.366861 241.469749 
L 435.51582 247.610488 
L 443.66478 254.035937 
L 457.925459 265.636595 
L 472.186138 277.188716 
L 480.335098 283.5523 
L 488.484057 289.623537 
L 494.595777 293.934074 
L 500.707496 298.001561 
L 506.819216 301.799334 
L 512.930935 305.305553 
L 519.042655 308.503587 
L 525.154375 311.382336 
L 531.266094 313.936466 
L 537.377814 316.166557 
L 543.489533 318.079137 
L 549.601253 319.68658 
L 555.712973 321.006865 
L 561.824692 322.063138 
L 567.936412 322.883073 
L 574.048131 323.497979 
L 582.197091 324.057424 
L 590.34605 324.394092 
L 602.56949 324.642391 
L 612.755689 324.717449 
L 612.755689 324.717449 
" clip-path="url(#pf209168a28)" style="fill: none; stroke: #ffff00; stroke-width: 3; stroke-linecap: square"/>
   </g>
   <g id="patch_3">
    <path d="M 80.119325 339.84 
L 80.119325 7.2 
" style="fill: none; stroke: #000000; stroke-width: 0.5; stroke-linejoin: miter; stroke-linecap: square"/>
   </g>
   <g id="patch_4">
    <path d="M 638.119325 339.84 
L 638.119325 7.2 
" style="fill: none; stroke: #000000; stroke-width: 0.5; stroke-linejoin: miter; stroke-linecap: square"/>
   </g>
   <g id="patch_5">
    <path d="M 80.119325 339.84 
L 638.119325 339.84 
" style="fill: none; stroke: #000000; stroke-width: 0.5; stroke-linejoin: miter; stroke-linecap: square"/>
   </g>
   <g id="patch_6">
    <path d="M 80.119325 7.2 
L 638.119325 7.2 
" style="fill: none; stroke: #000000; stroke-width: 0.5; stroke-linejoin: miter; stroke-linecap: square"/>
   </g>
   <g id="legend_1">
    <g id="line2d_129">
     <path d="M 197.630724 29.930821 
L 215.630724 29.930821 
L 233.630724 29.930821 
" style="fill: none; stroke: #ff0000; stroke-width: 3; stroke-linecap: square"/>
    </g>
    <g id="text_16">
     <!-- n=1 -->
     <g transform="translate(248.030724 36.230821) scale(0.18 -0.18)">
      <defs>
       <path id="URWPalladioL-Roma-6e" d="M 2624 -7 
C 3014 -7 3021 -7 3130 -7 
C 3219 -7 3219 -7 3661 -7 
L 3661 179 
L 3398 205 
C 3181 205 3162 244 3162 654 
L 3162 1892 
C 3162 2642 2810 3008 2093 3008 
C 1856 3008 1722 2963 1587 2847 
L 1101 2424 
L 1101 2982 
L 1043 3008 
C 717 2873 384 2783 45 2745 
L 45 2565 
L 282 2565 
C 538 2565 563 2520 563 2094 
L 563 643 
C 563 237 544 192 326 192 
L 38 192 
L 38 -7 
C 474 -7 646 -7 832 -7 
C 1018 -7 1190 -7 1626 -7 
L 1626 192 
L 1338 192 
C 1120 192 1101 237 1101 643 
L 1101 2011 
C 1101 2300 1523 2616 1914 2616 
C 2342 2616 2624 2297 2624 1806 
L 2624 -7 
z
" transform="scale(0.015625)"/>
       <path id="URWPalladioL-Roma-3d" d="M 3552 2496 
L 326 2496 
L 326 2137 
L 3552 2137 
L 3552 2496 
z
M 3552 1255 
L 326 1255 
L 326 896 
L 3552 896 
L 3552 1255 
z
" transform="scale(0.015625)"/>
      </defs>
      <use xlink:href="#URWPalladioL-Roma-6e" transform="scale(0.996264)"/>
      <use xlink:href="#URWPalladioL-Roma-3d" transform="translate(57.982061 0) scale(0.996264)"/>
      <use xlink:href="#URWPalladioL-Roma-31" transform="translate(118.355073 0) scale(0.996264)"/>
     </g>
    </g>
    <g id="line2d_130">
     <path d="M 197.630724 56.818576 
L 215.630724 56.818576 
L 233.630724 56.818576 
" style="fill: none; stroke: #ff1700; stroke-width: 3; stroke-linecap: square"/>
    </g>
    <g id="text_17">
     <!-- n=2 -->
     <g transform="translate(248.030724 63.118576) scale(0.18 -0.18)">
      <use xlink:href="#URWPalladioL-Roma-6e" transform="scale(0.996264)"/>
      <use xlink:href="#URWPalladioL-Roma-3d" transform="translate(57.982061 0) scale(0.996264)"/>
      <use xlink:href="#URWPalladioL-Roma-32" transform="translate(118.355073 0) scale(0.996264)"/>
     </g>
    </g>
    <g id="line2d_131">
     <path d="M 197.630724 83.706331 
L 215.630724 83.706331 
L 233.630724 83.706331 
" style="fill: none; stroke: #ff2e00; stroke-width: 3; stroke-linecap: square"/>
    </g>
    <g id="text_18">
     <!-- n=3 -->
     <g transform="translate(248.030724 90.006331) scale(0.18 -0.18)">
      <use xlink:href="#URWPalladioL-Roma-6e" transform="scale(0.996264)"/>
      <use xlink:href="#URWPalladioL-Roma-3d" transform="translate(57.982061 0) scale(0.996264)"/>
      <use xlink:href="#URWPalladioL-Roma-33" transform="translate(118.355073 0) scale(0.996264)"/>
     </g>
    </g>
    <g id="line2d_132">
     <path d="M 197.630724 110.594086 
L 215.630724 110.594086 
L 233.630724 110.594086 
" style="fill: none; stroke: #ff4600; stroke-width: 3; stroke-linecap: square"/>
    </g>
    <g id="text_19">
     <!-- n=4 -->
     <g transform="translate(248.030724 116.894086) scale(0.18 -0.18)">
      <use xlink:href="#URWPalladioL-Roma-6e" transform="scale(0.996264)"/>
      <use xlink:href="#URWPalladioL-Roma-3d" transform="translate(57.982061 0) scale(0.996264)"/>
      <use xlink:href="#URWPalladioL-Roma-34" transform="translate(118.355073 0) scale(0.996264)"/>
     </g>
    </g>
    <g id="line2d_133">
     <path d="M 314.301 29.930821 
L 332.301 29.930821 
L 350.301 29.930821 
" style="fill: none; stroke: #ff5d00; stroke-width: 3; stroke-linecap: square"/>
    </g>
    <g id="text_20">
     <!-- n=5 -->
     <g transform="translate(364.701 36.230821) scale(0.18 -0.18)">
      <use xlink:href="#URWPalladioL-Roma-6e" transform="scale(0.996264)"/>
      <use xlink:href="#URWPalladioL-Roma-3d" transform="translate(57.982061 0) scale(0.996264)"/>
      <use xlink:href="#URWPalladioL-Roma-35" transform="translate(118.355073 0) scale(0.996264)"/>
     </g>
    </g>
    <g id="line2d_134">
     <path d="M 314.301 56.818576 
L 332.301 56.818576 
L 350.301 56.818576 
" style="fill: none; stroke: #ff7400; stroke-width: 3; stroke-linecap: square"/>
    </g>
    <g id="text_21">
     <!-- n=6 -->
     <g transform="translate(364.701 63.118576) scale(0.18 -0.18)">
      <use xlink:href="#URWPalladioL-Roma-6e" transform="scale(0.996264)"/>
      <use xlink:href="#URWPalladioL-Roma-3d" transform="translate(57.982061 0) scale(0.996264)"/>
      <use xlink:href="#URWPalladioL-Roma-36" transform="translate(118.355073 0) scale(0.996264)"/>
     </g>
    </g>
    <g id="line2d_135">
     <path d="M 314.301 83.706331 
L 332.301 83.706331 
L 350.301 83.706331 
" style="fill: none; stroke: #ff8b00; stroke-width: 3; stroke-linecap: square"/>
    </g>
    <g id="text_22">
     <!-- n=7 -->
     <g transform="translate(364.701 90.006331) scale(0.18 -0.18)">
      <defs>
       <path id="URWPalladioL-Roma-37" d="M 358 32 
L 416 -51 
C 666 -32 666 -32 710 -32 
C 755 -32 755 -32 1005 -51 
C 1274 649 1587 1317 2010 2087 
L 3181 4199 
L 3181 4372 
C 2490 4372 2266 4372 1747 4372 
C 1280 4372 966 4372 346 4372 
L 282 4359 
C 301 3750 301 3750 301 3685 
C 301 3614 301 3614 282 3031 
L 474 3031 
L 518 3390 
C 570 3789 614 3840 909 3840 
L 2618 3840 
C 2362 3313 2163 2941 1920 2549 
L 358 32 
z
" transform="scale(0.015625)"/>
      </defs>
      <use xlink:href="#URWPalladioL-Roma-6e" transform="scale(0.996264)"/>
      <use xlink:href="#URWPalladioL-Roma-3d" transform="translate(57.982061 0) scale(0.996264)"/>
      <use xlink:href="#URWPalladioL-Roma-37" transform="translate(118.355073 0) scale(0.996264)"/>
     </g>
    </g>
    <g id="line2d_136">
     <path d="M 314.301 110.594086 
L 332.301 110.594086 
L 350.301 110.594086 
" style="fill: none; stroke: #ffa200; stroke-width: 3; stroke-linecap: square"/>
    </g>
    <g id="text_23">
     <!-- n=8 -->
     <g transform="translate(364.701 116.894086) scale(0.18 -0.18)">
      <use xlink:href="#URWPalladioL-Roma-6e" transform="scale(0.996264)"/>
      <use xlink:href="#URWPalladioL-Roma-3d" transform="translate(57.982061 0) scale(0.996264)"/>
      <use xlink:href="#URWPalladioL-Roma-38" transform="translate(118.355073 0) scale(0.996264)"/>
     </g>
    </g>
    <g id="line2d_137">
     <path d="M 430.971275 29.930821 
L 448.971275 29.930821 
L 466.971275 29.930821 
" style="fill: none; stroke: #ffb900; stroke-width: 3; stroke-linecap: square"/>
    </g>
    <g id="text_24">
     <!-- n=9 -->
     <g transform="translate(481.371275 36.230821) scale(0.18 -0.18)">
      <defs>
       <path id="URWPalladioL-Roma-39" d="M 614 -106 
C 1325 125 1632 272 1978 566 
C 2598 1098 2925 1835 2925 2693 
C 2925 3776 2406 4435 1562 4435 
C 742 4435 128 3795 128 2938 
C 128 2201 608 1664 1274 1664 
C 1491 1664 1741 1734 1856 1830 
L 2304 2202 
C 2253 1125 1555 336 397 54 
L 397 3 
L 614 -106 
z
M 1536 4224 
C 1824 4224 2035 4102 2176 3846 
C 2291 3641 2368 3328 2368 3040 
C 2368 2451 2029 2055 1536 2055 
C 1024 2055 678 2509 678 3174 
C 678 3821 1011 4224 1536 4224 
z
" transform="scale(0.015625)"/>
      </defs>
      <use xlink:href="#URWPalladioL-Roma-6e" transform="scale(0.996264)"/>
      <use xlink:href="#URWPalladioL-Roma-3d" transform="translate(57.982061 0) scale(0.996264)"/>
      <use xlink:href="#URWPalladioL-Roma-39" transform="translate(118.355073 0) scale(0.996264)"/>
     </g>
    </g>
    <g id="line2d_138">
     <path d="M 430.971275 56.818576 
L 448.971275 56.818576 
L 466.971275 56.818576 
" style="fill: none; stroke: #ffd100; stroke-width: 3; stroke-linecap: square"/>
    </g>
    <g id="text_25">
     <!-- n=10 -->
     <g transform="translate(481.371275 63.118576) scale(0.18 -0.18)">
      <use xlink:href="#URWPalladioL-Roma-6e" transform="scale(0.996264)"/>
      <use xlink:href="#URWPalladioL-Roma-3d" transform="translate(57.982061 0) scale(0.996264)"/>
      <use xlink:href="#URWPalladioL-Roma-31" transform="translate(118.355073 0) scale(0.996264)"/>
      <use xlink:href="#URWPalladioL-Roma-30" transform="translate(168.168273 0) scale(0.996264)"/>
     </g>
    </g>
    <g id="line2d_139">
     <path d="M 430.971275 83.706331 
L 448.971275 83.706331 
L 466.971275 83.706331 
" style="fill: none; stroke: #ffe800; stroke-width: 3; stroke-linecap: square"/>
    </g>
    <g id="text_26">
     <!-- n=11 -->
     <g transform="translate(481.371275 90.006331) scale(0.18 -0.18)">
      <use xlink:href="#URWPalladioL-Roma-6e" transform="scale(0.996264)"/>
      <use xlink:href="#URWPalladioL-Roma-3d" transform="translate(57.982061 0) scale(0.996264)"/>
      <use xlink:href="#URWPalladioL-Roma-31" transform="translate(118.355073 0) scale(0.996264)"/>
      <use xlink:href="#URWPalladioL-Roma-31" transform="translate(168.168273 0) scale(0.996264)"/>
     </g>
    </g>
    <g id="line2d_140">
     <path d="M 430.971275 110.594086 
L 448.971275 110.594086 
L 466.971275 110.594086 
" style="fill: none; stroke: #ffff00; stroke-width: 3; stroke-linecap: square"/>
    </g>
    <g id="text_27">
     <!-- n=12 -->
     <g transform="translate(481.371275 116.894086) scale(0.18 -0.18)">
      <use xlink:href="#URWPalladioL-Roma-6e" transform="scale(0.996264)"/>
      <use xlink:href="#URWPalladioL-Roma-3d" transform="translate(57.982061 0) scale(0.996264)"/>
      <use xlink:href="#URWPalladioL-Roma-31" transform="translate(118.355073 0) scale(0.996264)"/>
      <use xlink:href="#URWPalladioL-Roma-32" transform="translate(168.168273 0) scale(0.996264)"/>
     </g>
    </g>
   </g>
  </g>
 </g>
 <defs>
  <clipPath id="pf209168a28">
   <rect x="80.119325" y="7.2" width="558" height="332.64"/>
  </clipPath>
 </defs>
</svg>
