<?xml version="1.0" encoding="utf-8" standalone="no"?>
<!DOCTYPE svg PUBLIC "-//W3C//DTD SVG 1.1//EN"
  "http://www.w3.org/Graphics/SVG/1.1/DTD/svg11.dtd">
<svg xmlns:xlink="http://www.w3.org/1999/xlink" width="508.118059pt" height="379.384091pt" viewBox="0 0 508.118059 379.384091" xmlns="http://www.w3.org/2000/svg" version="1.1">
 <metadata>
  <rdf:RDF xmlns:dc="http://purl.org/dc/elements/1.1/" xmlns:cc="http://creativecommons.org/ns#" xmlns:rdf="http://www.w3.org/1999/02/22-rdf-syntax-ns#">
   <cc:Work>
    <dc:type rdf:resource="http://purl.org/dc/dcmitype/StillImage"/>
    <dc:date>2025-06-03T10:58:23.635989</dc:date>
    <dc:format>image/svg+xml</dc:format>
    <dc:creator>
     <cc:Agent>
      <dc:title>Matplotlib v3.7.1, https://matplotlib.org/</dc:title>
     </cc:Agent>
    </dc:creator>
   </cc:Work>
  </rdf:RDF>
 </metadata>
 <defs>
  <style type="text/css">*{stroke-linejoin: round; stroke-linecap: butt}</style>
 </defs>
 <g id="figure_1">
  <g id="patch_1">
   <path d="M 0 379.384091 
L 508.118059 379.384091 
L 508.118059 0 
L 0 0 
z
" style="fill: #ffffff"/>
  </g>
  <g id="axes_1">
   <g id="patch_2">
    <path d="M 48.540475 339.84 
L 494.940475 339.84 
L 494.940475 7.2 
L 48.540475 7.2 
z
" style="fill: #ffffff"/>
   </g>
   <g id="matplotlib.axis_1">
    <g id="xtick_1">
     <g id="line2d_1">
      <defs>
       <path id="m00fe4a980e" d="M 0 0 
L 0 -3 
" style="stroke: #000000; stroke-width: 0.5"/>
      </defs>
      <g>
       <use xlink:href="#m00fe4a980e" x="48.540475" y="339.84" style="stroke: #000000; stroke-width: 0.5"/>
      </g>
     </g>
     <g id="line2d_2">
      <defs>
       <path id="m9ae6f094b0" d="M 0 0 
L 0 3 
" style="stroke: #000000; stroke-width: 0.5"/>
      </defs>
      <g>
       <use xlink:href="#m9ae6f094b0" x="48.540475" y="7.2" style="stroke: #000000; stroke-width: 0.5"/>
      </g>
     </g>
     <g id="text_1">
      <!-- 0 -->
      <g transform="translate(45.551683 351.893876) scale(0.12 -0.12)">
       <defs>
        <path id="URWPalladioL-Roma-30" d="M 1683 4416 
C 691 4416 186 3628 186 2077 
C 186 1326 320 680 544 366 
C 768 51 1126 -128 1523 -128 
C 2490 -128 2976 705 2976 2346 
C 2976 3749 2560 4416 1683 4416 
z
M 1568 4192 
C 2189 4192 2438 3564 2438 2025 
C 2438 661 2195 96 1606 96 
C 986 96 723 744 723 2308 
C 723 3660 960 4192 1568 4192 
z
" transform="scale(0.015625)"/>
       </defs>
       <use xlink:href="#URWPalladioL-Roma-30" transform="scale(0.996264)"/>
      </g>
     </g>
    </g>
    <g id="xtick_2">
     <g id="line2d_3">
      <g>
       <use xlink:href="#m00fe4a980e" x="137.820475" y="339.84" style="stroke: #000000; stroke-width: 0.5"/>
      </g>
     </g>
     <g id="line2d_4">
      <g>
       <use xlink:href="#m9ae6f094b0" x="137.820475" y="7.2" style="stroke: #000000; stroke-width: 0.5"/>
      </g>
     </g>
     <g id="text_2">
      <!-- 10 -->
      <g transform="translate(131.842891 351.893876) scale(0.12 -0.12)">
       <defs>
        <path id="URWPalladioL-Roma-31" d="M 429 3584 
L 493 3584 
L 1318 3956 
C 1325 3962 1331 3962 1338 3962 
C 1376 3962 1389 3905 1389 3751 
L 1389 613 
C 1389 276 1318 205 973 205 
L 614 205 
L 614 0 
C 1600 0 1600 0 1670 0 
C 1754 0 1894 0 2112 0 
C 2189 0 2413 0 2675 0 
L 2675 205 
L 2342 205 
C 1990 205 1926 276 1926 612 
L 1926 4443 
L 1837 4475 
C 1421 4257 966 4065 384 3860 
L 429 3584 
z
" transform="scale(0.015625)"/>
       </defs>
       <use xlink:href="#URWPalladioL-Roma-31" transform="scale(0.996264)"/>
       <use xlink:href="#URWPalladioL-Roma-30" transform="translate(49.8132 0) scale(0.996264)"/>
      </g>
     </g>
    </g>
    <g id="xtick_3">
     <g id="line2d_5">
      <g>
       <use xlink:href="#m00fe4a980e" x="227.100475" y="339.84" style="stroke: #000000; stroke-width: 0.5"/>
      </g>
     </g>
     <g id="line2d_6">
      <g>
       <use xlink:href="#m9ae6f094b0" x="227.100475" y="7.2" style="stroke: #000000; stroke-width: 0.5"/>
      </g>
     </g>
     <g id="text_3">
      <!-- 20 -->
      <g transform="translate(221.122891 351.893876) scale(0.12 -0.12)">
       <defs>
        <path id="URWPalladioL-Roma-32" d="M 102 160 
L 102 0 
C 1299 0 1299 0 1530 0 
C 1760 0 1760 0 2995 0 
C 2982 125 2982 186 2982 269 
C 2982 348 2982 407 2995 539 
C 2259 539 1965 539 781 539 
L 1946 1761 
C 2566 2414 2758 2763 2758 3238 
C 2758 3966 2259 4416 1446 4416 
C 986 4416 672 4288 358 3969 
L 250 3099 
L 435 3099 
L 518 3393 
C 621 3763 851 3923 1280 3923 
C 1830 3923 2182 3577 2182 3035 
C 2182 2555 1914 2083 1190 1316 
L 102 160 
z
" transform="scale(0.015625)"/>
       </defs>
       <use xlink:href="#URWPalladioL-Roma-32" transform="scale(0.996264)"/>
       <use xlink:href="#URWPalladioL-Roma-30" transform="translate(49.8132 0) scale(0.996264)"/>
      </g>
     </g>
    </g>
    <g id="xtick_4">
     <g id="line2d_7">
      <g>
       <use xlink:href="#m00fe4a980e" x="316.380475" y="339.84" style="stroke: #000000; stroke-width: 0.5"/>
      </g>
     </g>
     <g id="line2d_8">
      <g>
       <use xlink:href="#m9ae6f094b0" x="316.380475" y="7.2" style="stroke: #000000; stroke-width: 0.5"/>
      </g>
     </g>
     <g id="text_4">
      <!-- 30 -->
      <g transform="translate(310.402891 351.893876) scale(0.12 -0.12)">
       <defs>
        <path id="URWPalladioL-Roma-33" d="M 275 3197 
L 474 3197 
L 589 3554 
C 659 3770 1062 3987 1395 3987 
C 1811 3987 2150 3649 2150 3248 
C 2150 2770 1773 2368 1318 2368 
C 1267 2368 1197 2368 1114 2381 
L 1018 2381 
L 941 2047 
L 986 2008 
C 1229 2118 1350 2150 1523 2150 
C 2054 2150 2362 1809 2362 1222 
C 2362 566 1971 135 1376 135 
C 1082 135 819 231 627 411 
C 474 553 390 701 269 1049 
L 96 985 
C 230 593 282 361 320 39 
C 659 -77 941 -128 1178 -128 
C 1690 -128 2278 161 2630 593 
C 2848 857 2957 1140 2957 1442 
C 2957 1751 2829 2022 2598 2182 
C 2438 2298 2291 2350 1971 2407 
C 2483 2803 2675 3096 2675 3472 
C 2675 4040 2202 4416 1491 4416 
C 1056 4416 768 4295 461 3989 
L 275 3197 
z
" transform="scale(0.015625)"/>
       </defs>
       <use xlink:href="#URWPalladioL-Roma-33" transform="scale(0.996264)"/>
       <use xlink:href="#URWPalladioL-Roma-30" transform="translate(49.8132 0) scale(0.996264)"/>
      </g>
     </g>
    </g>
    <g id="xtick_5">
     <g id="line2d_9">
      <g>
       <use xlink:href="#m00fe4a980e" x="405.660475" y="339.84" style="stroke: #000000; stroke-width: 0.5"/>
      </g>
     </g>
     <g id="line2d_10">
      <g>
       <use xlink:href="#m9ae6f094b0" x="405.660475" y="7.2" style="stroke: #000000; stroke-width: 0.5"/>
      </g>
     </g>
     <g id="text_5">
      <!-- 40 -->
      <g transform="translate(399.682891 351.893876) scale(0.12 -0.12)">
       <defs>
        <path id="URWPalladioL-Roma-34" d="M 1792 1152 
L 1792 673 
C 1792 289 1722 199 1408 199 
L 1011 199 
L 1011 0 
C 1862 0 1862 0 2016 0 
C 2170 0 2170 0 3021 0 
L 3021 199 
L 2714 199 
C 2400 199 2330 282 2330 669 
L 2330 1152 
C 2707 1152 2842 1152 3021 1133 
L 3021 1588 
C 2720 1563 2598 1563 2502 1563 
L 2483 1563 
L 2330 1563 
L 2330 2457 
C 2330 3600 2342 4152 2374 4416 
L 2298 4448 
L 1824 4275 
L 13 1299 
L 83 1152 
L 1792 1152 
z
M 1792 1563 
L 416 1563 
L 1792 3826 
L 1792 1563 
z
" transform="scale(0.015625)"/>
       </defs>
       <use xlink:href="#URWPalladioL-Roma-34" transform="scale(0.996264)"/>
       <use xlink:href="#URWPalladioL-Roma-30" transform="translate(49.8132 0) scale(0.996264)"/>
      </g>
     </g>
    </g>
    <g id="xtick_6">
     <g id="line2d_11">
      <g>
       <use xlink:href="#m00fe4a980e" x="494.940475" y="339.84" style="stroke: #000000; stroke-width: 0.5"/>
      </g>
     </g>
     <g id="line2d_12">
      <g>
       <use xlink:href="#m9ae6f094b0" x="494.940475" y="7.2" style="stroke: #000000; stroke-width: 0.5"/>
      </g>
     </g>
     <g id="text_6">
      <!-- 50 -->
      <g transform="translate(488.962891 351.893876) scale(0.12 -0.12)">
       <defs>
        <path id="URWPalladioL-Roma-35" d="M 813 3877 
C 1638 3877 1997 3877 2765 3877 
L 2797 3907 
C 2784 4016 2784 4064 2784 4144 
C 2784 4229 2784 4277 2797 4386 
L 2765 4416 
C 2285 4416 1997 4416 1651 4416 
C 1299 4416 1018 4416 538 4416 
L 506 4403 
C 512 4011 518 3729 518 3523 
C 518 2977 499 2360 480 2077 
L 608 2038 
C 909 2341 1082 2432 1395 2432 
C 2010 2432 2394 1993 2394 1296 
C 2394 580 1984 160 1286 160 
C 941 160 621 277 531 444 
L 237 973 
L 83 883 
C 230 516 307 310 397 27 
C 576 -71 832 -128 1107 -128 
C 1536 -128 1990 59 2342 368 
C 2733 716 2938 1154 2938 1630 
C 2938 2359 2419 2874 1690 2874 
C 1382 2874 1152 2791 755 2554 
L 813 3877 
z
" transform="scale(0.015625)"/>
       </defs>
       <use xlink:href="#URWPalladioL-Roma-35" transform="scale(0.996264)"/>
       <use xlink:href="#URWPalladioL-Roma-30" transform="translate(49.8132 0) scale(0.996264)"/>
      </g>
     </g>
    </g>
    <g id="xtick_7">
     <g id="line2d_13">
      <defs>
       <path id="mdd5d719d81" d="M 0 0 
L 0 -1.5 
" style="stroke: #000000; stroke-width: 0.5"/>
      </defs>
      <g>
       <use xlink:href="#mdd5d719d81" x="66.396475" y="339.84" style="stroke: #000000; stroke-width: 0.5"/>
      </g>
     </g>
     <g id="line2d_14">
      <defs>
       <path id="mb112d59294" d="M 0 0 
L 0 1.5 
" style="stroke: #000000; stroke-width: 0.5"/>
      </defs>
      <g>
       <use xlink:href="#mb112d59294" x="66.396475" y="7.2" style="stroke: #000000; stroke-width: 0.5"/>
      </g>
     </g>
    </g>
    <g id="xtick_8">
     <g id="line2d_15">
      <g>
       <use xlink:href="#mdd5d719d81" x="84.252475" y="339.84" style="stroke: #000000; stroke-width: 0.5"/>
      </g>
     </g>
     <g id="line2d_16">
      <g>
       <use xlink:href="#mb112d59294" x="84.252475" y="7.2" style="stroke: #000000; stroke-width: 0.5"/>
      </g>
     </g>
    </g>
    <g id="xtick_9">
     <g id="line2d_17">
      <g>
       <use xlink:href="#mdd5d719d81" x="102.108475" y="339.84" style="stroke: #000000; stroke-width: 0.5"/>
      </g>
     </g>
     <g id="line2d_18">
      <g>
       <use xlink:href="#mb112d59294" x="102.108475" y="7.2" style="stroke: #000000; stroke-width: 0.5"/>
      </g>
     </g>
    </g>
    <g id="xtick_10">
     <g id="line2d_19">
      <g>
       <use xlink:href="#mdd5d719d81" x="119.964475" y="339.84" style="stroke: #000000; stroke-width: 0.5"/>
      </g>
     </g>
     <g id="line2d_20">
      <g>
       <use xlink:href="#mb112d59294" x="119.964475" y="7.2" style="stroke: #000000; stroke-width: 0.5"/>
      </g>
     </g>
    </g>
    <g id="xtick_11">
     <g id="line2d_21">
      <g>
       <use xlink:href="#mdd5d719d81" x="155.676475" y="339.84" style="stroke: #000000; stroke-width: 0.5"/>
      </g>
     </g>
     <g id="line2d_22">
      <g>
       <use xlink:href="#mb112d59294" x="155.676475" y="7.2" style="stroke: #000000; stroke-width: 0.5"/>
      </g>
     </g>
    </g>
    <g id="xtick_12">
     <g id="line2d_23">
      <g>
       <use xlink:href="#mdd5d719d81" x="173.532475" y="339.84" style="stroke: #000000; stroke-width: 0.5"/>
      </g>
     </g>
     <g id="line2d_24">
      <g>
       <use xlink:href="#mb112d59294" x="173.532475" y="7.2" style="stroke: #000000; stroke-width: 0.5"/>
      </g>
     </g>
    </g>
    <g id="xtick_13">
     <g id="line2d_25">
      <g>
       <use xlink:href="#mdd5d719d81" x="191.388475" y="339.84" style="stroke: #000000; stroke-width: 0.5"/>
      </g>
     </g>
     <g id="line2d_26">
      <g>
       <use xlink:href="#mb112d59294" x="191.388475" y="7.2" style="stroke: #000000; stroke-width: 0.5"/>
      </g>
     </g>
    </g>
    <g id="xtick_14">
     <g id="line2d_27">
      <g>
       <use xlink:href="#mdd5d719d81" x="209.244475" y="339.84" style="stroke: #000000; stroke-width: 0.5"/>
      </g>
     </g>
     <g id="line2d_28">
      <g>
       <use xlink:href="#mb112d59294" x="209.244475" y="7.2" style="stroke: #000000; stroke-width: 0.5"/>
      </g>
     </g>
    </g>
    <g id="xtick_15">
     <g id="line2d_29">
      <g>
       <use xlink:href="#mdd5d719d81" x="244.956475" y="339.84" style="stroke: #000000; stroke-width: 0.5"/>
      </g>
     </g>
     <g id="line2d_30">
      <g>
       <use xlink:href="#mb112d59294" x="244.956475" y="7.2" style="stroke: #000000; stroke-width: 0.5"/>
      </g>
     </g>
    </g>
    <g id="xtick_16">
     <g id="line2d_31">
      <g>
       <use xlink:href="#mdd5d719d81" x="262.812475" y="339.84" style="stroke: #000000; stroke-width: 0.5"/>
      </g>
     </g>
     <g id="line2d_32">
      <g>
       <use xlink:href="#mb112d59294" x="262.812475" y="7.2" style="stroke: #000000; stroke-width: 0.5"/>
      </g>
     </g>
    </g>
    <g id="xtick_17">
     <g id="line2d_33">
      <g>
       <use xlink:href="#mdd5d719d81" x="280.668475" y="339.84" style="stroke: #000000; stroke-width: 0.5"/>
      </g>
     </g>
     <g id="line2d_34">
      <g>
       <use xlink:href="#mb112d59294" x="280.668475" y="7.2" style="stroke: #000000; stroke-width: 0.5"/>
      </g>
     </g>
    </g>
    <g id="xtick_18">
     <g id="line2d_35">
      <g>
       <use xlink:href="#mdd5d719d81" x="298.524475" y="339.84" style="stroke: #000000; stroke-width: 0.5"/>
      </g>
     </g>
     <g id="line2d_36">
      <g>
       <use xlink:href="#mb112d59294" x="298.524475" y="7.2" style="stroke: #000000; stroke-width: 0.5"/>
      </g>
     </g>
    </g>
    <g id="xtick_19">
     <g id="line2d_37">
      <g>
       <use xlink:href="#mdd5d719d81" x="334.236475" y="339.84" style="stroke: #000000; stroke-width: 0.5"/>
      </g>
     </g>
     <g id="line2d_38">
      <g>
       <use xlink:href="#mb112d59294" x="334.236475" y="7.2" style="stroke: #000000; stroke-width: 0.5"/>
      </g>
     </g>
    </g>
    <g id="xtick_20">
     <g id="line2d_39">
      <g>
       <use xlink:href="#mdd5d719d81" x="352.092475" y="339.84" style="stroke: #000000; stroke-width: 0.5"/>
      </g>
     </g>
     <g id="line2d_40">
      <g>
       <use xlink:href="#mb112d59294" x="352.092475" y="7.2" style="stroke: #000000; stroke-width: 0.5"/>
      </g>
     </g>
    </g>
    <g id="xtick_21">
     <g id="line2d_41">
      <g>
       <use xlink:href="#mdd5d719d81" x="369.948475" y="339.84" style="stroke: #000000; stroke-width: 0.5"/>
      </g>
     </g>
     <g id="line2d_42">
      <g>
       <use xlink:href="#mb112d59294" x="369.948475" y="7.2" style="stroke: #000000; stroke-width: 0.5"/>
      </g>
     </g>
    </g>
    <g id="xtick_22">
     <g id="line2d_43">
      <g>
       <use xlink:href="#mdd5d719d81" x="387.804475" y="339.84" style="stroke: #000000; stroke-width: 0.5"/>
      </g>
     </g>
     <g id="line2d_44">
      <g>
       <use xlink:href="#mb112d59294" x="387.804475" y="7.2" style="stroke: #000000; stroke-width: 0.5"/>
      </g>
     </g>
    </g>
    <g id="xtick_23">
     <g id="line2d_45">
      <g>
       <use xlink:href="#mdd5d719d81" x="423.516475" y="339.84" style="stroke: #000000; stroke-width: 0.5"/>
      </g>
     </g>
     <g id="line2d_46">
      <g>
       <use xlink:href="#mb112d59294" x="423.516475" y="7.2" style="stroke: #000000; stroke-width: 0.5"/>
      </g>
     </g>
    </g>
    <g id="xtick_24">
     <g id="line2d_47">
      <g>
       <use xlink:href="#mdd5d719d81" x="441.372475" y="339.84" style="stroke: #000000; stroke-width: 0.5"/>
      </g>
     </g>
     <g id="line2d_48">
      <g>
       <use xlink:href="#mb112d59294" x="441.372475" y="7.2" style="stroke: #000000; stroke-width: 0.5"/>
      </g>
     </g>
    </g>
    <g id="xtick_25">
     <g id="line2d_49">
      <g>
       <use xlink:href="#mdd5d719d81" x="459.228475" y="339.84" style="stroke: #000000; stroke-width: 0.5"/>
      </g>
     </g>
     <g id="line2d_50">
      <g>
       <use xlink:href="#mb112d59294" x="459.228475" y="7.2" style="stroke: #000000; stroke-width: 0.5"/>
      </g>
     </g>
    </g>
    <g id="xtick_26">
     <g id="line2d_51">
      <g>
       <use xlink:href="#mdd5d719d81" x="477.084475" y="339.84" style="stroke: #000000; stroke-width: 0.5"/>
      </g>
     </g>
     <g id="line2d_52">
      <g>
       <use xlink:href="#mb112d59294" x="477.084475" y="7.2" style="stroke: #000000; stroke-width: 0.5"/>
      </g>
     </g>
    </g>
    <g id="text_7">
     <!-- $\Lambda$ [meV] -->
     <g transform="translate(247.194423 368.531862) scale(0.13 -0.13)">
      <defs>
       <path id="PazoMath-4c" d="M 2368 4365 
L 678 519 
C 602 333 474 218 333 205 
L 96 186 
L 96 0 
C 678 0 691 0 794 0 
C 877 0 890 0 1568 0 
L 1568 186 
L 1331 205 
C 1107 224 1024 269 1024 371 
C 1024 455 1114 730 1248 1050 
L 2349 3642 
L 3571 738 
C 3686 468 3699 379 3699 320 
C 3699 250 3597 205 3437 192 
L 3136 192 
L 3136 0 
C 3910 0 3923 0 4026 0 
C 4147 0 4160 0 4838 0 
L 4838 186 
L 4621 205 
C 4454 231 4384 339 4160 858 
L 2611 4493 
L 2368 4365 
z
" transform="scale(0.015625)"/>
       <path id="URWPalladioL-Roma-5b" d="M 563 -1152 
C 1018 -1152 1030 -1152 1184 -1152 
C 1338 -1152 1370 -1152 1805 -1152 
L 1843 -1120 
L 1843 -953 
L 1818 -921 
L 1574 -921 
C 1402 -921 1261 -882 1184 -818 
C 1126 -760 1107 -671 1107 -459 
C 1107 -453 1107 -318 1101 -125 
L 1101 112 
L 1101 3409 
L 1101 3646 
C 1107 3826 1107 3967 1107 3973 
C 1107 4185 1126 4281 1184 4339 
C 1261 4403 1402 4441 1574 4441 
L 1818 4441 
L 1843 4473 
L 1843 4640 
L 1805 4672 
C 1357 4672 1338 4672 1184 4672 
C 1037 4672 1005 4672 563 4672 
L 506 4595 
C 544 4435 557 4223 557 3730 
C 557 3633 557 3556 563 3492 
L 563 3409 
L 563 112 
L 563 28 
C 557 -74 557 -81 557 -190 
L 557 -260 
C 557 -696 544 -876 506 -1075 
L 563 -1152 
z
" transform="scale(0.015625)"/>
       <path id="URWPalladioL-Roma-6d" d="M 115 2565 
L 352 2565 
C 608 2565 634 2520 634 2094 
L 634 643 
C 634 237 614 192 397 192 
L 102 192 
L 102 -7 
C 717 -7 736 -7 915 -7 
C 1094 -7 1261 -7 1677 -7 
L 1677 179 
L 1408 205 
C 1190 205 1171 250 1171 654 
L 1171 2014 
C 1171 2302 1594 2616 1978 2616 
C 2323 2616 2560 2287 2560 1798 
L 2560 643 
C 2560 237 2541 192 2323 192 
L 2029 192 
L 2029 -7 
C 2669 -7 2669 -7 2829 -7 
C 2989 -7 2989 -7 3629 -7 
L 3629 192 
L 3334 192 
C 3117 192 3098 237 3098 643 
L 3098 2011 
C 3098 2300 3520 2616 3904 2616 
C 4250 2616 4486 2291 4486 1806 
L 4486 -7 
C 4877 -7 4883 -7 4992 -7 
C 5075 -7 5075 -7 5562 -7 
L 5562 192 
L 5261 192 
C 5043 192 5024 237 5024 643 
L 5024 1970 
C 5024 2608 4653 3008 4064 3008 
C 3840 3008 3654 2950 3539 2847 
L 3053 2412 
C 2848 2834 2586 3008 2144 3008 
C 1907 3008 1728 2950 1613 2847 
L 1171 2437 
L 1171 2982 
L 1114 3008 
C 787 2873 454 2783 115 2745 
L 115 2565 
z
" transform="scale(0.015625)"/>
       <path id="URWPalladioL-Roma-65" d="M 2797 447 
L 2714 511 
C 2304 269 2157 212 1882 212 
C 1466 212 1120 398 941 711 
C 819 921 774 1101 762 1472 
L 1696 1472 
C 2138 1472 2413 1472 2854 1544 
C 2861 1634 2867 1693 2867 1771 
C 2867 2520 2394 3008 1677 3008 
C 1440 3008 1165 2924 902 2770 
C 378 2469 166 2071 166 1404 
C 166 1000 262 654 435 410 
C 691 71 1120 -128 1600 -128 
C 1837 -128 2074 -77 2336 37 
C 2509 108 2643 191 2669 230 
L 2797 447 
z
M 2298 1690 
C 1965 1690 1811 1690 1581 1690 
C 1286 1690 1120 1690 774 1722 
C 774 2027 800 2169 883 2337 
C 1018 2622 1293 2796 1600 2796 
C 1811 2796 1978 2711 2093 2534 
C 2234 2319 2278 2129 2298 1690 
z
" transform="scale(0.015625)"/>
       <path id="URWPalladioL-Roma-56" d="M 1754 4224 
L 1754 4417 
C 1050 4417 1050 4417 902 4417 
C 755 4417 755 4417 51 4417 
L 51 4237 
L 282 4218 
C 416 4205 480 4147 563 3955 
L 1766 994 
C 1965 507 2042 283 2138 -64 
L 2458 -64 
C 2579 334 2656 545 2867 1058 
L 3981 3756 
C 4128 4103 4198 4199 4326 4218 
L 4518 4237 
L 4518 4417 
L 3827 4417 
C 3712 4417 3565 4417 3379 4417 
C 3347 4417 3238 4417 3136 4417 
L 3136 4224 
L 3469 4224 
C 3610 4224 3693 4159 3693 4062 
C 3693 3998 3674 3908 3635 3812 
L 2464 769 
L 1203 4030 
C 1197 4056 1190 4076 1190 4102 
C 1190 4179 1267 4224 1395 4224 
L 1754 4224 
z
" transform="scale(0.015625)"/>
       <path id="URWPalladioL-Roma-5d" d="M 1568 4672 
C 1114 4672 1094 4672 947 4672 
C 794 4672 762 4672 326 4672 
L 288 4640 
L 288 4473 
L 314 4441 
L 557 4441 
C 730 4441 864 4403 941 4339 
C 1005 4281 1024 4191 1024 3973 
C 1024 3954 1024 3826 1030 3646 
L 1030 3409 
L 1030 112 
L 1030 -125 
C 1024 -311 1024 -427 1024 -446 
C 1024 -664 1005 -760 941 -818 
C 864 -882 730 -921 557 -921 
L 314 -921 
L 288 -953 
L 288 -1120 
L 326 -1152 
C 774 -1152 787 -1152 947 -1152 
C 1094 -1152 1126 -1152 1568 -1152 
L 1626 -1075 
C 1587 -921 1581 -722 1574 -228 
C 1574 -138 1574 -55 1568 28 
L 1568 112 
L 1568 3409 
L 1568 3492 
C 1574 3563 1574 3646 1574 3736 
C 1574 4230 1587 4441 1626 4595 
L 1568 4672 
z
" transform="scale(0.015625)"/>
      </defs>
      <use xlink:href="#PazoMath-4c" transform="scale(0.996264)"/>
      <use xlink:href="#URWPalladioL-Roma-5b" transform="translate(103.661334 0) scale(0.996264)"/>
      <use xlink:href="#URWPalladioL-Roma-6d" transform="translate(136.836564 0) scale(0.996264)"/>
      <use xlink:href="#URWPalladioL-Roma-65" transform="translate(224.806238 0) scale(0.996264)"/>
      <use xlink:href="#URWPalladioL-Roma-56" transform="translate(272.526533 0) scale(0.996264)"/>
      <use xlink:href="#URWPalladioL-Roma-5d" transform="translate(344.456518 0) scale(0.996264)"/>
     </g>
    </g>
   </g>
   <g id="matplotlib.axis_2">
    <g id="ytick_1">
     <g id="line2d_53">
      <defs>
       <path id="m115633e4e3" d="M 0 0 
L 3 0 
" style="stroke: #000000; stroke-width: 0.5"/>
      </defs>
      <g>
       <use xlink:href="#m115633e4e3" x="48.540475" y="326.5344" style="stroke: #000000; stroke-width: 0.5"/>
      </g>
     </g>
     <g id="line2d_54">
      <defs>
       <path id="me26852b6b0" d="M 0 0 
L -3 0 
" style="stroke: #000000; stroke-width: 0.5"/>
      </defs>
      <g>
       <use xlink:href="#me26852b6b0" x="494.940475" y="326.5344" style="stroke: #000000; stroke-width: 0.5"/>
      </g>
     </g>
     <g id="text_8">
      <!-- 0.0 -->
      <g transform="translate(30.096515 330.811338) scale(0.12 -0.12)">
       <defs>
        <path id="URWPalladioL-Roma-2e" d="M 794 744 
C 602 744 429 564 429 372 
C 429 179 602 0 787 0 
C 992 0 1171 173 1171 372 
C 1171 564 992 744 794 744 
z
" transform="scale(0.015625)"/>
       </defs>
       <use xlink:href="#URWPalladioL-Roma-30" transform="scale(0.996264)"/>
       <use xlink:href="#URWPalladioL-Roma-2e" transform="translate(49.8132 0) scale(0.996264)"/>
       <use xlink:href="#URWPalladioL-Roma-30" transform="translate(74.719801 0) scale(0.996264)"/>
      </g>
     </g>
    </g>
    <g id="ytick_2">
     <g id="line2d_55">
      <g>
       <use xlink:href="#m115633e4e3" x="48.540475" y="260.0064" style="stroke: #000000; stroke-width: 0.5"/>
      </g>
     </g>
     <g id="line2d_56">
      <g>
       <use xlink:href="#me26852b6b0" x="494.940475" y="260.0064" style="stroke: #000000; stroke-width: 0.5"/>
      </g>
     </g>
     <g id="text_9">
      <!-- 0.25 -->
      <g transform="translate(24.118931 264.283338) scale(0.12 -0.12)">
       <use xlink:href="#URWPalladioL-Roma-30" transform="scale(0.996264)"/>
       <use xlink:href="#URWPalladioL-Roma-2e" transform="translate(49.8132 0) scale(0.996264)"/>
       <use xlink:href="#URWPalladioL-Roma-32" transform="translate(74.719801 0) scale(0.996264)"/>
       <use xlink:href="#URWPalladioL-Roma-35" transform="translate(124.533001 0) scale(0.996264)"/>
      </g>
     </g>
    </g>
    <g id="ytick_3">
     <g id="line2d_57">
      <g>
       <use xlink:href="#m115633e4e3" x="48.540475" y="193.4784" style="stroke: #000000; stroke-width: 0.5"/>
      </g>
     </g>
     <g id="line2d_58">
      <g>
       <use xlink:href="#me26852b6b0" x="494.940475" y="193.4784" style="stroke: #000000; stroke-width: 0.5"/>
      </g>
     </g>
     <g id="text_10">
      <!-- 0.5 -->
      <g transform="translate(30.096515 197.755338) scale(0.12 -0.12)">
       <use xlink:href="#URWPalladioL-Roma-30" transform="scale(0.996264)"/>
       <use xlink:href="#URWPalladioL-Roma-2e" transform="translate(49.8132 0) scale(0.996264)"/>
       <use xlink:href="#URWPalladioL-Roma-35" transform="translate(74.719801 0) scale(0.996264)"/>
      </g>
     </g>
    </g>
    <g id="ytick_4">
     <g id="line2d_59">
      <g>
       <use xlink:href="#m115633e4e3" x="48.540475" y="126.9504" style="stroke: #000000; stroke-width: 0.5"/>
      </g>
     </g>
     <g id="line2d_60">
      <g>
       <use xlink:href="#me26852b6b0" x="494.940475" y="126.9504" style="stroke: #000000; stroke-width: 0.5"/>
      </g>
     </g>
     <g id="text_11">
      <!-- 0.75 -->
      <g transform="translate(24.118931 131.227338) scale(0.12 -0.12)">
       <defs>
        <path id="URWPalladioL-Roma-37" d="M 358 32 
L 416 -51 
C 666 -32 666 -32 710 -32 
C 755 -32 755 -32 1005 -51 
C 1274 649 1587 1317 2010 2087 
L 3181 4199 
L 3181 4372 
C 2490 4372 2266 4372 1747 4372 
C 1280 4372 966 4372 346 4372 
L 282 4359 
C 301 3750 301 3750 301 3685 
C 301 3614 301 3614 282 3031 
L 474 3031 
L 518 3390 
C 570 3789 614 3840 909 3840 
L 2618 3840 
C 2362 3313 2163 2941 1920 2549 
L 358 32 
z
" transform="scale(0.015625)"/>
       </defs>
       <use xlink:href="#URWPalladioL-Roma-30" transform="scale(0.996264)"/>
       <use xlink:href="#URWPalladioL-Roma-2e" transform="translate(49.8132 0) scale(0.996264)"/>
       <use xlink:href="#URWPalladioL-Roma-37" transform="translate(74.719801 0) scale(0.996264)"/>
       <use xlink:href="#URWPalladioL-Roma-35" transform="translate(124.533001 0) scale(0.996264)"/>
      </g>
     </g>
    </g>
    <g id="ytick_5">
     <g id="line2d_61">
      <g>
       <use xlink:href="#m115633e4e3" x="48.540475" y="60.4224" style="stroke: #000000; stroke-width: 0.5"/>
      </g>
     </g>
     <g id="line2d_62">
      <g>
       <use xlink:href="#me26852b6b0" x="494.940475" y="60.4224" style="stroke: #000000; stroke-width: 0.5"/>
      </g>
     </g>
     <g id="text_12">
      <!-- 1.0 -->
      <g transform="translate(30.096515 64.699338) scale(0.12 -0.12)">
       <use xlink:href="#URWPalladioL-Roma-31" transform="scale(0.996264)"/>
       <use xlink:href="#URWPalladioL-Roma-2e" transform="translate(49.8132 0) scale(0.996264)"/>
       <use xlink:href="#URWPalladioL-Roma-30" transform="translate(74.719801 0) scale(0.996264)"/>
      </g>
     </g>
    </g>
    <g id="ytick_6">
     <g id="line2d_63">
      <defs>
       <path id="m3cded8cbd8" d="M 0 0 
L 1.5 0 
" style="stroke: #000000; stroke-width: 0.5"/>
      </defs>
      <g>
       <use xlink:href="#m3cded8cbd8" x="48.540475" y="313.2288" style="stroke: #000000; stroke-width: 0.5"/>
      </g>
     </g>
     <g id="line2d_64">
      <defs>
       <path id="m9321a9aa15" d="M 0 0 
L -1.5 0 
" style="stroke: #000000; stroke-width: 0.5"/>
      </defs>
      <g>
       <use xlink:href="#m9321a9aa15" x="494.940475" y="313.2288" style="stroke: #000000; stroke-width: 0.5"/>
      </g>
     </g>
    </g>
    <g id="ytick_7">
     <g id="line2d_65">
      <g>
       <use xlink:href="#m3cded8cbd8" x="48.540475" y="299.9232" style="stroke: #000000; stroke-width: 0.5"/>
      </g>
     </g>
     <g id="line2d_66">
      <g>
       <use xlink:href="#m9321a9aa15" x="494.940475" y="299.9232" style="stroke: #000000; stroke-width: 0.5"/>
      </g>
     </g>
    </g>
    <g id="ytick_8">
     <g id="line2d_67">
      <g>
       <use xlink:href="#m3cded8cbd8" x="48.540475" y="286.6176" style="stroke: #000000; stroke-width: 0.5"/>
      </g>
     </g>
     <g id="line2d_68">
      <g>
       <use xlink:href="#m9321a9aa15" x="494.940475" y="286.6176" style="stroke: #000000; stroke-width: 0.5"/>
      </g>
     </g>
    </g>
    <g id="ytick_9">
     <g id="line2d_69">
      <g>
       <use xlink:href="#m3cded8cbd8" x="48.540475" y="273.312" style="stroke: #000000; stroke-width: 0.5"/>
      </g>
     </g>
     <g id="line2d_70">
      <g>
       <use xlink:href="#m9321a9aa15" x="494.940475" y="273.312" style="stroke: #000000; stroke-width: 0.5"/>
      </g>
     </g>
    </g>
    <g id="ytick_10">
     <g id="line2d_71">
      <g>
       <use xlink:href="#m3cded8cbd8" x="48.540475" y="246.7008" style="stroke: #000000; stroke-width: 0.5"/>
      </g>
     </g>
     <g id="line2d_72">
      <g>
       <use xlink:href="#m9321a9aa15" x="494.940475" y="246.7008" style="stroke: #000000; stroke-width: 0.5"/>
      </g>
     </g>
    </g>
    <g id="ytick_11">
     <g id="line2d_73">
      <g>
       <use xlink:href="#m3cded8cbd8" x="48.540475" y="233.3952" style="stroke: #000000; stroke-width: 0.5"/>
      </g>
     </g>
     <g id="line2d_74">
      <g>
       <use xlink:href="#m9321a9aa15" x="494.940475" y="233.3952" style="stroke: #000000; stroke-width: 0.5"/>
      </g>
     </g>
    </g>
    <g id="ytick_12">
     <g id="line2d_75">
      <g>
       <use xlink:href="#m3cded8cbd8" x="48.540475" y="220.0896" style="stroke: #000000; stroke-width: 0.5"/>
      </g>
     </g>
     <g id="line2d_76">
      <g>
       <use xlink:href="#m9321a9aa15" x="494.940475" y="220.0896" style="stroke: #000000; stroke-width: 0.5"/>
      </g>
     </g>
    </g>
    <g id="ytick_13">
     <g id="line2d_77">
      <g>
       <use xlink:href="#m3cded8cbd8" x="48.540475" y="206.784" style="stroke: #000000; stroke-width: 0.5"/>
      </g>
     </g>
     <g id="line2d_78">
      <g>
       <use xlink:href="#m9321a9aa15" x="494.940475" y="206.784" style="stroke: #000000; stroke-width: 0.5"/>
      </g>
     </g>
    </g>
    <g id="ytick_14">
     <g id="line2d_79">
      <g>
       <use xlink:href="#m3cded8cbd8" x="48.540475" y="180.1728" style="stroke: #000000; stroke-width: 0.5"/>
      </g>
     </g>
     <g id="line2d_80">
      <g>
       <use xlink:href="#m9321a9aa15" x="494.940475" y="180.1728" style="stroke: #000000; stroke-width: 0.5"/>
      </g>
     </g>
    </g>
    <g id="ytick_15">
     <g id="line2d_81">
      <g>
       <use xlink:href="#m3cded8cbd8" x="48.540475" y="166.8672" style="stroke: #000000; stroke-width: 0.5"/>
      </g>
     </g>
     <g id="line2d_82">
      <g>
       <use xlink:href="#m9321a9aa15" x="494.940475" y="166.8672" style="stroke: #000000; stroke-width: 0.5"/>
      </g>
     </g>
    </g>
    <g id="ytick_16">
     <g id="line2d_83">
      <g>
       <use xlink:href="#m3cded8cbd8" x="48.540475" y="153.5616" style="stroke: #000000; stroke-width: 0.5"/>
      </g>
     </g>
     <g id="line2d_84">
      <g>
       <use xlink:href="#m9321a9aa15" x="494.940475" y="153.5616" style="stroke: #000000; stroke-width: 0.5"/>
      </g>
     </g>
    </g>
    <g id="ytick_17">
     <g id="line2d_85">
      <g>
       <use xlink:href="#m3cded8cbd8" x="48.540475" y="140.256" style="stroke: #000000; stroke-width: 0.5"/>
      </g>
     </g>
     <g id="line2d_86">
      <g>
       <use xlink:href="#m9321a9aa15" x="494.940475" y="140.256" style="stroke: #000000; stroke-width: 0.5"/>
      </g>
     </g>
    </g>
    <g id="ytick_18">
     <g id="line2d_87">
      <g>
       <use xlink:href="#m3cded8cbd8" x="48.540475" y="113.6448" style="stroke: #000000; stroke-width: 0.5"/>
      </g>
     </g>
     <g id="line2d_88">
      <g>
       <use xlink:href="#m9321a9aa15" x="494.940475" y="113.6448" style="stroke: #000000; stroke-width: 0.5"/>
      </g>
     </g>
    </g>
    <g id="ytick_19">
     <g id="line2d_89">
      <g>
       <use xlink:href="#m3cded8cbd8" x="48.540475" y="100.3392" style="stroke: #000000; stroke-width: 0.5"/>
      </g>
     </g>
     <g id="line2d_90">
      <g>
       <use xlink:href="#m9321a9aa15" x="494.940475" y="100.3392" style="stroke: #000000; stroke-width: 0.5"/>
      </g>
     </g>
    </g>
    <g id="ytick_20">
     <g id="line2d_91">
      <g>
       <use xlink:href="#m3cded8cbd8" x="48.540475" y="87.0336" style="stroke: #000000; stroke-width: 0.5"/>
      </g>
     </g>
     <g id="line2d_92">
      <g>
       <use xlink:href="#m9321a9aa15" x="494.940475" y="87.0336" style="stroke: #000000; stroke-width: 0.5"/>
      </g>
     </g>
    </g>
    <g id="ytick_21">
     <g id="line2d_93">
      <g>
       <use xlink:href="#m3cded8cbd8" x="48.540475" y="73.728" style="stroke: #000000; stroke-width: 0.5"/>
      </g>
     </g>
     <g id="line2d_94">
      <g>
       <use xlink:href="#m9321a9aa15" x="494.940475" y="73.728" style="stroke: #000000; stroke-width: 0.5"/>
      </g>
     </g>
    </g>
    <g id="ytick_22">
     <g id="line2d_95">
      <g>
       <use xlink:href="#m3cded8cbd8" x="48.540475" y="47.1168" style="stroke: #000000; stroke-width: 0.5"/>
      </g>
     </g>
     <g id="line2d_96">
      <g>
       <use xlink:href="#m9321a9aa15" x="494.940475" y="47.1168" style="stroke: #000000; stroke-width: 0.5"/>
      </g>
     </g>
    </g>
    <g id="ytick_23">
     <g id="line2d_97">
      <g>
       <use xlink:href="#m3cded8cbd8" x="48.540475" y="33.8112" style="stroke: #000000; stroke-width: 0.5"/>
      </g>
     </g>
     <g id="line2d_98">
      <g>
       <use xlink:href="#m9321a9aa15" x="494.940475" y="33.8112" style="stroke: #000000; stroke-width: 0.5"/>
      </g>
     </g>
    </g>
    <g id="ytick_24">
     <g id="line2d_99">
      <g>
       <use xlink:href="#m3cded8cbd8" x="48.540475" y="20.5056" style="stroke: #000000; stroke-width: 0.5"/>
      </g>
     </g>
     <g id="line2d_100">
      <g>
       <use xlink:href="#m9321a9aa15" x="494.940475" y="20.5056" style="stroke: #000000; stroke-width: 0.5"/>
      </g>
     </g>
    </g>
    <g id="ytick_25">
     <g id="line2d_101">
      <g>
       <use xlink:href="#m3cded8cbd8" x="48.540475" y="7.2" style="stroke: #000000; stroke-width: 0.5"/>
      </g>
     </g>
     <g id="line2d_102">
      <g>
       <use xlink:href="#m9321a9aa15" x="494.940475" y="7.2" style="stroke: #000000; stroke-width: 0.5"/>
      </g>
     </g>
    </g>
    <g id="text_13">
     <!-- $N_{s}$, $N_{t}$ -->
     <g transform="translate(16.466703 190.6429) rotate(-90) scale(0.13 -0.13)">
      <defs>
       <path id="URWPalladioL-Ital-4e" d="M 1517 4402 
L 998 4402 
L 934 4402 
L 845 4402 
C 826 4402 730 4402 582 4402 
L 480 4402 
L 448 4224 
L 672 4224 
C 781 4224 922 4179 992 4122 
C 1088 4045 1184 3924 1184 3873 
C 1184 3867 1184 3848 1178 3828 
C 1178 3822 1178 3809 1171 3797 
C 1165 3746 1158 3701 1152 3682 
L 589 662 
C 512 267 474 216 243 190 
L 45 171 
L 13 -7 
L 723 -7 
C 800 -7 806 -7 1427 -7 
L 1459 165 
L 1190 184 
C 934 204 877 255 877 465 
C 877 516 883 586 896 656 
L 1408 3612 
L 3571 -64 
L 3891 -64 
L 4493 3459 
C 4627 4179 4640 4205 4877 4224 
L 5114 4224 
L 5146 4402 
L 5011 4402 
L 4442 4402 
L 3891 4402 
L 3770 4402 
L 3738 4224 
L 4038 4224 
C 4205 4224 4269 4177 4269 4071 
C 4269 4026 4250 3861 4237 3778 
L 3725 662 
L 1517 4402 
z
" transform="scale(0.015625)"/>
       <path id="URWPalladioL-Ital-73" d="M 198 947 
C 166 623 128 400 58 108 
C 301 -7 518 -64 742 -64 
C 1056 -64 1350 51 1677 305 
C 2003 559 2138 794 2138 1113 
C 2138 1456 1933 1640 1459 1729 
L 1184 1780 
C 800 1850 678 1959 678 2219 
C 678 2557 966 2817 1331 2817 
C 1594 2817 1837 2702 1939 2531 
L 1939 2181 
L 2086 2181 
C 2112 2404 2138 2575 2208 2900 
C 1958 3021 1779 3072 1568 3072 
C 1235 3072 845 2881 538 2576 
C 371 2404 301 2245 301 2016 
C 301 1660 499 1456 922 1374 
L 1325 1298 
C 1606 1247 1709 1132 1709 884 
C 1709 470 1414 191 960 191 
C 736 191 538 261 358 413 
L 358 947 
L 198 947 
z
" transform="scale(0.015625)"/>
       <path id="URWPalladioL-Roma-2c" d="M 1306 789 
C 1133 731 1018 693 678 596 
C 634 109 474 -308 102 -923 
L 192 -994 
L 454 -872 
C 973 -199 1216 205 1395 699 
L 1306 789 
z
" transform="scale(0.015625)"/>
       <path id="URWPalladioL-Ital-74" d="M 800 2465 
L 442 671 
C 435 626 429 615 410 538 
C 371 361 358 265 358 190 
C 358 31 429 -64 550 -64 
C 774 -64 998 62 1498 463 
L 1594 538 
L 1696 621 
L 1632 735 
L 1344 538 
C 1158 412 1030 348 960 348 
C 902 348 870 399 870 474 
C 870 639 960 1153 1146 2072 
L 1229 2465 
L 1914 2465 
L 1984 2784 
C 1741 2752 1523 2752 1280 2752 
C 1382 3348 1453 3659 1568 4001 
L 1498 4097 
C 1370 4021 1197 3944 998 3868 
L 838 2784 
C 557 2650 390 2580 275 2548 
L 262 2465 
L 800 2465 
z
" transform="scale(0.015625)"/>
      </defs>
      <use xlink:href="#URWPalladioL-Ital-4e" transform="scale(0.996264)"/>
      <use xlink:href="#URWPalladioL-Ital-73" transform="translate(74.719816 -14.943915) scale(0.757155)"/>
      <use xlink:href="#URWPalladioL-Roma-2c" transform="translate(105.617712 0) scale(0.996264)"/>
      <use xlink:href="#URWPalladioL-Ital-4e" transform="translate(160.163121 0) scale(0.996264)"/>
      <use xlink:href="#URWPalladioL-Ital-74" transform="translate(234.882937 -14.943915) scale(0.757155)"/>
     </g>
    </g>
   </g>
   <g id="line2d_103">
    <path d="M 48.540475 193.4784 
L 494.940475 193.4784 
" clip-path="url(#p65faf88c2a)" style="fill: none; stroke-dasharray: 7.4,3.2; stroke-dashoffset: 0; stroke: #000000; stroke-width: 2"/>
   </g>
   <g id="line2d_104">
    <path d="M 48.540475 198.483542 
L 53.049566 198.55231 
L 57.558657 198.758181 
L 62.067748 199.099865 
L 66.576839 199.575247 
L 71.085929 200.181442 
L 75.59502 200.914857 
L 80.104111 201.771282 
L 84.613202 202.745972 
L 89.122293 203.833745 
L 93.631384 205.029082 
L 98.140475 206.326213 
L 102.649566 207.719208 
L 107.158657 209.202055 
L 111.667748 210.768729 
L 116.176839 212.413245 
L 120.685929 214.12971 
L 125.19502 215.912351 
L 129.704111 217.75554 
L 134.213202 219.653807 
L 138.722293 221.601842 
L 143.231384 223.594487 
L 147.740475 225.626724 
L 152.249566 227.693653 
L 156.758657 229.790462 
L 161.267748 231.912398 
L 165.776839 234.054724 
L 170.285929 236.212677 
L 174.79502 238.38142 
L 179.304111 240.555989 
L 183.813202 242.731238 
L 188.322293 244.901777 
L 192.831384 247.061913 
L 197.340475 249.205579 
L 201.849566 251.326278 
L 206.358657 253.41701 
L 210.867748 255.470218 
L 215.376839 257.477731 
L 219.885929 259.430733 
L 224.39502 261.319739 
L 228.904111 263.13461 
L 233.413202 264.864602 
L 237.922293 266.498468 
L 242.431384 268.024618 
L 246.940475 269.43135 
L 251.449566 270.707154 
L 255.958657 271.841086 
L 260.467748 272.823199 
L 264.976839 273.644997 
L 269.485929 274.299889 
L 273.99502 274.783581 
L 278.504111 275.094367 
L 283.013202 275.233278 
L 287.522293 275.204061 
L 292.031384 275.012998 
L 296.540475 274.668572 
L 301.049566 274.181031 
L 305.558657 273.561895 
L 310.067748 272.823462 
L 314.576839 271.978338 
L 319.085929 271.039045 
L 323.59502 270.017694 
L 328.104111 268.925757 
L 332.613202 267.7739 
L 337.122293 266.5719 
L 341.631384 265.328599 
L 346.140475 264.051918 
L 350.649566 262.748881 
L 355.158657 261.425674 
L 359.667748 260.087705 
L 364.176839 258.739677 
L 368.685929 257.385654 
L 373.19502 256.029132 
L 377.704111 254.673104 
L 382.213202 253.320117 
L 386.722293 251.972331 
L 391.231384 250.631565 
L 395.740475 249.299341 
L 400.249566 247.976925 
L 404.758657 246.66536 
L 409.267748 245.365495 
L 413.776839 244.078013 
L 418.285929 242.803455 
L 422.79502 241.542237 
L 427.304111 240.294671 
L 431.813202 239.060975 
L 436.322293 237.841292 
L 440.831384 236.635698 
L 445.340475 235.444213 
L 449.849566 234.266809 
L 454.358657 233.103417 
L 458.867748 231.953934 
L 463.376839 230.818229 
L 467.885929 229.696148 
L 472.39502 228.587516 
L 476.904111 227.492143 
L 481.413202 226.409827 
L 485.922293 225.340353 
L 490.431384 224.283502 
L 494.940475 223.239048 
" clip-path="url(#p65faf88c2a)" style="fill: none; stroke: #bc141a; stroke-width: 3; stroke-linecap: square"/>
   </g>
   <g id="line2d_105">
    <path d="M 48.540475 188.473258 
L 53.049566 188.40449 
L 57.558657 188.198619 
L 62.067748 187.856935 
L 66.576839 187.381553 
L 71.085929 186.775358 
L 75.59502 186.041943 
L 80.104111 185.185518 
L 84.613202 184.210828 
L 89.122293 183.123055 
L 93.631384 181.927718 
L 98.140475 180.630587 
L 102.649566 179.237592 
L 107.158657 177.754745 
L 111.667748 176.188071 
L 116.176839 174.543555 
L 120.685929 172.82709 
L 125.19502 171.044449 
L 129.704111 169.20126 
L 134.213202 167.302993 
L 138.722293 165.354958 
L 143.231384 163.362313 
L 147.740475 161.330076 
L 152.249566 159.263147 
L 156.758657 157.166338 
L 161.267748 155.044402 
L 165.776839 152.902076 
L 170.285929 150.744123 
L 174.79502 148.57538 
L 179.304111 146.400811 
L 183.813202 144.225562 
L 188.322293 142.055023 
L 192.831384 139.894887 
L 197.340475 137.751221 
L 201.849566 135.630522 
L 206.358657 133.53979 
L 210.867748 131.486582 
L 215.376839 129.479069 
L 219.885929 127.526067 
L 224.39502 125.637061 
L 228.904111 123.82219 
L 233.413202 122.092198 
L 237.922293 120.458332 
L 242.431384 118.932182 
L 246.940475 117.52545 
L 251.449566 116.249646 
L 255.958657 115.115714 
L 260.467748 114.133601 
L 264.976839 113.311803 
L 269.485929 112.656911 
L 273.99502 112.173219 
L 278.504111 111.862433 
L 283.013202 111.723522 
L 287.522293 111.752739 
L 292.031384 111.943802 
L 296.540475 112.288228 
L 301.049566 112.775769 
L 305.558657 113.394905 
L 310.067748 114.133338 
L 314.576839 114.978462 
L 319.085929 115.917755 
L 323.59502 116.939106 
L 328.104111 118.031043 
L 332.613202 119.1829 
L 337.122293 120.3849 
L 341.631384 121.628201 
L 346.140475 122.904882 
L 350.649566 124.207919 
L 355.158657 125.531126 
L 359.667748 126.869095 
L 364.176839 128.217123 
L 368.685929 129.571146 
L 373.19502 130.927668 
L 377.704111 132.283696 
L 382.213202 133.636683 
L 386.722293 134.984469 
L 391.231384 136.325235 
L 395.740475 137.657459 
L 400.249566 138.979875 
L 404.758657 140.29144 
L 409.267748 141.591305 
L 413.776839 142.878787 
L 418.285929 144.153345 
L 422.79502 145.414563 
L 427.304111 146.662129 
L 431.813202 147.895825 
L 436.322293 149.115508 
L 440.831384 150.321102 
L 445.340475 151.512587 
L 449.849566 152.689991 
L 454.358657 153.853383 
L 458.867748 155.002866 
L 463.376839 156.138571 
L 467.885929 157.260652 
L 472.39502 158.369284 
L 476.904111 159.464657 
L 481.413202 160.546973 
L 485.922293 161.616447 
L 490.431384 162.673298 
L 494.940475 163.717752 
" clip-path="url(#p65faf88c2a)" style="fill: none; stroke: #1764ab; stroke-width: 3; stroke-linecap: square"/>
   </g>
   <g id="line2d_106">
    <path d="M 48.540475 203.409048 
L 53.049566 203.47378 
L 57.558657 203.667588 
L 62.067748 203.989312 
L 66.576839 204.437049 
L 71.085929 205.008195 
L 75.59502 205.699497 
L 80.104111 206.507118 
L 84.613202 207.426716 
L 89.122293 208.453514 
L 93.631384 209.582382 
L 98.140475 210.807915 
L 102.649566 212.124498 
L 107.158657 213.526381 
L 111.667748 215.007725 
L 116.176839 216.562658 
L 120.685929 218.185309 
L 125.19502 219.869836 
L 129.704111 221.610444 
L 134.213202 223.401393 
L 138.722293 225.236998 
L 143.231384 227.111619 
L 147.740475 229.019646 
L 152.249566 230.955474 
L 156.758657 232.913476 
L 161.267748 234.887968 
L 165.776839 236.87317 
L 170.285929 238.863166 
L 174.79502 240.851855 
L 179.304111 242.832913 
L 183.813202 244.799741 
L 188.322293 246.745427 
L 192.831384 248.662704 
L 197.340475 250.543924 
L 201.849566 252.381033 
L 206.358657 254.165572 
L 210.867748 255.888688 
L 215.376839 257.541181 
L 219.885929 259.113576 
L 224.39502 260.596229 
L 228.904111 261.979485 
L 233.413202 263.253864 
L 237.922293 264.410295 
L 242.431384 265.440379 
L 246.940475 266.336677 
L 251.449566 267.092991 
L 255.958657 267.704636 
L 260.467748 268.168659 
L 264.976839 268.483995 
L 269.485929 268.651538 
L 273.99502 268.674115 
L 278.504111 268.556368 
L 283.013202 268.30455 
L 287.522293 267.926262 
L 292.031384 267.430149 
L 296.540475 266.825576 
L 301.049566 266.122324 
L 305.558657 265.330306 
L 310.067748 264.459325 
L 314.576839 263.518879 
L 319.085929 262.518013 
L 323.59502 261.465213 
L 328.104111 260.368343 
L 332.613202 259.234612 
L 337.122293 258.070567 
L 341.631384 256.882108 
L 346.140475 255.674511 
L 350.649566 254.452471 
L 355.158657 253.220136 
L 359.667748 251.981159 
L 364.176839 250.738738 
L 368.685929 249.495661 
L 373.19502 248.254351 
L 377.704111 247.016901 
L 382.213202 245.785113 
L 386.722293 244.560532 
L 391.231384 243.344473 
L 395.740475 242.138052 
L 400.249566 240.942209 
L 404.758657 239.757726 
L 409.267748 238.585253 
L 413.776839 237.42532 
L 418.285929 236.278354 
L 422.79502 235.144692 
L 427.304111 234.024593 
L 431.813202 232.918249 
L 436.322293 231.825792 
L 440.831384 230.747303 
L 445.340475 229.68282 
L 449.849566 228.632344 
L 454.358657 227.595842 
L 458.867748 226.573256 
L 463.376839 225.564502 
L 467.885929 224.569478 
L 472.39502 223.588066 
L 476.904111 222.620132 
L 481.413202 221.665533 
L 485.922293 220.724116 
L 490.431384 219.79572 
L 494.940475 218.880181 
" clip-path="url(#p65faf88c2a)" style="fill: none; stroke: #f14432; stroke-width: 3; stroke-linecap: square"/>
   </g>
   <g id="line2d_107">
    <path d="M 48.540475 183.547752 
L 53.049566 183.48302 
L 57.558657 183.289212 
L 62.067748 182.967488 
L 66.576839 182.519751 
L 71.085929 181.948605 
L 75.59502 181.257303 
L 80.104111 180.449682 
L 84.613202 179.530084 
L 89.122293 178.503286 
L 93.631384 177.374418 
L 98.140475 176.148885 
L 102.649566 174.832302 
L 107.158657 173.430419 
L 111.667748 171.949075 
L 116.176839 170.394142 
L 120.685929 168.771491 
L 125.19502 167.086964 
L 129.704111 165.346356 
L 134.213202 163.555407 
L 138.722293 161.719802 
L 143.231384 159.845181 
L 147.740475 157.937154 
L 152.249566 156.001326 
L 156.758657 154.043324 
L 161.267748 152.068832 
L 165.776839 150.08363 
L 170.285929 148.093634 
L 174.79502 146.104945 
L 179.304111 144.123887 
L 183.813202 142.157059 
L 188.322293 140.211373 
L 192.831384 138.294096 
L 197.340475 136.412876 
L 201.849566 134.575767 
L 206.358657 132.791228 
L 210.867748 131.068112 
L 215.376839 129.415619 
L 219.885929 127.843224 
L 224.39502 126.360571 
L 228.904111 124.977315 
L 233.413202 123.702936 
L 237.922293 122.546505 
L 242.431384 121.516421 
L 246.940475 120.620123 
L 251.449566 119.863809 
L 255.958657 119.252164 
L 260.467748 118.788141 
L 264.976839 118.472805 
L 269.485929 118.305262 
L 273.99502 118.282685 
L 278.504111 118.400432 
L 283.013202 118.65225 
L 287.522293 119.030538 
L 292.031384 119.526651 
L 296.540475 120.131224 
L 301.049566 120.834476 
L 305.558657 121.626494 
L 310.067748 122.497475 
L 314.576839 123.437921 
L 319.085929 124.438787 
L 323.59502 125.491587 
L 328.104111 126.588457 
L 332.613202 127.722188 
L 337.122293 128.886233 
L 341.631384 130.074692 
L 346.140475 131.282289 
L 350.649566 132.504329 
L 355.158657 133.736664 
L 359.667748 134.975641 
L 364.176839 136.218062 
L 368.685929 137.461139 
L 373.19502 138.702449 
L 377.704111 139.939899 
L 382.213202 141.171687 
L 386.722293 142.396268 
L 391.231384 143.612327 
L 395.740475 144.818748 
L 400.249566 146.014591 
L 404.758657 147.199074 
L 409.267748 148.371547 
L 413.776839 149.53148 
L 418.285929 150.678446 
L 422.79502 151.812108 
L 427.304111 152.932207 
L 431.813202 154.038551 
L 436.322293 155.131008 
L 440.831384 156.209497 
L 445.340475 157.27398 
L 449.849566 158.324456 
L 454.358657 159.360958 
L 458.867748 160.383544 
L 463.376839 161.392298 
L 467.885929 162.387322 
L 472.39502 163.368734 
L 476.904111 164.336668 
L 481.413202 165.291267 
L 485.922293 166.232684 
L 490.431384 167.16108 
L 494.940475 168.076619 
" clip-path="url(#p65faf88c2a)" style="fill: none; stroke: #4a98c9; stroke-width: 3; stroke-linecap: square"/>
   </g>
   <g id="line2d_108">
    <path d="M 48.540475 195.804279 
L 53.049566 195.886457 
L 57.558657 196.132429 
L 62.067748 196.540528 
L 66.576839 197.108032 
L 71.085929 197.831249 
L 75.59502 198.705619 
L 80.104111 199.725849 
L 84.613202 200.886046 
L 89.122293 202.179863 
L 93.631384 203.60064 
L 98.140475 205.14154 
L 102.649566 206.795674 
L 107.158657 208.556207 
L 111.667748 210.41645 
L 116.176839 212.369938 
L 120.685929 214.410486 
L 125.19502 216.532232 
L 129.704111 218.729663 
L 134.213202 220.997628 
L 138.722293 223.331343 
L 143.231384 225.726382 
L 147.740475 228.178659 
L 152.249566 230.684408 
L 156.758657 233.24015 
L 161.267748 235.842657 
L 165.776839 238.488913 
L 170.285929 241.176064 
L 174.79502 243.901366 
L 179.304111 246.662121 
L 183.813202 249.455607 
L 188.322293 252.278997 
L 192.831384 255.129253 
L 197.340475 258.003015 
L 201.849566 260.896447 
L 206.358657 263.805058 
L 210.867748 266.723471 
L 215.376839 269.64513 
L 219.885929 272.561924 
L 224.39502 275.463704 
L 228.904111 278.337664 
L 233.413202 281.167549 
L 237.922293 283.932662 
L 242.431384 286.606676 
L 246.940475 289.15629 
L 251.449566 291.53994 
L 255.958657 293.707001 
L 260.467748 295.598303 
L 264.976839 297.149166 
L 269.485929 298.296131 
L 273.99502 298.987426 
L 278.504111 299.194732 
L 283.013202 298.921338 
L 287.522293 298.202248 
L 292.031384 297.096004 
L 296.540475 295.672455 
L 301.049566 294.001658 
L 305.558657 292.146716 
L 310.067748 290.160645 
L 314.576839 288.086013 
L 319.085929 285.956009 
L 323.59502 283.796019 
L 328.104111 281.625207 
L 332.613202 279.4579 
L 337.122293 277.304718 
L 341.631384 275.173451 
L 346.140475 273.069748 
L 350.649566 270.997629 
L 355.158657 268.959884 
L 359.667748 266.958365 
L 364.176839 264.994216 
L 368.685929 263.068041 
L 373.19502 261.180039 
L 377.704111 259.3301 
L 382.213202 257.517887 
L 386.722293 255.742889 
L 391.231384 254.004472 
L 395.740475 252.301912 
L 400.249566 250.634425 
L 404.758657 249.001182 
L 409.267748 247.401335 
L 413.776839 245.834021 
L 418.285929 244.298377 
L 422.79502 242.793545 
L 427.304111 241.318682 
L 431.813202 239.872959 
L 436.322293 238.455566 
L 440.831384 237.065716 
L 445.340475 235.702646 
L 449.849566 234.365619 
L 454.358657 233.05392 
L 458.867748 231.766864 
L 463.376839 230.503789 
L 467.885929 229.264061 
L 472.39502 228.047071 
L 476.904111 226.852236 
L 481.413202 225.678997 
L 485.922293 224.52682 
L 490.431384 223.395195 
L 494.940475 222.283636 
" clip-path="url(#p65faf88c2a)" style="fill: none; stroke: #fc8a6a; stroke-width: 3; stroke-linecap: square"/>
   </g>
   <g id="line2d_109">
    <path d="M 48.540475 191.152521 
L 53.049566 191.070343 
L 57.558657 190.824371 
L 62.067748 190.416272 
L 66.576839 189.848768 
L 71.085929 189.125551 
L 75.59502 188.251181 
L 80.104111 187.230951 
L 84.613202 186.070754 
L 89.122293 184.776937 
L 93.631384 183.35616 
L 98.140475 181.81526 
L 102.649566 180.161126 
L 107.158657 178.400593 
L 111.667748 176.54035 
L 116.176839 174.586862 
L 120.685929 172.546314 
L 125.19502 170.424568 
L 129.704111 168.227137 
L 134.213202 165.959172 
L 138.722293 163.625457 
L 143.231384 161.230418 
L 147.740475 158.778141 
L 152.249566 156.272392 
L 156.758657 153.71665 
L 161.267748 151.114143 
L 165.776839 148.467887 
L 170.285929 145.780736 
L 174.79502 143.055434 
L 179.304111 140.294679 
L 183.813202 137.501193 
L 188.322293 134.677803 
L 192.831384 131.827547 
L 197.340475 128.953785 
L 201.849566 126.060353 
L 206.358657 123.151742 
L 210.867748 120.233329 
L 215.376839 117.31167 
L 219.885929 114.394876 
L 224.39502 111.493096 
L 228.904111 108.619136 
L 233.413202 105.789251 
L 237.922293 103.024138 
L 242.431384 100.350124 
L 246.940475 97.80051 
L 251.449566 95.41686 
L 255.958657 93.249799 
L 260.467748 91.358497 
L 264.976839 89.807634 
L 269.485929 88.660669 
L 273.99502 87.969374 
L 278.504111 87.762068 
L 283.013202 88.035462 
L 287.522293 88.754552 
L 292.031384 89.860796 
L 296.540475 91.284345 
L 301.049566 92.955142 
L 305.558657 94.810084 
L 310.067748 96.796155 
L 314.576839 98.870787 
L 319.085929 101.000791 
L 323.59502 103.160781 
L 328.104111 105.331593 
L 332.613202 107.4989 
L 337.122293 109.652082 
L 341.631384 111.783349 
L 346.140475 113.887052 
L 350.649566 115.959171 
L 355.158657 117.996916 
L 359.667748 119.998435 
L 364.176839 121.962584 
L 368.685929 123.888759 
L 373.19502 125.776761 
L 377.704111 127.6267 
L 382.213202 129.438913 
L 386.722293 131.213911 
L 391.231384 132.952328 
L 395.740475 134.654888 
L 400.249566 136.322375 
L 404.758657 137.955618 
L 409.267748 139.555465 
L 413.776839 141.122779 
L 418.285929 142.658423 
L 422.79502 144.163255 
L 427.304111 145.638118 
L 431.813202 147.083841 
L 436.322293 148.501234 
L 440.831384 149.891084 
L 445.340475 151.254154 
L 449.849566 152.591181 
L 454.358657 153.90288 
L 458.867748 155.189936 
L 463.376839 156.453011 
L 467.885929 157.692739 
L 472.39502 158.909729 
L 476.904111 160.104564 
L 481.413202 161.277803 
L 485.922293 162.42998 
L 490.431384 163.561605 
L 494.940475 164.673164 
" clip-path="url(#p65faf88c2a)" style="fill: none; stroke: #94c4df; stroke-width: 3; stroke-linecap: square"/>
   </g>
   <g id="patch_3">
    <path d="M 48.540475 339.84 
L 48.540475 7.2 
" style="fill: none; stroke: #000000; stroke-width: 0.5; stroke-linejoin: miter; stroke-linecap: square"/>
   </g>
   <g id="patch_4">
    <path d="M 494.940475 339.84 
L 494.940475 7.2 
" style="fill: none; stroke: #000000; stroke-width: 0.5; stroke-linejoin: miter; stroke-linecap: square"/>
   </g>
   <g id="patch_5">
    <path d="M 48.540475 339.84 
L 494.940475 339.84 
" style="fill: none; stroke: #000000; stroke-width: 0.5; stroke-linejoin: miter; stroke-linecap: square"/>
   </g>
   <g id="patch_6">
    <path d="M 48.540475 7.2 
L 494.940475 7.2 
" style="fill: none; stroke: #000000; stroke-width: 0.5; stroke-linejoin: miter; stroke-linecap: square"/>
   </g>
   <g id="legend_1">
    <g id="line2d_110">
     <path d="M 414.858145 21.091049 
L 419.258145 21.091049 
L 423.658145 21.091049 
" style="fill: none; stroke: #bc141a; stroke-width: 3; stroke-linecap: square"/>
    </g>
    <g id="line2d_111">
     <path d="M 428.058145 21.091049 
L 432.458145 21.091049 
L 436.858145 21.091049 
" style="fill: none; stroke: #1764ab; stroke-width: 3; stroke-linecap: square"/>
    </g>
    <g id="text_14">
     <!-- $Z_0 = \xi$ -->
     <g transform="translate(445.658145 24.941049) scale(0.11 -0.11)">
      <defs>
       <path id="URWPalladioL-Ital-5a" d="M 128 0 
C 742 0 1114 0 1670 0 
C 2170 0 2918 0 3309 0 
L 3731 0 
C 3744 260 3795 621 3878 1059 
L 3712 1059 
L 3667 919 
C 3622 792 3565 625 3514 485 
L 3462 344 
C 3174 287 2931 262 2650 262 
L 851 262 
L 4077 4301 
L 4077 4416 
L 3040 4416 
L 2874 4416 
L 1523 4416 
L 768 4416 
C 768 4121 749 3874 698 3415 
L 864 3415 
C 883 3555 922 3714 998 3964 
L 1037 4091 
C 1395 4155 1638 4174 2189 4174 
L 3341 4174 
L 128 134 
L 128 0 
z
" transform="scale(0.015625)"/>
       <path id="CMR10-3d" d="M 4397 2048 
C 4493 2048 4614 2048 4614 2177 
C 4614 2305 4493 2305 4403 2305 
L 570 2305 
C 480 2305 358 2305 358 2177 
C 358 2048 480 2048 576 2048 
L 4397 2048 
z
M 4403 832 
C 4493 832 4614 832 4614 961 
C 4614 1089 4493 1089 4397 1089 
L 576 1089 
C 480 1089 358 1089 358 961 
C 358 832 480 832 570 832 
L 4403 832 
z
" transform="scale(0.015625)"/>
       <path id="PazoMath-Italic-78" d="M 774 3706 
L 909 3706 
L 1101 4070 
C 1210 4094 1267 4101 1350 4101 
C 1440 4101 1510 4094 1638 4070 
C 1869 4026 2029 4007 2176 4007 
C 1882 3796 1702 3605 1702 3369 
C 1702 3248 1734 3151 1805 3069 
C 1517 3043 1101 2814 781 2527 
C 429 2214 186 1544 186 874 
C 186 262 454 -64 966 -64 
C 1114 -64 1638 0 1830 0 
C 2048 0 2157 -114 2157 -328 
C 2157 -372 2150 -409 2144 -460 
C 1990 -906 1670 -1152 1389 -1152 
C 1165 -1152 992 -982 992 -762 
C 992 -731 998 -681 1005 -624 
L 941 -598 
L 634 -813 
C 627 -857 627 -896 627 -927 
C 627 -1199 864 -1421 1152 -1421 
C 1510 -1421 1952 -1116 2240 -754 
C 2470 -467 2515 -149 2515 74 
C 2515 131 2496 181 2458 220 
C 2368 321 2182 321 2048 321 
C 1862 321 1421 264 1210 264 
C 851 264 672 520 672 1028 
C 672 1720 896 2387 1210 2630 
C 1344 2733 1510 2817 1709 2817 
C 1856 2817 1978 2778 2093 2740 
C 2150 2720 2336 2688 2394 2688 
C 2477 2688 2637 2688 2662 2695 
C 2662 2729 2707 2889 2752 2956 
C 2752 2990 2746 3010 2739 3010 
C 2400 3010 2093 3219 2093 3537 
C 2093 3885 2662 4112 2931 4214 
L 3123 4284 
L 3162 4486 
L 3104 4544 
L 2957 4397 
C 2893 4332 2829 4307 2739 4307 
C 2522 4307 2189 4358 1882 4442 
L 1766 4474 
C 1587 4519 1459 4544 1370 4544 
C 1261 4544 1133 4525 979 4481 
L 774 3706 
z
" transform="scale(0.015625)"/>
      </defs>
      <use xlink:href="#URWPalladioL-Ital-5a" transform="scale(0.996264)"/>
      <use xlink:href="#URWPalladioL-Roma-30" transform="translate(65.204427 -17.441431) scale(0.757155)"/>
      <use xlink:href="#CMR10-3d" transform="translate(132.479551 0) scale(1.038107)"/>
      <use xlink:href="#PazoMath-Italic-78" transform="translate(243.340479 0) scale(0.996264)"/>
     </g>
    </g>
    <g id="line2d_112">
     <path d="M 414.858145 37.522438 
L 419.258145 37.522438 
L 423.658145 37.522438 
" style="fill: none; stroke: #f14432; stroke-width: 3; stroke-linecap: square"/>
    </g>
    <g id="line2d_113">
     <path d="M 428.058145 37.522438 
L 432.458145 37.522438 
L 436.858145 37.522438 
" style="fill: none; stroke: #4a98c9; stroke-width: 3; stroke-linecap: square"/>
    </g>
    <g id="text_15">
     <!-- $Z_0 = 2 \, \xi$ -->
     <g transform="translate(445.658145 41.372438) scale(0.11 -0.11)">
      <use xlink:href="#URWPalladioL-Ital-5a" transform="scale(0.996264)"/>
      <use xlink:href="#URWPalladioL-Roma-30" transform="translate(65.204427 -17.441431) scale(0.757155)"/>
      <use xlink:href="#CMR10-3d" transform="translate(132.479551 0) scale(1.038107)"/>
      <use xlink:href="#URWPalladioL-Roma-32" transform="translate(242.09518 0) scale(0.996264)"/>
      <use xlink:href="#PazoMath-Italic-78" transform="translate(309.758039 0) scale(0.996264)"/>
     </g>
    </g>
    <g id="line2d_114">
     <path d="M 414.858145 53.953827 
L 419.258145 53.953827 
L 423.658145 53.953827 
" style="fill: none; stroke: #fc8a6a; stroke-width: 3; stroke-linecap: square"/>
    </g>
    <g id="line2d_115">
     <path d="M 428.058145 53.953827 
L 432.458145 53.953827 
L 436.858145 53.953827 
" style="fill: none; stroke: #94c4df; stroke-width: 3; stroke-linecap: square"/>
    </g>
    <g id="text_16">
     <!-- $Z_0 = 3 \, \xi$ -->
     <g transform="translate(445.658145 57.803827) scale(0.11 -0.11)">
      <use xlink:href="#URWPalladioL-Ital-5a" transform="scale(0.996264)"/>
      <use xlink:href="#URWPalladioL-Roma-30" transform="translate(65.204427 -17.441431) scale(0.757155)"/>
      <use xlink:href="#CMR10-3d" transform="translate(132.479551 0) scale(1.038107)"/>
      <use xlink:href="#URWPalladioL-Roma-33" transform="translate(242.09518 0) scale(0.996264)"/>
      <use xlink:href="#PazoMath-Italic-78" transform="translate(309.758039 0) scale(0.996264)"/>
     </g>
    </g>
   </g>
   <g id="legend_2">
    <g id="line2d_116">
     <path d="M 58.440475 21.091049 
L 69.440475 21.091049 
L 80.440475 21.091049 
" style="fill: none; stroke: #bc141a; stroke-width: 3; stroke-linecap: square"/>
    </g>
    <g id="text_17">
     <!-- singlet -->
     <g transform="translate(89.240475 24.941049) scale(0.11 -0.11)">
      <defs>
       <path id="URWPalladioL-Roma-73" d="M 262 917 
C 262 475 243 282 192 26 
C 525 -83 774 -128 1069 -128 
C 1907 -128 2502 321 2502 949 
C 2502 1148 2445 1295 2323 1424 
C 2157 1584 1946 1661 1382 1770 
C 858 1873 685 2001 685 2296 
C 685 2616 909 2796 1299 2796 
C 1728 2796 2054 2572 2054 2270 
L 2054 2123 
L 2234 2123 
C 2240 2495 2246 2648 2266 2847 
C 1926 2963 1696 3008 1434 3008 
C 691 3008 237 2655 237 2078 
C 237 1770 378 1552 672 1417 
C 845 1340 1184 1238 1619 1141 
C 1907 1077 2029 943 2029 699 
C 2029 353 1709 109 1254 109 
C 787 109 454 333 454 654 
L 454 917 
L 262 917 
z
" transform="scale(0.015625)"/>
       <path id="URWPalladioL-Roma-69" d="M 1203 2993 
L 1146 3019 
C 819 2884 486 2793 147 2755 
L 147 2576 
L 384 2576 
C 640 2576 666 2531 666 2105 
L 666 651 
C 666 244 646 199 429 199 
L 134 199 
L 134 0 
C 774 0 774 0 934 0 
C 1094 0 1094 0 1734 0 
L 1734 199 
L 1440 199 
C 1222 199 1203 244 1203 651 
L 1203 2993 
z
M 909 4416 
C 717 4416 550 4249 550 4056 
C 550 3870 717 3704 902 3704 
C 1088 3704 1261 3870 1261 4056 
C 1261 4236 1088 4416 909 4416 
z
" transform="scale(0.015625)"/>
       <path id="URWPalladioL-Roma-6e" d="M 2624 -7 
C 3014 -7 3021 -7 3130 -7 
C 3219 -7 3219 -7 3661 -7 
L 3661 179 
L 3398 205 
C 3181 205 3162 244 3162 654 
L 3162 1892 
C 3162 2642 2810 3008 2093 3008 
C 1856 3008 1722 2963 1587 2847 
L 1101 2424 
L 1101 2982 
L 1043 3008 
C 717 2873 384 2783 45 2745 
L 45 2565 
L 282 2565 
C 538 2565 563 2520 563 2094 
L 563 643 
C 563 237 544 192 326 192 
L 38 192 
L 38 -7 
C 474 -7 646 -7 832 -7 
C 1018 -7 1190 -7 1626 -7 
L 1626 192 
L 1338 192 
C 1120 192 1101 237 1101 643 
L 1101 2011 
C 1101 2300 1523 2616 1914 2616 
C 2342 2616 2624 2297 2624 1806 
L 2624 -7 
z
" transform="scale(0.015625)"/>
       <path id="URWPalladioL-Roma-67" d="M 3322 2432 
L 3482 2695 
L 3456 2759 
L 2547 2759 
C 2310 2937 2080 3008 1766 3008 
C 1485 3008 1158 2920 896 2768 
C 538 2567 352 2258 352 1874 
C 352 1408 646 1087 1120 1036 
L 614 640 
C 550 543 518 459 518 361 
C 518 180 634 76 941 -14 
L 384 -316 
C 294 -367 205 -604 205 -803 
C 205 -1388 774 -1792 1587 -1792 
C 2554 -1792 3315 -1182 3315 -399 
C 3315 63 3008 384 2560 384 
L 1536 384 
C 1203 384 1050 462 1050 639 
C 1050 724 1101 795 1267 939 
C 1306 972 1318 985 1344 1011 
C 1408 1004 1446 998 1498 998 
C 1773 998 2112 1118 2374 1300 
C 2662 1507 2803 1759 2803 2093 
C 2803 2218 2784 2300 2733 2432 
L 3322 2432 
z
M 1536 2790 
C 1971 2790 2266 2438 2266 1905 
C 2266 1499 1997 1216 1606 1216 
C 1178 1216 890 1542 890 2025 
C 890 2507 1126 2790 1536 2790 
z
M 1837 -65 
C 2560 -65 2810 -212 2810 -630 
C 2810 -1182 2304 -1593 1632 -1593 
C 1075 -1593 691 -1266 691 -790 
C 691 -502 858 -238 1114 -129 
C 1216 -78 1395 -65 1837 -65 
z
" transform="scale(0.015625)"/>
       <path id="URWPalladioL-Roma-6c" d="M 147 4256 
L 506 4256 
C 621 4256 666 4185 666 3992 
L 666 651 
C 666 244 646 199 429 199 
L 134 199 
L 134 0 
C 774 0 774 0 934 0 
C 1094 0 1094 0 1734 0 
L 1734 199 
L 1440 199 
C 1222 199 1203 244 1203 650 
L 1203 4621 
L 1146 4673 
C 864 4564 653 4512 147 4435 
L 147 4256 
z
" transform="scale(0.015625)"/>
       <path id="URWPalladioL-Roma-74" d="M 627 2476 
L 627 619 
C 627 142 838 -64 1331 -64 
C 1478 -64 1632 -32 1670 13 
L 1978 353 
L 1894 463 
C 1734 372 1638 340 1517 340 
C 1267 340 1165 470 1165 788 
L 1165 2489 
L 1984 2489 
L 2042 2816 
L 1165 2816 
L 1165 3056 
C 1165 3321 1184 3547 1235 3951 
L 1158 4021 
C 1005 3925 813 3842 614 3778 
C 634 3585 640 3463 640 3271 
L 640 2822 
L 141 2598 
L 141 2476 
L 627 2476 
z
" transform="scale(0.015625)"/>
      </defs>
      <use xlink:href="#URWPalladioL-Roma-73" transform="scale(0.996264)"/>
      <use xlink:href="#URWPalladioL-Roma-69" transform="translate(42.241466 0) scale(0.996264)"/>
      <use xlink:href="#URWPalladioL-Roma-6e" transform="translate(71.231828 0) scale(0.996264)"/>
      <use xlink:href="#URWPalladioL-Roma-67" transform="translate(129.213888 0) scale(0.996264)"/>
      <use xlink:href="#URWPalladioL-Roma-6c" transform="translate(184.605565 0) scale(0.996264)"/>
      <use xlink:href="#URWPalladioL-Roma-65" transform="translate(213.595927 0) scale(0.996264)"/>
      <use xlink:href="#URWPalladioL-Roma-74" transform="translate(261.316222 0) scale(0.996264)"/>
     </g>
    </g>
    <g id="line2d_117">
     <path d="M 58.440475 37.522438 
L 69.440475 37.522438 
L 80.440475 37.522438 
" style="fill: none; stroke: #1764ab; stroke-width: 3; stroke-linecap: square"/>
    </g>
    <g id="text_18">
     <!-- triplet -->
     <g transform="translate(89.240475 41.372438) scale(0.11 -0.11)">
      <defs>
       <path id="URWPalladioL-Roma-72" d="M 147 2565 
L 384 2565 
C 640 2565 666 2520 666 2094 
L 666 643 
C 666 237 646 192 429 192 
L 134 192 
L 134 -7 
C 595 -7 762 -7 922 -7 
C 1050 -7 1050 -7 1837 -7 
L 1837 192 
L 1504 192 
C 1216 192 1203 211 1203 638 
L 1203 1751 
C 1203 2139 1459 2463 1773 2463 
C 1965 2463 2099 2373 2202 2169 
L 2336 2169 
L 2394 2937 
C 2323 2982 2208 3008 2093 3008 
C 1901 3008 1696 2905 1562 2745 
L 1203 2322 
L 1203 2982 
L 1146 3008 
C 819 2873 486 2783 147 2745 
L 147 2565 
z
" transform="scale(0.015625)"/>
       <path id="URWPalladioL-Roma-70" d="M 64 2565 
L 301 2565 
C 557 2565 582 2520 582 2095 
L 582 -1142 
C 582 -1548 563 -1593 346 -1593 
L 51 -1593 
L 51 -1792 
C 691 -1792 691 -1792 851 -1792 
C 1011 -1792 1011 -1792 1651 -1792 
L 1651 -1593 
L 1357 -1593 
C 1139 -1593 1120 -1547 1120 -1138 
L 1120 89 
C 1312 -26 1517 -71 1805 -71 
C 1990 -71 2157 -32 2259 32 
L 2989 505 
C 3245 672 3546 1330 3546 1740 
C 3546 2451 2957 3008 2214 3008 
C 1978 3008 1747 2943 1645 2847 
L 1120 2367 
L 1120 2982 
L 1062 3008 
C 736 2873 403 2783 64 2745 
L 64 2565 
z
M 1120 1964 
C 1120 2053 1152 2124 1235 2233 
C 1421 2469 1683 2591 2003 2591 
C 2605 2591 2989 2169 2989 1504 
C 2989 787 2560 256 1984 256 
C 1632 256 1370 372 1120 633 
L 1120 1964 
z
" transform="scale(0.015625)"/>
      </defs>
      <use xlink:href="#URWPalladioL-Roma-74" transform="scale(0.996264)"/>
      <use xlink:href="#URWPalladioL-Roma-72" transform="translate(32.477088 0) scale(0.996264)"/>
      <use xlink:href="#URWPalladioL-Roma-69" transform="translate(71.828984 0) scale(0.996264)"/>
      <use xlink:href="#URWPalladioL-Roma-70" transform="translate(100.819346 0) scale(0.996264)"/>
      <use xlink:href="#URWPalladioL-Roma-6c" transform="translate(160.693739 0) scale(0.996264)"/>
      <use xlink:href="#URWPalladioL-Roma-65" transform="translate(189.684101 0) scale(0.996264)"/>
      <use xlink:href="#URWPalladioL-Roma-74" transform="translate(237.404396 0) scale(0.996264)"/>
     </g>
    </g>
   </g>
  </g>
 </g>
 <defs>
  <clipPath id="p65faf88c2a">
   <rect x="48.540475" y="7.2" width="446.4" height="332.64"/>
  </clipPath>
 </defs>
</svg>
