<?xml version="1.0" encoding="utf-8" standalone="no"?>
<!DOCTYPE svg PUBLIC "-//W3C//DTD SVG 1.1//EN"
  "http://www.w3.org/Graphics/SVG/1.1/DTD/svg11.dtd">
<svg xmlns:xlink="http://www.w3.org/1999/xlink" width="549.98792pt" height="402.2407pt" viewBox="0 0 549.98792 402.2407" xmlns="http://www.w3.org/2000/svg" version="1.1">
 <metadata>
  <rdf:RDF xmlns:dc="http://purl.org/dc/elements/1.1/" xmlns:cc="http://creativecommons.org/ns#" xmlns:rdf="http://www.w3.org/1999/02/22-rdf-syntax-ns#">
   <cc:Work>
    <dc:type rdf:resource="http://purl.org/dc/dcmitype/StillImage"/>
    <dc:date>2025-07-02T09:10:02.608111</dc:date>
    <dc:format>image/svg+xml</dc:format>
    <dc:creator>
     <cc:Agent>
      <dc:title>Matplotlib v3.7.1, https://matplotlib.org/</dc:title>
     </cc:Agent>
    </dc:creator>
   </cc:Work>
  </rdf:RDF>
 </metadata>
 <defs>
  <style type="text/css">*{stroke-linejoin: round; stroke-linecap: butt}</style>
 </defs>
 <g id="figure_1">
  <g id="patch_1">
   <path d="M 0 402.2407 
L 549.98792 402.2407 
L 549.98792 0 
L 0 0 
z
" style="fill: #ffffff"/>
  </g>
  <g id="axes_1">
   <g id="patch_2">
    <path d="M 40.58792 339.84 
L 542.78792 339.84 
L 542.78792 7.2 
L 40.58792 7.2 
z
" style="fill: #ffffff"/>
   </g>
   <g id="matplotlib.axis_1">
    <g id="xtick_1">
     <g id="line2d_1">
      <defs>
       <path id="meb1003d99c" d="M 0 0 
L 0 -3 
" style="stroke: #000000; stroke-width: 0.5"/>
      </defs>
      <g>
       <use xlink:href="#meb1003d99c" x="63.415193" y="339.84" style="stroke: #000000; stroke-width: 0.5"/>
      </g>
     </g>
     <g id="line2d_2">
      <defs>
       <path id="m97c0b9d7dd" d="M 0 0 
L 0 3 
" style="stroke: #000000; stroke-width: 0.5"/>
      </defs>
      <g>
       <use xlink:href="#m97c0b9d7dd" x="63.415193" y="7.2" style="stroke: #000000; stroke-width: 0.5"/>
      </g>
     </g>
     <g id="text_1">
      <!-- $\mathdefault{0}$ -->
      <g transform="translate(57.437609 360.447767) scale(0.24 -0.24)">
       <defs>
        <path id="URWPalladioL-Roma-30" d="M 1683 4416 
C 691 4416 186 3628 186 2077 
C 186 1326 320 680 544 366 
C 768 51 1126 -128 1523 -128 
C 2490 -128 2976 705 2976 2346 
C 2976 3749 2560 4416 1683 4416 
z
M 1568 4192 
C 2189 4192 2438 3564 2438 2025 
C 2438 661 2195 96 1606 96 
C 986 96 723 744 723 2308 
C 723 3660 960 4192 1568 4192 
z
" transform="scale(0.015625)"/>
       </defs>
       <use xlink:href="#URWPalladioL-Roma-30" transform="scale(0.996264)"/>
      </g>
     </g>
    </g>
    <g id="xtick_2">
     <g id="line2d_3">
      <g>
       <use xlink:href="#meb1003d99c" x="201.03656" y="339.84" style="stroke: #000000; stroke-width: 0.5"/>
      </g>
     </g>
     <g id="line2d_4">
      <g>
       <use xlink:href="#m97c0b9d7dd" x="201.03656" y="7.2" style="stroke: #000000; stroke-width: 0.5"/>
      </g>
     </g>
     <g id="text_2">
      <!-- $\mathdefault{2}$ -->
      <g transform="translate(195.058976 360.447767) scale(0.24 -0.24)">
       <defs>
        <path id="URWPalladioL-Roma-32" d="M 102 160 
L 102 0 
C 1299 0 1299 0 1530 0 
C 1760 0 1760 0 2995 0 
C 2982 125 2982 186 2982 269 
C 2982 348 2982 407 2995 539 
C 2259 539 1965 539 781 539 
L 1946 1761 
C 2566 2414 2758 2763 2758 3238 
C 2758 3966 2259 4416 1446 4416 
C 986 4416 672 4288 358 3969 
L 250 3099 
L 435 3099 
L 518 3393 
C 621 3763 851 3923 1280 3923 
C 1830 3923 2182 3577 2182 3035 
C 2182 2555 1914 2083 1190 1316 
L 102 160 
z
" transform="scale(0.015625)"/>
       </defs>
       <use xlink:href="#URWPalladioL-Roma-32" transform="scale(0.996264)"/>
      </g>
     </g>
    </g>
    <g id="xtick_3">
     <g id="line2d_5">
      <g>
       <use xlink:href="#meb1003d99c" x="338.657927" y="339.84" style="stroke: #000000; stroke-width: 0.5"/>
      </g>
     </g>
     <g id="line2d_6">
      <g>
       <use xlink:href="#m97c0b9d7dd" x="338.657927" y="7.2" style="stroke: #000000; stroke-width: 0.5"/>
      </g>
     </g>
     <g id="text_3">
      <!-- $\mathdefault{4}$ -->
      <g transform="translate(332.680343 360.447767) scale(0.24 -0.24)">
       <defs>
        <path id="URWPalladioL-Roma-34" d="M 1792 1152 
L 1792 673 
C 1792 289 1722 199 1408 199 
L 1011 199 
L 1011 0 
C 1862 0 1862 0 2016 0 
C 2170 0 2170 0 3021 0 
L 3021 199 
L 2714 199 
C 2400 199 2330 282 2330 669 
L 2330 1152 
C 2707 1152 2842 1152 3021 1133 
L 3021 1588 
C 2720 1563 2598 1563 2502 1563 
L 2483 1563 
L 2330 1563 
L 2330 2457 
C 2330 3600 2342 4152 2374 4416 
L 2298 4448 
L 1824 4275 
L 13 1299 
L 83 1152 
L 1792 1152 
z
M 1792 1563 
L 416 1563 
L 1792 3826 
L 1792 1563 
z
" transform="scale(0.015625)"/>
       </defs>
       <use xlink:href="#URWPalladioL-Roma-34" transform="scale(0.996264)"/>
      </g>
     </g>
    </g>
    <g id="xtick_4">
     <g id="line2d_7">
      <g>
       <use xlink:href="#meb1003d99c" x="476.279293" y="339.84" style="stroke: #000000; stroke-width: 0.5"/>
      </g>
     </g>
     <g id="line2d_8">
      <g>
       <use xlink:href="#m97c0b9d7dd" x="476.279293" y="7.2" style="stroke: #000000; stroke-width: 0.5"/>
      </g>
     </g>
     <g id="text_4">
      <!-- $\mathdefault{6}$ -->
      <g transform="translate(470.301709 360.447767) scale(0.24 -0.24)">
       <defs>
        <path id="URWPalladioL-Roma-36" d="M 2662 4310 
L 2426 4419 
C 1811 4214 1549 4086 1222 3804 
C 563 3246 205 2464 205 1585 
C 205 526 717 -128 1542 -128 
C 2374 -128 2995 532 2995 1405 
C 2995 2143 2554 2624 1875 2624 
C 1555 2624 1363 2540 986 2239 
C 915 2181 909 2175 838 2124 
C 973 3284 1510 3913 2662 4259 
L 2662 4310 
z
M 1632 2239 
C 2118 2239 2445 1816 2445 1181 
C 2445 513 2118 83 1626 83 
C 1082 83 787 551 787 1412 
C 787 1636 813 1758 883 1867 
C 1024 2085 1325 2239 1632 2239 
z
" transform="scale(0.015625)"/>
       </defs>
       <use xlink:href="#URWPalladioL-Roma-36" transform="scale(0.996264)"/>
      </g>
     </g>
    </g>
    <g id="xtick_5">
     <g id="line2d_9">
      <defs>
       <path id="mfcc312516f" d="M 0 0 
L 0 -1.5 
" style="stroke: #000000; stroke-width: 0.5"/>
      </defs>
      <g>
       <use xlink:href="#mfcc312516f" x="97.820535" y="339.84" style="stroke: #000000; stroke-width: 0.5"/>
      </g>
     </g>
     <g id="line2d_10">
      <defs>
       <path id="mf176cf666e" d="M 0 0 
L 0 1.5 
" style="stroke: #000000; stroke-width: 0.5"/>
      </defs>
      <g>
       <use xlink:href="#mf176cf666e" x="97.820535" y="7.2" style="stroke: #000000; stroke-width: 0.5"/>
      </g>
     </g>
    </g>
    <g id="xtick_6">
     <g id="line2d_11">
      <g>
       <use xlink:href="#mfcc312516f" x="132.225876" y="339.84" style="stroke: #000000; stroke-width: 0.5"/>
      </g>
     </g>
     <g id="line2d_12">
      <g>
       <use xlink:href="#mf176cf666e" x="132.225876" y="7.2" style="stroke: #000000; stroke-width: 0.5"/>
      </g>
     </g>
    </g>
    <g id="xtick_7">
     <g id="line2d_13">
      <g>
       <use xlink:href="#mfcc312516f" x="166.631218" y="339.84" style="stroke: #000000; stroke-width: 0.5"/>
      </g>
     </g>
     <g id="line2d_14">
      <g>
       <use xlink:href="#mf176cf666e" x="166.631218" y="7.2" style="stroke: #000000; stroke-width: 0.5"/>
      </g>
     </g>
    </g>
    <g id="xtick_8">
     <g id="line2d_15">
      <g>
       <use xlink:href="#mfcc312516f" x="235.441902" y="339.84" style="stroke: #000000; stroke-width: 0.5"/>
      </g>
     </g>
     <g id="line2d_16">
      <g>
       <use xlink:href="#mf176cf666e" x="235.441902" y="7.2" style="stroke: #000000; stroke-width: 0.5"/>
      </g>
     </g>
    </g>
    <g id="xtick_9">
     <g id="line2d_17">
      <g>
       <use xlink:href="#mfcc312516f" x="269.847243" y="339.84" style="stroke: #000000; stroke-width: 0.5"/>
      </g>
     </g>
     <g id="line2d_18">
      <g>
       <use xlink:href="#mf176cf666e" x="269.847243" y="7.2" style="stroke: #000000; stroke-width: 0.5"/>
      </g>
     </g>
    </g>
    <g id="xtick_10">
     <g id="line2d_19">
      <g>
       <use xlink:href="#mfcc312516f" x="304.252585" y="339.84" style="stroke: #000000; stroke-width: 0.5"/>
      </g>
     </g>
     <g id="line2d_20">
      <g>
       <use xlink:href="#mf176cf666e" x="304.252585" y="7.2" style="stroke: #000000; stroke-width: 0.5"/>
      </g>
     </g>
    </g>
    <g id="xtick_11">
     <g id="line2d_21">
      <g>
       <use xlink:href="#mfcc312516f" x="373.063268" y="339.84" style="stroke: #000000; stroke-width: 0.5"/>
      </g>
     </g>
     <g id="line2d_22">
      <g>
       <use xlink:href="#mf176cf666e" x="373.063268" y="7.2" style="stroke: #000000; stroke-width: 0.5"/>
      </g>
     </g>
    </g>
    <g id="xtick_12">
     <g id="line2d_23">
      <g>
       <use xlink:href="#mfcc312516f" x="407.46861" y="339.84" style="stroke: #000000; stroke-width: 0.5"/>
      </g>
     </g>
     <g id="line2d_24">
      <g>
       <use xlink:href="#mf176cf666e" x="407.46861" y="7.2" style="stroke: #000000; stroke-width: 0.5"/>
      </g>
     </g>
    </g>
    <g id="xtick_13">
     <g id="line2d_25">
      <g>
       <use xlink:href="#mfcc312516f" x="441.873952" y="339.84" style="stroke: #000000; stroke-width: 0.5"/>
      </g>
     </g>
     <g id="line2d_26">
      <g>
       <use xlink:href="#mf176cf666e" x="441.873952" y="7.2" style="stroke: #000000; stroke-width: 0.5"/>
      </g>
     </g>
    </g>
    <g id="xtick_14">
     <g id="line2d_27">
      <g>
       <use xlink:href="#mfcc312516f" x="510.684635" y="339.84" style="stroke: #000000; stroke-width: 0.5"/>
      </g>
     </g>
     <g id="line2d_28">
      <g>
       <use xlink:href="#mf176cf666e" x="510.684635" y="7.2" style="stroke: #000000; stroke-width: 0.5"/>
      </g>
     </g>
    </g>
    <g id="text_5">
     <!-- $z / \xi_{\mathrm{ind}}$ -->
     <g transform="translate(259.178004 388.298117) scale(0.24 -0.24)">
      <defs>
       <path id="URWPalladioL-Ital-7a" d="M -6 140 
L 51 -32 
C 237 114 410 172 634 172 
C 794 172 973 140 1306 63 
C 1690 -32 1888 -64 2061 -64 
C 2138 -64 2195 -51 2381 0 
C 2451 395 2502 610 2573 910 
L 2432 910 
L 2291 529 
C 2253 414 2176 369 2042 369 
C 1965 369 1862 382 1728 414 
L 1613 439 
C 1402 484 1184 516 1062 516 
C 858 516 685 478 454 382 
L 2624 2812 
L 2662 3014 
L 2605 3072 
L 2458 2925 
C 2394 2861 2330 2836 2240 2836 
C 2022 2836 1690 2887 1382 2970 
L 1267 3002 
C 1088 3046 960 3072 870 3072 
C 762 3072 634 3053 480 3008 
L 275 2232 
L 410 2232 
L 602 2600 
C 710 2626 768 2632 851 2632 
C 941 2632 1011 2626 1139 2600 
C 1357 2556 1523 2536 1658 2536 
C 1888 2536 2042 2575 2253 2683 
L -6 140 
z
" transform="scale(0.015625)"/>
       <path id="URWPalladioL-Roma-2f" d="M 3322 4640 
L 2938 4640 
L 557 -768 
L 941 -768 
L 3322 4640 
z
" transform="scale(0.015625)"/>
       <path id="PazoMath-Italic-78" d="M 774 3706 
L 909 3706 
L 1101 4070 
C 1210 4094 1267 4101 1350 4101 
C 1440 4101 1510 4094 1638 4070 
C 1869 4026 2029 4007 2176 4007 
C 1882 3796 1702 3605 1702 3369 
C 1702 3248 1734 3151 1805 3069 
C 1517 3043 1101 2814 781 2527 
C 429 2214 186 1544 186 874 
C 186 262 454 -64 966 -64 
C 1114 -64 1638 0 1830 0 
C 2048 0 2157 -114 2157 -328 
C 2157 -372 2150 -409 2144 -460 
C 1990 -906 1670 -1152 1389 -1152 
C 1165 -1152 992 -982 992 -762 
C 992 -731 998 -681 1005 -624 
L 941 -598 
L 634 -813 
C 627 -857 627 -896 627 -927 
C 627 -1199 864 -1421 1152 -1421 
C 1510 -1421 1952 -1116 2240 -754 
C 2470 -467 2515 -149 2515 74 
C 2515 131 2496 181 2458 220 
C 2368 321 2182 321 2048 321 
C 1862 321 1421 264 1210 264 
C 851 264 672 520 672 1028 
C 672 1720 896 2387 1210 2630 
C 1344 2733 1510 2817 1709 2817 
C 1856 2817 1978 2778 2093 2740 
C 2150 2720 2336 2688 2394 2688 
C 2477 2688 2637 2688 2662 2695 
C 2662 2729 2707 2889 2752 2956 
C 2752 2990 2746 3010 2739 3010 
C 2400 3010 2093 3219 2093 3537 
C 2093 3885 2662 4112 2931 4214 
L 3123 4284 
L 3162 4486 
L 3104 4544 
L 2957 4397 
C 2893 4332 2829 4307 2739 4307 
C 2522 4307 2189 4358 1882 4442 
L 1766 4474 
C 1587 4519 1459 4544 1370 4544 
C 1261 4544 1133 4525 979 4481 
L 774 3706 
z
" transform="scale(0.015625)"/>
       <path id="URWPalladioL-Roma-69" d="M 1203 2993 
L 1146 3019 
C 819 2884 486 2793 147 2755 
L 147 2576 
L 384 2576 
C 640 2576 666 2531 666 2105 
L 666 651 
C 666 244 646 199 429 199 
L 134 199 
L 134 0 
C 774 0 774 0 934 0 
C 1094 0 1094 0 1734 0 
L 1734 199 
L 1440 199 
C 1222 199 1203 244 1203 651 
L 1203 2993 
z
M 909 4416 
C 717 4416 550 4249 550 4056 
C 550 3870 717 3704 902 3704 
C 1088 3704 1261 3870 1261 4056 
C 1261 4236 1088 4416 909 4416 
z
" transform="scale(0.015625)"/>
       <path id="URWPalladioL-Roma-6e" d="M 2624 -7 
C 3014 -7 3021 -7 3130 -7 
C 3219 -7 3219 -7 3661 -7 
L 3661 179 
L 3398 205 
C 3181 205 3162 244 3162 654 
L 3162 1892 
C 3162 2642 2810 3008 2093 3008 
C 1856 3008 1722 2963 1587 2847 
L 1101 2424 
L 1101 2982 
L 1043 3008 
C 717 2873 384 2783 45 2745 
L 45 2565 
L 282 2565 
C 538 2565 563 2520 563 2094 
L 563 643 
C 563 237 544 192 326 192 
L 38 192 
L 38 -7 
C 474 -7 646 -7 832 -7 
C 1018 -7 1190 -7 1626 -7 
L 1626 192 
L 1338 192 
C 1120 192 1101 237 1101 643 
L 1101 2011 
C 1101 2300 1523 2616 1914 2616 
C 2342 2616 2624 2297 2624 1806 
L 2624 -7 
z
" transform="scale(0.015625)"/>
       <path id="URWPalladioL-Roma-64" d="M 2637 2802 
C 2278 2956 2099 3008 1875 3008 
C 1702 3008 1549 2969 1389 2887 
L 826 2593 
C 461 2401 224 1935 224 1392 
C 224 881 397 460 710 204 
C 928 19 1229 -64 1645 -64 
C 1773 -64 1920 -38 1952 -13 
L 2662 583 
L 2630 -7 
C 2944 -7 3046 -7 3123 -7 
C 3174 -7 3264 -7 3398 -7 
C 3443 -7 3571 -7 3706 -7 
L 3706 192 
L 3411 192 
C 3194 192 3174 237 3174 643 
L 3174 4607 
L 3117 4659 
C 2835 4550 2624 4498 2118 4421 
L 2118 4242 
L 2477 4242 
C 2592 4242 2637 4171 2637 3978 
L 2637 2802 
z
M 2637 1424 
C 2637 1009 2624 946 2541 799 
C 2362 499 2048 302 1747 302 
C 1184 302 781 844 781 1603 
C 781 2298 1126 2706 1702 2706 
C 1946 2706 2202 2623 2426 2470 
C 2560 2381 2637 2298 2637 2246 
L 2637 1424 
z
" transform="scale(0.015625)"/>
      </defs>
      <use xlink:href="#URWPalladioL-Ital-7a" transform="scale(0.996264)"/>
      <use xlink:href="#URWPalladioL-Roma-2f" transform="translate(46.724761 0) scale(0.996264)"/>
      <use xlink:href="#PazoMath-Italic-78" transform="translate(109.588965 0) scale(0.996264)"/>
      <use xlink:href="#URWPalladioL-Roma-69" transform="translate(158.555335 -20.886626) scale(0.757155)"/>
      <use xlink:href="#URWPalladioL-Roma-6e" transform="translate(180.587856 -20.886626) scale(0.757155)"/>
      <use xlink:href="#URWPalladioL-Roma-64" transform="translate(224.653901 -20.886626) scale(0.757155)"/>
     </g>
    </g>
   </g>
   <g id="matplotlib.axis_2">
    <g id="ytick_1">
     <g id="line2d_29">
      <defs>
       <path id="mf1993599cd" d="M 0 0 
L 3 0 
" style="stroke: #000000; stroke-width: 0.5"/>
      </defs>
      <g>
       <use xlink:href="#mf1993599cd" x="40.58792" y="332.387646" style="stroke: #000000; stroke-width: 0.5"/>
      </g>
     </g>
     <g id="line2d_30">
      <defs>
       <path id="mb6092d48ec" d="M 0 0 
L -3 0 
" style="stroke: #000000; stroke-width: 0.5"/>
      </defs>
      <g>
       <use xlink:href="#mb6092d48ec" x="542.78792" y="332.387646" style="stroke: #000000; stroke-width: 0.5"/>
      </g>
     </g>
     <g id="text_6">
      <!-- 0 -->
      <g transform="translate(25.132752 340.94153) scale(0.24 -0.24)">
       <use xlink:href="#URWPalladioL-Roma-30" transform="scale(0.996264)"/>
      </g>
     </g>
    </g>
    <g id="ytick_2">
     <g id="line2d_31">
      <g>
       <use xlink:href="#mf1993599cd" x="40.58792" y="214.137593" style="stroke: #000000; stroke-width: 0.5"/>
      </g>
     </g>
     <g id="line2d_32">
      <g>
       <use xlink:href="#mb6092d48ec" x="542.78792" y="214.137593" style="stroke: #000000; stroke-width: 0.5"/>
      </g>
     </g>
     <g id="text_7">
      <!-- 0.2 -->
      <g transform="translate(7.2 222.691476) scale(0.24 -0.24)">
       <defs>
        <path id="URWPalladioL-Roma-2e" d="M 794 744 
C 602 744 429 564 429 372 
C 429 179 602 0 787 0 
C 992 0 1171 173 1171 372 
C 1171 564 992 744 794 744 
z
" transform="scale(0.015625)"/>
       </defs>
       <use xlink:href="#URWPalladioL-Roma-30" transform="scale(0.996264)"/>
       <use xlink:href="#URWPalladioL-Roma-2e" transform="translate(49.8132 0) scale(0.996264)"/>
       <use xlink:href="#URWPalladioL-Roma-32" transform="translate(74.719801 0) scale(0.996264)"/>
      </g>
     </g>
    </g>
    <g id="ytick_3">
     <g id="line2d_33">
      <g>
       <use xlink:href="#mf1993599cd" x="40.58792" y="95.88754" style="stroke: #000000; stroke-width: 0.5"/>
      </g>
     </g>
     <g id="line2d_34">
      <g>
       <use xlink:href="#mb6092d48ec" x="542.78792" y="95.88754" style="stroke: #000000; stroke-width: 0.5"/>
      </g>
     </g>
     <g id="text_8">
      <!-- 0.4 -->
      <g transform="translate(7.2 104.441423) scale(0.24 -0.24)">
       <use xlink:href="#URWPalladioL-Roma-30" transform="scale(0.996264)"/>
       <use xlink:href="#URWPalladioL-Roma-2e" transform="translate(49.8132 0) scale(0.996264)"/>
       <use xlink:href="#URWPalladioL-Roma-34" transform="translate(74.719801 0) scale(0.996264)"/>
      </g>
     </g>
    </g>
    <g id="ytick_4">
     <g id="line2d_35">
      <defs>
       <path id="m2043aecc87" d="M 0 0 
L 1.5 0 
" style="stroke: #000000; stroke-width: 0.5"/>
      </defs>
      <g>
       <use xlink:href="#m2043aecc87" x="40.58792" y="302.825133" style="stroke: #000000; stroke-width: 0.5"/>
      </g>
     </g>
     <g id="line2d_36">
      <defs>
       <path id="m4c941f65db" d="M 0 0 
L -1.5 0 
" style="stroke: #000000; stroke-width: 0.5"/>
      </defs>
      <g>
       <use xlink:href="#m4c941f65db" x="542.78792" y="302.825133" style="stroke: #000000; stroke-width: 0.5"/>
      </g>
     </g>
    </g>
    <g id="ytick_5">
     <g id="line2d_37">
      <g>
       <use xlink:href="#m2043aecc87" x="40.58792" y="273.26262" style="stroke: #000000; stroke-width: 0.5"/>
      </g>
     </g>
     <g id="line2d_38">
      <g>
       <use xlink:href="#m4c941f65db" x="542.78792" y="273.26262" style="stroke: #000000; stroke-width: 0.5"/>
      </g>
     </g>
    </g>
    <g id="ytick_6">
     <g id="line2d_39">
      <g>
       <use xlink:href="#m2043aecc87" x="40.58792" y="243.700106" style="stroke: #000000; stroke-width: 0.5"/>
      </g>
     </g>
     <g id="line2d_40">
      <g>
       <use xlink:href="#m4c941f65db" x="542.78792" y="243.700106" style="stroke: #000000; stroke-width: 0.5"/>
      </g>
     </g>
    </g>
    <g id="ytick_7">
     <g id="line2d_41">
      <g>
       <use xlink:href="#m2043aecc87" x="40.58792" y="184.57508" style="stroke: #000000; stroke-width: 0.5"/>
      </g>
     </g>
     <g id="line2d_42">
      <g>
       <use xlink:href="#m4c941f65db" x="542.78792" y="184.57508" style="stroke: #000000; stroke-width: 0.5"/>
      </g>
     </g>
    </g>
    <g id="ytick_8">
     <g id="line2d_43">
      <g>
       <use xlink:href="#m2043aecc87" x="40.58792" y="155.012566" style="stroke: #000000; stroke-width: 0.5"/>
      </g>
     </g>
     <g id="line2d_44">
      <g>
       <use xlink:href="#m4c941f65db" x="542.78792" y="155.012566" style="stroke: #000000; stroke-width: 0.5"/>
      </g>
     </g>
    </g>
    <g id="ytick_9">
     <g id="line2d_45">
      <g>
       <use xlink:href="#m2043aecc87" x="40.58792" y="125.450053" style="stroke: #000000; stroke-width: 0.5"/>
      </g>
     </g>
     <g id="line2d_46">
      <g>
       <use xlink:href="#m4c941f65db" x="542.78792" y="125.450053" style="stroke: #000000; stroke-width: 0.5"/>
      </g>
     </g>
    </g>
    <g id="ytick_10">
     <g id="line2d_47">
      <g>
       <use xlink:href="#m2043aecc87" x="40.58792" y="66.325027" style="stroke: #000000; stroke-width: 0.5"/>
      </g>
     </g>
     <g id="line2d_48">
      <g>
       <use xlink:href="#m4c941f65db" x="542.78792" y="66.325027" style="stroke: #000000; stroke-width: 0.5"/>
      </g>
     </g>
    </g>
    <g id="ytick_11">
     <g id="line2d_49">
      <g>
       <use xlink:href="#m2043aecc87" x="40.58792" y="36.762513" style="stroke: #000000; stroke-width: 0.5"/>
      </g>
     </g>
     <g id="line2d_50">
      <g>
       <use xlink:href="#m4c941f65db" x="542.78792" y="36.762513" style="stroke: #000000; stroke-width: 0.5"/>
      </g>
     </g>
    </g>
    <g id="ytick_12">
     <g id="line2d_51">
      <g>
       <use xlink:href="#m2043aecc87" x="40.58792" y="7.2" style="stroke: #000000; stroke-width: 0.5"/>
      </g>
     </g>
     <g id="line2d_52">
      <g>
       <use xlink:href="#m4c941f65db" x="542.78792" y="7.2" style="stroke: #000000; stroke-width: 0.5"/>
      </g>
     </g>
    </g>
   </g>
   <g id="line2d_53">
    <path d="M 63.415193 339.84 
L 63.415193 7.2 
" clip-path="url(#p2ff814f4a3)" style="fill: none; stroke-dasharray: 5.55,2.4; stroke-dashoffset: 0; stroke: #000000; stroke-width: 1.5"/>
   </g>
   <g id="line2d_54">
    <path d="M 63.415193 185.716734 
L 68.026763 204.508961 
L 72.638334 221.509081 
L 77.249904 236.821619 
L 81.861474 250.551382 
L 86.473044 262.802656 
L 91.084615 273.678431 
L 95.696185 283.279738 
L 100.307755 291.705016 
L 104.919325 299.049689 
L 109.530896 305.405731 
L 114.142466 310.861325 
L 118.754036 315.500615 
L 123.365606 319.403505 
L 127.977176 322.645523 
L 132.588747 325.297733 
L 137.200317 327.426702 
L 141.811887 329.094498 
L 146.423457 330.358741 
L 151.035028 331.272675 
L 155.646598 331.885269 
L 160.258168 332.24135 
L 164.869738 332.381751 
L 169.481309 332.343389 
L 174.092879 332.159645 
L 178.704449 331.860387 
L 183.316019 331.47219 
L 187.92759 331.01855 
L 192.53916 330.520082 
L 197.15073 329.994717 
L 201.7623 329.457906 
L 206.373871 328.92281 
L 210.985441 328.400491 
L 215.597011 327.900099 
L 220.208581 327.42905 
L 224.820152 326.993198 
L 229.431722 326.596988 
L 234.043292 326.243633 
L 238.654862 325.93523 
L 243.266433 325.672921 
L 247.878003 325.45701 
L 252.489573 325.28708 
L 257.101143 325.16211 
L 261.712714 325.080568 
L 266.324284 325.040508 
L 270.935854 325.039648 
L 275.547424 325.075452 
L 280.158995 325.145194 
L 284.770565 325.246014 
L 289.382135 325.374986 
L 293.993705 325.529142 
L 298.605276 325.705536 
L 303.216846 325.901261 
L 307.828416 326.113488 
L 312.439986 326.339489 
L 317.051557 326.576653 
L 321.663127 326.822506 
L 326.274697 327.074723 
L 330.886267 327.331136 
L 335.497838 327.589741 
L 340.109408 327.848697 
L 344.720978 328.106333 
L 349.332548 328.361145 
L 353.944119 328.61179 
L 358.555689 328.857088 
L 363.167259 329.09601 
L 367.778829 329.327676 
L 372.3904 329.551347 
L 377.00197 329.766413 
L 381.61354 329.972393 
L 386.22511 330.168918 
L 390.836681 330.355726 
L 395.448251 330.532654 
L 400.059821 330.699626 
L 404.671391 330.856648 
L 409.282962 331.003798 
L 413.894532 331.141215 
L 418.506102 331.269095 
L 423.117672 331.387683 
L 427.729243 331.497263 
L 432.340813 331.598155 
L 436.952383 331.690705 
L 441.563953 331.775282 
L 446.175524 331.852272 
L 450.787094 331.922073 
L 455.398664 331.985089 
L 460.010234 332.041728 
L 464.621805 332.092398 
L 469.233375 332.137503 
L 473.844945 332.17744 
L 478.456515 332.212598 
L 483.068086 332.243355 
L 487.679656 332.270078 
L 492.291226 332.293115 
L 496.902796 332.312805 
L 501.514367 332.329466 
L 506.125937 332.343403 
L 510.737507 332.354899 
L 515.349077 332.364225 
L 519.960648 332.371631 
" clip-path="url(#p2ff814f4a3)" style="fill: none; stroke: #1f77b4; stroke-width: 5; stroke-linecap: square"/>
   </g>
   <g id="line2d_55">
    <path d="M 63.415193 184.683411 
L 68.026763 203.607528 
L 72.638334 220.727027 
L 77.249904 236.147109 
L 81.861474 249.973334 
L 86.473044 262.310743 
L 91.084615 273.263027 
L 95.696185 282.931898 
L 100.307755 291.416503 
L 104.919325 298.81294 
L 109.530896 305.213816 
L 114.142466 310.707925 
L 118.754036 315.380003 
L 123.365606 319.310513 
L 127.977176 322.575508 
L 132.588747 325.246553 
L 137.200317 327.390674 
L 141.811887 329.070378 
L 146.423457 330.343686 
L 151.035028 331.264213 
L 155.646598 331.881272 
L 160.258168 332.240003 
L 164.869738 332.381577 
L 169.481309 332.343041 
L 174.092879 332.15813 
L 178.704449 331.856892 
L 183.316019 331.46608 
L 187.92759 331.009352 
L 192.53916 330.507469 
L 197.15073 329.978489 
L 201.7623 329.43797 
L 206.373871 328.899168 
L 210.985441 328.373224 
L 215.597011 327.869351 
L 220.208581 327.395019 
L 224.820152 326.956122 
L 229.431722 326.557142 
L 234.043292 326.201306 
L 238.654862 325.890734 
L 243.266433 325.626575 
L 247.878003 325.409133 
L 252.489573 325.237992 
L 257.101143 325.112124 
L 261.712714 325.029986 
L 266.324284 324.989617 
L 270.935854 324.988722 
L 275.547424 325.024747 
L 280.158995 325.094944 
L 284.770565 325.19644 
L 289.382135 325.326284 
L 293.993705 325.481489 
L 298.605276 325.659088 
L 303.216846 325.856153 
L 307.828416 326.069838 
L 312.439986 326.297393 
L 317.051557 326.536191 
L 321.663127 326.78374 
L 326.274697 327.037699 
L 330.886267 327.295885 
L 335.497838 327.556278 
L 340.109408 327.817028 
L 344.720978 328.076449 
L 349.332548 328.333028 
L 353.944119 328.585413 
L 358.555689 328.832413 
L 363.167259 329.072996 
L 367.778829 329.306272 
L 372.3904 329.531498 
L 377.00197 329.748062 
L 381.61354 329.955476 
L 386.22511 330.15337 
L 390.836681 330.34148 
L 395.448251 330.519641 
L 400.059821 330.687778 
L 404.671391 330.845897 
L 409.282962 330.994074 
L 413.894532 331.132451 
L 418.506102 331.261225 
L 423.117672 331.380643 
L 427.729243 331.49099 
L 432.340813 331.592588 
L 436.952383 331.685787 
L 441.563953 331.770957 
L 446.175524 331.848487 
L 450.787094 331.918778 
L 455.398664 331.982237 
L 460.010234 332.039275 
L 464.621805 332.090301 
L 469.233375 332.135723 
L 473.844945 332.175942 
L 478.456515 332.211348 
L 483.068086 332.242323 
L 487.679656 332.269234 
L 492.291226 332.292436 
L 496.902796 332.312265 
L 501.514367 332.329045 
L 506.125937 332.343081 
L 510.737507 332.35466 
L 515.349077 332.364052 
L 519.960648 332.371511 
" clip-path="url(#p2ff814f4a3)" style="fill: none; stroke-dasharray: 32,8,5,8; stroke-dashoffset: 0; stroke: #ff7f0e; stroke-width: 5"/>
   </g>
   <g id="line2d_56">
    <path d="M 63.415193 184.683411 
L 68.026763 203.607528 
L 72.638334 220.727027 
L 77.249904 236.147109 
L 81.861474 249.973334 
L 86.473044 262.310743 
L 91.084615 273.263027 
L 95.696185 282.931898 
L 100.307755 291.416503 
L 104.919325 298.81294 
L 109.530896 305.213816 
L 114.142466 310.707925 
L 118.754036 315.380003 
L 123.365606 319.310513 
L 127.977176 322.575508 
L 132.588747 325.246553 
L 137.200317 327.390674 
L 141.811887 329.070378 
L 146.423457 330.343686 
L 151.035028 331.264213 
L 155.646598 331.881272 
L 160.258168 332.240003 
L 164.869738 332.381577 
L 169.481309 332.343041 
L 174.092879 332.15813 
L 178.704449 331.856892 
L 183.316019 331.46608 
L 187.92759 331.009352 
L 192.53916 330.507469 
L 197.15073 329.978489 
L 201.7623 329.43797 
L 206.373871 328.899168 
L 210.985441 328.373224 
L 215.597011 327.869351 
L 220.208581 327.395019 
L 224.820152 326.956122 
L 229.431722 326.557142 
L 234.043292 326.201306 
L 238.654862 325.890734 
L 243.266433 325.626575 
L 247.878003 325.409133 
L 252.489573 325.237992 
L 257.101143 325.112124 
L 261.712714 325.029986 
L 266.324284 324.989617 
L 270.935854 324.988722 
L 275.547424 325.024747 
L 280.158995 325.094944 
L 284.770565 325.19644 
L 289.382135 325.326284 
L 293.993705 325.481489 
L 298.605276 325.659088 
L 303.216846 325.856153 
L 307.828416 326.069838 
L 312.439986 326.297393 
L 317.051557 326.536191 
L 321.663127 326.78374 
L 326.274697 327.037699 
L 330.886267 327.295885 
L 335.497838 327.556278 
L 340.109408 327.817028 
L 344.720978 328.076449 
L 349.332548 328.333028 
L 353.944119 328.585413 
L 358.555689 328.832413 
L 363.167259 329.072996 
L 367.778829 329.306272 
L 372.3904 329.531498 
L 377.00197 329.748062 
L 381.61354 329.955476 
L 386.22511 330.15337 
L 390.836681 330.34148 
L 395.448251 330.519641 
L 400.059821 330.687778 
L 404.671391 330.845897 
L 409.282962 330.994074 
L 413.894532 331.132451 
L 418.506102 331.261225 
L 423.117672 331.380643 
L 427.729243 331.49099 
L 432.340813 331.592588 
L 436.952383 331.685787 
L 441.563953 331.770957 
L 446.175524 331.848487 
L 450.787094 331.918778 
L 455.398664 331.982237 
L 460.010234 332.039275 
L 464.621805 332.090301 
L 469.233375 332.135723 
L 473.844945 332.175942 
L 478.456515 332.211348 
L 483.068086 332.242323 
L 487.679656 332.269234 
L 492.291226 332.292436 
L 496.902796 332.312265 
L 501.514367 332.329045 
L 506.125937 332.343081 
L 510.737507 332.35466 
L 515.349077 332.364052 
L 519.960648 332.371511 
" clip-path="url(#p2ff814f4a3)" style="fill: none; stroke-dasharray: 18.5,8; stroke-dashoffset: 0; stroke: #2ca02c; stroke-width: 5"/>
   </g>
   <g id="line2d_57">
    <path d="M 63.415193 183.216763 
L 68.026763 202.327792 
L 72.638334 219.616498 
L 77.249904 235.18907 
L 81.861474 249.152134 
L 86.473044 261.611708 
L 91.084615 272.672525 
L 95.696185 282.437267 
L 100.307755 291.006118 
L 104.919325 298.476041 
L 109.530896 304.940572 
L 114.142466 310.489386 
L 118.754036 315.208047 
L 123.365606 319.177805 
L 127.977176 322.475466 
L 132.588747 325.17329 
L 137.200317 327.338971 
L 141.811887 329.035627 
L 146.423457 330.321853 
L 151.035028 331.251792 
L 155.646598 331.875249 
L 160.258168 332.237816 
L 164.869738 332.381041 
L 169.481309 332.342331 
L 174.092879 332.155765 
L 178.704449 331.851718 
L 183.316019 331.457197 
L 187.92759 330.996091 
L 192.53916 330.489365 
L 197.15073 329.955258 
L 201.7623 329.409483 
L 206.373871 328.865424 
L 210.985441 328.334338 
L 215.597011 327.825527 
L 220.208581 327.346539 
L 224.820152 326.903323 
L 229.431722 326.500408 
L 234.043292 326.141056 
L 238.654862 325.827409 
L 243.266433 325.560625 
L 247.878003 325.341016 
L 252.489573 325.168162 
L 257.101143 325.041022 
L 261.712714 324.958039 
L 266.324284 324.917238 
L 270.935854 324.916298 
L 275.547424 324.952642 
L 280.158995 325.023496 
L 284.770565 325.125957 
L 289.382135 325.257044 
L 293.993705 325.413744 
L 298.605276 325.59306 
L 303.216846 325.792038 
L 307.828416 326.007799 
L 312.439986 326.23757 
L 317.051557 326.478693 
L 321.663127 326.728658 
L 326.274697 326.985097 
L 330.886267 327.245806 
L 335.497838 327.508747 
L 340.109408 327.772049 
L 344.720978 328.034011 
L 349.332548 328.293103 
L 353.944119 328.547964 
L 358.555689 328.797387 
L 363.167259 329.04033 
L 367.778829 329.275898 
L 372.3904 329.503336 
L 377.00197 329.722028 
L 381.61354 329.931481 
L 386.22511 330.131321 
L 390.836681 330.321281 
L 395.448251 330.501196 
L 400.059821 330.670989 
L 404.671391 330.830664 
L 409.282962 330.980301 
L 413.894532 331.120042 
L 418.506102 331.250086 
L 423.117672 331.370681 
L 427.729243 331.482116 
L 432.340813 331.584717 
L 436.952383 331.678835 
L 441.563953 331.764846 
L 446.175524 331.843143 
L 450.787094 331.914128 
L 455.398664 331.978214 
L 460.010234 332.035816 
L 464.621805 332.087347 
L 469.233375 332.133219 
L 473.844945 332.173835 
L 478.456515 332.209592 
L 483.068086 332.240874 
L 487.679656 332.268052 
L 492.291226 332.291484 
L 496.902796 332.31151 
L 501.514367 332.328457 
L 506.125937 332.342632 
L 510.737507 332.354326 
L 515.349077 332.363813 
L 519.960648 332.371346 
" clip-path="url(#p2ff814f4a3)" style="fill: none; stroke-dasharray: 5,8.25; stroke-dashoffset: 0; stroke: #d62728; stroke-width: 5"/>
   </g>
   <g id="patch_3">
    <path d="M 40.58792 339.84 
L 40.58792 7.2 
" style="fill: none; stroke: #000000; stroke-width: 0.5; stroke-linejoin: miter; stroke-linecap: square"/>
   </g>
   <g id="patch_4">
    <path d="M 542.78792 339.84 
L 542.78792 7.2 
" style="fill: none; stroke: #000000; stroke-width: 0.5; stroke-linejoin: miter; stroke-linecap: square"/>
   </g>
   <g id="patch_5">
    <path d="M 40.58792 339.84 
L 542.78792 339.84 
" style="fill: none; stroke: #000000; stroke-width: 0.5; stroke-linejoin: miter; stroke-linecap: square"/>
   </g>
   <g id="patch_6">
    <path d="M 40.58792 7.2 
L 542.78792 7.2 
" style="fill: none; stroke: #000000; stroke-width: 0.5; stroke-linejoin: miter; stroke-linecap: square"/>
   </g>
   <g id="legend_1">
    <g id="line2d_58">
     <path d="M 304.178475 37.507767 
L 328.178475 37.507767 
L 352.178475 37.507767 
" style="fill: none; stroke: #1f77b4; stroke-width: 5; stroke-linecap: square"/>
    </g>
    <g id="text_9">
     <!-- triplet $S=0$ -->
     <g transform="translate(371.378475 45.907767) scale(0.24 -0.24)">
      <defs>
       <path id="URWPalladioL-Roma-74" d="M 627 2476 
L 627 619 
C 627 142 838 -64 1331 -64 
C 1478 -64 1632 -32 1670 13 
L 1978 353 
L 1894 463 
C 1734 372 1638 340 1517 340 
C 1267 340 1165 470 1165 788 
L 1165 2489 
L 1984 2489 
L 2042 2816 
L 1165 2816 
L 1165 3056 
C 1165 3321 1184 3547 1235 3951 
L 1158 4021 
C 1005 3925 813 3842 614 3778 
C 634 3585 640 3463 640 3271 
L 640 2822 
L 141 2598 
L 141 2476 
L 627 2476 
z
" transform="scale(0.015625)"/>
       <path id="URWPalladioL-Roma-72" d="M 147 2565 
L 384 2565 
C 640 2565 666 2520 666 2094 
L 666 643 
C 666 237 646 192 429 192 
L 134 192 
L 134 -7 
C 595 -7 762 -7 922 -7 
C 1050 -7 1050 -7 1837 -7 
L 1837 192 
L 1504 192 
C 1216 192 1203 211 1203 638 
L 1203 1751 
C 1203 2139 1459 2463 1773 2463 
C 1965 2463 2099 2373 2202 2169 
L 2336 2169 
L 2394 2937 
C 2323 2982 2208 3008 2093 3008 
C 1901 3008 1696 2905 1562 2745 
L 1203 2322 
L 1203 2982 
L 1146 3008 
C 819 2873 486 2783 147 2745 
L 147 2565 
z
" transform="scale(0.015625)"/>
       <path id="URWPalladioL-Roma-70" d="M 64 2565 
L 301 2565 
C 557 2565 582 2520 582 2095 
L 582 -1142 
C 582 -1548 563 -1593 346 -1593 
L 51 -1593 
L 51 -1792 
C 691 -1792 691 -1792 851 -1792 
C 1011 -1792 1011 -1792 1651 -1792 
L 1651 -1593 
L 1357 -1593 
C 1139 -1593 1120 -1547 1120 -1138 
L 1120 89 
C 1312 -26 1517 -71 1805 -71 
C 1990 -71 2157 -32 2259 32 
L 2989 505 
C 3245 672 3546 1330 3546 1740 
C 3546 2451 2957 3008 2214 3008 
C 1978 3008 1747 2943 1645 2847 
L 1120 2367 
L 1120 2982 
L 1062 3008 
C 736 2873 403 2783 64 2745 
L 64 2565 
z
M 1120 1964 
C 1120 2053 1152 2124 1235 2233 
C 1421 2469 1683 2591 2003 2591 
C 2605 2591 2989 2169 2989 1504 
C 2989 787 2560 256 1984 256 
C 1632 256 1370 372 1120 633 
L 1120 1964 
z
" transform="scale(0.015625)"/>
       <path id="URWPalladioL-Roma-6c" d="M 147 4256 
L 506 4256 
C 621 4256 666 4185 666 3992 
L 666 651 
C 666 244 646 199 429 199 
L 134 199 
L 134 0 
C 774 0 774 0 934 0 
C 1094 0 1094 0 1734 0 
L 1734 199 
L 1440 199 
C 1222 199 1203 244 1203 650 
L 1203 4621 
L 1146 4673 
C 864 4564 653 4512 147 4435 
L 147 4256 
z
" transform="scale(0.015625)"/>
       <path id="URWPalladioL-Roma-65" d="M 2797 447 
L 2714 511 
C 2304 269 2157 212 1882 212 
C 1466 212 1120 398 941 711 
C 819 921 774 1101 762 1472 
L 1696 1472 
C 2138 1472 2413 1472 2854 1544 
C 2861 1634 2867 1693 2867 1771 
C 2867 2520 2394 3008 1677 3008 
C 1440 3008 1165 2924 902 2770 
C 378 2469 166 2071 166 1404 
C 166 1000 262 654 435 410 
C 691 71 1120 -128 1600 -128 
C 1837 -128 2074 -77 2336 37 
C 2509 108 2643 191 2669 230 
L 2797 447 
z
M 2298 1690 
C 1965 1690 1811 1690 1581 1690 
C 1286 1690 1120 1690 774 1722 
C 774 2027 800 2169 883 2337 
C 1018 2622 1293 2796 1600 2796 
C 1811 2796 1978 2711 2093 2534 
C 2234 2319 2278 2129 2298 1690 
z
" transform="scale(0.015625)"/>
       <path id="URWPalladioL-Ital-53" d="M 2886 3404 
L 3078 3404 
C 3104 3747 3149 3990 3238 4263 
C 2950 4417 2694 4480 2394 4480 
C 1926 4480 1440 4283 1101 3940 
C 826 3678 691 3354 691 2985 
C 691 2444 934 2144 1472 2017 
L 2080 1871 
C 2426 1789 2598 1566 2598 1203 
C 2598 598 2144 178 1485 178 
C 1139 178 896 255 614 452 
L 614 1082 
L 422 1082 
C 384 732 339 446 269 114 
C 582 -45 922 -128 1261 -128 
C 2253 -128 3104 617 3104 1476 
C 3104 1979 2829 2246 2182 2387 
L 1766 2475 
C 1344 2564 1152 2800 1152 3220 
C 1152 3774 1581 4174 2170 4174 
C 2483 4174 2694 4092 2886 3888 
L 2886 3404 
z
" transform="scale(0.015625)"/>
       <path id="CMR10-3d" d="M 4397 2048 
C 4493 2048 4614 2048 4614 2177 
C 4614 2305 4493 2305 4403 2305 
L 570 2305 
C 480 2305 358 2305 358 2177 
C 358 2048 480 2048 576 2048 
L 4397 2048 
z
M 4403 832 
C 4493 832 4614 832 4614 961 
C 4614 1089 4493 1089 4397 1089 
L 576 1089 
C 480 1089 358 1089 358 961 
C 358 832 480 832 570 832 
L 4403 832 
z
" transform="scale(0.015625)"/>
      </defs>
      <use xlink:href="#URWPalladioL-Roma-74" transform="scale(0.996264)"/>
      <use xlink:href="#URWPalladioL-Roma-72" transform="translate(32.477088 0) scale(0.996264)"/>
      <use xlink:href="#URWPalladioL-Roma-69" transform="translate(71.828984 0) scale(0.996264)"/>
      <use xlink:href="#URWPalladioL-Roma-70" transform="translate(100.819346 0) scale(0.996264)"/>
      <use xlink:href="#URWPalladioL-Roma-6c" transform="translate(160.693739 0) scale(0.996264)"/>
      <use xlink:href="#URWPalladioL-Roma-65" transform="translate(189.684101 0) scale(0.996264)"/>
      <use xlink:href="#URWPalladioL-Roma-74" transform="translate(237.404396 0) scale(0.996264)"/>
      <use xlink:href="#URWPalladioL-Ital-53" transform="translate(296.033384 0) scale(0.996264)"/>
      <use xlink:href="#CMR10-3d" transform="translate(381.590277 0) scale(1.038107)"/>
      <use xlink:href="#URWPalladioL-Roma-30" transform="translate(491.205906 0) scale(0.996264)"/>
     </g>
    </g>
    <g id="line2d_59">
     <path d="M 304.178475 73.358117 
L 328.178475 73.358117 
L 352.178475 73.358117 
" style="fill: none; stroke-dasharray: 32,8,5,8; stroke-dashoffset: 0; stroke: #ff7f0e; stroke-width: 5"/>
    </g>
    <g id="text_10">
     <!-- triplet $S=+1$ -->
     <g transform="translate(371.378475 81.758117) scale(0.24 -0.24)">
      <defs>
       <path id="CMR10-2b" d="M 2618 1472 
L 4403 1472 
C 4493 1472 4614 1472 4614 1600 
C 4614 1729 4493 1729 4403 1729 
L 2618 1729 
L 2618 3532 
C 2618 3622 2618 3744 2490 3744 
C 2362 3744 2362 3622 2362 3532 
L 2362 1729 
L 570 1729 
C 480 1729 358 1729 358 1600 
C 358 1472 480 1472 570 1472 
L 2362 1472 
L 2362 -331 
C 2362 -421 2362 -544 2490 -544 
C 2618 -544 2618 -421 2618 -331 
L 2618 1472 
z
" transform="scale(0.015625)"/>
       <path id="URWPalladioL-Roma-31" d="M 429 3584 
L 493 3584 
L 1318 3956 
C 1325 3962 1331 3962 1338 3962 
C 1376 3962 1389 3905 1389 3751 
L 1389 613 
C 1389 276 1318 205 973 205 
L 614 205 
L 614 0 
C 1600 0 1600 0 1670 0 
C 1754 0 1894 0 2112 0 
C 2189 0 2413 0 2675 0 
L 2675 205 
L 2342 205 
C 1990 205 1926 276 1926 612 
L 1926 4443 
L 1837 4475 
C 1421 4257 966 4065 384 3860 
L 429 3584 
z
" transform="scale(0.015625)"/>
      </defs>
      <use xlink:href="#URWPalladioL-Roma-74" transform="scale(0.996264)"/>
      <use xlink:href="#URWPalladioL-Roma-72" transform="translate(32.477088 0) scale(0.996264)"/>
      <use xlink:href="#URWPalladioL-Roma-69" transform="translate(71.828984 0) scale(0.996264)"/>
      <use xlink:href="#URWPalladioL-Roma-70" transform="translate(100.819346 0) scale(0.996264)"/>
      <use xlink:href="#URWPalladioL-Roma-6c" transform="translate(160.693739 0) scale(0.996264)"/>
      <use xlink:href="#URWPalladioL-Roma-65" transform="translate(189.684101 0) scale(0.996264)"/>
      <use xlink:href="#URWPalladioL-Roma-74" transform="translate(237.404396 0) scale(0.996264)"/>
      <use xlink:href="#URWPalladioL-Ital-53" transform="translate(296.033384 0) scale(0.996264)"/>
      <use xlink:href="#CMR10-3d" transform="translate(381.590277 0) scale(1.038107)"/>
      <use xlink:href="#CMR10-2b" transform="translate(492.451205 0) scale(1.038107)"/>
      <use xlink:href="#URWPalladioL-Roma-31" transform="translate(574.392902 0) scale(0.996264)"/>
     </g>
    </g>
    <g id="line2d_60">
     <path d="M 304.178475 109.208467 
L 328.178475 109.208467 
L 352.178475 109.208467 
" style="fill: none; stroke-dasharray: 18.5,8; stroke-dashoffset: 0; stroke: #2ca02c; stroke-width: 5"/>
    </g>
    <g id="text_11">
     <!-- triplet $S=-1$ -->
     <g transform="translate(371.378475 117.608467) scale(0.24 -0.24)">
      <defs>
       <path id="CMSY10-0" d="M 4218 1472 
C 4326 1472 4442 1472 4442 1600 
C 4442 1728 4326 1728 4218 1728 
L 755 1728 
C 646 1728 531 1728 531 1600 
C 531 1472 646 1472 755 1472 
L 4218 1472 
z
" transform="scale(0.015625)"/>
      </defs>
      <use xlink:href="#URWPalladioL-Roma-74" transform="scale(0.996264)"/>
      <use xlink:href="#URWPalladioL-Roma-72" transform="translate(32.477088 0) scale(0.996264)"/>
      <use xlink:href="#URWPalladioL-Roma-69" transform="translate(71.828984 0) scale(0.996264)"/>
      <use xlink:href="#URWPalladioL-Roma-70" transform="translate(100.819346 0) scale(0.996264)"/>
      <use xlink:href="#URWPalladioL-Roma-6c" transform="translate(160.693739 0) scale(0.996264)"/>
      <use xlink:href="#URWPalladioL-Roma-65" transform="translate(189.684101 0) scale(0.996264)"/>
      <use xlink:href="#URWPalladioL-Roma-74" transform="translate(237.404396 0) scale(0.996264)"/>
      <use xlink:href="#URWPalladioL-Ital-53" transform="translate(296.033384 0) scale(0.996264)"/>
      <use xlink:href="#CMR10-3d" transform="translate(381.590277 0) scale(1.038107)"/>
      <use xlink:href="#CMSY10-0" transform="translate(492.451205 0) scale(1.038107)"/>
      <use xlink:href="#URWPalladioL-Roma-31" transform="translate(574.392902 0) scale(0.996264)"/>
     </g>
    </g>
    <g id="line2d_61">
     <path d="M 304.178475 145.058817 
L 328.178475 145.058817 
L 352.178475 145.058817 
" style="fill: none; stroke-dasharray: 5,8.25; stroke-dashoffset: 0; stroke: #d62728; stroke-width: 5"/>
    </g>
    <g id="text_12">
     <!-- singlet $S=0$ -->
     <g transform="translate(371.378475 153.458817) scale(0.24 -0.24)">
      <defs>
       <path id="URWPalladioL-Roma-73" d="M 262 917 
C 262 475 243 282 192 26 
C 525 -83 774 -128 1069 -128 
C 1907 -128 2502 321 2502 949 
C 2502 1148 2445 1295 2323 1424 
C 2157 1584 1946 1661 1382 1770 
C 858 1873 685 2001 685 2296 
C 685 2616 909 2796 1299 2796 
C 1728 2796 2054 2572 2054 2270 
L 2054 2123 
L 2234 2123 
C 2240 2495 2246 2648 2266 2847 
C 1926 2963 1696 3008 1434 3008 
C 691 3008 237 2655 237 2078 
C 237 1770 378 1552 672 1417 
C 845 1340 1184 1238 1619 1141 
C 1907 1077 2029 943 2029 699 
C 2029 353 1709 109 1254 109 
C 787 109 454 333 454 654 
L 454 917 
L 262 917 
z
" transform="scale(0.015625)"/>
       <path id="URWPalladioL-Roma-67" d="M 3322 2432 
L 3482 2695 
L 3456 2759 
L 2547 2759 
C 2310 2937 2080 3008 1766 3008 
C 1485 3008 1158 2920 896 2768 
C 538 2567 352 2258 352 1874 
C 352 1408 646 1087 1120 1036 
L 614 640 
C 550 543 518 459 518 361 
C 518 180 634 76 941 -14 
L 384 -316 
C 294 -367 205 -604 205 -803 
C 205 -1388 774 -1792 1587 -1792 
C 2554 -1792 3315 -1182 3315 -399 
C 3315 63 3008 384 2560 384 
L 1536 384 
C 1203 384 1050 462 1050 639 
C 1050 724 1101 795 1267 939 
C 1306 972 1318 985 1344 1011 
C 1408 1004 1446 998 1498 998 
C 1773 998 2112 1118 2374 1300 
C 2662 1507 2803 1759 2803 2093 
C 2803 2218 2784 2300 2733 2432 
L 3322 2432 
z
M 1536 2790 
C 1971 2790 2266 2438 2266 1905 
C 2266 1499 1997 1216 1606 1216 
C 1178 1216 890 1542 890 2025 
C 890 2507 1126 2790 1536 2790 
z
M 1837 -65 
C 2560 -65 2810 -212 2810 -630 
C 2810 -1182 2304 -1593 1632 -1593 
C 1075 -1593 691 -1266 691 -790 
C 691 -502 858 -238 1114 -129 
C 1216 -78 1395 -65 1837 -65 
z
" transform="scale(0.015625)"/>
      </defs>
      <use xlink:href="#URWPalladioL-Roma-73" transform="scale(0.996264)"/>
      <use xlink:href="#URWPalladioL-Roma-69" transform="translate(42.241466 0) scale(0.996264)"/>
      <use xlink:href="#URWPalladioL-Roma-6e" transform="translate(71.231828 0) scale(0.996264)"/>
      <use xlink:href="#URWPalladioL-Roma-67" transform="translate(129.213888 0) scale(0.996264)"/>
      <use xlink:href="#URWPalladioL-Roma-6c" transform="translate(184.605565 0) scale(0.996264)"/>
      <use xlink:href="#URWPalladioL-Roma-65" transform="translate(213.595927 0) scale(0.996264)"/>
      <use xlink:href="#URWPalladioL-Roma-74" transform="translate(261.316222 0) scale(0.996264)"/>
      <use xlink:href="#URWPalladioL-Ital-53" transform="translate(319.94521 0) scale(0.996264)"/>
      <use xlink:href="#CMR10-3d" transform="translate(405.502103 0) scale(1.038107)"/>
      <use xlink:href="#URWPalladioL-Roma-30" transform="translate(515.117732 0) scale(0.996264)"/>
     </g>
    </g>
   </g>
  </g>
 </g>
 <defs>
  <clipPath id="p2ff814f4a3">
   <rect x="40.58792" y="7.2" width="502.2" height="332.64"/>
  </clipPath>
 </defs>
</svg>
